<?xml version="1.0" encoding="UTF-8"?><svg id="Layer_1" xmlns="http://www.w3.org/2000/svg" viewBox="0 0 500 338.35"><defs><style>.cls-1{fill:#e4dac7;}.cls-1,.cls-2{stroke-width:0px;}.cls-2{fill:#e7e0d5;}</style></defs><path class="cls-1" d="M446.43,73.02c-2.01,0-3.9-.98-5.06-2.63l-16.17-23.03c-1.09-1.54-1.41-3.49-.87-5.3.54-1.81,1.87-3.28,3.62-3.98l40.99-16.48c2.49-1,5.33-.28,7.05,1.77,1.71,2.06,1.91,4.98.49,7.25l-24.81,39.51c-1.1,1.75-3,2.84-5.07,2.89h-.16ZM439.79,46.64l6.35,9.05,9.75-15.52-16.1,6.47Z"/><path class="cls-1" d="M310.96,111.59l-5.04-11.28c7.2-3.22,13.22-13.1,15.24-17.22,11.26-42.17,39.35-55.54,40.55-56.09,37.86-19.16,71.32,10.96,72.72,12.26l-8.36,9.1,4.18-4.55-4.17,4.56c-1.16-1.05-28.63-25.63-59-10.24-1.16.56-24.52,11.99-34.12,48.67-.1.36-.22.69-.37,1.03-.84,1.82-8.58,17.93-21.63,23.77Z"/><path class="cls-1" d="M366.16,148.44c-1.69,0-3.37-.69-4.59-2.04-.48-.53-48.37-52.85-114.27-47.61-.3.02-.62.02-.94,0l-202.08-14.76c6.97,6.7,15.06,12.74,20.78,13.01l176.16,18.58c3.4.36,5.86,3.4,5.5,6.79-.36,3.4-3.49,5.85-6.79,5.5l-175.8-18.55c-17.12-.8-37.45-25.92-39.72-28.78-1.52-1.92-1.76-4.56-.62-6.73,1.15-2.17,3.46-3.48,5.91-3.26l217.09,15.86c71.92-5.42,121.85,49.36,123.95,51.7,2.27,2.53,2.07,6.44-.46,8.72-1.18,1.06-2.66,1.58-4.13,1.58Z"/><path class="cls-1" d="M286.26,228.7c-.46,0-.92-.05-1.39-.16-10.53-2.41-30-12.08-32.04-31.76-4.17-3.31-11.9-10.65-14.19-21.03-1.3-5.92-.69-11.84,1.83-17.68-4.39-3.25-10.09-8.8-11.83-16.63-1.73-7.76.68-15.7,7.17-23.6,2.15-2.63,6.05-3.03,8.69-.85,2.64,2.16,3.02,6.06.85,8.69-3.93,4.79-5.5,9.18-4.66,13.03,1.29,5.92,8.1,10.4,10.61,11.63,1.59.77,2.78,2.2,3.25,3.89.48,1.7.21,3.53-.74,5.01-10.47,16.27,6.39,27.81,8.34,29.07,1.76,1.13,2.84,3.09,2.85,5.18.09,17.5,21.72,22.8,22.64,23.02,3.31.78,5.38,4.1,4.61,7.41-.66,2.85-3.2,4.78-6,4.78Z"/><path class="cls-1" d="M248.62,162.09c-.23,0-.46-.01-.69-.04l-147.98-16.6c-29.37-1.38-39.91-27.82-41.33-41.6-.34-3.4,2.12-6.43,5.51-6.78,3.45-.28,6.42,2.12,6.78,5.5.14,1.25,3.54,29.31,30.02,30.56l148.37,16.63c3.39.38,5.83,3.44,5.45,6.83-.36,3.16-3.03,5.49-6.14,5.49Z"/><path class="cls-1" d="M247.42,187.52c-.24,0-.48-.01-.72-.04l-124.87-14.65c-9.56-.45-17.11-3.9-22.03-10.2-7.96-10.22-5.32-23.95-5.21-24.53.68-3.35,3.9-5.55,7.27-4.84,3.34.67,5.5,3.91,4.85,7.24h0c-.02.09-1.62,8.89,2.87,14.59,2.61,3.31,7.07,5.13,13.26,5.44l125.29,14.69c3.39.4,5.82,3.47,5.42,6.85-.37,3.14-3.04,5.46-6.13,5.46Z"/><path class="cls-1" d="M263.45,214.18c-.19,0-.39,0-.59-.03l-122.3-11.6c-22.68-2.21-31.87-24.11-33.57-35.39-.51-3.37,1.82-6.52,5.19-7.03,3.4-.45,6.51,1.82,7.02,5.18.16.98,3.87,23.13,22.54,24.95l122.29,11.6c3.4.32,5.89,3.34,5.56,6.73-.3,3.2-2.99,5.59-6.14,5.59Z"/><path class="cls-1" d="M297.66,241.33c-.1,0-.2,0-.3,0l-111.4-5.27c-33.07-.37-47.73-25.16-50.82-38.22-.79-3.32,1.26-6.65,4.59-7.43,3.31-.8,6.63,1.25,7.43,4.56h0c.29,1.16,7.38,28.39,39.17,28.75l111.62,5.28c3.41.16,6.05,3.06,5.88,6.46-.16,3.31-2.89,5.89-6.17,5.89Z"/><path class="cls-1" d="M274.3,294.39c-18.93,0-40.02-2.85-63.02-8.55-18.75-4.64-36.61-18.27-43.27-23.77l-90.79,28.04c-21.7,5.45-38.39,4.33-49.94-3.22-10.94-7.15-12.94-17.27-13.13-18.41-.52-3.12,1.39-6.14,4.43-6.98l145.25-40.45c3.28-.92,6.7,1,7.61,4.29.92,3.29-1,6.7-4.29,7.61l-138.41,38.55c1.21,1.71,2.98,3.6,5.57,5.23,8.45,5.33,22.13,5.85,39.58,1.49l93.73-28.96c2.1-.66,4.34-.14,5.95,1.31.21.18,20.5,18.29,40.68,23.28,31.7,7.85,59.39,10.08,82.3,6.61,37.7-5.71,72.94-26.23,99.26-57.79,59.6-71.49,44.72-153.84,44.56-154.67-.64-3.35,1.56-6.58,4.9-7.23,3.3-.69,6.59,1.54,7.23,4.89.69,3.59,16.27,88.78-47.2,164.92-28.25,33.88-66.21,55.93-106.9,62.08-7.58,1.15-15.62,1.72-24.09,1.72Z"/><path class="cls-1" d="M87.44,312.84c-18.79,0-33.46-13.1-39.63-21.98-1.95-2.81-1.25-6.65,1.54-8.6,2.82-1.94,6.64-1.25,8.59,1.53.75,1.06,17.73,24.65,42.03,13.91.19-.08.4-.16.6-.23l86.5-27.9c3.24-1.02,6.73.74,7.78,3.99,1.04,3.25-.74,6.73-3.99,7.78l-86.2,27.8c-6.02,2.61-11.79,3.7-17.22,3.7Z"/><path class="cls-1" d="M133.77,326.4c-18.12,0-31.26-11.78-36.46-19.65-1.88-2.85-1.09-6.68,1.76-8.56,2.84-1.86,6.67-1.09,8.55,1.74.62.92,14.34,20.62,38.03,11.84l88.35-29.34c3.22-1.06,6.73.68,7.81,3.92,1.07,3.24-.68,6.74-3.92,7.81l-88.15,29.27c-5.66,2.09-11.01,2.98-15.98,2.98Z"/><path class="cls-1" d="M268.89,99.05c-.78,0-1.58-.15-2.35-.46l-82.85-34.13c-16.64-5.72-27.67-14.43-32.45-25.77-5.57-13.23-.19-24.89.04-25.38,1.3-2.75,4.42-4.16,7.33-3.28,135.79,39.9,170.97,69.3,172.4,70.53,2.59,2.23,2.88,6.12.65,8.71-2.23,2.58-6.12,2.86-8.69.67-.52-.43-34.82-28.4-161.77-66.26-.32,2.8-.18,6.49,1.51,10.4,3.41,7.88,11.93,14.21,25.35,18.84l83.2,34.26c3.16,1.3,4.66,4.91,3.36,8.07-.98,2.38-3.29,3.83-5.71,3.83Z"/><path class="cls-1" d="M165.77,84.98c-1.54,0-3.09-.57-4.29-1.73-7.78-7.51-11.17-15.16-10.06-22.72,1.6-10.85,11.78-16.38,12.93-16.97,3.02-1.57,6.76-.37,8.32,2.66,1.56,3.02.38,6.73-2.62,8.3-.18.1-5.76,3.25-6.41,7.86-.59,4.22,3.17,8.84,6.42,11.98,2.46,2.37,2.53,6.28.16,8.74-1.21,1.25-2.83,1.89-4.45,1.89Z"/><circle class="cls-2" cx="400.15" cy="66.41" r="10.52"/><path class="cls-1" d="M400.17,80.02c-.22,0-.45,0-.66-.02-3.63-.17-6.98-1.74-9.42-4.43-2.45-2.68-3.7-6.17-3.53-9.8h0c.36-7.5,6.85-13.36,14.24-12.95,3.63.17,6.98,1.75,9.42,4.44,2.45,2.69,3.7,6.17,3.52,9.8-.17,3.63-1.74,6.98-4.43,9.42-2.53,2.3-5.75,3.54-9.14,3.54ZM392.72,66.06c-.09,1.98.6,3.89,1.93,5.35,1.34,1.47,3.16,2.33,5.15,2.43,1.92.08,3.89-.6,5.35-1.92,1.47-1.34,2.33-3.16,2.43-5.15.09-1.98-.59-3.89-1.92-5.36-1.34-1.47-3.17-2.33-5.15-2.43-4.13,0-7.58,2.98-7.78,7.08h0Z"/><circle class="cls-2" cx="279.05" cy="138.15" r="10.52"/><path class="cls-1" d="M279.07,151.76c-.22,0-.45,0-.66-.02-7.5-.36-13.31-6.75-12.95-14.24h0c.17-3.63,1.74-6.98,4.43-9.42,2.69-2.45,6.28-3.73,9.8-3.52,3.63.17,6.98,1.74,9.42,4.43,2.45,2.68,3.7,6.17,3.53,9.8-.17,3.63-1.75,6.98-4.43,9.43-2.53,2.3-5.75,3.54-9.14,3.54ZM279.04,130.72c-1.85,0-3.61.68-4.99,1.93-1.47,1.34-2.33,3.16-2.43,5.15h0c-.19,4.1,2.98,7.58,7.07,7.78,2.1.08,3.89-.59,5.35-1.93,1.47-1.33,2.33-3.17,2.43-5.15.09-1.98-.6-3.89-1.93-5.35-1.34-1.47-3.16-2.33-5.15-2.43-.12,0-.24,0-.36,0Z"/><circle class="cls-2" cx="288.82" cy="168.34" r="10.52"/><path class="cls-1" d="M288.84,181.95c-.22,0-.45,0-.66-.02-3.63-.17-6.98-1.74-9.42-4.43-2.45-2.69-3.7-6.17-3.52-9.8h0c.17-3.63,1.74-6.99,4.43-9.43,2.68-2.45,6.27-3.73,9.8-3.52,7.49.36,13.3,6.75,12.95,14.24-.17,3.63-1.75,6.98-4.44,9.42-2.52,2.3-5.74,3.54-9.13,3.54ZM288.8,160.91c-1.85,0-3.61.68-4.98,1.93-1.47,1.34-2.33,3.17-2.43,5.15h0c-.09,1.98.59,3.89,1.92,5.35,1.34,1.47,3.16,2.33,5.15,2.43,1.89.1,3.89-.6,5.36-1.92,1.47-1.34,2.33-3.17,2.43-5.15.19-4.1-2.99-7.58-7.08-7.78-.13,0-.25,0-.37,0Z"/><circle class="cls-2" cx="308.72" cy="192.83" r="10.52"/><path class="cls-1" d="M308.75,206.44c-.22,0-.45,0-.66-.02-3.63-.17-6.98-1.74-9.42-4.43-2.45-2.69-3.7-6.17-3.52-9.8h0c.17-3.63,1.74-6.98,4.43-9.42,2.68-2.45,6.11-3.76,9.8-3.53,7.49.36,13.31,6.75,12.95,14.24-.17,3.63-1.75,6.98-4.44,9.42-2.52,2.3-5.74,3.54-9.13,3.54ZM308.72,185.39c-1.85,0-3.61.68-5,1.94-1.47,1.34-2.33,3.16-2.43,5.15h0c-.09,1.98.59,3.89,1.92,5.35,1.34,1.47,3.16,2.33,5.15,2.43,1.91.07,3.89-.6,5.36-1.92,1.47-1.34,2.33-3.17,2.43-5.15.19-4.1-2.99-7.58-7.08-7.78-.12,0-.24,0-.36,0Z"/></svg>