<?xml version="1.0" encoding="UTF-8"?><svg id="Layer_1" xmlns="http://www.w3.org/2000/svg" xmlns:xlink="http://www.w3.org/1999/xlink" viewBox="0 0 475.39 552.3"><defs><style>.cls-1{clip-path:url(#clippath);}.cls-2{fill:none;}.cls-2,.cls-3{stroke-width:0px;}.cls-3{fill:#b98660;}</style><clipPath id="clippath"><rect class="cls-2" x="27" y="16.6" width="422.48" height="519.62"/></clipPath></defs><g class="cls-1"><path class="cls-3" d="M235.39,380.08c-.4,6.96-4.38,10.16-9,11.95-7.85,3.04-9.08,8.65-7.68,15.85.36,1.83.68,3.66,1.03,5.49q1.26,6.55,6.68,2.62c6.11-4.44,8.74-5.56,12.46-5.18-.54.59-.9,1.18-1.42,1.53-16.78,11.37-29.08,25.31-28.37,47.29.14,4.31-2.95,7.25-6.92,9.29-4.05,2.08-8.2,1.34-12.65,1.08q3.25,3.26-.57,7.56c3.52-3.15,4.51.78,6.59,1.39,7.33,2.16,14.96,1.84,22.55,1.9,3.41.03,6.41-1.59,9.8-1.8,1.45-.09.06-4.31,1.01-6.52.61-1.4,1.15-2.81,1.72-4.23,5.89-14.8,20.06-17.56,32.71-22.56-2.04,3.48-5.13,5.71-8.6,7.49-5.84,3-6.04,4.33-1.24,8.82.62.58,1.35,1.03,1.97,1.6,1.47,1.34,3.83,2.45,3.35,4.71-.54,2.53-3.36,2.43-5.37,3.16-2.27.81-5.19.15-6.72,2.88,1.61,1.17,4.17-1.67,4.54.22.94,4.85,7.02-1.11,7.38,3.93,3.35-2.76,7.57-.52,11.26-2.05,6.52-2.71,10.98-13.48,6.5-17.55-4.91-4.45-3.62-10.19-4.63-15.48-.16-.85.3-1.52,1.07-2.1,4.47-3.36,4.79-5.34.87-9.3-2.35-2.37-3.28-5.08-3.49-8.17-.65-9.24-2.81-18.02-7.09-26.3-2.18-4.21-.34-13.71,3.41-16.08,2.24-1.42,2.57-2.82,2.31-4.93-.22-1.73-.21-3.47.71-4.94,7.17-11.42,6.42-23.91,5.08-36.5-.38-3.55-.72-7.05,1.72-10.22,1.17-1.53,1.63-3.96.2-5.22-2.92-2.57-8.42,1.18-10.67-3.93-.06-.14-1.4-.02-1.83.35-2.91,2.53-6.11,1.26-9.23.79-2.53-.38-5.22-1.2-7.37.51-2.68,2.12-5.62,1.98-8.67,2.02-2.29.03-4.65-.47-7.78.79,5.75,2.03,1.67,3.68.42,5.23,1.41,1.63,3.07,1.15,4.48,1.35,3.21.46,5.1,2.53,6.56,5.08.85,1.5,1.26,3.31.22,4.84-.99,1.46-2.74,1.09-4.23.94-.99-.1-1.95-.54-2.94-.73-1.04-.2-2.49-1.4-2.99.32-.4,1.4.64,2.51,2.14,2.97,1.77.55,3.68.88,5.26,1.77,2.81,1.58,3.84,3.42.05,5.32-2.87,1.44-6.37,2.49-8.29,4.8-4.91,5.91-9.74,3.54-14.82.91-1.65-.86-3.25-1.84-4.82-2.84-6.7-4.29-7.49-8.05-3.06-14.74,1.14-1.72,2.32-3.37,2.11-5.57-.08-.83-.39-2.39-.83-2.13-4.02,2.41-3.84-2.63-6.19-3.45-1.27,7.18-3.22.16-4.79.28-1.28,1.24,2.78,7.05-3.42,3.78-.97-.51-1.02.59-.79,1.21,1.44,3.8-1.71,2.98-3.17,3.25-.52,5.36,3.58,9.08,4.03,13.93.51,5.58,4.81,8.8,7.84,12.77,4.1,5.36,8.58,10.26,16.36,6.26.06-.04.26.19,1.12.85-5.64,4.44-10.99,8.96-16.66,13.03-5.51,3.95-10.73,2.35-13.68-3.8-.83-1.74-1.94-4.24-3.69-3.46-2.5,1.11-5.45.32-7.75,2.14,1.44,1.51,4.61.85,4.61,3.51,0,2.34-3.16.39-4.01,2.55,6.15,2.39-.08,3.38-1.28,5.51,4.72-.6,3.76,3.99,5.48,4.94,4.46,2.47,9.04,5.19,14.82,3.96,12.67-2.69,25.66-4.39,36.31-14.94M240.48,536.21c-10.89-.15-19.21-2.42-27.38-5.31-25.32-8.95-47.98-22.88-70.09-37.74-22.95-15.43-45.23-31.77-63.99-52.36-3.88-4.25-7.39-8.84-11.16-13.19-2.08-2.4-1.88-4.22.4-6.49,55.26-54.99,110.48-110,165.59-165.13,3.44-3.45,5.45-2.96,8.6.19,54.85,54.94,109.77,109.81,164.79,164.58,3.13,3.11,3.04,5.04.36,8.4-16.77,21.01-37.14,38-58.88,53.5-18.52,13.19-37.56,25.54-57.68,36.16-12.79,6.75-26.05,12.26-40.12,15.74-4.13,1.02-8.29,1.76-10.44,1.64"/><path class="cls-3" d="M233.83,70.35c.2,10.75-.3,11.39-8.94,10.67-11.96-1-24.08-.76-35.8-3.97-1.18-.32-2.55-.73-3.25.47-1.33,2.33-2.59,4.76-3.45,7.29-.81,2.38,1.78,3.82,2.29,5.95,1.22,5.1,5,2.41,7.88,2.36,1.01-.02,2.01-.29,3.02-.46,10.71-1.75,21.49-2.89,32.34-3.26,3.3-.11,6.72-.1,6.46,4.85-.78,14.56-2.23,29.04-5.04,43.36-.56,2.81-1.59,5.7-1.37,8.47.3,3.76,4.64,2.64,6.76,4.37.65.53,1.25,1.14,1.89,1.7,1.05.91,2.25,1.04,3.16-.02,1.65-1.92,3.89-2.57,6.15-3.33,1.8-.6,2.78-1.88,2.26-3.93-4.03-15.72-3.91-31.89-5.29-47.9-.58-6.75.34-7.85,7.12-7.57,11.01.46,21.99,1.5,32.82,3.52,4.88.91,7.8.75,10.77-4.59,2.6-4.67-1.59-5.92-1.85-8.87-.22-2.47-1.96-3.04-4.49-2.36-12.39,3.3-25.18,3.03-37.83,3.96-5.96.44-7.13-.97-6.54-7.14.8-8.26,1.41-16.56,2.91-24.7.95-5.18.28-7.93-4.86-10.68-4.72-2.53-6.25,1.88-9.43,2.35-2.6.38-1.56,3.22-1.21,5.18,1.55,8.67,3.09,17.34,3.5,24.28M238.75,16.84h175.99c1.53,0,3.06-.07,4.57.06.78.06,1.86.25,2.23.78.74,1.07-.42,1.79-1.04,2.53-.44.52-.94.97-1.42,1.46-58.29,58.23-116.58,116.47-174.88,174.7-5.48,5.47-5.52,5.42-10.93.03C175.34,138.52,117.4,80.64,59.52,22.72c-1.45-1.45-4.41-2.71-3.42-5,.81-1.86,3.7-.85,5.65-.85,59-.04,118-.04,177-.04"/><path class="cls-3" d="M374.89,186.87c3.22,0,6.44.06,9.66-.02,1.46-.03,3.44.3,3.78-1.67.36-2.04-1.63-2.47-3.04-2.67-3.44-.51-6.54-1.35-8.86-4.27-.89-1.12-2.82-1.11-3.69.02-2.29,2.98-5.45,3.72-8.85,4.27-1.32.22-2.81.88-2.47,2.65.33,1.74,1.96,1.65,3.29,1.67,3.39.06,6.78.02,10.17.03M382.63,159.96c-2.98,4.57-8.79,6.33-7.55,12.93,3.32-4.97,8.26-7.12,12.24-10.45,5.34-4.46,7.25-15.77,3.42-22.08.5,5.47-2.75,8.38-6.5,10.89-2.81,1.87-5.89,3.35-8.58,5.37-2.48,1.86-4.89,4.06-3.84,8.7,2.95-3.38,6.21-4.78,10.81-5.35M374.29,276.4c8.63.24,17.24-.03,25.77-1.46,1.68-.28,4.26-.29,4.06-2.87-.21-2.67-2.47-3.35-4.86-3.38-.51,0-1.01.08-1.51.16-15.48,2.23-30.97,2.25-46.45-.03-2.66-.39-5.67-.5-6.14,2.72-.57,3.87,3.21,3.27,5.38,3.62,7.86,1.27,15.8,1.49,23.75,1.25M352.96,234.79c2.51,2.71,5.4,4.99,8.46,7.09,6.44,4.43,6.02,10.93-1.02,14.13-2.88,1.31-5.03,3.39-7.45,5.2-.95.71-2.05,1.45-1.56,2.87.45,1.32,1.76,1.6,2.9,1.73,3.7.43,7.42.64,11.12,1.05,9.68,1.08,19.29-.18,28.9-.93,1.45-.11,3.28-.33,3.6-2.21.28-1.62-1.33-2.19-2.32-3.05-2.17-1.89-4.43-3.54-7.1-4.81-6.09-2.89-6.8-8.64-1.68-13.05,3.13-2.69,6.81-4.7,9.69-8.18.63,4.12,1.23,5.34,2.56,5.54,1.19.18,2.08-.45,2.39-1.46,2.8-9.01,10.19-14.59,15.9-21.43,5.97-7.15,7.15-17.67,3.02-25.31-.87-1.61-1.69-3.71-3.96-3.37-2.25.34-4.27,1.57-4.33,4.25-.05,2.02-1.01,3.02-2.77,3.75-7.26,3.01-14.54,1.28-19.41-4.8-.81-1.01-1.73-1.65-2.98-1.66-8.3-.02-16.61-.01-24.91.03-1.05,0-1.87.58-2.59,1.41-5.56,6.44-11.46,7.93-19.25,4.93-1.62-.63-3.26-1.18-3.17-3.38.11-2.76-1.72-4.07-3.98-4.49-2.57-.49-3.38,1.84-4.32,3.58-4.42,8.21-2.67,18.11,4.31,26.37,5.42,6.41,12.4,11.62,15.05,20.18.73,2.37,2.5,1.72,3.79-.03.83-1.12-.48-2.71,1.09-3.97M449.39,186.73c0,43.9.07,87.81-.03,131.71-.05,24.51-6.94,47.45-16.6,69.72-1.78,4.12-3.41,4.09-6.45,1.04-52.93-53.02-105.92-106-158.99-158.9-2.82-2.81-2.83-4.59,0-7.42,59.06-58.89,118.03-117.86,177.05-176.79,1.1-1.1,2.08-3.34,3.99-2.37,1.7.86.95,3.08.95,4.69.04,46.11.03,92.22.03,138.33h.04Z"/><path class="cls-3" d="M49.44,220.87c0-9.66,0-19.32,0-28.98,0-1.19,0-2.37-.07-3.56-.08-1.19-.17-2.62-1.68-2.72-1.94-.13-2.11,1.56-2,2.86.3,3.44-.8,6.3-3.04,8.8-3.09,3.44-1.52,6.44.28,9.96,4.44,8.68,4.12,17.68.2,26.49-1.48,3.33-4.04,6.29-.63,9.94,3.12,3.34,3.53,7.55,3.07,11.86-.49,4.55.9,6.7,6.03,6.84,10.83.29,21.63,1.32,32.44,1.93,2.72.15,4.66,1.1,6.54,3.18,5.62,6.24,11.74,6.13,17.26-.32,1.76-2.05,3.63-2.71,6.12-2.85,10.99-.64,21.96-1.57,32.95-1.99,4.32-.16,5.65-1.94,5.38-5.93-.31-4.41-.12-8.59,3.15-12.32,1.96-2.24,3.13-5.52.6-8.32-4.74-5.24-3.69-11.57-3.8-17.74-.07-4.1-.07-7.97,3.18-11.27,3.6-3.65,1.74-7.4-.78-10.79-1.01-1.35-2.19-2.42-2.4-4.31-.23-1.98,1.03-5.7-1.56-5.5-2.7.2-1.44,3.98-1.46,6.15-.11,19.32-.14,38.65,0,57.97.03,4.2-1.12,6.24-5.72,6.16-4.89-.09-9.82.34-14.69.87-9.44,1.01-18.95,1.9-26.94,7.91-2.04,1.54-4.09,1.41-6.07-.14-5.7-4.46-12.41-6.12-19.39-6.84-7.24-.75-14.49-1.52-21.75-1.8-4-.16-5.33-1.7-5.28-5.54.14-10,.05-20,.04-30M145.16,214.27c0-11.02-.08-22.04.05-33.06.05-3.78-1.11-5.57-5.22-5.53-10.42.1-20.62,1.44-30.52,4.7-7.34,2.41-8.85,4.57-8.86,12.21-.02,19.5,0,39,0,58.49,0,.85.01,1.7.03,2.54.03,2.04.82,2.73,2.88,1.91,11.9-4.7,24.33-3.85,36.66-3.04,4.09.27,5.06-1.03,5.03-4.66-.1-11.19-.04-22.38-.04-33.57M52.73,214.39c0,11.18.08,22.37-.04,33.55-.04,3.74,1.08,4.82,5.08,4.55,11.47-.78,23.16-1.84,34.23,2.15,5.3,1.91,5.38.02,5.34-4.18-.14-19.32-.06-38.63-.06-57.95,0-8.24-1.08-9.95-9.01-12.33-9.78-2.93-19.79-4.41-30.05-4.52-4.27-.04-5.63,1.58-5.56,5.69.18,11.01.06,22.02.06,33.04M27.23,185.7c0-45.09-.02-90.17.05-135.25,0-2.04-1.18-5.04,1.34-5.89,1.93-.65,3.24,2.06,4.63,3.45,58.29,58.2,116.55,116.44,174.81,174.67,4.78,4.78,4.82,4.84.12,9.49-17.8,17.63-35.72,35.15-53.44,52.85-16.64,16.62-33.01,33.5-49.65,50.12-18.34,18.32-36.87,36.43-55.23,54.72-2.96,2.95-4.27,1.96-5.79-1.29-11.25-24.18-16.98-49.53-16.89-76.26.14-42.2.04-84.41.05-126.61"/><path class="cls-3" d="M425.21,401.93c-2.08,4.92-5.08,9.43-8.46,13.68-.99,1.24-2.17.41-3.08-.43-1.12-1.03-2.19-2.12-3.27-3.2-55.76-55.73-111.52-111.47-167.28-167.2q-4.94-4.94-9.73-.15c-29.5,29.49-58.95,59.02-88.5,88.45-26.65,26.53-53.41,52.96-80.13,79.43-4.15,4.11-4.6,4.03-7.88-.89q-6.4-9.58,1.65-17.59c54.09-54.05,108.17-108.1,162.25-162.16,4.7-4.7,4.69-4.72.06-9.35-60.31-60.29-120.63-120.58-180.95-180.86q-5.3-5.3.05-10.54,7.71-7.57,15.14-.16c59.44,59.21,118.88,118.41,178.32,177.61q5.34,5.32,10.58.12c59.96-59.93,119.9-119.86,179.85-179.8q5.7-5.69,11.45.02,6.96,6.9-.12,14.02c-59.46,59.46-118.94,118.91-178.41,178.36q-5.33,5.32-.06,10.59c54.93,54.89,109.85,109.77,164.75,164.68,1.5,1.5,3.59,2.68,3.77,5.37"/><path class="cls-3" d="M347.02,225.06c-5.93-5.15-10.98-9.74-12.19-17.12-.53-3.21.45-4.37,3.87-3.5,7.54,1.92,7.4,1.81,7.17,9.45-.1,3.32.65,6.66,1.15,11.16"/><path class="cls-3" d="M403.27,223.37c.19-4.89.45-9.54-.19-14.23-.51-3.7,2.86-3.23,4.86-3.68,1.96-.44,4.28-2.72,6.03-.55,1.62,2,.17,4.6-.63,6.74-1.86,5.02-5.6,8.6-10.08,11.72"/></g></svg>