<?xml version="1.0" encoding="UTF-8"?><svg id="Layer_1" xmlns="http://www.w3.org/2000/svg" viewBox="0 0 500 500"><defs><style>.cls-1{fill:#e4dac7;stroke-width:0px;}</style></defs><path class="cls-1" d="M250,485.87c-132.03,0-239.44-107.41-239.44-239.44S117.97,6.98,250,6.98s239.44,107.41,239.44,239.44-107.41,239.44-239.44,239.44ZM250,20.91C125.65,20.91,24.49,122.08,24.49,246.42s101.16,225.51,225.51,225.51,225.51-101.16,225.51-225.51S374.35,20.91,250,20.91Z"/><path class="cls-1" d="M250,461.69c-118.7,0-215.26-96.57-215.26-215.26S131.3,31.16,250,31.16s215.26,96.57,215.26,215.26-96.57,215.26-215.26,215.26ZM250,38.13c-114.86,0-208.3,93.44-208.3,208.3s93.44,208.3,208.3,208.3,208.3-93.44,208.3-208.3S364.86,38.13,250,38.13Z"/><path class="cls-1" d="M250.3,439.85c-106.66,0-193.43-86.77-193.43-193.43S143.64,53,250.3,53s193.43,86.77,193.43,193.43-86.77,193.43-193.43,193.43ZM250.3,59.96c-102.82,0-186.46,83.65-186.46,186.46s83.65,186.46,186.46,186.46,186.46-83.65,186.46-186.46S353.11,59.96,250.3,59.96Z"/><path class="cls-1" d="M106.99,273.66c-.51,0-1.03-.12-1.51-.34-1.05-.51-1.78-1.5-1.94-2.66-.08-.59-8.38-59.11-21.38-77.16-.68-.95-.84-2.17-.44-3.26.41-1.09,1.33-1.9,2.46-2.17,1.18-.27,28.96-6.58,35.21,12.15.17.44,5.52,13.98,16.79,11.13.13-.03.25-.06.38-.07.09-.02,3.31-.58,5.44-3.82,2.32-3.54,2.59-9.21.77-16.37-.31-1.06-7.97-28.78,14.4-45.2.82-.6,1.85-.81,2.84-.59.92.21,22.52,5.48,31.32,37.47.38,1.56,3.76,14.05,17.09,11.18.28-.06.56-.08.87-.07.02,0,2.26-.05,4.42-2.38,2.39-2.58,5.07-8.34,4.23-21.09-.03-.28-4.31-42.81,31.05-53.58,1.83-.56,3.79.47,4.35,2.32.56,1.84-.48,3.79-2.32,4.35-29.8,9.08-26.3,44.79-26.14,46.31.84,12.61-1.29,21.56-6.33,26.73-3.61,3.71-7.54,4.24-8.99,4.31-16.02,3.24-23.33-9.25-24.97-16.36-6.41-23.31-20.09-30.21-24.65-31.9-16.72,13.63-10.7,35.76-10.43,36.71,2.4,9.45,1.78,16.89-1.79,22.19-3.56,5.27-8.71,6.46-9.97,6.68-13.76,3.39-22.31-8.7-24.91-15.59-3.03-9.09-15.2-9.2-22.14-8.47,10.19,18.91,16.86,57.05,19.01,70.7,13.94-6.94,59.97-26.24,140.3-26.24,1.92,0,3.48,1.56,3.48,3.48s-1.56,3.48-3.48,3.48c-93.7,0-140.76,27.38-141.23,27.65-.55.33-1.17.49-1.79.49Z"/><path class="cls-1" d="M393.01,273.66c-.62,0-1.24-.17-1.79-.49-.46-.28-47.53-27.65-141.23-27.65-1.92,0-3.48-1.56-3.48-3.48s1.56-3.48,3.48-3.48c80.33,0,126.36,19.3,140.3,26.24,2.15-13.64,8.82-51.8,19.01-70.7-6.95-.74-19.1-.66-22.1,8.34-2.64,7.01-11.18,19.08-24.95,15.72-1.26-.22-6.41-1.41-9.97-6.68-3.58-5.3-4.19-12.74-1.82-22.09.3-1.06,6.32-23.18-10.41-36.82-4.53,1.69-18.23,8.6-24.68,32.05-1.59,6.97-8.92,19.44-24.93,16.22-1.45-.06-5.38-.6-9-4.31-5.04-5.17-7.17-14.12-6.34-26.58.18-1.66,3.67-37.38-26.13-46.46-1.84-.56-2.88-2.51-2.32-4.35.56-1.84,2.5-2.88,4.35-2.32,35.36,10.77,31.08,53.31,31.03,53.73-.85,12.82,1.92,18.57,4.4,21.11,2.09,2.14,4.21,2.21,4.26,2.21h0c.3-.01.58.01.87.07,13.33,2.87,16.72-9.62,17.06-11.05,8.83-32.12,30.43-37.39,31.35-37.6,1-.22,2.02,0,2.84.59,22.38,16.42,14.71,44.14,14.37,45.31-1.79,7.06-1.52,12.73.8,16.27,2.13,3.24,5.34,3.8,5.48,3.83,11.61,2.91,16.96-10.62,17.18-11.2,6.19-18.6,33.98-12.29,35.16-12.01,1.13.27,2.05,1.08,2.46,2.17.41,1.09.24,2.31-.44,3.26-13,18.05-21.3,76.57-21.38,77.16-.16,1.15-.89,2.15-1.94,2.66-.48.23-.99.34-1.51.34Z"/><path class="cls-1" d="M106.99,292.93c-.99,0-1.97-.42-2.65-1.22-9.11-10.63-3.91-21.5.11-25.77,1.32-1.39,3.52-1.46,4.92-.14,1.39,1.32,1.46,3.51.15,4.91-.69.75-5.97,6.9-1.49,14.29,13.02-6.42,71.34-32.92,142.04-31.3,1.92.04,3.45,1.64,3.4,3.56-.04,1.92-1.69,3.37-3.56,3.4-78.17-1.81-140.65,31.5-141.28,31.84-.52.28-1.09.42-1.66.42Z"/><path class="cls-1" d="M393.6,292.93c-.56,0-1.13-.14-1.65-.42-.63-.34-63.05-33.66-141.27-31.84-1.99-.03-3.52-1.48-3.56-3.4-.05-1.93,1.48-3.52,3.4-3.56,70.71-1.61,129.01,24.88,142.03,31.3,4.64-7.65-1.2-13.99-1.48-14.28-1.32-1.4-1.26-3.6.14-4.93,1.4-1.31,3.6-1.25,4.93.14,4.02,4.27,9.23,15.14.11,25.77-.68.79-1.65,1.21-2.65,1.21Z"/><path class="cls-1" d="M250.6,191.17c-8.87,0-15.81-11.33-15.81-25.8s6.95-25.8,15.81-25.8,15.81,11.33,15.81,25.8-6.95,25.8-15.81,25.8ZM250.6,146.54c-4.18,0-8.85,8.05-8.85,18.83s4.67,18.83,8.85,18.83,8.84-8.05,8.84-18.83-4.67-18.83-8.84-18.83Z"/><path class="cls-1" d="M169.47,203.72c-2.97,0-5.96-1.52-8.59-4.42-2.73-3-4.85-7.27-5.98-12.03-2.58-10.87.66-20.3,7.53-21.93,6.89-1.62,14,5.34,16.58,16.21h0c1.13,4.75,1.15,9.52.06,13.43-1.29,4.63-3.98,7.64-7.59,8.5-.67.16-1.34.24-2.01.24ZM164.4,172.08c-.13,0-.25.01-.36.04-2.1.5-4.11,6.16-2.36,13.54.85,3.57,2.44,6.84,4.36,8.95,1.38,1.52,2.85,2.32,3.84,2.09.98-.23,1.93-1.61,2.49-3.59.77-2.75.72-6.38-.13-9.95h0c-1.66-6.99-5.63-11.08-7.83-11.08Z"/><path class="cls-1" d="M329.99,204.45c-.67,0-1.34-.08-2.01-.23-3.6-.86-6.3-3.87-7.59-8.5-1.09-3.91-1.07-8.68.06-13.43,2.58-10.86,9.71-17.83,16.58-16.21,6.87,1.63,10.11,11.06,7.53,21.93-1.13,4.75-3.25,9.02-5.98,12.03-2.63,2.9-5.62,4.42-8.59,4.42ZM335.07,172.81c-2.2,0-6.17,4.09-7.83,11.08-.85,3.57-.89,7.2-.13,9.95.55,1.98,1.5,3.36,2.48,3.59.98.24,2.45-.57,3.84-2.09,1.92-2.11,3.51-5.38,4.36-8.95,1.75-7.39-.26-13.04-2.36-13.54-.11-.03-.23-.04-.36-.04Z"/><path class="cls-1" d="M99.75,235.45c-.43,0-.86-.08-1.28-.25-1.79-.71-2.66-2.73-1.95-4.52,3.67-9.23,4.33-16.16,1.87-19.51-2.09-2.85-6.22-2.58-6.27-2.58-1.86.18-3.58-1.28-3.74-3.19-.15-1.91,1.24-3.58,3.14-3.75.32-.03,7.97-.64,12.42,5.32,4.11,5.51,3.79,14.35-.95,26.29-.54,1.37-1.85,2.2-3.24,2.2Z"/><path class="cls-1" d="M400.34,235.45c-1.38,0-2.69-.83-3.24-2.2-4.74-11.94-5.06-20.78-.95-26.29,4.45-5.96,12.1-5.35,12.41-5.32,1.92.17,3.33,1.86,3.16,3.78-.17,1.9-1.83,3.33-3.76,3.16-.12-.01-4.2-.24-6.27,2.58-2.46,3.35-1.79,10.28,1.87,19.51.71,1.79-.16,3.81-1.95,4.52-.42.17-.86.25-1.29.25Z"/><path class="cls-1" d="M250,235.67c-3.26,0-5.91-2.65-5.91-5.91s2.65-5.91,5.91-5.91,5.91,2.65,5.91,5.91-2.65,5.91-5.91,5.91ZM250,227.34c-1.34,0-2.42,1.09-2.42,2.42s1.09,2.42,2.42,2.42,2.42-1.09,2.42-2.42-1.09-2.42-2.42-2.42Z"/><path class="cls-1" d="M265.84,236.14c-3.26,0-5.91-2.65-5.91-5.91s2.65-5.91,5.91-5.91,5.91,2.65,5.91,5.91-2.65,5.91-5.91,5.91ZM265.84,227.81c-1.34,0-2.42,1.09-2.42,2.42s1.09,2.42,2.42,2.42,2.43-1.09,2.43-2.42-1.09-2.42-2.43-2.42Z"/><path class="cls-1" d="M234.17,236.14c-3.26,0-5.91-2.65-5.91-5.91s2.65-5.91,5.91-5.91,5.91,2.65,5.91,5.91-2.65,5.91-5.91,5.91ZM234.17,227.81c-1.34,0-2.42,1.09-2.42,2.42s1.09,2.42,2.42,2.42,2.42-1.09,2.42-2.42-1.09-2.42-2.42-2.42Z"/><path class="cls-1" d="M282.15,236.86c-3.26,0-5.91-2.65-5.91-5.91s2.65-5.91,5.91-5.91,5.91,2.65,5.91,5.91-2.65,5.91-5.91,5.91ZM282.15,228.53c-1.34,0-2.42,1.09-2.42,2.42s1.09,2.42,2.42,2.42,2.43-1.09,2.43-2.42-1.09-2.42-2.43-2.42Z"/><path class="cls-1" d="M217.85,236.86c-3.26,0-5.91-2.65-5.91-5.91s2.65-5.91,5.91-5.91,5.91,2.65,5.91,5.91-2.65,5.91-5.91,5.91ZM217.85,228.53c-1.34,0-2.42,1.09-2.42,2.42s1.09,2.42,2.42,2.42,2.42-1.09,2.42-2.42-1.09-2.42-2.42-2.42Z"/><path class="cls-1" d="M298.19,238.19c-3.26,0-5.91-2.65-5.91-5.91s2.65-5.91,5.91-5.91,5.91,2.65,5.91,5.91-2.65,5.91-5.91,5.91ZM298.19,229.86c-1.34,0-2.43,1.09-2.43,2.42s1.09,2.42,2.43,2.42,2.42-1.09,2.42-2.42-1.09-2.42-2.42-2.42Z"/><path class="cls-1" d="M314.63,240.31c-3.26,0-5.91-2.65-5.91-5.91s2.65-5.91,5.91-5.91,5.91,2.65,5.91,5.91-2.65,5.91-5.91,5.91ZM314.63,231.98c-1.34,0-2.42,1.09-2.42,2.42s1.09,2.42,2.42,2.42,2.43-1.09,2.43-2.42-1.09-2.42-2.43-2.42Z"/><path class="cls-1" d="M331.37,242.35c-3.26,0-5.91-2.65-5.91-5.91s2.65-5.91,5.91-5.91,5.91,2.65,5.91,5.91-2.65,5.91-5.91,5.91ZM331.37,234.02c-1.34,0-2.42,1.09-2.42,2.42s1.09,2.42,2.42,2.42,2.42-1.09,2.42-2.42-1.09-2.42-2.42-2.42Z"/><path class="cls-1" d="M348.58,245.82c-3.26,0-5.91-2.65-5.91-5.91s2.65-5.91,5.91-5.91,5.91,2.65,5.91,5.91-2.65,5.91-5.91,5.91ZM348.58,237.49c-1.34,0-2.43,1.09-2.43,2.42s1.09,2.42,2.43,2.42,2.42-1.09,2.42-2.42-1.09-2.42-2.42-2.42Z"/><path class="cls-1" d="M364.75,249.99c-3.26,0-5.91-2.65-5.91-5.91s2.65-5.91,5.91-5.91,5.91,2.65,5.91,5.91-2.65,5.91-5.91,5.91ZM364.75,241.66c-1.34,0-2.42,1.09-2.42,2.42s1.09,2.42,2.42,2.42,2.42-1.09,2.42-2.42-1.09-2.42-2.42-2.42Z"/><path class="cls-1" d="M380.87,255.43c-3.26,0-5.91-2.65-5.91-5.91s2.65-5.91,5.91-5.91,5.91,2.65,5.91,5.91-2.65,5.91-5.91,5.91ZM380.87,247.1c-1.34,0-2.42,1.09-2.42,2.42s1.09,2.42,2.42,2.42,2.42-1.09,2.42-2.42-1.09-2.42-2.42-2.42Z"/><path class="cls-1" d="M199.85,238.19c-3.26,0-5.91-2.65-5.91-5.91s2.65-5.91,5.91-5.91,5.91,2.65,5.91,5.91-2.65,5.91-5.91,5.91ZM199.85,229.86c-1.34,0-2.42,1.09-2.42,2.42s1.09,2.42,2.42,2.42,2.42-1.09,2.42-2.42-1.09-2.42-2.42-2.42Z"/><path class="cls-1" d="M183.4,240.31c-3.26,0-5.91-2.65-5.91-5.91s2.65-5.91,5.91-5.91,5.91,2.65,5.91,5.91-2.65,5.91-5.91,5.91ZM183.4,231.98c-1.34,0-2.42,1.09-2.42,2.42s1.09,2.42,2.42,2.42,2.42-1.09,2.42-2.42-1.09-2.42-2.42-2.42Z"/><path class="cls-1" d="M166.67,242.35c-3.26,0-5.91-2.65-5.91-5.91s2.65-5.91,5.91-5.91,5.91,2.65,5.91,5.91-2.65,5.91-5.91,5.91ZM166.67,234.02c-1.34,0-2.42,1.09-2.42,2.42s1.09,2.42,2.42,2.42,2.42-1.09,2.42-2.42-1.09-2.42-2.42-2.42Z"/><path class="cls-1" d="M149.45,245.82c-3.26,0-5.91-2.65-5.91-5.91s2.65-5.91,5.91-5.91,5.91,2.65,5.91,5.91-2.65,5.91-5.91,5.91ZM149.45,237.49c-1.34,0-2.42,1.09-2.42,2.42s1.09,2.42,2.42,2.42,2.42-1.09,2.42-2.42-1.09-2.42-2.42-2.42Z"/><path class="cls-1" d="M133.28,249.99c-3.26,0-5.91-2.65-5.91-5.91s2.65-5.91,5.91-5.91,5.91,2.65,5.91,5.91-2.65,5.91-5.91,5.91ZM133.28,241.66c-1.34,0-2.42,1.09-2.42,2.42s1.09,2.42,2.42,2.42,2.42-1.09,2.42-2.42-1.09-2.42-2.42-2.42Z"/><path class="cls-1" d="M117.16,255.43c-3.26,0-5.91-2.65-5.91-5.91s2.65-5.91,5.91-5.91,5.91,2.65,5.91,5.91-2.65,5.91-5.91,5.91ZM117.16,247.1c-1.34,0-2.42,1.09-2.42,2.42s1.09,2.42,2.42,2.42,2.42-1.09,2.42-2.42-1.09-2.42-2.42-2.42Z"/><path class="cls-1" d="M250,222.01c-1.92,0-3.48-1.56-3.48-3.48v-19.44c0-1.92,1.56-3.48,3.48-3.48s3.48,1.56,3.48,3.48v19.44c0,1.92-1.56,3.48-3.48,3.48Z"/><path class="cls-1" d="M265.84,222.01c-1.93,0-3.48-1.56-3.48-3.48v-16.6c0-1.92,1.56-3.48,3.48-3.48s3.48,1.56,3.48,3.48v16.6c0,1.92-1.56,3.48-3.48,3.48Z"/><path class="cls-1" d="M282.15,222.63c-1.93,0-3.48-1.56-3.48-3.48v-10.95c0-1.92,1.56-3.48,3.48-3.48s3.48,1.56,3.48,3.48v10.95c0,1.92-1.56,3.48-3.48,3.48Z"/><path class="cls-1" d="M298.19,223.53c-1.93,0-3.48-1.56-3.48-3.48v-8.82c0-1.92,1.56-3.48,3.48-3.48s3.48,1.56,3.48,3.48v8.82c0,1.92-1.56,3.48-3.48,3.48Z"/><path class="cls-1" d="M314.63,224.53c-1.93,0-3.48-1.56-3.48-3.48v-12.85c0-1.92,1.56-3.48,3.48-3.48s3.48,1.56,3.48,3.48v12.85c0,1.92-1.56,3.48-3.48,3.48Z"/><path class="cls-1" d="M331.37,226.53c-1.93,0-3.48-1.56-3.48-3.48v-9.38c0-1.92,1.56-3.48,3.48-3.48s3.48,1.56,3.48,3.48v9.38c0,1.92-1.56,3.48-3.48,3.48Z"/><path class="cls-1" d="M348.58,230.27c-1.93,0-3.48-1.56-3.48-3.48v-5.74c0-1.92,1.56-3.48,3.48-3.48s3.48,1.56,3.48,3.48v5.74c0,1.92-1.56,3.48-3.48,3.48Z"/><path class="cls-1" d="M364.75,234.47c-1.93,0-3.48-1.56-3.48-3.48v-4.2c0-1.92,1.56-3.48,3.48-3.48s3.48,1.56,3.48,3.48v4.2c0,1.92-1.56,3.48-3.48,3.48Z"/><path class="cls-1" d="M380.87,239.7c-1.93,0-3.48-1.56-3.48-3.48v-10.15c0-1.92,1.56-3.48,3.48-3.48s3.48,1.56,3.48,3.48v10.15c0,1.92-1.56,3.48-3.48,3.48Z"/><path class="cls-1" d="M233.9,222.01c-1.92,0-3.48-1.56-3.48-3.48v-16.6c0-1.92,1.56-3.48,3.48-3.48s3.48,1.56,3.48,3.48v16.6c0,1.92-1.56,3.48-3.48,3.48Z"/><path class="cls-1" d="M217.6,222.63c-1.92,0-3.48-1.56-3.48-3.48v-10.95c0-1.92,1.56-3.48,3.48-3.48s3.48,1.56,3.48,3.48v10.95c0,1.92-1.56,3.48-3.48,3.48Z"/><path class="cls-1" d="M199.85,222.51c-1.92,0-3.48-1.56-3.48-3.48v-8.82c0-1.92,1.56-3.48,3.48-3.48s3.48,1.56,3.48,3.48v8.82c0,1.92-1.56,3.48-3.48,3.48Z"/><path class="cls-1" d="M183.4,224.53c-1.92,0-3.48-1.56-3.48-3.48v-12.85c0-1.92,1.56-3.48,3.48-3.48s3.48,1.56,3.48,3.48v12.85c0,1.92-1.56,3.48-3.48,3.48Z"/><path class="cls-1" d="M166.67,227.32c-1.92,0-3.48-1.56-3.48-3.48v-9.38c0-1.92,1.56-3.48,3.48-3.48s3.48,1.56,3.48,3.48v9.38c0,1.92-1.56,3.48-3.48,3.48Z"/><path class="cls-1" d="M149.45,231.95c-1.92,0-3.48-1.56-3.48-3.48v-5.74c0-1.92,1.56-3.48,3.48-3.48s3.48,1.56,3.48,3.48v5.74c0,1.92-1.56,3.48-3.48,3.48Z"/><path class="cls-1" d="M133.28,235.34c-1.92,0-3.48-1.56-3.48-3.48v-4.2c0-1.92,1.56-3.48,3.48-3.48s3.48,1.56,3.48,3.48v4.2c0,1.92-1.56,3.48-3.48,3.48Z"/><path class="cls-1" d="M117.16,237.45c-1.92,0-3.48-1.56-3.48-3.48v-10.15c0-1.92,1.56-3.48,3.48-3.48s3.48,1.56,3.48,3.48v10.15c0,1.92-1.56,3.48-3.48,3.48Z"/><path class="cls-1" d="M133.28,400.32c-.78,0-1.56-.26-2.2-.79-1.49-1.22-1.71-3.41-.49-4.9.2-.24,20.38-24.86,44.8-49.15,33.3-33.11,58.4-49.89,74.61-49.89,1.92,0,3.48,1.56,3.48,3.48s-1.56,3.48-3.48,3.48c-28.82,0-92.08,69.65-114.02,96.48-.69.84-1.69,1.28-2.7,1.28Z"/><path class="cls-1" d="M366.72,400.32c-1.01,0-2.01-.44-2.7-1.28-21.94-26.83-85.19-96.48-114.02-96.48-1.92,0-3.48-1.56-3.48-3.48s1.56-3.48,3.48-3.48c16.21,0,41.31,16.79,74.61,49.89,24.43,24.29,44.6,48.9,44.8,49.15,1.22,1.49,1,3.68-.49,4.9-.65.53-1.43.79-2.2.79Z"/><path class="cls-1" d="M153.62,409.62c-.96,0-1.74-.78-1.74-1.74v-11.04c0-.96.78-1.74,1.74-1.74s1.74.78,1.74,1.74v11.04c0,.96-.78,1.74-1.74,1.74Z"/><path class="cls-1" d="M167.49,420.08c-.96,0-1.74-.78-1.74-1.74v-33.22c0-.96.78-1.74,1.74-1.74s1.74.78,1.74,1.74v33.22c0,.96-.78,1.74-1.74,1.74Z"/><path class="cls-1" d="M183.71,423.28c-.96,0-1.74-.78-1.74-1.74v-51.78c0-.96.78-1.74,1.74-1.74s1.74.78,1.74,1.74v51.78c0,.96-.78,1.74-1.74,1.74Z"/><path class="cls-1" d="M201.06,432.17c-.96,0-1.74-.78-1.74-1.74v-78.89c0-.96.78-1.74,1.74-1.74s1.74.78,1.74,1.74v78.89c0,.96-.78,1.74-1.74,1.74Z"/><path class="cls-1" d="M218.13,436.66c-.96,0-1.74-.78-1.74-1.74v-99.31c0-.96.78-1.74,1.74-1.74s1.74.78,1.74,1.74v99.31c0,.96-.78,1.74-1.74,1.74Z"/><path class="cls-1" d="M234.83,436.66c-.96,0-1.74-.78-1.74-1.74v-115.43c0-.96.78-1.74,1.74-1.74s1.74.78,1.74,1.74v115.43c0,.96-.78,1.74-1.74,1.74Z"/><path class="cls-1" d="M250,439.17c-.96,0-1.74-.78-1.74-1.74v-125.72c0-.96.78-1.74,1.74-1.74s1.74.78,1.74,1.74v125.72c0,.96-.78,1.74-1.74,1.74Z"/><path class="cls-1" d="M347.05,409.62c-.96,0-1.74-.78-1.74-1.74v-11.04c0-.96.78-1.74,1.74-1.74s1.74.78,1.74,1.74v11.04c0,.96-.78,1.74-1.74,1.74Z"/><path class="cls-1" d="M333.18,420.08c-.96,0-1.74-.78-1.74-1.74v-33.22c0-.96.78-1.74,1.74-1.74s1.74.78,1.74,1.74v33.22c0,.96-.78,1.74-1.74,1.74Z"/><path class="cls-1" d="M316.96,423.28c-.96,0-1.74-.78-1.74-1.74v-51.78c0-.96.78-1.74,1.74-1.74s1.74.78,1.74,1.74v51.78c0,.96-.78,1.74-1.74,1.74Z"/><path class="cls-1" d="M299.61,432.17c-.96,0-1.74-.78-1.74-1.74v-78.89c0-.96.78-1.74,1.74-1.74s1.74.78,1.74,1.74v78.89c0,.96-.78,1.74-1.74,1.74Z"/><path class="cls-1" d="M282.54,436.66c-.96,0-1.74-.78-1.74-1.74v-99.31c0-.96.78-1.74,1.74-1.74s1.74.78,1.74,1.74v99.31c0,.96-.78,1.74-1.74,1.74Z"/><path class="cls-1" d="M265.84,436.66c-.96,0-1.74-.78-1.74-1.74v-115.43c0-.96.78-1.74,1.74-1.74s1.74.78,1.74,1.74v115.43c0,.96-.78,1.74-1.74,1.74Z"/><path class="cls-1" d="M193.77,336.3c-1.18,0-2.34-.6-2.99-1.69-7.78-12.95-19.29-27.1-24.31-27.39-.29-.02-14.77-1.16-35.01,13.66-1.72,1.85-9.58,9.93-17.88,9.49-3.58-.17-6.71-1.91-9.08-5.04-2.25-2.4-33.03-35.31-43.16-42.71-1.55-1.14-1.89-3.31-.76-4.87,1.13-1.55,3.31-1.89,4.87-.76,10.99,8.03,42.92,42.27,44.27,43.72.09.1.18.2.26.31,1.51,2.04,2.96,2.34,3.93,2.39,4.6.16,10.81-5.45,12.62-7.46.16-.17.34-.34.52-.48,22.76-16.8,39.29-15.28,39.98-15.2,11.09.63,26.71,25.72,29.72,30.74.99,1.65.46,3.79-1.19,4.78-.56.34-1.18.5-1.79.5Z"/><path class="cls-1" d="M167.87,358.51c-.96,0-1.74-.78-1.74-1.74v-37.28c0-.96.78-1.74,1.74-1.74s1.74.78,1.74,1.74v37.28c0,.96-.78,1.74-1.74,1.74Z"/><path class="cls-1" d="M183.71,342.57c-.96,0-1.74-.78-1.74-1.74v-5.41c0-.96.78-1.74,1.74-1.74s1.74.78,1.74,1.74v5.41c0,.96-.78,1.74-1.74,1.74Z"/><path class="cls-1" d="M153.62,375.12c-.96,0-1.74-.78-1.74-1.74v-47.73c0-.96.78-1.74,1.74-1.74s1.74.78,1.74,1.74v47.73c0,.96-.78,1.74-1.74,1.74Z"/><path class="cls-1" d="M138.47,390.08c-.96,0-1.74-.78-1.74-1.74v-55.52c0-.96.78-1.74,1.74-1.74s1.74.78,1.74,1.74v55.52c0,.96-.78,1.74-1.74,1.74Z"/><path class="cls-1" d="M122.54,388.38c-.96,0-1.74-.78-1.74-1.74v-45.8c0-.96.78-1.74,1.74-1.74s1.74.78,1.74,1.74v45.8c0,.96-.78,1.74-1.74,1.74Z"/><path class="cls-1" d="M104.9,371.11c-.96,0-1.74-.78-1.74-1.74v-28.53c0-.96.78-1.74,1.74-1.74s1.74.78,1.74,1.74v28.53c0,.96-.78,1.74-1.74,1.74Z"/><path class="cls-1" d="M89.82,349.7c-.96,0-1.74-.78-1.74-1.74v-21.39c0-.96.78-1.74,1.74-1.74s1.74.78,1.74,1.74v21.39c0,.96-.78,1.74-1.74,1.74Z"/><path class="cls-1" d="M76.17,324.53c-.96,0-1.74-.78-1.74-1.74v-11.08c0-.96.78-1.74,1.74-1.74s1.74.78,1.74,1.74v11.08c0,.96-.78,1.74-1.74,1.74Z"/><path class="cls-1" d="M308.35,336.3c-.61,0-1.23-.16-1.79-.5-1.65-.99-2.18-3.13-1.19-4.78,3.02-5.02,18.64-30.12,29.89-30.76.51-.06,17.03-1.6,39.81,15.21.19.14.37.3.52.48,1.81,2.01,8.01,7.7,12.62,7.46.97-.05,2.42-.35,3.93-2.39,1.47-1.69,31.66-35.97,42.69-44.03,1.55-1.14,3.73-.8,4.87.76,1.13,1.55.8,3.73-.76,4.87-10.42,7.61-41.07,42.42-41.38,42.77-2.2,3.01-5.38,4.81-9.02,4.98-8.2.47-16.16-7.64-17.88-9.49-20.25-14.84-34.72-13.71-34.86-13.67-5.17.3-16.68,14.45-24.46,27.4-.65,1.09-1.81,1.69-2.99,1.69Z"/><path class="cls-1" d="M334.26,358.51c-.96,0-1.74-.78-1.74-1.74v-37.28c0-.96.78-1.74,1.74-1.74s1.74.78,1.74,1.74v37.28c0,.96-.78,1.74-1.74,1.74Z"/><path class="cls-1" d="M318.41,342.57c-.96,0-1.74-.78-1.74-1.74v-5.41c0-.96.78-1.74,1.74-1.74s1.74.78,1.74,1.74v5.41c0,.96-.78,1.74-1.74,1.74Z"/><path class="cls-1" d="M348.51,375.12c-.96,0-1.74-.78-1.74-1.74v-47.73c0-.96.78-1.74,1.74-1.74s1.74.78,1.74,1.74v47.73c0,.96-.78,1.74-1.74,1.74Z"/><path class="cls-1" d="M363.65,394.91c-.96,0-1.74-.78-1.74-1.74v-60.35c0-.96.78-1.74,1.74-1.74s1.74.78,1.74,1.74v60.35c0,.96-.78,1.74-1.74,1.74Z"/><path class="cls-1" d="M379.58,388.38c-.96,0-1.74-.78-1.74-1.74v-45.8c0-.96.78-1.74,1.74-1.74s1.74.78,1.74,1.74v45.8c0,.96-.78,1.74-1.74,1.74Z"/><path class="cls-1" d="M397.22,368.38c-.96,0-1.74-.78-1.74-1.74v-27.18c0-.96.78-1.74,1.74-1.74s1.74.78,1.74,1.74v27.18c0,.96-.78,1.74-1.74,1.74Z"/><path class="cls-1" d="M412.3,347.99c-.96,0-1.74-.78-1.74-1.74v-20.38c0-.96.78-1.74,1.74-1.74s1.74.78,1.74,1.74v20.38c0,.96-.78,1.74-1.74,1.74Z"/><path class="cls-1" d="M425.96,318.73c-.96,0-1.74-.78-1.74-1.74v-5.28c0-.96.78-1.74,1.74-1.74s1.74.78,1.74,1.74v5.28c0,.96-.78,1.74-1.74,1.74Z"/><path class="cls-1" d="M250,100.45c-.96,0-1.74-.78-1.74-1.74v-27.31c0-.96.78-1.74,1.74-1.74s1.74.78,1.74,1.74v27.31c0,.96-.78,1.74-1.74,1.74Z"/><path class="cls-1" d="M233.84,108.19c-.89,0-1.65-.68-1.73-1.59l-2.94-33.64c-.08-.96.62-1.8,1.58-1.89.97-.09,1.8.63,1.89,1.58l2.94,33.64c.08.96-.62,1.8-1.58,1.89-.05,0-.1,0-.15,0Z"/><path class="cls-1" d="M217.85,124.46c-.83,0-1.56-.59-1.71-1.44l-8.34-47.27c-.17-.95.46-1.85,1.41-2.02.95-.18,1.85.46,2.02,1.41l8.34,47.27c.17.95-.46,1.85-1.41,2.02-.1.02-.2.03-.3.03Z"/><path class="cls-1" d="M207.75,160.86c-.77,0-1.47-.51-1.68-1.29l-20.32-75.85c-.25-.93.3-1.88,1.23-2.13s1.88.3,2.13,1.23l20.32,75.85c.25.93-.3,1.88-1.23,2.13-.15.04-.3.06-.45.06Z"/><path class="cls-1" d="M185.25,149.76c-.71,0-1.38-.44-1.64-1.15l-19.89-54.64c-.33-.9.14-1.9,1.04-2.23.9-.33,1.9.14,2.23,1.04l19.89,54.64c.33.9-.14,1.9-1.04,2.23-.2.07-.4.11-.6.11Z"/><path class="cls-1" d="M156.63,134.54c-.66,0-1.28-.37-1.58-1.01l-12.29-26.35c-.41-.87-.03-1.91.84-2.31.87-.4,1.91-.03,2.31.84l12.29,26.35c.41.87.03,1.91-.84,2.31-.24.11-.49.16-.73.16Z"/><path class="cls-1" d="M139.89,148.95c-.6,0-1.19-.31-1.51-.87l-14.07-24.37c-.48-.83-.2-1.9.64-2.38.83-.48,1.9-.2,2.38.64l14.07,24.37c.48.83.2,1.9-.64,2.38-.27.16-.57.23-.87.23Z"/><path class="cls-1" d="M129.59,172.41c-.55,0-1.09-.26-1.43-.74l-20.5-29.28c-.55-.79-.36-1.87.43-2.43.78-.55,1.87-.36,2.43.43l20.5,29.28c.55.79.36,1.87-.43,2.43-.3.21-.65.31-1,.31Z"/><path class="cls-1" d="M109.32,179.4c-.45,0-.89-.17-1.23-.51l-15.25-15.25c-.68-.68-.68-1.78,0-2.46s1.78-.68,2.46,0l15.25,15.25c.68.68.68,1.78,0,2.46-.34.34-.79.51-1.23.51Z"/><path class="cls-1" d="M267.12,108.19c-.05,0-.1,0-.16,0-.96-.08-1.67-.93-1.58-1.89l2.94-33.64c.08-.96.89-1.67,1.89-1.58.96.08,1.67.93,1.58,1.89l-2.94,33.64c-.08.91-.84,1.59-1.73,1.59Z"/><path class="cls-1" d="M283.11,124.46c-.1,0-.2,0-.31-.03-.95-.17-1.58-1.07-1.41-2.02l8.33-47.27c.17-.95,1.08-1.58,2.02-1.41.95.17,1.58,1.07,1.41,2.02l-8.33,47.27c-.15.85-.88,1.44-1.71,1.44Z"/><path class="cls-1" d="M293.21,160.86c-.15,0-.3-.02-.45-.06-.93-.25-1.48-1.2-1.23-2.13l20.32-75.85c.25-.93,1.2-1.48,2.14-1.23.93.25,1.48,1.2,1.23,2.13l-20.32,75.85c-.21.78-.92,1.29-1.68,1.29Z"/><path class="cls-1" d="M315.71,149.76c-.2,0-.4-.03-.6-.11-.9-.33-1.37-1.33-1.04-2.23l19.89-54.64c.33-.9,1.33-1.37,2.23-1.04.9.33,1.37,1.33,1.04,2.23l-19.89,54.64c-.26.71-.93,1.15-1.64,1.15Z"/><path class="cls-1" d="M344.33,134.54c-.25,0-.5-.05-.73-.16-.87-.41-1.25-1.44-.84-2.31l12.29-26.35c.41-.87,1.45-1.24,2.31-.84.87.41,1.25,1.44.84,2.31l-12.29,26.35c-.3.63-.93,1.01-1.58,1.01Z"/><path class="cls-1" d="M361.08,148.95c-.3,0-.6-.07-.87-.23-.83-.48-1.12-1.55-.64-2.38l14.07-24.37c.48-.83,1.55-1.11,2.38-.64.83.48,1.12,1.55.64,2.38l-14.07,24.37c-.32.56-.91.87-1.51.87Z"/><path class="cls-1" d="M371.37,172.41c-.35,0-.69-.1-1-.31-.79-.55-.98-1.64-.43-2.43l20.5-29.28c.55-.79,1.63-.98,2.43-.43.79.55.98,1.64.43,2.43l-20.5,29.28c-.34.48-.88.74-1.43.74Z"/><path class="cls-1" d="M391.64,179.4c-.45,0-.89-.17-1.23-.51-.68-.68-.68-1.78,0-2.46l15.25-15.25c.68-.68,1.78-.68,2.46,0,.68.68.68,1.78,0,2.46l-15.25,15.25c-.34.34-.79.51-1.23.51Z"/><path class="cls-1" d="M195.81,311.93c-3.26,0-5.91-2.65-5.91-5.91s2.65-5.91,5.91-5.91,5.91,2.65,5.91,5.91-2.65,5.91-5.91,5.91ZM195.81,303.6c-1.34,0-2.42,1.09-2.42,2.42s1.09,2.43,2.42,2.43,2.42-1.09,2.42-2.43-1.09-2.42-2.42-2.42Z"/><path class="cls-1" d="M212.73,297.91c-1.23,0-2.47-.38-3.53-1.17-2.61-1.95-3.14-5.66-1.19-8.27,1.95-2.61,5.66-3.14,8.27-1.19,2.61,1.95,3.14,5.66,1.19,8.27-1.16,1.55-2.94,2.37-4.74,2.37ZM212.74,289.59c-.74,0-1.47.34-1.94.97-.8,1.07-.58,2.59.49,3.39,1.07.79,2.59.58,3.39-.49s.58-2.59-.49-3.39c-.44-.32-.94-.48-1.45-.48Z"/><path class="cls-1" d="M216.62,281.29c-3.26,0-5.91-2.65-5.91-5.91s2.65-5.91,5.91-5.91,5.91,2.65,5.91,5.91-2.65,5.91-5.91,5.91ZM216.62,272.96c-1.34,0-2.42,1.09-2.42,2.42s1.09,2.42,2.42,2.42,2.42-1.09,2.42-2.42-1.09-2.42-2.42-2.42Z"/><path class="cls-1" d="M234.17,292.77c-3.26,0-5.91-2.65-5.91-5.91s2.65-5.91,5.91-5.91,5.91,2.65,5.91,5.91-2.65,5.91-5.91,5.91ZM234.17,284.44c-1.34,0-2.42,1.09-2.42,2.42s1.09,2.43,2.42,2.43,2.42-1.09,2.42-2.43-1.09-2.42-2.42-2.42Z"/><path class="cls-1" d="M179.24,296.31c-3.26,0-5.91-2.65-5.91-5.91s2.65-5.91,5.91-5.91,5.91,2.65,5.91,5.91-2.65,5.91-5.91,5.91ZM179.24,287.98c-1.34,0-2.42,1.09-2.42,2.42s1.09,2.43,2.42,2.43,2.42-1.09,2.42-2.43-1.09-2.42-2.42-2.42Z"/><path class="cls-1" d="M143.73,301.1c-3.26,0-5.91-2.65-5.91-5.91s2.65-5.91,5.91-5.91,5.91,2.65,5.91,5.91-2.65,5.91-5.91,5.91ZM143.73,292.77c-1.34,0-2.42,1.09-2.42,2.42s1.09,2.42,2.42,2.42,2.42-1.09,2.42-2.42-1.09-2.42-2.42-2.42Z"/><path class="cls-1" d="M161.49,294.69c-3.26,0-5.91-2.65-5.91-5.91s2.65-5.91,5.91-5.91,5.91,2.65,5.91,5.91-2.65,5.91-5.91,5.91ZM161.49,286.37c-1.34,0-2.42,1.09-2.42,2.42s1.09,2.42,2.42,2.42,2.42-1.09,2.42-2.42-1.09-2.42-2.42-2.42Z"/><path class="cls-1" d="M195.81,290.53c-3.26,0-5.91-2.65-5.91-5.91s2.65-5.91,5.91-5.91,5.91,2.65,5.91,5.91-2.65,5.91-5.91,5.91ZM195.81,282.2c-1.34,0-2.42,1.09-2.42,2.43s1.09,2.42,2.42,2.42,2.42-1.09,2.42-2.42-1.09-2.43-2.42-2.43Z"/><path class="cls-1" d="M109.09,309.14c-3.26,0-5.91-2.65-5.91-5.91s2.65-5.91,5.91-5.91,5.91,2.65,5.91,5.91-2.65,5.91-5.91,5.91ZM109.09,300.82c-1.34,0-2.42,1.09-2.42,2.42s1.09,2.42,2.42,2.42,2.42-1.09,2.42-2.42-1.09-2.42-2.42-2.42Z"/><path class="cls-1" d="M126.7,307.77c-3.26,0-5.91-2.65-5.91-5.91s2.65-5.91,5.91-5.91,5.91,2.65,5.91,5.91-2.65,5.91-5.91,5.91ZM126.7,299.44c-1.34,0-2.42,1.09-2.42,2.42s1.09,2.42,2.42,2.42,2.42-1.09,2.42-2.42-1.09-2.42-2.42-2.42Z"/><path class="cls-1" d="M81.89,278.04c-3.26,0-5.91-2.65-5.91-5.91s2.65-5.91,5.91-5.91,5.91,2.65,5.91,5.91-2.65,5.91-5.91,5.91ZM81.89,269.71c-1.34,0-2.42,1.09-2.42,2.42s1.09,2.42,2.42,2.42,2.42-1.09,2.42-2.42-1.09-2.42-2.42-2.42Z"/><path class="cls-1" d="M92.46,267.18c-3.26,0-5.91-2.65-5.91-5.91s2.65-5.91,5.91-5.91,5.91,2.65,5.91,5.91-2.65,5.91-5.91,5.91ZM92.46,258.85c-1.34,0-2.42,1.09-2.42,2.43s1.09,2.42,2.42,2.42,2.42-1.09,2.42-2.42-1.09-2.43-2.42-2.43Z"/><path class="cls-1" d="M74.55,259.59c-3.26,0-5.91-2.65-5.91-5.91s2.65-5.91,5.91-5.91,5.91,2.65,5.91,5.91-2.65,5.91-5.91,5.91ZM74.55,251.27c-1.34,0-2.42,1.09-2.42,2.42s1.09,2.42,2.42,2.42,2.42-1.09,2.42-2.42-1.09-2.42-2.42-2.42Z"/><path class="cls-1" d="M299.61,312.22c-3.26,0-5.91-2.65-5.91-5.91s2.65-5.91,5.91-5.91,5.91,2.65,5.91,5.91-2.65,5.91-5.91,5.91ZM299.61,303.89c-1.34,0-2.43,1.09-2.43,2.42s1.09,2.42,2.43,2.42,2.42-1.09,2.42-2.42-1.09-2.42-2.42-2.42Z"/><path class="cls-1" d="M293.21,296.31c-3.26,0-5.91-2.65-5.91-5.91s2.65-5.91,5.91-5.91,5.91,2.65,5.91,5.91-2.65,5.91-5.91,5.91ZM293.21,287.98c-1.34,0-2.42,1.09-2.42,2.42s1.09,2.43,2.42,2.43,2.42-1.09,2.42-2.43-1.09-2.42-2.42-2.42Z"/><path class="cls-1" d="M282.54,281.29c-3.26,0-5.91-2.65-5.91-5.91s2.65-5.91,5.91-5.91,5.91,2.65,5.91,5.91-2.65,5.91-5.91,5.91ZM282.54,272.96c-1.34,0-2.42,1.09-2.42,2.42s1.09,2.42,2.42,2.42,2.43-1.09,2.43-2.42-1.09-2.42-2.43-2.42Z"/><path class="cls-1" d="M250.6,285.71c-3.26,0-5.91-2.65-5.91-5.91s2.65-5.91,5.91-5.91,5.91,2.65,5.91,5.91-2.65,5.91-5.91,5.91ZM250.6,277.38c-1.34,0-2.42,1.09-2.42,2.43s1.09,2.42,2.42,2.42,2.42-1.09,2.42-2.42-1.09-2.43-2.42-2.43Z"/><path class="cls-1" d="M265.7,292.77c-3.26,0-5.91-2.65-5.91-5.91s2.65-5.91,5.91-5.91,5.91,2.65,5.91,5.91-2.65,5.91-5.91,5.91ZM265.7,284.44c-1.34,0-2.43,1.09-2.43,2.42s1.09,2.43,2.43,2.43,2.42-1.09,2.42-2.43-1.09-2.42-2.42-2.42Z"/><path class="cls-1" d="M308.36,286.19c-3.26,0-5.91-2.65-5.91-5.91s2.65-5.91,5.91-5.91,5.91,2.65,5.91,5.91-2.65,5.91-5.91,5.91ZM308.36,277.86c-1.34,0-2.42,1.09-2.42,2.43s1.09,2.42,2.42,2.42,2.42-1.09,2.42-2.42-1.09-2.43-2.42-2.43Z"/><path class="cls-1" d="M356.62,297.92c-3.26,0-5.91-2.65-5.91-5.91s2.65-5.91,5.91-5.91,5.91,2.65,5.91,5.91-2.65,5.91-5.91,5.91ZM356.62,289.59c-1.34,0-2.42,1.09-2.42,2.43s1.09,2.42,2.42,2.42,2.42-1.09,2.42-2.42-1.09-2.43-2.42-2.43Z"/><path class="cls-1" d="M336.98,292.77c-3.26,0-5.91-2.65-5.91-5.91s2.65-5.91,5.91-5.91,5.91,2.65,5.91,5.91-2.65,5.91-5.91,5.91ZM336.98,284.44c-1.34,0-2.42,1.09-2.42,2.42s1.09,2.43,2.42,2.43,2.43-1.09,2.43-2.43-1.09-2.42-2.43-2.42Z"/><path class="cls-1" d="M315.71,300.47c-3.26,0-5.91-2.65-5.91-5.91s2.65-5.91,5.91-5.91,5.91,2.65,5.91,5.91-2.65,5.91-5.91,5.91ZM315.71,292.14c-1.34,0-2.42,1.09-2.42,2.43s1.09,2.42,2.42,2.42,2.42-1.09,2.42-2.42-1.09-2.43-2.42-2.43Z"/><path class="cls-1" d="M389.12,314.1c-3.26,0-5.91-2.65-5.91-5.91s2.65-5.91,5.91-5.91,5.91,2.65,5.91,5.91-2.65,5.91-5.91,5.91ZM389.12,305.77c-1.34,0-2.42,1.09-2.42,2.42s1.09,2.43,2.42,2.43,2.42-1.09,2.42-2.43-1.09-2.42-2.42-2.42Z"/><path class="cls-1" d="M375.14,304.98c-3.26,0-5.91-2.65-5.91-5.91s2.65-5.91,5.91-5.91,5.91,2.65,5.91,5.91-2.65,5.91-5.91,5.91ZM375.14,296.65c-1.34,0-2.42,1.09-2.42,2.43s1.09,2.42,2.42,2.42,2.43-1.09,2.43-2.42-1.09-2.43-2.43-2.43Z"/><path class="cls-1" d="M417.98,278.04c-3.26,0-5.91-2.65-5.91-5.91s2.65-5.91,5.91-5.91,5.91,2.65,5.91,5.91-2.65,5.91-5.91,5.91ZM417.98,269.71c-1.34,0-2.42,1.09-2.42,2.42s1.09,2.42,2.42,2.42,2.43-1.09,2.43-2.42-1.09-2.42-2.43-2.42Z"/><path class="cls-1" d="M407.41,267.18c-3.26,0-5.91-2.65-5.91-5.91s2.65-5.91,5.91-5.91,5.91,2.65,5.91,5.91-2.65,5.91-5.91,5.91ZM407.41,258.85c-1.34,0-2.42,1.09-2.42,2.43s1.09,2.42,2.42,2.42,2.43-1.09,2.43-2.42-1.09-2.43-2.43-2.43Z"/><path class="cls-1" d="M425.32,259.59c-3.26,0-5.91-2.65-5.91-5.91s2.65-5.91,5.91-5.91,5.91,2.65,5.91,5.91-2.65,5.91-5.91,5.91ZM425.32,251.27c-1.34,0-2.43,1.09-2.43,2.42s1.09,2.42,2.43,2.42,2.42-1.09,2.42-2.42-1.09-2.42-2.42-2.42Z"/><path class="cls-1" d="M273.09,56.46c-5.89,0-10.69-4.8-10.69-10.69s4.8-10.69,10.69-10.69,10.69,4.8,10.69,10.69-4.8,10.69-10.69,10.69ZM273.09,42.05c-2.05,0-3.72,1.67-3.72,3.73s1.67,3.72,3.72,3.72,3.73-1.67,3.73-3.72-1.67-3.73-3.73-3.73Z"/><path class="cls-1" d="M323.28,69.2c-5.9,0-10.69-4.8-10.69-10.69s4.8-10.69,10.69-10.69,10.69,4.8,10.69,10.69-4.8,10.69-10.69,10.69ZM323.28,54.78c-2.05,0-3.73,1.67-3.73,3.72s1.67,3.73,3.73,3.73,3.72-1.67,3.72-3.73-1.67-3.72-3.72-3.72Z"/><path class="cls-1" d="M369.18,93.66c-5.89,0-10.69-4.8-10.69-10.69s4.8-10.69,10.69-10.69,10.69,4.8,10.69,10.69-4.8,10.69-10.69,10.69ZM369.18,79.24c-2.05,0-3.72,1.67-3.72,3.73s1.67,3.73,3.72,3.73,3.73-1.67,3.73-3.73-1.67-3.73-3.73-3.73Z"/><path class="cls-1" d="M408.18,131.46c-5.9,0-10.69-4.8-10.69-10.69s4.8-10.69,10.69-10.69,10.69,4.8,10.69,10.69-4.8,10.69-10.69,10.69ZM408.18,117.04c-2.05,0-3.73,1.67-3.73,3.73s1.67,3.73,3.73,3.73,3.72-1.67,3.72-3.73-1.67-3.73-3.72-3.73Z"/><path class="cls-1" d="M435.55,175.92c-5.89,0-10.69-4.8-10.69-10.69s4.8-10.69,10.69-10.69,10.69,4.8,10.69,10.69-4.8,10.69-10.69,10.69ZM435.55,161.5c-2.05,0-3.72,1.67-3.72,3.73s1.67,3.72,3.72,3.72,3.72-1.67,3.72-3.72-1.67-3.73-3.72-3.73Z"/><path class="cls-1" d="M449.97,226.32c-5.9,0-10.69-4.8-10.69-10.69s4.8-10.69,10.69-10.69,10.69,4.8,10.69,10.69-4.8,10.69-10.69,10.69ZM449.97,211.91c-2.05,0-3.73,1.67-3.73,3.73s1.67,3.72,3.73,3.72,3.72-1.67,3.72-3.72-1.67-3.73-3.72-3.73Z"/><path class="cls-1" d="M449.63,280.21c-5.89,0-10.69-4.8-10.69-10.69s4.8-10.69,10.69-10.69,10.69,4.8,10.69,10.69-4.8,10.69-10.69,10.69ZM449.63,265.79c-2.05,0-3.72,1.67-3.72,3.73s1.67,3.72,3.72,3.72,3.72-1.67,3.72-3.72-1.67-3.73-3.72-3.73Z"/><path class="cls-1" d="M436.89,330.4c-5.89,0-10.69-4.8-10.69-10.69s4.8-10.69,10.69-10.69,10.69,4.8,10.69,10.69-4.8,10.69-10.69,10.69ZM436.89,315.99c-2.05,0-3.72,1.67-3.72,3.72s1.67,3.72,3.72,3.72,3.73-1.67,3.73-3.72-1.67-3.72-3.73-3.72Z"/><path class="cls-1" d="M412.43,376.3c-5.9,0-10.69-4.8-10.69-10.69s4.8-10.69,10.69-10.69,10.69,4.8,10.69,10.69-4.8,10.69-10.69,10.69ZM412.43,361.88c-2.05,0-3.73,1.67-3.73,3.73s1.67,3.72,3.73,3.72,3.72-1.67,3.72-3.72-1.67-3.73-3.72-3.73Z"/><path class="cls-1" d="M374.63,415.3c-5.89,0-10.69-4.8-10.69-10.69s4.8-10.69,10.69-10.69,10.69,4.8,10.69,10.69-4.8,10.69-10.69,10.69ZM374.63,400.88c-2.05,0-3.72,1.67-3.72,3.73s1.67,3.72,3.72,3.72,3.72-1.67,3.72-3.72-1.67-3.73-3.72-3.73Z"/><path class="cls-1" d="M330.17,442.66c-5.9,0-10.69-4.8-10.69-10.69s4.8-10.69,10.69-10.69,10.69,4.8,10.69,10.69-4.8,10.69-10.69,10.69ZM330.17,428.25c-2.05,0-3.73,1.67-3.73,3.72s1.67,3.72,3.73,3.72,3.72-1.67,3.72-3.72-1.67-3.72-3.72-3.72Z"/><path class="cls-1" d="M279.77,457.08c-5.9,0-10.69-4.8-10.69-10.69s4.8-10.69,10.69-10.69,10.69,4.8,10.69,10.69-4.8,10.69-10.69,10.69ZM279.77,442.66c-2.05,0-3.73,1.67-3.73,3.73s1.67,3.72,3.73,3.72,3.72-1.67,3.72-3.72-1.67-3.73-3.72-3.73Z"/><path class="cls-1" d="M219.84,57.24c-5.68,0-10.42-4.49-10.68-10.22h0c-.13-2.85.87-5.59,2.8-7.69,1.93-2.11,4.56-3.34,7.42-3.46,2.85-.11,5.59.87,7.69,2.8,2.11,1.93,3.34,4.56,3.46,7.42.26,5.89-4.32,10.89-10.21,11.15-.16,0-.32.01-.48.01ZM216.12,46.72c.09,2.05,1.82,3.58,3.89,3.56.99-.04,1.91-.47,2.58-1.21.67-.73,1.02-1.69.97-2.68-.04-.99-.47-1.91-1.21-2.58-.74-.67-1.7-1.01-2.68-.97-.99.04-1.91.47-2.58,1.21-.67.73-1.02,1.69-.97,2.68h0Z"/><path class="cls-1" d="M170.25,72.18c-5.68,0-10.42-4.49-10.68-10.22h0c-.26-5.89,4.32-10.89,10.21-11.15,5.84-.26,10.89,4.32,11.15,10.21.13,2.85-.87,5.59-2.8,7.69-1.93,2.11-4.56,3.34-7.42,3.46-.16,0-.32.01-.48.01ZM166.54,61.65c.04.99.47,1.91,1.21,2.58.73.67,1.68,1.01,2.68.97.99-.04,1.91-.47,2.58-1.21.67-.73,1.02-1.69.97-2.68-.09-2.05-1.81-3.63-3.89-3.56-2.05.09-3.65,1.84-3.56,3.89h0Z"/><path class="cls-1" d="M125.48,98.64c-2.68,0-5.22-.99-7.21-2.81-2.11-1.93-3.34-4.56-3.46-7.42h0c-.13-2.85.87-5.58,2.8-7.69,1.93-2.11,4.56-3.34,7.42-3.46,2.84-.1,5.58.87,7.69,2.8,2.11,1.93,3.34,4.56,3.46,7.42.26,5.89-4.32,10.89-10.21,11.15-.16,0-.32.01-.48.01ZM125.49,84.23c-.06,0-.11,0-.17,0-.99.04-1.91.47-2.58,1.21-.67.73-1.02,1.69-.97,2.68h0c.04.99.47,1.91,1.21,2.58.73.67,1.69,1,2.68.97.99-.04,1.91-.47,2.58-1.21.67-.73,1.02-1.69.97-2.68-.04-.99-.47-1.91-1.21-2.58-.69-.63-1.58-.98-2.51-.98Z"/><path class="cls-1" d="M88.18,138.12c-2.68,0-5.22-.99-7.21-2.81-2.11-1.93-3.34-4.56-3.46-7.42h0c-.13-2.85.87-5.58,2.8-7.69,1.93-2.11,4.56-3.34,7.42-3.46,2.84-.1,5.58.87,7.69,2.8,2.11,1.93,3.34,4.56,3.46,7.42.13,2.85-.87,5.58-2.79,7.69-1.93,2.11-4.56,3.34-7.42,3.46-.16,0-.32.01-.48.01ZM88.19,123.71c-.06,0-.11,0-.17,0-.99.04-1.91.47-2.58,1.21-.67.73-1.02,1.69-.97,2.68h0c.04.99.47,1.91,1.21,2.58.73.67,1.68.99,2.68.97.99-.04,1.91-.47,2.58-1.21.67-.73,1.02-1.69.97-2.68-.04-.99-.47-1.91-1.21-2.58-.69-.63-1.58-.98-2.51-.98Z"/><path class="cls-1" d="M62.8,183.75c-2.68,0-5.22-.99-7.21-2.81-2.11-1.93-3.34-4.56-3.46-7.42h0c-.13-2.85.87-5.58,2.8-7.69,1.93-2.11,4.56-3.34,7.42-3.46,2.86-.1,5.59.87,7.69,2.79,2.11,1.93,3.34,4.56,3.46,7.42.13,2.85-.87,5.59-2.8,7.69-1.93,2.11-4.56,3.34-7.42,3.46-.16,0-.32.01-.48.01ZM62.81,169.33c-.06,0-.11,0-.17,0-.99.04-1.91.47-2.58,1.21-.67.73-1.02,1.69-.97,2.68h0c.04.99.47,1.91,1.21,2.58.74.67,1.69,1.02,2.68.97.99-.04,1.91-.47,2.58-1.21.67-.73,1.02-1.69.97-2.68-.04-.99-.47-1.91-1.21-2.58-.69-.63-1.58-.98-2.51-.98Z"/><path class="cls-1" d="M50.62,234.74c-5.68,0-10.42-4.49-10.68-10.22h0c-.13-2.85.87-5.59,2.8-7.69,1.93-2.11,4.56-3.34,7.42-3.46,5.94-.24,10.89,4.32,11.15,10.21.13,2.85-.87,5.58-2.79,7.69s-4.56,3.34-7.42,3.46c-.16,0-.32.01-.48.01ZM46.91,224.21c.09,2.05,1.83,3.61,3.89,3.56.99-.04,1.91-.47,2.58-1.21.67-.73,1.02-1.69.97-2.68-.09-2.05-1.86-3.63-3.89-3.56-.99.04-1.91.47-2.58,1.21-.67.73-1.02,1.69-.97,2.68h0Z"/><path class="cls-1" d="M53.33,288.56c-2.68,0-5.22-.99-7.21-2.81-2.11-1.93-3.34-4.56-3.46-7.42-.13-2.85.87-5.58,2.79-7.69,1.93-2.11,4.56-3.34,7.41-3.46,5.92-.26,10.89,4.32,11.16,10.21.26,5.89-4.32,10.9-10.21,11.16-.16,0-.32.01-.49.01ZM53.34,274.14c-.05,0-.11,0-.16,0-.99.04-1.91.47-2.58,1.21-.67.73-1.02,1.68-.97,2.68.04,1,.47,1.92,1.21,2.59.73.67,1.7,1.04,2.68.97,2.05-.09,3.65-1.84,3.56-3.89-.09-2-1.74-3.56-3.72-3.56Z"/><path class="cls-1" d="M68.28,338.14c-5.68,0-10.43-4.49-10.68-10.22-.13-2.85.87-5.58,2.79-7.69,1.93-2.11,4.56-3.34,7.41-3.46,5.9-.26,10.89,4.32,11.16,10.21.26,5.89-4.32,10.9-10.21,11.16h0c-.16,0-.31.01-.47.01ZM68.28,323.72c-.05,0-.11,0-.16,0-.99.04-1.91.47-2.58,1.21-.67.73-1.02,1.69-.97,2.68.09,2.05,1.78,3.69,3.89,3.56,2.05-.09,3.65-1.84,3.56-3.89-.09-2-1.74-3.56-3.72-3.56Z"/><path class="cls-1" d="M94.73,382.91c-2.68,0-5.22-.99-7.21-2.81-2.11-1.93-3.34-4.56-3.46-7.42-.13-2.85.87-5.58,2.79-7.69,1.93-2.11,4.56-3.33,7.42-3.46,5.88-.25,10.89,4.32,11.15,10.2.26,5.89-4.32,10.9-10.21,11.16-.16,0-.32.01-.49.01ZM94.75,368.49c-.05,0-.11,0-.17,0-1,.04-1.91.47-2.59,1.2-.67.73-1.02,1.69-.97,2.68.04,1,.47,1.92,1.21,2.59.73.67,1.71,1.02,2.68.97,2.05-.09,3.65-1.84,3.56-3.89-.09-1.99-1.74-3.56-3.72-3.56Z"/><path class="cls-1" d="M134.21,420.21c-2.68,0-5.22-.99-7.21-2.81-2.11-1.93-3.34-4.56-3.46-7.42-.13-2.85.87-5.58,2.79-7.69,1.93-2.11,4.56-3.33,7.42-3.46,5.88-.24,10.89,4.32,11.15,10.2.26,5.89-4.32,10.9-10.21,11.16-.16,0-.32.01-.49.01ZM134.23,405.8c-.05,0-.11,0-.17,0-1,.04-1.91.47-2.59,1.2-.67.73-1.02,1.68-.97,2.68.04,1,.47,1.92,1.21,2.59.73.67,1.71,1.02,2.68.97,2.05-.09,3.65-1.84,3.56-3.89-.09-1.99-1.74-3.56-3.72-3.56Z"/><path class="cls-1" d="M179.83,445.59c-2.68,0-5.22-.99-7.21-2.81-2.11-1.93-3.34-4.56-3.46-7.42-.13-2.85.87-5.58,2.79-7.69,1.93-2.11,4.56-3.33,7.42-3.46,2.85-.12,5.58.87,7.69,2.79,2.11,1.93,3.34,4.56,3.46,7.42.26,5.89-4.32,10.89-10.21,11.15-.16,0-.32.01-.49.01ZM179.85,431.17c-.06,0-.11,0-.17,0-1,.04-1.91.47-2.59,1.2-.67.73-1.02,1.68-.97,2.68.04,1,.47,1.92,1.21,2.59.73.67,1.71,1.03,2.68.97,2.05-.09,3.65-1.83,3.56-3.89-.04-.99-.47-1.91-1.21-2.58-.69-.63-1.58-.98-2.51-.98Z"/><path class="cls-1" d="M230.84,457.77c-5.68,0-10.43-4.49-10.68-10.22-.13-2.85.87-5.58,2.79-7.69,1.93-2.11,4.56-3.34,7.41-3.46,5.92-.22,10.9,4.33,11.15,10.21.13,2.85-.87,5.58-2.79,7.69-1.93,2.11-4.56,3.34-7.41,3.46h0c-.16,0-.31.01-.47.01ZM230.84,443.35c-.05,0-.11,0-.16,0-.99.04-1.91.47-2.58,1.21s-1.02,1.68-.97,2.68c.09,2.06,1.83,3.73,3.89,3.56.99-.04,1.91-.47,2.58-1.21s1.02-1.68.97-2.68c-.09-2-1.74-3.56-3.72-3.56Z"/></svg>