<?xml version="1.0" encoding="UTF-8"?><svg id="Layer_1" xmlns="http://www.w3.org/2000/svg" viewBox="0 0 500 500"><defs><style>.cls-1{fill:#e4dac7;stroke-width:0px;}</style></defs><path class="cls-1" d="M250,485.87c-132.03,0-239.45-107.41-239.45-239.44S117.97,6.98,250,6.98s239.45,107.41,239.45,239.45-107.41,239.44-239.45,239.44ZM250,20.91C125.65,20.91,24.49,122.08,24.49,246.43s101.17,225.51,225.51,225.51,225.51-101.16,225.51-225.51S374.35,20.91,250,20.91Z"/><path class="cls-1" d="M250.35,461.25c-118.46,0-214.82-96.37-214.82-214.82S131.89,31.6,250.35,31.6s214.82,96.37,214.82,214.82-96.37,214.82-214.82,214.82ZM250.35,38.57c-114.62,0-207.86,93.24-207.86,207.86s93.24,207.86,207.86,207.86,207.86-93.24,207.86-207.86S364.97,38.57,250.35,38.57Z"/><path class="cls-1" d="M272.63,397.5c-1.93,0-3.48-1.56-3.48-3.48v-69.98c0-1.48-.73-2.9-2.01-3.88-4.87-3.75-7.55-9.19-7.55-15.33v-43.9l-7.97-48.38c-.16-.69-1.06-5.32,1.23-8.61,1.02-1.47,2.49-2.44,4.29-2.81,1.25-.53,4.09-1.4,6.95.04,2.76,1.39,4.46,4.35,5.05,8.79l4.87,23.89-1.18-38.65c-.04-.18-.57-4.93,2.24-8.12,1.01-1.15,2.81-2.5,5.75-2.64,1.29-.3,4.28-.69,6.9,1.2,2.42,1.74,3.64,4.71,3.64,8.84l.66,16.09,1.45-23.12c.19-4.42,3.25-11.09,10.88-11.15.89-.04,3.67.02,6.08,2.19,2.28,2.05,3.44,5.22,3.44,9.42l-.24,8.12.07-.62c.04-.39.53-4.37,3.59-6.72,1.19-.92,3.23-1.91,6.13-1.56,1.12.01,3.9.27,6.1,2.44,1.31,1.3,2.83,3.72,2.58,7.93l-3.67,48.7c-.04.59-.04,1.18.01,1.77l2.26,26.1,18.69-14.7c.79-.55,6.27-4.22,11.95-4.66,3.1-.23,6.11,1.23,7.85,3.84,1.72,2.57,1.92,5.72.54,8.44-1.09,2.13-2.85,4.28-5.25,6.38l-23.04,28.77c-2.37,2.96-5.16,5.53-8.29,7.65l-4.37,2.95c-3.08,2.08-4.92,5.54-4.92,9.26v56.71c0,1.93-1.56,3.48-3.48,3.48s-3.48-1.56-3.48-3.48v-56.71c0-6.03,2.98-11.65,7.98-15.03l4.37-2.95c2.55-1.72,4.82-3.82,6.76-6.23l23.23-29.01c.13-.17.28-.32.45-.46,1.84-1.58,3.13-3.09,3.84-4.48.29-.57.09-1.09-.12-1.41-.13-.2-.69-.85-1.52-.77-3.23.25-7.14,2.49-8.37,3.33l-23.57,18.55c-1,.79-2.36.97-3.54.46-1.17-.51-1.98-1.62-2.09-2.9l-2.82-32.52c-.09-.95-.09-1.92-.02-2.89l3.66-48.64c.07-1.15-.12-2.08-.51-2.49-.36-.37-.99-.43-1.27-.44-.23,0-.5,0-.7-.04-.78-.12-1.04.08-1.13.14-.58.45-.89,1.69-.92,1.98l-5.43,45.28c-.13,1.03-.7,1.96-1.58,2.52s-1.96.71-2.95.38c-3.18-1.02-5.34-4.07-5.25-7.42l1.47-49.15c0-1.94-.41-3.49-1.14-4.14-.41-.37-.94-.42-.95-.42h0c-.12.01-.24.02-.36.02-3.49,0-3.97,3.5-4.03,4.58l-3.06,48.95c-.11,1.73-.99,3.29-2.41,4.28-1.69,1.17-3.88,1.33-5.72.41-1.84-.92-3.03-2.76-3.11-4.81l-1.72-42.05c0-2.21-.47-3.12-.74-3.32-.29-.22-1-.15-1.3-.06-.31.09-.71.16-1.04.16-.76,0-.95.21-1.01.28-.5.56-.64,2.13-.54,3l1.56,50.49c.05,1.67-.61,3.3-1.81,4.47-1.57,1.53-3.85,2.07-5.94,1.43-2.09-.65-3.66-2.38-4.09-4.52l-7.21-35.42c-.36-2.62-1.02-3.55-1.32-3.72-.24-.13-.85.02-1.15.17-.34.17-.78.32-1.16.37-.36.34-.47,1.97-.18,3.3l8.05,48.85c.03.19.05.38.05.57v44.18c0,4.04,1.63,7.34,4.84,9.81,3,2.31,4.72,5.74,4.72,9.4v69.98c0,1.93-1.56,3.48-3.48,3.48Z"/><path class="cls-1" d="M290.69,293.3c-.67,0-1.35-.19-1.95-.6-1.59-1.08-2.01-3.25-.93-4.84,12.22-18.05,32.49-14.57,41.5-10.22,1.73.84,2.46,2.92,1.62,4.65-.84,1.73-2.92,2.46-4.65,1.62-.89-.43-20.85-9.66-32.7,7.85-.67.99-1.77,1.53-2.89,1.53Z"/><path class="cls-1" d="M274.6,271.84c-1.85,0-3.39-1.46-3.47-3.33-.09-1.92,1.4-3.55,3.32-3.63.24-.01,24.08-1.25,35.3-16.6,1.14-1.56,3.32-1.89,4.87-.76,1.55,1.14,1.89,3.32.76,4.87-13.22,18.09-39.52,19.41-40.63,19.45-.05,0-.1,0-.15,0Z"/><path class="cls-1" d="M227.71,397.96c-1.93,0-3.48-1.56-3.48-3.48v-70.44c0-3.66,1.72-7.09,4.72-9.4,3.21-2.47,4.84-5.77,4.84-9.81v-44.18c0-.19.02-.38.05-.57l8.02-48.66c.32-1.51.21-3.15-.08-3.51-.43-.06-.91-.17-1.29-.38-.25-.12-.86-.26-1.09-.14-.31.16-.96,1.1-1.28,3.48l-7.26,35.66c-.44,2.15-2.01,3.88-4.1,4.52-2.09.65-4.36.1-5.93-1.43-1.21-1.18-1.86-2.81-1.8-4.48l1.52-50.16c.13-1.19,0-2.76-.51-3.32-.06-.07-.25-.28-1.01-.28-.37,0-.75-.06-1.1-.18-.24-.06-.95-.14-1.24.08-.28.21-.74,1.11-.74,3.18l-1.72,42.19c-.08,2.05-1.28,3.89-3.11,4.81-1.83.92-4.02.76-5.71-.41-1.43-.99-2.31-2.55-2.42-4.28l-3.06-48.91c-.07-1.12-.55-4.62-4.04-4.62-.12,0-.24,0-.36-.02.05.01-.52.01-1,.47-.69.67-1.09,2.2-1.09,4.2l1.47,49.03c.1,3.35-2.06,6.4-5.25,7.42-.99.32-2.07.17-2.95-.38-.87-.56-1.45-1.49-1.58-2.52l-5.42-45.22c-.07-.53-.41-1.65-.93-2.05-.09-.06-.33-.25-1.12-.14-.26.04-.51.05-.78.03h0c-.14,0-.83.07-1.19.45-.39.41-.57,1.33-.5,2.54l3.66,48.58c.07.97.07,1.95-.02,2.9l-2.82,32.52c-.11,1.28-.91,2.39-2.09,2.9-1.18.5-2.53.33-3.54-.46l-23.76-18.68c-1.05-.7-4.95-2.94-8.18-3.19-.93-.07-1.39.56-1.52.76-.22.33-.41.84-.12,1.42.69,1.37,2.02,2.91,3.83,4.47.16.14.31.3.45.46l23.23,29.01c1.93,2.41,4.2,4.5,6.75,6.22l4.37,2.96c5,3.37,7.98,8.99,7.98,15.03v56.59c0,1.93-1.56,3.48-3.48,3.48s-3.48-1.56-3.48-3.48v-56.59c0-3.71-1.84-7.18-4.92-9.26l-4.37-2.96c-3.13-2.12-5.92-4.69-8.29-7.64l-23.04-28.77c-2.4-2.11-4.17-4.25-5.25-6.38-1.38-2.71-1.18-5.87.54-8.44,1.74-2.61,4.71-4.09,7.85-3.84,5.68.44,11.17,4.11,11.77,4.53l18.87,14.83,2.26-26.1c.05-.59.05-1.19.01-1.78l-3.66-48.64c-.25-4.26,1.26-6.68,2.57-7.98,2.19-2.17,4.98-2.43,6.1-2.44,2.89-.36,4.94.64,6.13,1.56,3.05,2.36,3.54,6.33,3.59,6.78l.06.55-.24-8.01c0-4.3,1.16-7.47,3.44-9.53,2.4-2.17,5.16-2.23,6.08-2.19,7.64.06,10.7,6.73,10.89,11.22l1.44,23.03.66-16.22c0-3.98,1.22-6.95,3.64-8.69,2.63-1.89,5.62-1.5,6.9-1.2,2.94.14,4.75,1.5,5.75,2.64,2.81,3.19,2.28,7.94,2.21,8.47l-1.15,38.31,4.92-24.14c.55-4.2,2.25-7.16,5.01-8.55,2.87-1.45,5.7-.57,6.95-.04,1.79.37,3.27,1.34,4.29,2.81,2.29,3.3,1.39,7.92,1.19,8.82l-7.93,48.17v43.9c0,6.14-2.68,11.58-7.55,15.33-1.28.98-2.01,2.4-2.01,3.88v70.44c0,1.93-1.56,3.48-3.48,3.48ZM225.99,245.37h0s0,0,0,0Z"/><path class="cls-1" d="M209.65,293.3c-1.12,0-2.21-.54-2.89-1.53-11.87-17.53-31.85-8.25-32.7-7.85-1.71.83-3.81.1-4.64-1.63-.83-1.73-.11-3.81,1.62-4.64,9.01-4.36,29.28-7.83,41.5,10.22,1.08,1.59.66,3.76-.93,4.84-.6.4-1.28.6-1.95.6Z"/><path class="cls-1" d="M225.57,271.84s-.08,0-.12,0c-1-.03-24.75-1.05-40.33-19.24-1.25-1.46-1.08-3.66.38-4.91,1.46-1.24,3.66-1.09,4.91.38,13.54,15.82,35.06,16.8,35.28,16.81,1.92.07,3.42,1.68,3.35,3.61-.06,1.88-1.61,3.36-3.47,3.36Z"/><path class="cls-1" d="M202.71,391.76c-.96,0-1.74-.78-1.74-1.74v-60.11c0-.96.78-1.74,1.74-1.74s1.74.78,1.74,1.74v60.11c0,.96-.78,1.74-1.74,1.74Z"/><path class="cls-1" d="M187.08,385.82c-.96,0-1.74-.78-1.74-1.74v-41.72c0-.96.78-1.74,1.74-1.74s1.74.78,1.74,1.74v41.72c0,.96-.78,1.74-1.74,1.74Z"/><path class="cls-1" d="M194.58,388.41c-.96,0-1.74-.78-1.74-1.74v-51.03c0-.96.78-1.74,1.74-1.74s1.74.78,1.74,1.74v51.03c0,.96-.78,1.74-1.74,1.74Z"/><path class="cls-1" d="M211.15,394.23c-.96,0-1.74-.78-1.74-1.74v-67.99c0-.96.78-1.74,1.74-1.74s1.74.78,1.74,1.74v67.99c0,.96-.78,1.74-1.74,1.74Z"/><path class="cls-1" d="M220.06,396.22c-.96,0-1.74-.78-1.74-1.74v-76.02c0-.96.78-1.74,1.74-1.74s1.74.78,1.74,1.74v76.02c0,.96-.78,1.74-1.74,1.74Z"/><circle class="cls-1" cx="187.08" cy="333.35" r="2.29"/><circle class="cls-1" cx="194.58" cy="326.44" r="2.29"/><circle class="cls-1" cx="202.71" cy="320.01" r="2.29"/><circle class="cls-1" cx="211.15" cy="314.86" r="2.29"/><circle class="cls-1" cx="220.06" cy="309.53" r="2.29"/><circle class="cls-1" cx="228.79" cy="307.24" r="2.29"/><circle class="cls-1" cx="228.79" cy="299.07" r="2.29"/><circle class="cls-1" cx="228.79" cy="290.9" r="2.29"/><circle class="cls-1" cx="187.08" cy="296.78" r="2.29"/><path class="cls-1" d="M297.9,390.61c-.96,0-1.74-.78-1.74-1.74v-58.96c0-.96.78-1.74,1.74-1.74s1.74.78,1.74,1.74v58.96c0,.96-.78,1.74-1.74,1.74Z"/><path class="cls-1" d="M313.53,385.87c-.96,0-1.74-.78-1.74-1.74v-41.76c0-.96.78-1.74,1.74-1.74s1.74.78,1.74,1.74v41.76c0,.96-.78,1.74-1.74,1.74Z"/><path class="cls-1" d="M306.03,389.07c-.96,0-1.74-.78-1.74-1.74v-51.69c0-.96.78-1.74,1.74-1.74s1.74.78,1.74,1.74v51.69c0,.96-.78,1.74-1.74,1.74Z"/><path class="cls-1" d="M289.46,394.23c-.96,0-1.74-.78-1.74-1.74v-67.99c0-.96.78-1.74,1.74-1.74s1.74.78,1.74,1.74v67.99c0,.96-.78,1.74-1.74,1.74Z"/><path class="cls-1" d="M280.55,395.76c-.96,0-1.74-.78-1.74-1.74v-75.57c0-.96.78-1.74,1.74-1.74s1.74.78,1.74,1.74v75.57c0,.96-.78,1.74-1.74,1.74Z"/><circle class="cls-1" cx="313.53" cy="333.35" r="2.29"/><circle class="cls-1" cx="306.03" cy="326.44" r="2.29"/><circle class="cls-1" cx="297.9" cy="320.01" r="2.29"/><circle class="cls-1" cx="289.46" cy="314.86" r="2.29"/><circle class="cls-1" cx="280.55" cy="309.53" r="2.29"/><circle class="cls-1" cx="271.82" cy="307.24" r="2.29"/><circle class="cls-1" cx="271.82" cy="299.07" r="2.29"/><circle class="cls-1" cx="271.82" cy="290.9" r="2.29"/><circle class="cls-1" cx="313.53" cy="296.78" r="2.29"/><path class="cls-1" d="M269.46,184.34c-.18,0-.36-.03-.54-.09-20.08-6.51-37.04-.1-37.21-.03-.9.36-1.9-.1-2.26-.99-.35-.9.1-1.9.99-2.26.73-.29,18.23-6.94,39.55-.03.92.3,1.42,1.28,1.12,2.19-.24.73-.92,1.2-1.66,1.2Z"/><path class="cls-1" d="M280.16,176.32c-.21,0-.42-.04-.63-.12-31.54-12.13-58.14-.17-58.41-.04-.88.41-1.91.02-2.31-.85-.4-.87-.03-1.91.85-2.31,1.13-.52,28.16-12.73,61.13-.04.9.35,1.34,1.35,1,2.25-.27.69-.93,1.12-1.63,1.12Z"/><path class="cls-1" d="M250.27,160.38c-.96,0-1.74-.78-1.74-1.74v-54.03c0-.96.78-1.74,1.74-1.74s1.74.78,1.74,1.74v54.03c0,.96-.78,1.74-1.74,1.74Z"/><path class="cls-1" d="M241.21,160.9c-.89,0-1.65-.68-1.73-1.59l-4.01-45.79c-.09-.96.63-1.8,1.58-1.89.98-.09,1.8.63,1.89,1.58l4.01,45.79c.09.96-.63,1.8-1.58,1.89-.05,0-.11,0-.16,0Z"/><path class="cls-1" d="M232.15,162.34c-.83,0-1.56-.6-1.71-1.44l-6.58-37.34c-.17-.95.47-1.85,1.41-2.02.92-.18,1.85.46,2.02,1.41l6.58,37.34c.17.95-.47,1.85-1.41,2.02-.1.02-.2.03-.31.03Z"/><path class="cls-1" d="M222.92,164.64c-.77,0-1.47-.51-1.68-1.29l-7.9-29.49c-.25-.93.3-1.88,1.23-2.14.94-.23,1.88.31,2.14,1.23l7.9,29.49c.25.93-.3,1.88-1.23,2.14-.15.04-.3.06-.45.06Z"/><path class="cls-1" d="M214.14,168.2c-.71,0-1.38-.44-1.64-1.15l-8.22-22.59c-.33-.9.14-1.9,1.04-2.23.91-.33,1.9.14,2.23,1.04l8.22,22.59c.33.9-.14,1.9-1.04,2.23-.2.07-.4.11-.6.11Z"/><path class="cls-1" d="M259.74,160.9c-.05,0-.1,0-.16,0-.96-.09-1.67-.93-1.58-1.89l4.01-45.79c.08-.96.88-1.64,1.89-1.58.96.09,1.67.93,1.58,1.89l-4.01,45.79c-.08.9-.84,1.59-1.73,1.59Z"/><path class="cls-1" d="M268.8,162.34c-.1,0-.2,0-.31-.03-.95-.17-1.58-1.07-1.41-2.02l6.59-37.34c.17-.95,1.09-1.6,2.02-1.41.95.17,1.58,1.07,1.41,2.02l-6.59,37.34c-.15.84-.88,1.44-1.71,1.44Z"/><path class="cls-1" d="M278.03,164.64c-.15,0-.3-.02-.45-.06-.93-.25-1.48-1.2-1.23-2.14l7.9-29.49c.26-.93,1.2-1.46,2.14-1.23.93.25,1.48,1.2,1.23,2.14l-7.9,29.49c-.21.78-.92,1.29-1.68,1.29Z"/><path class="cls-1" d="M286.8,168.2c-.2,0-.4-.03-.6-.11-.9-.33-1.37-1.33-1.04-2.23l8.22-22.59c.33-.9,1.32-1.37,2.23-1.04.9.33,1.37,1.33,1.04,2.23l-8.22,22.59c-.26.71-.93,1.15-1.64,1.15Z"/><circle class="cls-1" cx="205.92" cy="171.45" r="2.46"/><circle class="cls-1" cx="295.03" cy="171.45" r="2.46"/><circle class="cls-1" cx="250.17" cy="190.05" r="2.46"/><circle class="cls-1" cx="235.85" cy="105.74" r="2.46"/><circle class="cls-1" cx="264.65" cy="105.74" r="2.46"/><circle class="cls-1" cx="223.72" cy="115.82" r="2.46"/><circle class="cls-1" cx="277.06" cy="115.82" r="2.46"/><circle class="cls-1" cx="212.49" cy="125.72" r="2.46"/><circle class="cls-1" cx="288.46" cy="125.72" r="2.46"/><circle class="cls-1" cx="202.53" cy="136.26" r="2.46"/><circle class="cls-1" cx="297.48" cy="136.26" r="2.46"/><path class="cls-1" d="M162.75,247.57h-54.02c-.96,0-1.74-.78-1.74-1.74s.78-1.74,1.74-1.74h54.02c.96,0,1.74.78,1.74,1.74s-.78,1.74-1.74,1.74Z"/><path class="cls-1" d="M117.48,260.63c-.89,0-1.65-.68-1.73-1.59-.09-.96.63-1.8,1.58-1.89l45.79-4.01c.98-.07,1.8.62,1.89,1.58s-.63,1.8-1.58,1.89l-45.79,4.01c-.05,0-.11,0-.16,0Z"/><path class="cls-1" d="M163.27,238.1c-.05,0-.1,0-.16,0l-45.79-4.01c-.96-.09-1.67-.93-1.58-1.89.08-.96.89-1.62,1.89-1.58l45.79,4.01c.96.09,1.67.93,1.58,1.89-.08.9-.84,1.59-1.73,1.59Z"/><path class="cls-1" d="M164.71,229.04c-.1,0-.2,0-.31-.03l-37.34-6.58c-.95-.17-1.58-1.07-1.41-2.02s1.09-1.6,2.02-1.41l37.34,6.58c.95.17,1.58,1.07,1.41,2.02-.15.84-.88,1.44-1.71,1.44Z"/><path class="cls-1" d="M167.01,219.81c-.15,0-.3-.02-.45-.06l-29.49-7.9c-.93-.25-1.48-1.2-1.23-2.14.25-.93,1.2-1.45,2.14-1.23l29.49,7.9c.93.25,1.48,1.2,1.23,2.14-.21.78-.92,1.29-1.68,1.29Z"/><path class="cls-1" d="M170.57,211.03c-.2,0-.4-.03-.6-.11l-22.59-8.22c-.9-.33-1.37-1.33-1.04-2.23s1.32-1.36,2.23-1.04l22.59,8.22c.9.33,1.37,1.33,1.04,2.23-.26.71-.93,1.15-1.64,1.15Z"/><circle class="cls-1" cx="164.71" cy="262.7" r="2.46"/><circle class="cls-1" cx="109.85" cy="260.24" r="2.46"/><circle class="cls-1" cx="109.85" cy="231.44" r="2.46"/><circle class="cls-1" cx="119.93" cy="272.38" r="2.46"/><circle class="cls-1" cx="119.93" cy="219.03" r="2.46"/><circle class="cls-1" cx="129.83" cy="283.61" r="2.46"/><circle class="cls-1" cx="129.83" cy="207.63" r="2.46"/><circle class="cls-1" cx="140.37" cy="293.57" r="2.46"/><circle class="cls-1" cx="140.37" cy="198.61" r="2.46"/><path class="cls-1" d="M392.28,247.57h-54.03c-.96,0-1.74-.78-1.74-1.74s.78-1.74,1.74-1.74h54.03c.96,0,1.74.78,1.74,1.74s-.78,1.74-1.74,1.74Z"/><path class="cls-1" d="M383.52,260.63c-.05,0-.1,0-.16,0l-45.79-4.01c-.96-.09-1.67-.93-1.58-1.89.09-.96.89-1.64,1.89-1.58l45.79,4.01c.96.09,1.67.93,1.58,1.89-.08.9-.84,1.59-1.73,1.59Z"/><path class="cls-1" d="M337.73,238.1c-.89,0-1.65-.68-1.73-1.59-.09-.96.63-1.8,1.58-1.89l45.79-4.01c.99-.06,1.8.63,1.89,1.58.09.96-.63,1.8-1.58,1.89l-45.79,4.01c-.05,0-.11,0-.16,0Z"/><path class="cls-1" d="M336.29,229.04c-.83,0-1.56-.6-1.71-1.44-.17-.95.47-1.85,1.41-2.02l37.34-6.58c.93-.19,1.85.46,2.02,1.41s-.47,1.85-1.41,2.02l-37.34,6.58c-.1.02-.2.03-.31.03Z"/><path class="cls-1" d="M333.99,219.81c-.77,0-1.47-.51-1.68-1.29-.25-.93.3-1.88,1.23-2.14l29.49-7.9c.94-.22,1.88.3,2.14,1.23.25.93-.3,1.88-1.23,2.14l-29.49,7.9c-.15.04-.3.06-.45.06Z"/><path class="cls-1" d="M330.43,211.03c-.71,0-1.38-.44-1.64-1.15-.33-.9.14-1.9,1.04-2.23l22.59-8.22c.9-.33,1.9.14,2.23,1.04s-.14,1.9-1.04,2.23l-22.59,8.22c-.2.07-.4.11-.6.11Z"/><circle class="cls-1" cx="336.29" cy="262.7" r="2.46"/><circle class="cls-1" cx="391.15" cy="260.24" r="2.46"/><circle class="cls-1" cx="391.15" cy="231.44" r="2.46"/><circle class="cls-1" cx="381.06" cy="272.38" r="2.46"/><circle class="cls-1" cx="381.06" cy="219.03" r="2.46"/><circle class="cls-1" cx="371.17" cy="283.61" r="2.46"/><circle class="cls-1" cx="371.17" cy="207.63" r="2.46"/><circle class="cls-1" cx="360.63" cy="293.57" r="2.46"/><circle class="cls-1" cx="360.63" cy="198.61" r="2.46"/><path class="cls-1" d="M250.17,384.73c-.96,0-1.74-.78-1.74-1.74v-58.83c0-.96.78-1.74,1.74-1.74s1.74.78,1.74,1.74v58.83c0,.96-.78,1.74-1.74,1.74Z"/><path class="cls-1" d="M262.32,342.07h-23.93c-.96,0-1.74-.78-1.74-1.74s.78-1.74,1.74-1.74h23.93c.96,0,1.74.78,1.74,1.74s-.78,1.74-1.74,1.74Z"/><path class="cls-1" d="M164.71,182.87c-12.28,0-22.27-9.99-22.27-22.27s9.99-22.27,22.27-22.27,22.27,9.99,22.27,22.27-9.99,22.27-22.27,22.27ZM164.71,145.29c-8.44,0-15.31,6.86-15.31,15.3s6.87,15.31,15.31,15.31,15.31-6.87,15.31-15.31-6.87-15.3-15.31-15.3Z"/><path class="cls-1" d="M164.71,182.87c-1.93,0-3.48-1.56-3.48-3.48v-37.58c0-1.93,1.56-3.48,3.48-3.48s3.48,1.56,3.48,3.48v37.58c0,1.93-1.56,3.48-3.48,3.48Z"/><path class="cls-1" d="M183.5,164.08h-37.58c-1.93,0-3.48-1.56-3.48-3.48s1.56-3.48,3.48-3.48h37.58c1.93,0,3.48,1.56,3.48,3.48s-1.56,3.48-3.48,3.48Z"/><path class="cls-1" d="M336.29,180.91c-12.28,0-22.27-9.99-22.27-22.27s9.99-22.27,22.27-22.27,22.27,9.99,22.27,22.27-9.99,22.27-22.27,22.27ZM336.29,143.33c-8.44,0-15.31,6.87-15.31,15.31s6.87,15.3,15.31,15.3,15.3-6.86,15.3-15.3-6.86-15.31-15.3-15.31Z"/><path class="cls-1" d="M336.29,180.91c-1.93,0-3.48-1.56-3.48-3.48v-37.58c0-1.93,1.56-3.48,3.48-3.48s3.48,1.56,3.48,3.48v37.58c0,1.93-1.56,3.48-3.48,3.48Z"/><path class="cls-1" d="M355.08,162.12h-37.58c-1.93,0-3.48-1.56-3.48-3.48s1.56-3.48,3.48-3.48h37.58c1.93,0,3.48,1.56,3.48,3.48s-1.56,3.48-3.48,3.48Z"/><circle class="cls-1" cx="269.39" cy="78.84" r="6.02"/><circle class="cls-1" cx="311.31" cy="89.48" r="6.02"/><circle class="cls-1" cx="349.64" cy="109.91" r="6.02"/><circle class="cls-1" cx="382.22" cy="141.48" r="6.02"/><circle class="cls-1" cx="405.08" cy="178.61" r="6.02"/><circle class="cls-1" cx="417.12" cy="220.71" r="6.02"/><circle class="cls-1" cx="416.84" cy="265.72" r="6.02"/><circle class="cls-1" cx="406.2" cy="307.64" r="6.02"/><circle class="cls-1" cx="385.77" cy="345.97" r="6.02"/><circle class="cls-1" cx="354.2" cy="378.55" r="6.02"/><circle class="cls-1" cx="317.07" cy="401.4" r="6.02"/><circle class="cls-1" cx="274.97" cy="413.45" r="6.02"/><circle class="cls-1" cx="224.92" cy="79.49" r="6.02"/><circle class="cls-1" cx="183.5" cy="91.97" r="6.02"/><circle class="cls-1" cx="146.11" cy="114.07" r="6.02"/><circle class="cls-1" cx="114.95" cy="147.04" r="6.02"/><circle class="cls-1" cx="93.76" cy="185.15" r="6.02"/><circle class="cls-1" cx="83.59" cy="227.74" r="6.02"/><circle class="cls-1" cx="85.85" cy="272.69" r="6.02"/><circle class="cls-1" cx="98.33" cy="314.1" r="6.02"/><circle class="cls-1" cx="120.43" cy="351.49" r="6.02"/><circle class="cls-1" cx="153.41" cy="382.65" r="6.02"/><circle class="cls-1" cx="191.51" cy="403.84" r="6.02"/><circle class="cls-1" cx="234.1" cy="414.02" r="6.02"/><circle class="cls-1" cx="243.84" cy="58.1" r="6.73"/><circle class="cls-1" cx="291.92" cy="62.96" r="6.73"/><circle class="cls-1" cx="337.64" cy="79.24" r="6.73"/><circle class="cls-1" cx="378.83" cy="108.77" r="6.73"/><circle class="cls-1" cx="410.19" cy="146.05" r="6.73"/><circle class="cls-1" cx="430.42" cy="190.6" r="6.73"/><circle class="cls-1" cx="437.51" cy="240.38" r="6.73"/><circle class="cls-1" cx="432.64" cy="288.46" r="6.73"/><circle class="cls-1" cx="416.36" cy="334.18" r="6.73"/><circle class="cls-1" cx="386.83" cy="375.37" r="6.73"/><circle class="cls-1" cx="349.55" cy="406.73" r="6.73"/><circle class="cls-1" cx="305" cy="426.96" r="6.73"/><circle class="cls-1" cx="194.8" cy="66.12" r="6.73"/><circle class="cls-1" cx="151.09" cy="86.72" r="6.73"/><circle class="cls-1" cx="113.4" cy="117.29" r="6.73"/><circle class="cls-1" cx="84.39" cy="158.85" r="6.73"/><circle class="cls-1" cx="67.23" cy="204.44" r="6.73"/><circle class="cls-1" cx="62.98" cy="253.19" r="6.73"/><circle class="cls-1" cx="72.88" cy="302.48" r="6.73"/><circle class="cls-1" cx="93.47" cy="346.2" r="6.73"/><circle class="cls-1" cx="124.04" cy="383.89" r="6.73"/><circle class="cls-1" cx="165.61" cy="412.9" r="6.73"/><circle class="cls-1" cx="211.2" cy="430.06" r="6.73"/><circle class="cls-1" cx="259.94" cy="434.3" r="6.73"/><path class="cls-1" d="M250.35,401.37c-85.44,0-154.95-69.51-154.95-154.95S164.91,91.47,250.35,91.47s154.95,69.51,154.95,154.95-69.51,154.95-154.95,154.95ZM250.35,98.44c-81.6,0-147.98,66.38-147.98,147.98s66.38,147.98,147.98,147.98,147.98-66.38,147.98-147.98-66.38-147.98-147.98-147.98Z"/></svg>