<?xml version="1.0" encoding="UTF-8"?><svg id="Layer_1" xmlns="http://www.w3.org/2000/svg" viewBox="0 0 500 500"><defs><style>.cls-1{fill:#e4dac7;stroke-width:0px;}</style></defs><path class="cls-1" d="M250.61,485.87c-130.06,0-235.87-105.81-235.87-235.87S120.55,14.13,250.61,14.13s235.87,105.81,235.87,235.87-105.81,235.87-235.87,235.87ZM250.61,27.86c-122.49,0-222.14,99.65-222.14,222.14s99.65,222.14,222.14,222.14,222.14-99.65,222.14-222.14S373.1,27.86,250.61,27.86Z"/><path class="cls-1" d="M250.61,435.44c-101.79,0-184.6-82.81-184.6-184.6S148.82,66.23,250.61,66.23s184.61,82.81,184.61,184.6-82.81,184.6-184.61,184.6ZM250.61,73.09c-98.01,0-177.74,79.73-177.74,177.74s79.73,177.74,177.74,177.74,177.74-79.73,177.74-177.74-79.73-177.74-177.74-177.74Z"/><path class="cls-1" d="M209.18,143c-.29,0-.59-.07-.86-.23l-51.42-29.68c-.82-.47-1.1-1.52-.63-2.34.47-.82,1.52-1.11,2.34-.63l51.42,29.68c.82.47,1.1,1.52.63,2.34-.32.55-.89.86-1.49.86Z"/><path class="cls-1" d="M192.41,150.45c-.15,0-.3-.02-.45-.06l-51.62-13.83c-.91-.24-1.46-1.19-1.21-2.1.25-.92,1.19-1.45,2.1-1.21l51.62,13.83c.91.24,1.46,1.19,1.21,2.1-.2.77-.9,1.27-1.66,1.27Z"/><path class="cls-1" d="M191.89,163.79h-53.44c-.95,0-1.72-.77-1.72-1.72s.77-1.72,1.72-1.72h53.44c.95,0,1.72.77,1.72,1.72s-.77,1.72-1.72,1.72Z"/><path class="cls-1" d="M112.98,177.13c-3.14,0-5.69-2.55-5.69-5.69s2.55-5.69,5.69-5.69,5.69,2.55,5.69,5.69-2.55,5.69-5.69,5.69ZM112.98,169.19c-1.24,0-2.26,1.01-2.26,2.26s1.01,2.26,2.26,2.26,2.26-1.01,2.26-2.26-1.01-2.26-2.26-2.26Z"/><path class="cls-1" d="M123.03,156.91c-3.13,0-5.69-2.55-5.69-5.69s2.55-5.69,5.69-5.69,5.69,2.55,5.69,5.69-2.55,5.69-5.69,5.69ZM123.03,148.96c-1.24,0-2.26,1.01-2.26,2.26s1.01,2.26,2.26,2.26,2.26-1.01,2.26-2.26-1.01-2.26-2.26-2.26Z"/><path class="cls-1" d="M250.61,463.98c-117.99,0-213.98-95.99-213.98-213.98S132.62,36.01,250.61,36.01s213.98,95.99,213.98,213.98-95.99,213.98-213.98,213.98ZM250.61,42.88c-114.21,0-207.12,92.91-207.12,207.12s92.91,207.12,207.12,207.12,207.12-92.91,207.12-207.12S364.82,42.88,250.61,42.88Z"/><path class="cls-1" d="M245.27,459.26c-3.69-.09-7.43-.28-11.11-.57l2.39-30.79c3.15.24,6.34.41,9.5.49l-.78,30.87ZM256.4,459.25l-.84-30.87c3.16-.09,6.35-.26,9.49-.51l2.47,30.78c-3.67.29-7.42.49-11.12.59ZM223.09,457.53c-3.67-.48-7.37-1.07-11-1.75l5.65-30.36c3.09.57,6.25,1.08,9.38,1.49l-4.03,30.62ZM278.59,457.47l-4.1-30.61c3.14-.42,6.3-.93,9.38-1.51l5.71,30.35c-3.61.68-7.31,1.27-10.99,1.77ZM201.18,453.46c-3.58-.87-7.19-1.84-10.75-2.91l8.85-29.59c3.03.91,6.12,1.74,9.17,2.48l-7.27,30.01ZM300.47,453.35l-7.31-30c3.05-.74,6.12-1.58,9.14-2.49l8.94,29.56c-3.55,1.07-7.17,2.06-10.77,2.94ZM179.84,447.06c-3.49-1.25-6.99-2.62-10.4-4.05l11.98-28.46c2.9,1.22,5.88,2.38,8.86,3.45l-10.44,29.06ZM321.81,446.91l-10.5-29.04c2.97-1.07,5.93-2.23,8.81-3.45l12.04,28.43c-3.39,1.44-6.87,2.8-10.35,4.06ZM159.27,438.4c-3.32-1.61-6.65-3.34-9.89-5.14l14.95-27.02c2.77,1.53,5.61,3.01,8.44,4.38l-13.5,27.77ZM342.28,438.24l-13.53-27.76c2.81-1.37,5.64-2.85,8.41-4.38l14.99,27c-3.24,1.8-6.56,3.53-9.87,5.14ZM139.76,427.6c-3.13-1.96-6.26-4.03-9.29-6.16l17.74-25.28c2.59,1.81,5.25,3.58,7.93,5.26l-16.38,26.18ZM361.73,427.43l-16.42-26.16c2.67-1.68,5.33-3.44,7.9-5.26l17.78,25.25c-3.02,2.12-6.13,4.2-9.26,6.16ZM121.52,414.8c-2.9-2.28-5.79-4.66-8.58-7.1l20.31-23.26c2.38,2.08,4.85,4.12,7.32,6.06l-19.06,24.3ZM379.92,414.62l-19.1-24.26c2.49-1.96,4.95-4.01,7.31-6.07l20.35,23.23c-2.76,2.42-5.64,4.81-8.56,7.1ZM104.75,400.15c-2.67-2.6-5.29-5.28-7.78-7.97l22.67-20.97c2.12,2.29,4.35,4.58,6.63,6.8l-21.53,22.14ZM396.66,399.96l-21.56-22.11c2.26-2.2,4.49-4.5,6.63-6.82l22.68,20.96c-2.51,2.71-5.12,5.39-7.76,7.97ZM89.63,383.82c-2.36-2.84-4.68-5.78-6.89-8.74l24.75-18.47c1.88,2.52,3.86,5.03,5.88,7.46l-23.74,19.75ZM411.77,383.6l-23.77-19.71c2.03-2.45,4-4.96,5.87-7.47l24.78,18.43c-2.19,2.95-4.51,5.89-6.88,8.76ZM76.32,365.98c-2.05-3.08-4.04-6.24-5.92-9.42l26.57-15.74c1.6,2.71,3.3,5.41,5.05,8.04l-25.7,17.12ZM425.06,365.73l-25.72-17.1c1.75-2.63,3.45-5.34,5.05-8.05l26.59,15.7c-1.88,3.18-3.87,6.36-5.92,9.45ZM64.99,346.85c-1.72-3.29-3.36-6.65-4.89-10l28.1-12.81c1.3,2.85,2.7,5.71,4.16,8.5l-27.37,14.31ZM436.4,346.54l-27.39-14.26c1.45-2.78,2.85-5.66,4.16-8.54l28.12,12.77c-1.54,3.39-3.18,6.77-4.89,10.04ZM55.75,326.62c-1.36-3.46-2.64-6.98-3.8-10.48l29.31-9.74c.99,2.97,2.08,5.97,3.23,8.91l-28.73,11.31ZM445.63,326.21l-28.77-11.23c1.15-2.95,2.24-5.96,3.23-8.96l29.32,9.7c-1.16,3.51-2.43,7.04-3.78,10.49ZM48.71,305.47c-.98-3.57-1.87-7.21-2.66-10.82l30.18-6.55c.67,3.07,1.43,6.17,2.26,9.21l-29.78,8.17ZM452.63,305.03l-29.8-8.09c.83-3.05,1.58-6.16,2.24-9.23l30.19,6.5c-.78,3.61-1.67,7.25-2.63,10.82ZM43.98,283.71c-.59-3.65-1.09-7.36-1.49-11.04l30.7-3.31c.34,3.13.76,6.3,1.27,9.41l-30.48,4.94ZM457.31,283.26l-30.49-4.86c.5-3.12.91-6.29,1.24-9.41l30.71,3.23c-.39,3.67-.88,7.39-1.46,11.04ZM41.59,261.57c-.2-3.65-.3-7.39-.32-11.11l30.88-.09c0,3.19.1,6.39.27,9.52l-30.83,1.68ZM459.65,261.11l-30.84-1.61c.16-3.15.25-6.35.25-9.51v-.83s30.88,0,30.88,0v.64c0,3.88-.09,7.62-.28,11.3ZM72.39,240.88l-30.84-1.55c.19-3.69.47-7.42.85-11.1l30.72,3.18c-.33,3.14-.57,6.33-.73,9.47ZM428.77,239.73c-.18-3.16-.44-6.34-.78-9.45l30.69-3.39c.41,3.66.71,7.39.92,11.11l-30.83,1.74ZM74.34,221.99l-30.51-4.81c.58-3.65,1.26-7.33,2.03-10.95l30.21,6.42c-.66,3.09-1.24,6.23-1.73,9.34ZM426.7,220.87c-.52-3.15-1.13-6.29-1.79-9.34l30.16-6.61c.78,3.57,1.49,7.25,2.09,10.93l-30.46,5.03ZM78.29,203.43l-29.82-8.04c.96-3.56,2.03-7.15,3.19-10.68l29.35,9.62c-.99,3.01-1.9,6.07-2.71,9.09ZM422.62,202.34c-.85-3.06-1.78-6.12-2.78-9.09l29.28-9.8c1.17,3.48,2.26,7.07,3.26,10.64l-29.76,8.25ZM84.21,185.39l-28.78-11.19c1.34-3.44,2.79-6.91,4.32-10.29l28.14,12.71c-1.3,2.88-2.54,5.83-3.68,8.77ZM416.59,184.32c-1.14-2.89-2.39-5.82-3.71-8.69l28.06-12.9c1.55,3.38,3.03,6.83,4.38,10.24l-28.72,11.35ZM92.03,168.07l-27.42-14.2c1.7-3.29,3.52-6.57,5.39-9.76l26.63,15.64c-1.6,2.72-3.14,5.52-4.6,8.32ZM408.69,167.12c-1.46-2.77-3.01-5.55-4.63-8.26l26.53-15.81c1.9,3.18,3.73,6.45,5.44,9.72l-27.34,14.35ZM101.66,151.68l-25.75-17.04c2.04-3.08,4.19-6.15,6.39-9.12l24.82,18.38c-1.88,2.54-3.71,5.16-5.46,7.79ZM398.99,150.83c-1.76-2.63-3.61-5.23-5.48-7.74l24.7-18.53c2.21,2.95,4.38,6,6.44,9.09l-25.66,17.18ZM112.97,136.41l-23.8-19.67c2.35-2.84,4.81-5.67,7.32-8.39l22.73,20.9c-2.14,2.33-4.24,4.74-6.25,7.17ZM387.61,135.64c-2.02-2.42-4.13-4.81-6.28-7.12l22.61-21.03c2.52,2.71,5,5.52,7.36,8.35l-23.7,19.8ZM125.83,122.42l-21.59-22.07c2.65-2.6,5.4-5.14,8.16-7.57l20.39,23.19c-2.36,2.07-4.7,4.24-6.96,6.46ZM374.67,121.73c-2.26-2.19-4.61-4.35-7-6.42l20.27-23.3c2.79,2.43,5.56,4.97,8.21,7.53l-21.48,22.19ZM140.09,109.88l-19.14-24.23c2.89-2.28,5.89-4.52,8.91-6.66l17.84,25.21c-2.59,1.83-5.14,3.74-7.61,5.69ZM360.35,109.26c-2.49-1.95-5.07-3.84-7.65-5.65l17.69-25.31c3.03,2.12,6.04,4.34,8.96,6.62l-19,24.34ZM155.58,98.92l-16.46-26.13c3.13-1.97,6.35-3.88,9.56-5.68l15.06,26.96c-2.74,1.53-5.49,3.16-8.16,4.85ZM344.76,98.38c-2.68-1.67-5.44-3.29-8.2-4.81l14.9-27.05c3.24,1.79,6.47,3.68,9.62,5.64l-16.32,26.22ZM172.14,89.68l-13.6-27.72c3.31-1.62,6.71-3.18,10.12-4.63l12.09,28.41c-2.9,1.23-5.8,2.56-8.61,3.94ZM328.11,89.21c-2.83-1.37-5.75-2.68-8.67-3.9l11.92-28.49c3.42,1.43,6.85,2.98,10.18,4.59l-13.44,27.8ZM189.56,82.26l-10.56-29.02c3.49-1.27,7.05-2.46,10.57-3.53l8.99,29.54c-3,.91-6.02,1.92-9,3.01ZM310.58,81.87c-2.96-1.06-5.99-2.05-9.02-2.95l8.8-29.6c3.56,1.06,7.12,2.22,10.6,3.46l-10.38,29.08ZM207.71,76.74l-7.4-29.98c3.6-.89,7.26-1.69,10.89-2.38l5.78,30.33c-3.09.59-6.21,1.27-9.27,2.03ZM292.4,76.47c-3.08-.74-6.21-1.4-9.29-1.97l5.59-30.37c3.62.67,7.28,1.44,10.89,2.31l-7.19,30.03ZM226.35,73.18l-4.16-30.6c3.66-.5,7.39-.9,11.07-1.21l2.53,30.78c-3.14.26-6.32.6-9.44,1.03ZM273.74,73.03c-3.14-.4-6.32-.73-9.45-.97l2.34-30.79c3.67.28,7.4.66,11.07,1.13l-3.95,30.63ZM245.29,71.63l-.91-30.87c2.08-.06,4.16-.06,6.25-.09,1.62,0,3.26.02,4.88.06l-.72,30.87c-1.44-.03-2.89-.07-4.33-.05-1.74,0-3.46.03-5.18.08Z"/><path class="cls-1" d="M245.71,418.28c-1.89,0-3.43-1.54-3.43-3.43v-137.27c-2.65-2.02-10.11-6.98-22.29-9.7-14.14-3.16-37.68-3.84-69.94,10.55l-27.1,92.57c-.53,1.82-2.44,2.87-4.26,2.33-1.82-.53-2.86-2.44-2.33-4.26l27.99-95.59,1.43-.65c67.37-30.77,100.88-.69,102.27.61l1.1,1.02v140.39c0,1.89-1.54,3.43-3.43,3.43Z"/><path class="cls-1" d="M100.4,354.25c-.39,0-.78-.07-1.16-.21-1.78-.64-2.71-2.61-2.06-4.39l21.51-59.61,1.08-.63c8.33-4.84,23.51-7.46,24.15-7.56,1.87-.33,3.64.94,3.96,2.81.32,1.87-.94,3.64-2.81,3.96-.14.02-13.28,2.29-20.79,6.15l-20.65,57.21c-.5,1.4-1.82,2.27-3.23,2.27Z"/><path class="cls-1" d="M86.15,333.07c-.47,0-.95-.1-1.41-.31-1.73-.78-2.49-2.81-1.71-4.54l11.13-24.59,1.04-.55c9.53-5.02,22.33-3.54,22.87-3.48,1.88.23,3.22,1.93,2.99,3.81-.22,1.88-1.94,3.19-3.81,3-.11-.02-10.29-1.17-17.84,2.24l-10.13,22.39c-.57,1.27-1.82,2.02-3.13,2.02Z"/><path class="cls-1" d="M245.71,432.45c-1.89,0-3.43-1.54-3.43-3.43v-153.22l.99-1c1.4-1.42,34.98-34.36,102.49-.66l1.38.69,27.95,104.33c.49,1.83-.6,3.71-2.43,4.2-1.83.5-3.71-.59-4.2-2.43l-27.14-101.33c-56.46-27.6-86.4-5.86-92.17-.88v150.31c0,1.89-1.54,3.43-3.43,3.43Z"/><path class="cls-1" d="M391.03,366.57c-1.46,0-2.81-.93-3.27-2.4l-20.71-65.39c-7.47-4.4-20.63-6.99-20.76-7.02-1.86-.36-3.08-2.16-2.71-4.02.36-1.86,2.14-3.06,4.02-2.72.64.13,15.88,3.12,24.24,8.65l1.01.67,21.45,67.75c.57,1.81-.43,3.73-2.23,4.31-.35.11-.69.16-1.04.16Z"/><path class="cls-1" d="M405.28,342.43c-1.36,0-2.65-.82-3.19-2.17l-10.19-25.67c-7.46-3.86-17.55-2.55-17.66-2.54-1.85.24-3.61-1.06-3.86-2.94-.25-1.87,1.06-3.6,2.93-3.86.55-.07,13.48-1.78,23.09,4l1,.6,11.07,27.88c.7,1.76-.16,3.76-1.92,4.45-.42.17-.84.24-1.27.24Z"/><path class="cls-1" d="M231.56,430.18c-.95,0-1.72-.77-1.72-1.72v-121.94c0-.95.77-1.72,1.72-1.72s1.72.77,1.72,1.72v121.94c0,.95-.77,1.72-1.72,1.72Z"/><path class="cls-1" d="M214.15,428.08c-.95,0-1.72-.77-1.72-1.72v-100.43c0-.95.77-1.72,1.72-1.72s1.72.77,1.72,1.72v100.43c0,.95-.77,1.72-1.72,1.72Z"/><path class="cls-1" d="M195.42,423.93c-.95,0-1.72-.77-1.72-1.72v-86.34c0-.95.77-1.72,1.72-1.72s1.72.77,1.72,1.72v86.34c0,.95-.77,1.72-1.72,1.72Z"/><path class="cls-1" d="M177.33,417.9c-.95,0-1.72-.77-1.72-1.72v-64.92c0-.95.77-1.72,1.72-1.72s1.72.77,1.72,1.72v64.92c0,.95-.77,1.72-1.72,1.72Z"/><path class="cls-1" d="M160.5,416.56c-.95,0-1.72-.77-1.72-1.72v-42.88c0-.95.77-1.72,1.72-1.72s1.72.77,1.72,1.72v42.88c0,.95-.77,1.72-1.72,1.72Z"/><path class="cls-1" d="M142.05,405.23c-.95,0-1.72-.77-1.72-1.72v-22.53c0-.95.77-1.72,1.72-1.72s1.72.77,1.72,1.72v22.53c0,.95-.77,1.72-1.72,1.72Z"/><path class="cls-1" d="M231.56,300.76c-3.14,0-5.69-2.55-5.69-5.69s2.55-5.69,5.69-5.69,5.69,2.55,5.69,5.69-2.55,5.69-5.69,5.69ZM231.56,292.82c-1.24,0-2.26,1.01-2.26,2.26s1.01,2.26,2.26,2.26,2.26-1.01,2.26-2.26-1.01-2.26-2.26-2.26Z"/><path class="cls-1" d="M214.15,320.84c-3.14,0-5.69-2.55-5.69-5.69s2.55-5.69,5.69-5.69,5.69,2.55,5.69,5.69-2.55,5.69-5.69,5.69ZM214.15,312.9c-1.24,0-2.26,1.01-2.26,2.26s1.01,2.26,2.26,2.26,2.26-1.01,2.26-2.26-1.01-2.26-2.26-2.26Z"/><path class="cls-1" d="M195.42,331.46c-3.14,0-5.69-2.55-5.69-5.69s2.55-5.69,5.69-5.69,5.69,2.55,5.69,5.69-2.55,5.69-5.69,5.69ZM195.42,323.51c-1.24,0-2.26,1.01-2.26,2.26s1.01,2.26,2.26,2.26,2.26-1.01,2.26-2.26-1.01-2.26-2.26-2.26Z"/><path class="cls-1" d="M177.33,346.89c-3.14,0-5.69-2.55-5.69-5.69s2.55-5.69,5.69-5.69,5.69,2.55,5.69,5.69-2.55,5.69-5.69,5.69ZM177.33,338.95c-1.24,0-2.26,1.01-2.26,2.26s1.01,2.26,2.26,2.26,2.26-1.01,2.26-2.26-1.01-2.26-2.26-2.26Z"/><path class="cls-1" d="M160.5,364.71c-3.14,0-5.69-2.55-5.69-5.69s2.55-5.69,5.69-5.69,5.69,2.55,5.69,5.69-2.55,5.69-5.69,5.69ZM160.5,356.76c-1.24,0-2.26,1.01-2.26,2.26s1.01,2.26,2.26,2.26,2.26-1.01,2.26-2.26-1.01-2.26-2.26-2.26Z"/><path class="cls-1" d="M142.05,373.68c-3.13,0-5.69-2.55-5.69-5.69s2.55-5.69,5.69-5.69,5.69,2.55,5.69,5.69-2.55,5.69-5.69,5.69ZM142.05,365.74c-1.24,0-2.26,1.01-2.26,2.26s1.01,2.26,2.26,2.26,2.26-1.01,2.26-2.26-1.01-2.26-2.26-2.26Z"/><path class="cls-1" d="M260.5,437.25c-.95,0-1.72-.77-1.72-1.72v-127.13c0-.95.77-1.72,1.72-1.72s1.72.77,1.72,1.72v127.13c0,.95-.77,1.72-1.72,1.72Z"/><path class="cls-1" d="M277.91,435.05c-.95,0-1.72-.77-1.72-1.72v-104.71c0-.95.77-1.72,1.72-1.72s1.72.77,1.72,1.72v104.71c0,.95-.77,1.72-1.72,1.72Z"/><path class="cls-1" d="M296.64,430.73c-.95,0-1.72-.77-1.72-1.72v-90.01c0-.95.77-1.72,1.72-1.72s1.72.77,1.72,1.72v90.01c0,.95-.77,1.72-1.72,1.72Z"/><path class="cls-1" d="M314.73,424.44c-.95,0-1.72-.77-1.72-1.72v-67.68c0-.95.77-1.72,1.72-1.72s1.72.77,1.72,1.72v67.68c0,.95-.77,1.72-1.72,1.72Z"/><path class="cls-1" d="M331.56,416.56c-.95,0-1.72-.77-1.72-1.72v-42.88c0-.95.77-1.72,1.72-1.72s1.72.77,1.72,1.72v42.88c0,.95-.77,1.72-1.72,1.72Z"/><path class="cls-1" d="M350.01,405.23c-.95,0-1.72-.77-1.72-1.72v-22.53c0-.95.77-1.72,1.72-1.72s1.72.77,1.72,1.72v22.53c0,.95-.77,1.72-1.72,1.72Z"/><path class="cls-1" d="M260.5,300.76c-3.14,0-5.69-2.55-5.69-5.69s2.55-5.69,5.69-5.69,5.69,2.55,5.69,5.69-2.55,5.69-5.69,5.69ZM260.5,292.82c-1.24,0-2.26,1.01-2.26,2.26s1.01,2.26,2.26,2.26,2.26-1.01,2.26-2.26-1.01-2.26-2.26-2.26Z"/><path class="cls-1" d="M277.91,320.84c-3.14,0-5.69-2.55-5.69-5.69s2.55-5.69,5.69-5.69,5.69,2.55,5.69,5.69-2.55,5.69-5.69,5.69ZM277.91,312.9c-1.24,0-2.26,1.01-2.26,2.26s1.01,2.26,2.26,2.26,2.26-1.01,2.26-2.26-1.01-2.26-2.26-2.26Z"/><path class="cls-1" d="M296.64,331.46c-3.14,0-5.69-2.55-5.69-5.69s2.55-5.69,5.69-5.69,5.69,2.55,5.69,5.69-2.55,5.69-5.69,5.69ZM296.64,323.51c-1.24,0-2.26,1.01-2.26,2.26s1.01,2.26,2.26,2.26,2.26-1.01,2.26-2.26-1.01-2.26-2.26-2.26Z"/><path class="cls-1" d="M314.73,346.89c-3.14,0-5.69-2.55-5.69-5.69s2.55-5.69,5.69-5.69,5.69,2.55,5.69,5.69-2.55,5.69-5.69,5.69ZM314.73,338.95c-1.24,0-2.26,1.01-2.26,2.26s1.01,2.26,2.26,2.26,2.26-1.01,2.26-2.26-1.01-2.26-2.26-2.26Z"/><path class="cls-1" d="M331.56,364.71c-3.14,0-5.69-2.55-5.69-5.69s2.55-5.69,5.69-5.69,5.69,2.55,5.69,5.69-2.55,5.69-5.69,5.69ZM331.56,356.76c-1.25,0-2.26,1.01-2.26,2.26s1.01,2.26,2.26,2.26,2.26-1.01,2.26-2.26-1.01-2.26-2.26-2.26Z"/><path class="cls-1" d="M350.01,373.68c-3.14,0-5.69-2.55-5.69-5.69s2.55-5.69,5.69-5.69,5.69,2.55,5.69,5.69-2.55,5.69-5.69,5.69ZM350.01,365.74c-1.25,0-2.26,1.01-2.26,2.26s1.01,2.26,2.26,2.26,2.26-1.01,2.26-2.26-1.01-2.26-2.26-2.26Z"/><path class="cls-1" d="M237.53,273.44c-1.89,0-3.43-1.54-3.43-3.43v-95.58h-34.71c-1.89,0-3.43-1.54-3.43-3.43v-13.42c0-1.89,1.54-3.43,3.43-3.43h34.71v-38.44c0-1.89,1.54-3.43,3.43-3.43h8.75c1.89,0,3.43,1.54,3.43,3.43s-1.54,3.43-3.43,3.43h-5.32v38.44c0,1.89-1.54,3.43-3.43,3.43h-34.71v6.56h34.71c1.89,0,3.43,1.54,3.43,3.43v99.01c0,1.89-1.54,3.43-3.43,3.43Z"/><path class="cls-1" d="M254.46,273.44c-1.89,0-3.43-1.54-3.43-3.43v-99.01c0-1.89,1.54-3.43,3.43-3.43h34.71v-6.56h-34.71c-1.89,0-3.43-1.54-3.43-3.43v-38.44h-5.32c-1.89,0-3.43-1.54-3.43-3.43s1.54-3.43,3.43-3.43h8.75c1.89,0,3.43,1.54,3.43,3.43v38.44h34.71c1.9,0,3.43,1.54,3.43,3.43v13.42c0,1.89-1.53,3.43-3.43,3.43h-34.71v95.58c0,1.89-1.54,3.43-3.43,3.43Z"/><path class="cls-1" d="M245.71,106.02c-.95,0-1.72-.77-1.72-1.72v-18.45c0-.95.77-1.72,1.72-1.72s1.72.77,1.72,1.72v18.45c0,.95-.77,1.72-1.72,1.72Z"/><path class="cls-1" d="M230.67,106.87c-.76,0-1.45-.5-1.66-1.27l-4.77-17.82c-.24-.91.3-1.86,1.21-2.1s1.86.3,2.1,1.21l4.77,17.82c.24.91-.3,1.86-1.21,2.1-.15.04-.3.06-.45.06Z"/><path class="cls-1" d="M225.97,130.7c-.59,0-1.17-.31-1.49-.86l-21.69-37.56c-.47-.82-.19-1.87.63-2.34.81-.48,1.87-.19,2.34.63l21.69,37.56c.47.82.19,1.87-.63,2.34-.27.16-.56.23-.86.23Z"/><path class="cls-1" d="M221.48,144.06c-.44,0-.88-.17-1.21-.5l-41.98-41.98c-.67-.67-.67-1.76,0-2.43s1.76-.67,2.43,0l41.98,41.98c.67.67.67,1.76,0,2.43-.34.34-.77.5-1.21.5Z"/><path class="cls-1" d="M137.46,195.06c-.76,0-1.45-.5-1.66-1.27-.24-.91.3-1.86,1.21-2.1l51.62-13.83c.92-.25,1.86.3,2.1,1.21.24.91-.3,1.86-1.21,2.1l-51.62,13.83c-.15.04-.3.06-.45.06Z"/><path class="cls-1" d="M146.61,221.09c-.59,0-1.17-.31-1.49-.86-.47-.82-.19-1.87.63-2.34l58.3-33.66c.81-.47,1.87-.19,2.34.63.47.82.19,1.87-.63,2.34l-58.3,33.66c-.27.16-.56.23-.86.23Z"/><path class="cls-1" d="M165.27,246.69c-.44,0-.88-.17-1.21-.5-.67-.67-.67-1.76,0-2.43l58.12-58.12c.67-.67,1.76-.67,2.43,0s.67,1.76,0,2.43l-58.12,58.12c-.34.34-.77.5-1.21.5Z"/><path class="cls-1" d="M200.48,253.21c-.29,0-.59-.07-.86-.23-.82-.47-1.1-1.52-.63-2.34l24.34-42.15c.47-.82,1.52-1.1,2.34-.63.82.47,1.1,1.52.63,2.34l-24.34,42.15c-.32.55-.89.86-1.49.86Z"/><path class="cls-1" d="M224.3,251.71c-.15,0-.3-.02-.45-.06-.91-.24-1.46-1.19-1.21-2.1l.95-3.55c.25-.92,1.19-1.46,2.1-1.21.91.24,1.46,1.19,1.21,2.1l-.95,3.55c-.21.77-.9,1.27-1.66,1.27Z"/><path class="cls-1" d="M260.18,106.87c-.15,0-.3-.02-.45-.06-.91-.24-1.46-1.19-1.21-2.1l4.78-17.82c.24-.91,1.19-1.46,2.1-1.21.91.24,1.46,1.19,1.21,2.1l-4.78,17.82c-.2.77-.9,1.27-1.66,1.27Z"/><path class="cls-1" d="M264.88,130.7c-.29,0-.59-.07-.86-.23-.82-.47-1.1-1.52-.63-2.34l21.69-37.56c.47-.82,1.52-1.1,2.34-.63.82.47,1.1,1.52.63,2.34l-21.68,37.56c-.32.55-.89.86-1.49.86Z"/><path class="cls-1" d="M269.37,144.06c-.44,0-.88-.17-1.21-.5-.67-.67-.67-1.76,0-2.43l41.98-41.98c.67-.67,1.76-.67,2.43,0s.67,1.76,0,2.43l-41.98,41.98c-.34.34-.78.5-1.21.5Z"/><path class="cls-1" d="M286.57,147.1c-.59,0-1.17-.31-1.48-.86-.48-.82-.19-1.87.63-2.34l51.41-29.68c.82-.47,1.87-.2,2.34.63.48.82.19,1.87-.63,2.34l-51.41,29.68c-.27.16-.57.23-.86.23Z"/><path class="cls-1" d="M303.34,154.55c-.76,0-1.45-.5-1.66-1.27-.24-.91.3-1.86,1.21-2.1l51.62-13.83c.93-.24,1.86.3,2.1,1.21.24.91-.3,1.86-1.21,2.1l-51.62,13.83c-.15.04-.3.06-.45.06Z"/><path class="cls-1" d="M357.3,167.89h-53.44c-.95,0-1.72-.77-1.72-1.72s.77-1.72,1.72-1.72h53.44c.95,0,1.72.77,1.72,1.72s-.77,1.72-1.72,1.72Z"/><path class="cls-1" d="M353.39,195.06c-.15,0-.29-.02-.45-.06l-51.62-13.83c-.91-.24-1.46-1.19-1.21-2.1.25-.92,1.19-1.46,2.1-1.21l51.62,13.83c.91.24,1.46,1.19,1.21,2.1-.21.77-.9,1.27-1.66,1.27Z"/><path class="cls-1" d="M344.25,221.09c-.29,0-.59-.07-.86-.23l-58.31-33.66c-.82-.47-1.1-1.52-.63-2.34.47-.82,1.52-1.1,2.34-.63l58.31,33.66c.82.47,1.1,1.52.63,2.34-.31.55-.89.86-1.48.86Z"/><path class="cls-1" d="M325.58,246.69c-.44,0-.88-.17-1.21-.5l-58.12-58.12c-.67-.67-.67-1.76,0-2.43s1.76-.67,2.43,0l58.12,58.12c.67.67.67,1.76,0,2.43-.34.34-.77.5-1.21.5Z"/><path class="cls-1" d="M290.36,253.21c-.59,0-1.17-.31-1.48-.86l-24.34-42.15c-.47-.82-.19-1.87.63-2.34.82-.48,1.87-.19,2.34.63l24.33,42.15c.48.82.19,1.87-.63,2.34-.27.16-.57.23-.86.23Z"/><path class="cls-1" d="M266.55,251.71c-.76,0-1.45-.51-1.66-1.27l-.95-3.55c-.24-.92.3-1.86,1.21-2.1.91-.25,1.86.3,2.1,1.21l.95,3.55c.24.92-.3,1.86-1.21,2.1-.15.04-.3.06-.45.06Z"/><path class="cls-1" d="M368.23,264.26c-3.14,0-5.69-2.55-5.69-5.69s2.55-5.69,5.69-5.69,5.69,2.55,5.69,5.69-2.55,5.69-5.69,5.69ZM368.23,256.31c-1.25,0-2.26,1.01-2.26,2.26s1.01,2.26,2.26,2.26,2.26-1.01,2.26-2.26-1.01-2.26-2.26-2.26Z"/><path class="cls-1" d="M375.74,242.78c-3.14,0-5.69-2.55-5.69-5.69s2.55-5.69,5.69-5.69,5.69,2.55,5.69,5.69-2.55,5.69-5.69,5.69ZM375.74,234.84c-1.25,0-2.26,1.01-2.26,2.26s1.01,2.26,2.26,2.26,2.26-1.01,2.26-2.26-1.01-2.26-2.26-2.26Z"/><path class="cls-1" d="M389.53,261.15c-3.14,0-5.69-2.55-5.69-5.69s2.55-5.69,5.69-5.69,5.69,2.55,5.69,5.69-2.55,5.69-5.69,5.69ZM389.53,253.21c-1.25,0-2.26,1.01-2.26,2.26s1.01,2.26,2.26,2.26,2.26-1.01,2.26-2.26-1.01-2.26-2.26-2.26Z"/><path class="cls-1" d="M395,238.81c-3.14,0-5.69-2.55-5.69-5.69s2.55-5.69,5.69-5.69,5.69,2.55,5.69,5.69-2.55,5.69-5.69,5.69ZM395,230.86c-1.25,0-2.26,1.01-2.26,2.26s1.01,2.26,2.26,2.26,2.26-1.01,2.26-2.26-1.01-2.26-2.26-2.26Z"/><path class="cls-1" d="M385.55,221.61c-2.87,0-5.35-2.18-5.66-5.1h0c-.16-1.51.28-2.99,1.24-4.17s2.32-1.91,3.83-2.07c3.12-.34,5.92,1.95,6.24,5.07.33,3.12-1.95,5.92-5.07,6.25-.2.02-.4.03-.59.03ZM383.31,216.15c.13,1.23,1.25,2.14,2.48,2.01,1.24-.13,2.14-1.24,2.01-2.48-.13-1.24-1.26-2.15-2.48-2.01-.6.06-1.14.35-1.52.82-.38.47-.55,1.06-.49,1.66h0Z"/><path class="cls-1" d="M383.68,281.35c-3.14,0-5.69-2.55-5.69-5.69s2.55-5.69,5.69-5.69,5.69,2.55,5.69,5.69-2.55,5.69-5.69,5.69ZM383.68,273.41c-1.24,0-2.26,1.01-2.26,2.26s1.01,2.26,2.26,2.26,2.26-1.01,2.26-2.26-1.01-2.26-2.26-2.26Z"/><path class="cls-1" d="M405.28,275.7c-3.14,0-5.69-2.55-5.69-5.69s2.55-5.69,5.69-5.69,5.69,2.55,5.69,5.69-2.55,5.69-5.69,5.69ZM405.28,267.75c-1.24,0-2.26,1.01-2.26,2.26s1.01,2.26,2.26,2.26,2.26-1.01,2.26-2.26-1.01-2.26-2.26-2.26Z"/><path class="cls-1" d="M381.58,199.03c-3.14,0-5.69-2.55-5.69-5.69s2.55-5.69,5.69-5.69,5.69,2.55,5.69,5.69-2.55,5.69-5.69,5.69ZM381.58,191.09c-1.25,0-2.26,1.01-2.26,2.26s1.01,2.26,2.26,2.26,2.26-1.01,2.26-2.26-1.01-2.26-2.26-2.26Z"/><path class="cls-1" d="M401.31,209.85c-3.14,0-5.69-2.55-5.69-5.69s2.55-5.69,5.69-5.69,5.69,2.55,5.69,5.69-2.55,5.69-5.69,5.69ZM401.31,201.91c-1.24,0-2.26,1.01-2.26,2.26s1.01,2.26,2.26,2.26,2.26-1.01,2.26-2.26-1.01-2.26-2.26-2.26Z"/><path class="cls-1" d="M387.66,181.23c-3.14,0-5.69-2.55-5.69-5.69s2.55-5.69,5.69-5.69,5.69,2.55,5.69,5.69-2.55,5.69-5.69,5.69ZM387.66,173.28c-1.25,0-2.26,1.01-2.26,2.26s1.01,2.26,2.26,2.26,2.26-1.01,2.26-2.26-1.01-2.26-2.26-2.26Z"/><path class="cls-1" d="M346.94,262.77c-3.14,0-5.69-2.55-5.69-5.69s2.55-5.69,5.69-5.69,5.69,2.55,5.69,5.69-2.55,5.69-5.69,5.69ZM346.94,254.83c-1.24,0-2.26,1.01-2.26,2.26s1.01,2.26,2.26,2.26,2.26-1.01,2.26-2.26-1.01-2.26-2.26-2.26Z"/><path class="cls-1" d="M402.94,296.79c-3.14,0-5.69-2.55-5.69-5.69s2.55-5.69,5.69-5.69,5.69,2.55,5.69,5.69-2.55,5.69-5.69,5.69ZM402.94,288.85c-1.24,0-2.26,1.01-2.26,2.26s1.01,2.26,2.26,2.26,2.26-1.01,2.26-2.26-1.01-2.26-2.26-2.26Z"/><path class="cls-1" d="M409.25,250.66c-3.14,0-5.69-2.55-5.69-5.69s2.55-5.69,5.69-5.69,5.69,2.55,5.69,5.69-2.55,5.69-5.69,5.69ZM409.25,242.72c-1.25,0-2.26,1.01-2.26,2.26s1.01,2.26,2.26,2.26,2.26-1.01,2.26-2.26-1.01-2.26-2.26-2.26Z"/><path class="cls-1" d="M377.61,161.01c-3.14,0-5.69-2.55-5.69-5.69s2.55-5.69,5.69-5.69,5.69,2.55,5.69,5.69-2.55,5.69-5.69,5.69ZM377.61,153.06c-1.24,0-2.26,1.01-2.26,2.26s1.01,2.26,2.26,2.26,2.26-1.01,2.26-2.26-1.01-2.26-2.26-2.26Z"/><path class="cls-1" d="M127.51,264.26c-3.14,0-5.69-2.55-5.69-5.69s2.55-5.69,5.69-5.69,5.69,2.55,5.69,5.69-2.55,5.69-5.69,5.69ZM127.51,256.31c-1.24,0-2.26,1.01-2.26,2.26s1.01,2.26,2.26,2.26,2.26-1.01,2.26-2.26-1.01-2.26-2.26-2.26Z"/><path class="cls-1" d="M120,242.78c-3.14,0-5.69-2.55-5.69-5.69s2.55-5.69,5.69-5.69,5.69,2.55,5.69,5.69-2.55,5.69-5.69,5.69ZM120,234.84c-1.24,0-2.26,1.01-2.26,2.26s1.01,2.26,2.26,2.26,2.26-1.01,2.26-2.26-1.01-2.26-2.26-2.26Z"/><path class="cls-1" d="M106.22,261.15c-3.14,0-5.69-2.55-5.69-5.69s2.55-5.69,5.69-5.69,5.69,2.55,5.69,5.69-2.55,5.69-5.69,5.69ZM106.22,253.21c-1.24,0-2.26,1.01-2.26,2.26s1.01,2.26,2.26,2.26,2.26-1.01,2.26-2.26-1.01-2.26-2.26-2.26Z"/><path class="cls-1" d="M100.74,238.81c-3.14,0-5.69-2.55-5.69-5.69s2.55-5.69,5.69-5.69,5.69,2.55,5.69,5.69-2.55,5.69-5.69,5.69ZM100.74,230.86c-1.24,0-2.26,1.01-2.26,2.26s1.01,2.26,2.26,2.26,2.26-1.01,2.26-2.26-1.01-2.26-2.26-2.26Z"/><path class="cls-1" d="M110.2,221.61c-.2,0-.39-.01-.59-.03-1.51-.16-2.87-.89-3.83-2.07-.96-1.18-1.4-2.66-1.24-4.17.32-3.12,3.11-5.37,6.24-5.07,3.12.33,5.39,3.13,5.07,6.25h0c-.3,2.92-2.78,5.1-5.65,5.1ZM110.19,213.66c-1.14,0-2.12.86-2.24,2.02-.06.6.11,1.19.49,1.66.38.47.92.76,1.52.82,1.25.11,2.35-.78,2.48-2.01.13-1.24-.78-2.35-2.01-2.48-.08,0-.16-.01-.23-.01Z"/><path class="cls-1" d="M112.06,281.35c-3.14,0-5.69-2.55-5.69-5.69s2.55-5.69,5.69-5.69,5.69,2.55,5.69,5.69-2.55,5.69-5.69,5.69ZM112.06,273.41c-1.24,0-2.26,1.01-2.26,2.26s1.01,2.26,2.26,2.26,2.26-1.01,2.26-2.26-1.01-2.26-2.26-2.26Z"/><path class="cls-1" d="M90.47,275.7c-3.14,0-5.69-2.55-5.69-5.69s2.55-5.69,5.69-5.69,5.69,2.55,5.69,5.69-2.55,5.69-5.69,5.69ZM90.47,267.75c-1.24,0-2.26,1.01-2.26,2.26s1.01,2.26,2.26,2.26,2.26-1.01,2.26-2.26-1.01-2.26-2.26-2.26Z"/><path class="cls-1" d="M114.16,199.03c-3.14,0-5.69-2.55-5.69-5.69s2.55-5.69,5.69-5.69,5.69,2.55,5.69,5.69-2.55,5.69-5.69,5.69ZM114.16,191.09c-1.24,0-2.26,1.01-2.26,2.26s1.01,2.26,2.26,2.26,2.26-1.01,2.26-2.26-1.01-2.26-2.26-2.26Z"/><path class="cls-1" d="M94.44,209.85c-3.14,0-5.69-2.55-5.69-5.69s2.55-5.69,5.69-5.69,5.69,2.55,5.69,5.69-2.55,5.69-5.69,5.69ZM94.44,201.91c-1.24,0-2.26,1.01-2.26,2.26s1.01,2.26,2.26,2.26,2.26-1.01,2.26-2.26-1.01-2.26-2.26-2.26Z"/><path class="cls-1" d="M148.8,262.77c-3.13,0-5.69-2.55-5.69-5.69s2.55-5.69,5.69-5.69,5.69,2.55,5.69,5.69-2.55,5.69-5.69,5.69ZM148.8,254.83c-1.24,0-2.26,1.01-2.26,2.26s1.01,2.26,2.26,2.26,2.26-1.01,2.26-2.26-1.01-2.26-2.26-2.26Z"/><path class="cls-1" d="M92.8,296.79c-3.14,0-5.69-2.55-5.69-5.69s2.55-5.69,5.69-5.69,5.69,2.55,5.69,5.69-2.55,5.69-5.69,5.69ZM92.8,288.85c-1.24,0-2.26,1.01-2.26,2.26s1.01,2.26,2.26,2.26,2.26-1.01,2.26-2.26-1.01-2.26-2.26-2.26Z"/><path class="cls-1" d="M86.5,250.66c-3.14,0-5.69-2.55-5.69-5.69s2.55-5.69,5.69-5.69,5.69,2.55,5.69,5.69-2.55,5.69-5.69,5.69ZM86.5,242.72c-1.24,0-2.26,1.01-2.26,2.26s1.01,2.26,2.26,2.26,2.26-1.01,2.26-2.26-1.01-2.26-2.26-2.26Z"/></svg>