<?xml version="1.0" encoding="UTF-8"?><svg id="Layer_1" xmlns="http://www.w3.org/2000/svg" viewBox="0 0 500 500"><defs><style>.cls-1{fill:#e4dac7;stroke-width:0px;}</style></defs><path class="cls-1" d="M250,485.87c-132.03,0-239.44-107.41-239.44-239.44S117.97,6.98,250,6.98s239.44,107.41,239.44,239.44-107.41,239.44-239.44,239.44ZM250,20.91C125.65,20.91,24.49,122.08,24.49,246.42s101.16,225.51,225.51,225.51,225.51-101.16,225.51-225.51S374.35,20.91,250,20.91Z"/><path class="cls-1" d="M250.01,419.41c-95.29,0-172.82-77.52-172.82-172.82S154.72,73.77,250.01,73.77s172.82,77.52,172.82,172.82-77.53,172.82-172.82,172.82ZM250.01,77.26c-93.37,0-169.33,75.96-169.33,169.33s75.96,169.33,169.33,169.33,169.33-75.96,169.33-169.33-75.96-169.33-169.33-169.33Z"/><path class="cls-1" d="M275.39,63.05h-.17c-2.31-.04-4.47-.98-6.07-2.65-1.6-1.66-2.46-3.85-2.42-6.16.09-4.77,4.09-8.53,8.81-8.5,4.77.09,8.58,4.04,8.5,8.81-.04,2.31-.98,4.47-2.65,6.08-1.62,1.56-3.75,2.42-6,2.42ZM275.38,49.23c-2.81,0-5.12,2.26-5.17,5.08-.03,1.38.49,2.69,1.45,3.68.96,1,2.25,1.56,3.63,1.58,1.33-.02,2.69-.49,3.68-1.45s1.56-2.25,1.58-3.63h0c.05-2.85-2.22-5.21-5.08-5.27h-.09Z"/><path class="cls-1" d="M323.29,76.14h-.16c-4.77-.09-8.58-4.04-8.5-8.81.04-2.31.98-4.47,2.65-6.08,1.67-1.6,3.9-2.38,6.17-2.42,2.31.04,4.47.98,6.07,2.65,1.6,1.66,2.46,3.85,2.42,6.16-.09,4.72-3.95,8.5-8.65,8.5ZM323.28,62.32c-1.35,0-2.61.51-3.58,1.45-.99.96-1.56,2.25-1.58,3.63-.05,2.85,2.22,5.21,5.08,5.27,2.92.05,5.21-2.23,5.26-5.08.03-1.38-.49-2.69-1.45-3.68-.96-1-2.25-1.56-3.63-1.58h-.1Z"/><path class="cls-1" d="M366.87,100.4h-.17c-2.31-.04-4.47-.98-6.07-2.65-1.61-1.66-2.46-3.85-2.42-6.17.09-4.77,4.13-8.47,8.81-8.49,4.77.09,8.58,4.04,8.5,8.81-.04,2.31-.98,4.47-2.65,6.07-1.63,1.57-3.75,2.42-6,2.42ZM366.86,86.58c-2.81,0-5.12,2.26-5.17,5.08-.03,1.38.49,2.69,1.45,3.68.96,1,2.25,1.56,3.63,1.58,1.37-.06,2.69-.49,3.69-1.45s1.56-2.25,1.58-3.63l1.74.03-1.74-.03c.05-2.85-2.22-5.21-5.08-5.27h-.09Z"/><path class="cls-1" d="M403.6,137.33h-.16c-4.77-.09-8.58-4.04-8.5-8.82.04-2.31.98-4.47,2.65-6.07,1.66-1.61,3.88-2.42,6.17-2.42,2.31.04,4.47.98,6.07,2.65,1.61,1.66,2.47,3.85,2.42,6.16-.09,4.72-3.95,8.5-8.66,8.5ZM403.6,123.51c-1.35,0-2.61.51-3.59,1.45-.99.96-1.55,2.25-1.58,3.63-.05,2.85,2.22,5.21,5.08,5.27h.09c2.81,0,5.12-2.26,5.17-5.08.03-1.38-.49-2.69-1.45-3.68-.96-1-2.25-1.56-3.63-1.58h-.1Z"/><path class="cls-1" d="M429.06,180.44h-.16c-4.77-.09-8.58-4.04-8.5-8.81.04-2.31.98-4.47,2.65-6.08,1.67-1.6,3.87-2.39,6.17-2.42,2.31.04,4.47.98,6.07,2.65,1.6,1.66,2.46,3.85,2.42,6.16-.04,2.31-.98,4.47-2.65,6.08-1.62,1.56-3.75,2.42-6,2.42ZM429.05,166.61c-1.34,0-2.61.51-3.58,1.45-.99.96-1.56,2.25-1.58,3.63-.05,2.85,2.22,5.21,5.08,5.27,1.42,0,2.69-.49,3.68-1.45.99-.96,1.56-2.25,1.58-3.63s-.49-2.69-1.45-3.68c-.96-1-2.25-1.56-3.63-1.58h-.1Z"/><path class="cls-1" d="M442,229.02h-.17c-2.31-.04-4.47-.98-6.07-2.65-1.6-1.66-2.46-3.85-2.42-6.16.09-4.72,3.95-8.5,8.65-8.5h.16c4.77.09,8.58,4.04,8.5,8.81-.04,2.31-.98,4.47-2.65,6.08-1.62,1.56-3.75,2.42-6,2.42ZM441.99,215.2c-2.81,0-5.12,2.26-5.17,5.08-.03,1.38.49,2.69,1.45,3.68.96,1,2.25,1.56,3.63,1.58,1.34-.06,2.69-.49,3.68-1.45s1.56-2.25,1.58-3.63h0c.05-2.85-2.22-5.21-5.08-5.27h-.09Z"/><path class="cls-1" d="M440.72,280.68h-.16c-4.77-.09-8.58-4.04-8.5-8.81.04-2.31.98-4.47,2.65-6.08,1.67-1.6,3.86-2.43,6.17-2.42,2.31.04,4.47.98,6.07,2.65,1.6,1.66,2.46,3.85,2.42,6.16-.09,4.72-3.95,8.5-8.65,8.5ZM440.63,277.2c2.99.08,5.21-2.23,5.27-5.08.03-1.38-.49-2.69-1.45-3.68-.96-1-2.25-1.56-3.63-1.58-1.44,0-2.69.49-3.69,1.45-.99.96-1.56,2.25-1.58,3.63-.05,2.85,2.22,5.21,5.08,5.27h0Z"/><path class="cls-1" d="M427.63,328.58h-.16c-4.77-.09-8.58-4.04-8.49-8.81.04-2.31.98-4.47,2.65-6.07,1.67-1.61,3.89-2.37,6.17-2.42,2.31.04,4.47.98,6.07,2.65,1.6,1.66,2.46,3.85,2.42,6.16-.09,4.72-3.95,8.5-8.66,8.5ZM427.54,325.1c2.97.03,5.21-2.23,5.27-5.08.03-1.38-.49-2.69-1.45-3.68-.96-1-2.25-1.56-3.63-1.58-1.39-.04-2.69.49-3.69,1.45-.99.96-1.55,2.25-1.58,3.63-.05,2.85,2.22,5.21,5.07,5.27h0Z"/><path class="cls-1" d="M403.37,372.16h-.16c-4.77-.09-8.58-4.04-8.49-8.81.04-2.31.98-4.47,2.65-6.07,1.67-1.61,3.92-2.37,6.17-2.42,2.31.04,4.47.98,6.07,2.64,1.61,1.67,2.47,3.85,2.42,6.17-.09,4.72-3.95,8.5-8.66,8.5ZM403.28,368.68c2.92.03,5.21-2.23,5.27-5.08.03-1.38-.49-2.69-1.45-3.69-.96-.99-2.25-1.55-3.63-1.58-1.4-.03-2.69.48-3.69,1.45-.99.96-1.55,2.25-1.58,3.63-.05,2.85,2.22,5.21,5.07,5.27h0Z"/><path class="cls-1" d="M366.45,408.9h-.16c-4.77-.09-8.58-4.04-8.5-8.81.09-4.77,4.11-8.43,8.81-8.5,4.77.09,8.58,4.04,8.5,8.82-.09,4.71-3.95,8.49-8.65,8.49ZM366.35,405.41c2.95,0,5.21-2.23,5.27-5.08.05-2.85-2.22-5.21-5.08-5.27-2.93-.07-5.21,2.23-5.27,5.08-.05,2.85,2.22,5.21,5.08,5.27h0Z"/><path class="cls-1" d="M323.35,434.35h-.16c-2.31-.04-4.47-.98-6.07-2.65-1.6-1.66-2.46-3.85-2.42-6.16.09-4.77,4.12-8.56,8.81-8.5,4.77.09,8.58,4.04,8.5,8.81-.04,2.31-.98,4.47-2.65,6.08-1.63,1.57-3.75,2.42-6,2.42ZM323.34,420.53c-2.81,0-5.12,2.26-5.17,5.08-.03,1.38.49,2.69,1.45,3.68.96,1,2.25,1.56,3.63,1.58h0c1.37-.08,2.69-.49,3.68-1.45.99-.96,1.56-2.25,1.58-3.63.05-2.85-2.22-5.21-5.08-5.27h-.09Z"/><path class="cls-1" d="M274.76,447.29h-.16c-2.31-.04-4.47-.98-6.07-2.65-1.61-1.66-2.46-3.85-2.42-6.17.09-4.71,3.95-8.49,8.65-8.49h.16c4.77.09,8.58,4.04,8.5,8.81-.04,2.31-.98,4.47-2.65,6.08-1.63,1.57-3.75,2.42-6,2.42ZM274.76,433.47c-2.81,0-5.12,2.26-5.17,5.08-.03,1.38.49,2.69,1.45,3.68.96,1,2.25,1.56,3.63,1.58h0c1.39-.07,2.69-.49,3.68-1.45.99-.96,1.56-2.25,1.58-3.63.05-2.85-2.22-5.21-5.08-5.27h-.09Z"/><path class="cls-1" d="M224.31,62.87c-4.67,0-8.53-3.74-8.65-8.43h0c-.12-4.77,3.66-8.76,8.43-8.88,2.34.03,4.51.79,6.18,2.38,1.68,1.6,2.63,3.75,2.69,6.05.12,4.77-3.66,8.75-8.43,8.87-.07,0-.15,0-.23,0ZM219.15,54.35c.04,1.38.61,2.66,1.61,3.62,1,.95,2.33,1.51,3.7,1.42,2.85-.07,5.11-2.45,5.03-5.3-.03-1.38-.61-2.67-1.61-3.62-1-.95-2.29-1.53-3.7-1.42-2.85.07-5.11,2.45-5.03,5.31h0Z"/><path class="cls-1" d="M176.51,76.32c-4.67,0-8.53-3.74-8.65-8.43-.12-4.77,3.66-8.75,8.43-8.87.07,0,.15,0,.23,0,4.67,0,8.53,3.74,8.65,8.43.12,4.77-3.66,8.75-8.43,8.87-.07,0-.15,0-.23,0ZM176.51,62.49s-.09,0-.14,0c-2.85.07-5.11,2.45-5.03,5.3.04,1.38.61,2.66,1.61,3.62,1,.95,2.33,1.52,3.7,1.42,2.85-.07,5.11-2.45,5.03-5.3-.07-2.8-2.38-5.04-5.17-5.04Z"/><path class="cls-1" d="M133.11,100.91c-2.23,0-4.33-.84-5.95-2.38-1.68-1.59-2.63-3.74-2.69-6.05h0c-.12-4.77,3.66-8.75,8.43-8.87,2.36.03,4.51.79,6.18,2.38,1.68,1.59,2.63,3.74,2.69,6.05.12,4.77-3.66,8.75-8.43,8.87-.08,0-.15,0-.23,0ZM133.12,87.08s-.09,0-.14,0c-2.85.07-5.11,2.45-5.03,5.3h0c.04,1.38.61,2.67,1.61,3.62,1,.95,2.31,1.54,3.69,1.42,2.85-.07,5.11-2.45,5.04-5.3-.04-1.38-.61-2.67-1.61-3.62-.97-.92-2.23-1.42-3.56-1.42Z"/><path class="cls-1" d="M96.66,138.11c-4.67,0-8.53-3.74-8.65-8.43h0c-.12-4.77,3.66-8.76,8.43-8.88,4.74-.06,8.75,3.66,8.87,8.43.12,4.77-3.66,8.75-8.43,8.87-.07,0-.15,0-.23,0ZM91.49,129.58c.04,1.38.61,2.66,1.61,3.62,1,.95,2.33,1.54,3.7,1.42,2.85-.07,5.11-2.45,5.03-5.3-.07-2.81-2.38-5.04-5.17-5.04-.04,0-.09,0-.14,0-2.85.07-5.11,2.45-5.03,5.31h0Z"/><path class="cls-1" d="M71.53,181.4c-4.67,0-8.53-3.74-8.65-8.43-.06-2.31.78-4.51,2.38-6.18,1.59-1.68,3.74-2.63,6.05-2.69,4.75-.02,8.75,3.66,8.87,8.43.06,2.31-.78,4.51-2.38,6.18-1.59,1.68-3.74,2.63-6.05,2.69-.07,0-.15,0-.23,0ZM71.53,167.58s-.09,0-.14,0c-1.38.03-2.67.61-3.62,1.61-.95,1-1.45,2.31-1.42,3.69.07,2.85,2.37,5.21,5.3,5.03,1.38-.03,2.67-.61,3.62-1.61.95-1,1.45-2.31,1.42-3.69-.07-2.8-2.38-5.04-5.17-5.04Z"/><path class="cls-1" d="M58.95,230.08c-4.67,0-8.53-3.74-8.65-8.43-.06-2.31.78-4.51,2.38-6.18,1.59-1.68,3.74-2.63,6.05-2.69,4.82.03,8.75,3.66,8.87,8.43.06,2.31-.78,4.51-2.38,6.18-1.59,1.68-3.74,2.63-6.05,2.69-.07,0-.15,0-.23,0ZM58.96,216.26s-.09,0-.14,0c-1.38.03-2.67.61-3.62,1.61-.95,1-1.45,2.31-1.42,3.69.07,2.85,2.31,5.14,5.3,5.03,1.38-.03,2.67-.61,3.62-1.61.95-1,1.45-2.31,1.42-3.69-.07-2.8-2.38-5.04-5.17-5.04Z"/><path class="cls-1" d="M60.61,281.73c-4.67,0-8.53-3.74-8.65-8.43-.12-4.77,3.66-8.76,8.43-8.88.07,0,.15,0,.23,0,4.67,0,8.53,3.74,8.65,8.44.12,4.77-3.66,8.75-8.43,8.87h0c-.07,0-.15,0-.23,0ZM60.62,267.9s-.09,0-.14,0c-2.85.07-5.11,2.45-5.04,5.31.07,2.8,2.38,5.04,5.17,5.04.04,0,.09,0,.14,0h0c2.85-.07,5.11-2.45,5.03-5.3-.07-2.81-2.38-5.04-5.17-5.04Z"/><path class="cls-1" d="M74.06,329.53c-4.67,0-8.53-3.74-8.65-8.43-.12-4.77,3.66-8.75,8.43-8.87,4.77-.08,8.75,3.66,8.88,8.43.12,4.77-3.66,8.75-8.43,8.87-.07,0-.15,0-.23,0ZM74.07,315.71s-.09,0-.14,0c-2.85.07-5.11,2.45-5.03,5.3.04,1.38.61,2.66,1.61,3.62,1,.95,2.35,1.52,3.7,1.42,2.85-.07,5.11-2.45,5.04-5.3-.07-2.8-2.38-5.04-5.17-5.04Z"/><path class="cls-1" d="M98.65,372.93c-4.67,0-8.53-3.74-8.65-8.43-.06-2.31.78-4.51,2.38-6.18,1.59-1.68,3.74-2.63,6.05-2.69.07,0,.15,0,.23,0,4.67,0,8.53,3.74,8.65,8.43.06,2.31-.78,4.51-2.38,6.18-1.59,1.68-3.74,2.63-6.05,2.69h0c-.07,0-.15,0-.23,0ZM98.66,359.1s-.09,0-.14,0c-1.38.03-2.67.61-3.62,1.61-.95,1-1.45,2.31-1.42,3.69.07,2.8,2.38,5.04,5.17,5.04.04,0,.09,0,.14,0h0c1.38-.03,2.67-.61,3.62-1.61.95-1,1.45-2.31,1.42-3.69s-.61-2.66-1.61-3.62c-.97-.92-2.23-1.42-3.56-1.42Z"/><path class="cls-1" d="M135.85,409.38c-4.67,0-8.53-3.74-8.65-8.43-.12-4.77,3.66-8.75,8.43-8.87.07,0,.15,0,.23,0,4.67,0,8.53,3.74,8.65,8.43.12,4.77-3.66,8.75-8.43,8.87h0c-.07,0-.15,0-.23,0ZM135.86,395.56s-.09,0-.14,0c-2.85.07-5.11,2.45-5.04,5.3.07,2.85,2.35,5.19,5.3,5.03h0c2.85-.07,5.11-2.45,5.03-5.3-.04-1.38-.61-2.66-1.61-3.62-.97-.92-2.23-1.42-3.56-1.42Z"/><path class="cls-1" d="M179.15,434.52c-4.67,0-8.53-3.74-8.65-8.44-.12-4.77,3.66-8.75,8.43-8.87,4.72,0,8.75,3.66,8.87,8.43.06,2.31-.78,4.51-2.38,6.18s-3.74,2.63-6.05,2.69c-.07,0-.15,0-.23,0ZM179.16,420.69s-.09,0-.14,0c-2.85.07-5.11,2.45-5.03,5.3.07,2.85,2.31,5.15,5.3,5.04,2.85-.07,5.11-2.45,5.03-5.31-.04-1.38-.61-2.66-1.61-3.62-.97-.92-2.23-1.42-3.56-1.42Z"/><path class="cls-1" d="M227.83,447.09c-4.67,0-8.53-3.74-8.65-8.43-.12-4.77,3.66-8.75,8.43-8.87,4.76-.08,8.75,3.66,8.87,8.43.12,4.77-3.66,8.75-8.43,8.87h0c-.07,0-.15,0-.23,0ZM227.97,443.6l.04,1.74-.04-1.74c2.85-.07,5.11-2.45,5.03-5.3-.07-2.85-2.32-5.19-5.3-5.03-2.85.07-5.11,2.45-5.04,5.3.07,2.8,2.38,5.04,5.17,5.04.04,0,.09,0,.14,0Z"/><path class="cls-1" d="M250.01,96.11c-11.36,0-20.6-9.24-20.6-20.6s9.24-20.6,20.6-20.6,20.6,9.24,20.6,20.6-9.24,20.6-20.6,20.6ZM250.01,61.88c-7.52,0-13.63,6.12-13.63,13.63s6.12,13.63,13.63,13.63,13.63-6.12,13.63-13.63-6.12-13.63-13.63-13.63Z"/><path class="cls-1" d="M293.92,101.76c-11.36,0-20.6-9.24-20.6-20.6s9.24-20.6,20.6-20.6,20.6,9.24,20.6,20.6-9.24,20.6-20.6,20.6ZM293.92,67.53c-7.52,0-13.63,6.12-13.63,13.63s6.12,13.63,13.63,13.63,13.63-6.12,13.63-13.63-6.12-13.63-13.63-13.63Z"/><path class="cls-1" d="M205.74,101.76c-11.36,0-20.6-9.24-20.6-20.6s9.24-20.6,20.6-20.6,20.6,9.24,20.6,20.6-9.24,20.6-20.6,20.6ZM205.74,67.53c-7.52,0-13.63,6.12-13.63,13.63s6.12,13.63,13.63,13.63,13.63-6.12,13.63-13.63-6.12-13.63-13.63-13.63Z"/><path class="cls-1" d="M334.61,118.88c-11.36,0-20.6-9.24-20.6-20.6s9.24-20.6,20.6-20.6,20.6,9.24,20.6,20.6-9.24,20.6-20.6,20.6ZM334.61,84.65c-7.52,0-13.63,6.12-13.63,13.63s6.12,13.63,13.63,13.63,13.63-6.12,13.63-13.63-6.12-13.63-13.63-13.63Z"/><path class="cls-1" d="M370.72,145.95c-.28,0-.56,0-.84-.02-5.5-.22-10.58-2.56-14.31-6.61-3.73-4.04-5.67-9.3-5.45-14.79.22-5.5,2.56-10.58,6.61-14.31,4.04-3.73,9.29-5.64,14.79-5.45,11.35.45,20.22,10.05,19.76,21.4h0c-.22,5.5-2.57,10.58-6.61,14.31-3.84,3.54-8.76,5.47-13.95,5.47ZM370.68,111.72c-3.43,0-6.69,1.27-9.23,3.62-2.68,2.47-4.23,5.84-4.37,9.48-.14,3.64,1.14,7.12,3.61,9.79,2.47,2.67,5.84,4.23,9.47,4.37,3.61.12,7.11-1.14,9.79-3.61,2.68-2.47,4.23-5.84,4.37-9.48.3-7.51-5.57-13.86-13.08-14.16-.19,0-.37-.01-.56-.01Z"/><path class="cls-1" d="M166.21,118.88c-11.36,0-20.6-9.24-20.6-20.6s9.24-20.6,20.6-20.6,20.6,9.24,20.6,20.6-9.24,20.6-20.6,20.6ZM166.21,84.65c-7.52,0-13.63,6.12-13.63,13.63s6.12,13.63,13.63,13.63,13.63-6.12,13.63-13.63-6.12-13.63-13.63-13.63Z"/><path class="cls-1" d="M130.11,145.95c-5.19,0-10.12-1.92-13.95-5.47-4.04-3.73-6.39-8.82-6.61-14.31h0c-.45-11.35,8.41-20.95,19.76-21.4,5.52-.2,10.75,1.71,14.79,5.45,4.04,3.73,6.39,8.82,6.61,14.31.45,11.35-8.41,20.95-19.76,21.4-.28.01-.56.02-.84.02ZM116.5,125.89c.15,3.64,1.7,7,4.37,9.48,2.68,2.47,6.15,3.72,9.79,3.61,7.51-.3,13.38-6.65,13.08-14.16-.15-3.64-1.7-7-4.37-9.48-2.68-2.47-6.18-3.74-9.79-3.61-7.51.3-13.38,6.65-13.08,14.16h0Z"/><path class="cls-1" d="M250.64,438.15c-11.36,0-20.6-9.24-20.6-20.6s9.24-20.6,20.6-20.6,20.6,9.24,20.6,20.6-9.24,20.6-20.6,20.6ZM250.64,403.92c-7.52,0-13.63,6.12-13.63,13.63s6.12,13.63,13.63,13.63,13.63-6.12,13.63-13.63-6.12-13.63-13.63-13.63Z"/><path class="cls-1" d="M294.55,432.51c-11.36,0-20.6-9.24-20.6-20.6s9.24-20.6,20.6-20.6,20.6,9.24,20.6,20.6-9.24,20.6-20.6,20.6ZM294.55,398.27c-7.52,0-13.63,6.12-13.63,13.63s6.12,13.63,13.63,13.63,13.63-6.12,13.63-13.63-6.12-13.63-13.63-13.63Z"/><path class="cls-1" d="M206.37,432.51c-11.36,0-20.6-9.24-20.6-20.6s9.24-20.6,20.6-20.6,20.6,9.24,20.6,20.6-9.24,20.6-20.6,20.6ZM206.37,398.27c-7.52,0-13.64,6.12-13.64,13.63s6.12,13.63,13.64,13.63,13.63-6.12,13.63-13.63-6.12-13.63-13.63-13.63Z"/><path class="cls-1" d="M335.24,415.39c-11.36,0-20.6-9.24-20.6-20.6s9.24-20.6,20.6-20.6,20.6,9.24,20.6,20.6-9.24,20.6-20.6,20.6ZM335.24,381.16c-7.52,0-13.63,6.12-13.63,13.63s6.12,13.63,13.63,13.63,13.63-6.12,13.63-13.63-6.12-13.63-13.63-13.63Z"/><path class="cls-1" d="M371.33,388.32c-10.99,0-20.14-8.71-20.58-19.78-.22-5.5,1.71-10.75,5.45-14.8,3.73-4.04,8.82-6.39,14.32-6.61,5.51-.24,10.75,1.72,14.79,5.45,4.04,3.73,6.39,8.82,6.61,14.31.45,11.35-8.41,20.95-19.76,21.41-.28.01-.55.02-.83.02ZM371.35,354.09c-.19,0-.37,0-.56.01-3.64.15-7,1.7-9.47,4.37-2.47,2.67-3.75,6.15-3.61,9.79.3,7.51,6.57,13.38,14.17,13.08,7.51-.3,13.38-6.66,13.08-14.17-.15-3.64-1.7-7-4.37-9.47-2.54-2.34-5.8-3.62-9.23-3.62Z"/><path class="cls-1" d="M166.85,415.39c-11.36,0-20.6-9.24-20.6-20.6s9.24-20.6,20.6-20.6,20.6,9.24,20.6,20.6-9.24,20.6-20.6,20.6ZM166.85,381.16c-7.52,0-13.64,6.12-13.64,13.63s6.12,13.63,13.64,13.63,13.63-6.12,13.63-13.63-6.12-13.63-13.63-13.63Z"/><path class="cls-1" d="M130.77,388.32c-.28,0-.55,0-.83-.02-5.5-.22-10.58-2.57-14.32-6.61-3.73-4.04-5.67-9.3-5.45-14.8h0c.22-5.5,2.56-10.58,6.61-14.31,4.04-3.73,9.32-5.64,14.8-5.45,5.5.22,10.58,2.56,14.31,6.61,3.73,4.04,5.67,9.3,5.45,14.8-.44,11.07-9.59,19.78-20.58,19.78ZM130.75,354.09c-3.44,0-6.7,1.27-9.24,3.62-2.68,2.47-4.23,5.83-4.37,9.47h0c-.14,3.64,1.14,7.12,3.61,9.79,2.47,2.67,5.84,4.23,9.47,4.37,7.47.19,13.87-5.57,14.17-13.08.14-3.64-1.14-7.12-3.61-9.79-2.47-2.68-5.83-4.23-9.47-4.37-.19,0-.37-.01-.56-.01Z"/><path class="cls-1" d="M79.71,267.86c-11.36,0-20.6-9.24-20.6-20.6s9.24-20.6,20.6-20.6,20.6,9.24,20.6,20.6-9.24,20.6-20.6,20.6ZM79.71,233.62c-7.52,0-13.63,6.12-13.63,13.63s6.12,13.63,13.63,13.63,13.63-6.12,13.63-13.63-6.12-13.63-13.63-13.63Z"/><path class="cls-1" d="M85.36,223.95c-11.36,0-20.6-9.24-20.6-20.6s9.24-20.6,20.6-20.6,20.6,9.24,20.6,20.6-9.24,20.6-20.6,20.6ZM85.36,189.71c-7.52,0-13.63,6.12-13.63,13.63s6.12,13.63,13.63,13.63,13.63-6.12,13.63-13.63-6.12-13.63-13.63-13.63Z"/><path class="cls-1" d="M85.36,312.13c-11.36,0-20.6-9.24-20.6-20.6s9.24-20.6,20.6-20.6,20.6,9.24,20.6,20.6-9.24,20.6-20.6,20.6ZM85.36,277.89c-7.52,0-13.63,6.12-13.63,13.64s6.12,13.63,13.63,13.63,13.63-6.12,13.63-13.63-6.12-13.64-13.63-13.64Z"/><path class="cls-1" d="M102.47,183.25c-11.36,0-20.6-9.24-20.6-20.6s9.24-20.6,20.6-20.6,20.6,9.24,20.6,20.6-9.24,20.6-20.6,20.6ZM102.47,149.02c-7.52,0-13.63,6.12-13.63,13.63s6.12,13.63,13.63,13.63,13.63-6.12,13.63-13.63-6.12-13.63-13.63-13.63Z"/><path class="cls-1" d="M102.47,351.65c-11.36,0-20.6-9.24-20.6-20.6s9.24-20.6,20.6-20.6,20.6,9.24,20.6,20.6-9.24,20.6-20.6,20.6ZM102.47,317.42c-7.52,0-13.63,6.12-13.63,13.63s6.12,13.63,13.63,13.63,13.63-6.12,13.63-13.63-6.12-13.63-13.63-13.63Z"/><path class="cls-1" d="M421.75,267.22c-11.36,0-20.6-9.24-20.6-20.6s9.24-20.6,20.6-20.6,20.6,9.24,20.6,20.6-9.24,20.6-20.6,20.6ZM421.75,232.99c-7.52,0-13.63,6.12-13.63,13.63s6.12,13.63,13.63,13.63,13.63-6.12,13.63-13.63-6.12-13.63-13.63-13.63Z"/><path class="cls-1" d="M416.1,223.31c-11.36,0-20.6-9.24-20.6-20.6s9.24-20.6,20.6-20.6,20.6,9.24,20.6,20.6-9.24,20.6-20.6,20.6ZM416.1,189.08c-7.52,0-13.63,6.12-13.63,13.64s6.12,13.63,13.63,13.63,13.64-6.12,13.64-13.63-6.12-13.64-13.64-13.64Z"/><path class="cls-1" d="M416.1,311.5c-11.36,0-20.6-9.24-20.6-20.6s9.24-20.6,20.6-20.6,20.6,9.24,20.6,20.6-9.24,20.6-20.6,20.6ZM416.1,277.26c-7.52,0-13.63,6.12-13.63,13.63s6.12,13.63,13.63,13.63,13.64-6.12,13.64-13.63-6.12-13.63-13.64-13.63Z"/><path class="cls-1" d="M398.98,182.62c-11.36,0-20.6-9.24-20.6-20.6s9.24-20.6,20.6-20.6,20.6,9.24,20.6,20.6-9.24,20.6-20.6,20.6ZM398.98,148.39c-7.52,0-13.63,6.12-13.63,13.64s6.12,13.63,13.63,13.63,13.63-6.12,13.63-13.63-6.12-13.64-13.63-13.64Z"/><path class="cls-1" d="M398.98,351.01c-11.36,0-20.6-9.24-20.6-20.6s9.24-20.6,20.6-20.6,20.6,9.24,20.6,20.6-9.24,20.6-20.6,20.6ZM398.98,316.78c-7.52,0-13.63,6.12-13.63,13.63s6.12,13.63,13.63,13.63,13.63-6.12,13.63-13.63-6.12-13.63-13.63-13.63Z"/><path class="cls-1" d="M250.01,393.83c-81.19,0-147.24-66.05-147.24-147.24S168.82,99.36,250.01,99.36s147.24,66.05,147.24,147.24-66.05,147.24-147.24,147.24ZM250.01,106.32c-77.34,0-140.27,62.92-140.27,140.27s62.92,140.27,140.27,140.27,140.27-62.92,140.27-140.27-62.92-140.27-140.27-140.27Z"/><path class="cls-1" d="M249.81,246.46h-.01c-.96,0-1.73-.79-1.73-1.76l.54-68.98c0-.96.79-1.73,1.74-1.73h.01c.96,0,1.73.79,1.73,1.76l-.54,68.98c0,.96-.79,1.73-1.74,1.73Z"/><path class="cls-1" d="M249.82,179.22c-.25,0-.5-.03-.75-.08-29.02-6.38-31.48-24.31-31.58-25.08-.18-1.55.69-3.03,2.13-3.63,7.39-3.06,13.11-3.5,16.85-3.23.61-11.97,11.07-18.33,11.57-18.63,1.65-.99,3.79-.44,4.77,1.21.98,1.65.44,3.78-1.2,4.77-.41.25-9.67,6.01-7.98,16.32.2,1.24-.28,2.5-1.27,3.29-.99.79-2.32.98-3.49.5,0,0-4.94-1.76-13.67,1.13,1.8,4.24,7.55,12.64,25.36,16.56,1.88.41,3.07,2.27,2.65,4.15-.36,1.63-1.8,2.73-3.4,2.73Z"/><path class="cls-1" d="M249.81,221.05c-.82,0-1.56-.59-1.71-1.43-.05-.26-5.08-25.58-38.4-39.75-.88-.37-1.3-1.4-.92-2.28.38-.88,1.4-1.3,2.28-.92,35.15,14.94,40.26,41.22,40.46,42.33.17.95-.46,1.85-1.4,2.02-.11.02-.21.03-.31.03Z"/><path class="cls-1" d="M201.86,183.55c-9.1,0-14.9-5.35-15.22-5.65-9.98-7.76-9.08-21.8-9.04-22.4.1-1.34.96-2.51,2.21-3,13.27-5.14,23.68,1.76,27.32,6.13,10.38,11.68,6.6,20.67,6.43,21.05-.36.82-1.02,1.47-1.85,1.81-3.59,1.5-6.9,2.06-9.86,2.06ZM184.59,158.27c.22,3.51,1.36,10.28,6.59,14.35.5.44,6.82,6.08,16.25,3.04.18-2.03-.25-6.5-5.56-12.48-.34-.4-6.77-7.71-17.27-4.91Z"/><path class="cls-1" d="M173.21,205.75c-.5,0-1-.22-1.35-.64-.61-.74-.5-1.84.24-2.45,28.74-23.59,59.41-13.44,59.72-13.33.91.31,1.39,1.3,1.08,2.21-.31.91-1.3,1.4-2.21,1.08-.29-.1-29.19-9.6-56.38,12.73-.32.27-.72.39-1.1.39Z"/><path class="cls-1" d="M189.16,195.44c-.09,0-.18,0-.27-.02-.36-.05-8.79-1.42-14.83-7.46-.68-.68-.68-1.78,0-2.46s1.78-.68,2.46,0c5.22,5.22,12.82,6.47,12.9,6.48.95.15,1.6,1.04,1.45,1.99-.13.86-.87,1.47-1.72,1.47Z"/><path class="cls-1" d="M152.84,227.89c-7.45,0-13.56-3.27-13.93-3.46-1.18-.64-1.89-1.91-1.81-3.26.8-14.21,11.4-20.83,16.89-22.33,14.93-4.62,21.54,2.55,21.82,2.86.6.67.91,1.54.88,2.43-.51,15.81-13.11,21.13-13.65,21.34-3.41,1.79-6.94,2.42-10.2,2.42ZM140.58,221.36h.03-.03ZM144.32,219.21c3.29,1.26,9.93,3.01,15.8-.05.61-.27,8.36-3.68,9.49-13.54-1.78-1-6.02-2.47-13.66-.1-.5.15-9.83,2.96-11.62,13.69Z"/><path class="cls-1" d="M169.17,189.51c-6.19,0-11.23-5.04-11.23-11.23s5.04-11.24,11.23-11.24,11.23,5.04,11.23,11.24-5.04,11.23-11.23,11.23ZM169.17,174.01c-2.35,0-4.27,1.92-4.27,4.27s1.92,4.27,4.27,4.27,4.27-1.92,4.27-4.27-1.92-4.27-4.27-4.27Z"/><path class="cls-1" d="M198.07,208.97c-.1,0-.21-.01-.31-.03-.95-.17-1.57-1.08-1.4-2.03,2.83-15.58,12.31-19.42,12.71-19.58.9-.35,1.91.1,2.25.99.35.89-.09,1.9-.98,2.25-.38.16-8.1,3.47-10.55,16.96-.15.84-.88,1.43-1.71,1.43Z"/><path class="cls-1" d="M196.91,226.22c-6.19,0-11.23-5.04-11.23-11.24s5.04-11.23,11.23-11.23,11.23,5.04,11.23,11.23-5.04,11.24-11.23,11.24ZM196.91,210.71c-2.35,0-4.27,1.92-4.27,4.27s1.92,4.27,4.27,4.27,4.27-1.92,4.27-4.27-1.92-4.27-4.27-4.27Z"/><path class="cls-1" d="M250.08,354.11c-.87,0-1.62-.65-1.73-1.53,0-.04-.56-4.37-2.6-9.04-2.02-4.62-6-8.15-10.92-9.69-4.91-1.53-10.17-.9-14.44,1.73-1.37.85-2.32,1.69-2.8,2.52-.49.83-1.56,1.1-2.38.62-.83-.49-1.1-1.55-.62-2.38.78-1.32,2.11-2.57,3.97-3.72,5.13-3.17,11.44-3.93,17.31-2.09,5.88,1.84,10.65,6.08,13.07,11.62,2.26,5.16,2.84,9.82,2.86,10.01.12.96-.56,1.82-1.52,1.94-.07.01-.14.01-.21.01Z"/><path class="cls-1" d="M249.9,333.76c-.92,0-1.68-.71-1.74-1.64-.02-.35-2.49-35.22-36.12-50.94-2.62-1.22-5.64-2.68-8.47-4.49-1.2-.77-2.43-1.45-3.65-2.14-4.85-2.71-9.87-5.52-14.15-13.15-.47-.84-.17-1.9.67-2.37.84-.47,1.9-.17,2.37.66,3.81,6.78,8.18,9.23,12.82,11.82,1.28.72,2.56,1.43,3.82,2.23,2.66,1.69,5.56,3.09,8.08,4.27,35.55,16.62,38.1,53.52,38.12,53.89.06.96-.68,1.78-1.64,1.84-.03,0-.07,0-.1,0Z"/><path class="cls-1" d="M184.05,264.25c-13.15,0-19.32-9.79-19.59-10.25-7.61-10.09-3.09-23.42-2.89-23.98.44-1.27,1.58-2.17,2.92-2.31,14.14-1.53,22.4,7.87,24.78,13.04,6.98,13.98.98,21.67.72,21.99-.56.7-1.37,1.15-2.26,1.27-1.28.17-2.51.25-3.68.25ZM167.59,234.51c-.7,3.45-1.37,10.29,2.62,15.58.37.56,5,7.7,14.9,7.17.7-1.92,1.46-6.34-2.12-13.5-.23-.47-4.52-9.22-15.4-9.25Z"/><path class="cls-1" d="M205.73,277.72c-.59,0-1.17-.3-1.49-.85-.23-.39-5.68-9.7.11-17.37.58-.77,1.67-.92,2.44-.34.77.58.92,1.67.34,2.44-4.36,5.78.06,13.41.11,13.49.49.83.22,1.89-.61,2.39-.28.16-.59.24-.89.24Z"/><path class="cls-1" d="M185.93,284.22c-.18,0-.37-.03-.55-.09-.91-.31-1.4-1.29-1.1-2.2,3.43-10.29,12.77-10.5,17.23-9.15.92.28,1.44,1.24,1.17,2.16-.27.92-1.23,1.45-2.16,1.18-.4-.12-9.72-2.72-12.93,6.91-.24.73-.92,1.19-1.65,1.19Z"/><path class="cls-1" d="M209.26,264.32c-1.97,0-3.27-.17-3.44-.2-1.33-.19-2.44-1.13-2.84-2.41-4.25-13.59,3.34-23.51,7.95-26.85,12.35-9.58,21.06-5.19,21.43-5,.79.41,1.39,1.12,1.68,1.97,5.09,14.97-4.84,24.39-5.26,24.78-5.96,6.69-14.71,7.71-19.51,7.71ZM209.04,257.34h.09c3.54,0,10.3-.71,14.68-5.61.47-.47,6.53-6.39,4.12-16.01-2.02-.31-6.5-.19-12.82,4.71-.42.31-8.16,6.23-6.06,16.91Z"/><path class="cls-1" d="M167.93,320.6c-1.24,0-2.39-.66-3.02-1.74-7.12-12.33-1.87-23.67,1.89-27.94,9.95-12.04,19.42-9.67,19.82-9.57.86.23,1.61.79,2.07,1.55,8.24,13.5.61,24.85.28,25.33-6.14,11.04-20.17,12.3-20.76,12.35-.1,0-.19.01-.28.01ZM183.58,288.05c-2.04.13-6.39,1.23-11.48,7.4-.34.39-6.6,7.86-2.22,17.82,3.44-.76,9.96-2.91,13.19-8.7.36-.56,4.98-7.66.52-16.52Z"/><path class="cls-1" d="M212.92,293.94c-.22,0-.43-.04-.65-.13-.89-.36-1.33-1.37-.97-2.26,1.11-2.79,2.92-4.73,5.35-5.77,4.5-1.91,9.48.05,9.69.14.89.36,1.32,1.37.96,2.26-.36.89-1.37,1.33-2.26.97-.8-.31-7.87-2.9-10.51,3.69-.27.68-.93,1.1-1.62,1.1Z"/><path class="cls-1" d="M211.04,354.23c-6.19,0-11.23-5.04-11.23-11.24s5.04-11.23,11.23-11.23,11.23,5.04,11.23,11.23-5.04,11.24-11.23,11.24ZM211.04,338.73c-2.35,0-4.27,1.92-4.27,4.27s1.92,4.27,4.27,4.27,4.27-1.92,4.27-4.27-1.92-4.27-4.27-4.27Z"/><path class="cls-1" d="M207.35,310.3c-6.19,0-11.23-5.04-11.23-11.23s5.04-11.24,11.23-11.24,11.23,5.04,11.23,11.24-5.04,11.23-11.23,11.23ZM207.35,294.8c-2.35,0-4.27,1.92-4.27,4.27s1.92,4.27,4.27,4.27,4.27-1.92,4.27-4.27-1.91-4.27-4.27-4.27Z"/><path class="cls-1" d="M250.08,179.22c-1.6,0-3.04-1.11-3.4-2.73-.41-1.88.78-3.74,2.65-4.15,17.78-3.91,23.54-12.29,25.35-16.56-8.73-2.88-13.66-1.13-13.71-1.11-1.16.43-2.5.22-3.45-.56-.96-.79-1.45-2.02-1.25-3.25,1.69-10.32-7.59-16.08-7.98-16.32-1.64-.99-2.17-3.13-1.19-4.78.99-1.64,3.12-2.19,4.76-1.2.5.3,10.96,6.66,11.57,18.63,3.74-.27,9.45.17,16.85,3.23,1.44.6,2.31,2.08,2.13,3.63-.09.76-2.55,18.7-31.57,25.08-.25.05-.5.08-.75.08Z"/><path class="cls-1" d="M250.08,221.05c-.1,0-.21-.01-.31-.03-.94-.17-1.57-1.07-1.4-2.02.2-1.11,5.32-27.39,40.46-42.33.89-.38,1.91.04,2.28.92.38.88-.04,1.91-.92,2.28-33.32,14.17-38.35,39.49-38.4,39.75-.15.84-.89,1.43-1.71,1.43Z"/><path class="cls-1" d="M298.06,183.55c-2.97,0-6.29-.56-9.88-2.06-.83-.34-1.49-.99-1.85-1.81-.17-.38-3.95-9.37,6.5-21.13,3.57-4.29,13.97-11.19,27.25-6.04,1.26.49,2.12,1.65,2.21,3,.04.6.94,14.64-9.29,22.61-.13.14-5.87,5.44-14.94,5.44ZM292.48,175.66c9.43,3.05,15.72-2.59,16-2.84,5.44-4.26,6.61-11.05,6.83-14.56-10.5-2.79-16.94,4.51-17.22,4.85-5.34,6-5.79,10.47-5.61,12.55Z"/><path class="cls-1" d="M326.68,205.75c-.39,0-.78-.13-1.1-.39-27.2-22.32-56.09-12.83-56.38-12.73-.91.31-1.9-.17-2.21-1.08-.31-.91.17-1.9,1.08-2.21.31-.11,30.97-10.26,59.72,13.33.74.61.85,1.71.24,2.45-.34.42-.84.64-1.35.64Z"/><path class="cls-1" d="M310.74,195.44c-.84,0-1.58-.62-1.72-1.47-.15-.95.5-1.84,1.45-1.99.08-.01,7.68-1.26,12.9-6.48.68-.68,1.78-.68,2.46,0s.68,1.78,0,2.46c-6.04,6.04-14.47,7.4-14.83,7.46-.09.01-.18.02-.27.02Z"/><path class="cls-1" d="M347.11,227.84c-3.36,0-7.01-.65-10.57-2.51-.24-.08-12.84-5.39-13.35-21.21-.03-.89.29-1.77.88-2.43.27-.31,6.9-7.48,21.92-2.83,5.38,1.48,15.98,8.09,16.78,22.3.07,1.34-.63,2.61-1.81,3.26-.36.2-6.39,3.42-13.86,3.42ZM330.29,205.63c1.13,9.85,8.86,13.25,9.21,13.4,6.08,3.17,12.77,1.42,16.07.18-1.8-10.73-11.12-13.54-11.54-13.66-7.67-2.37-11.93-.94-13.74.09Z"/><path class="cls-1" d="M330.73,189.51c-6.19,0-11.23-5.04-11.23-11.23s5.04-11.24,11.23-11.24,11.23,5.04,11.23,11.24-5.04,11.23-11.23,11.23ZM330.73,174.01c-2.35,0-4.27,1.92-4.27,4.27s1.92,4.27,4.27,4.27,4.27-1.92,4.27-4.27-1.91-4.27-4.27-4.27Z"/><path class="cls-1" d="M301.83,208.97c-.83,0-1.56-.59-1.71-1.43-2.46-13.54-10.22-16.83-10.55-16.96-.89-.36-1.32-1.37-.97-2.26.35-.89,1.35-1.33,2.24-.98.4.16,9.87,4,12.7,19.58.17.95-.45,1.85-1.4,2.03-.11.02-.21.03-.31.03Z"/><path class="cls-1" d="M302.99,226.22c-6.19,0-11.23-5.04-11.23-11.24s5.04-11.23,11.23-11.23,11.23,5.04,11.23,11.23-5.04,11.24-11.23,11.24ZM302.99,210.71c-2.35,0-4.27,1.92-4.27,4.27s1.92,4.27,4.27,4.27,4.27-1.92,4.27-4.27-1.92-4.27-4.27-4.27Z"/><path class="cls-1" d="M249.82,354.11c-.07,0-.14,0-.21-.01-.95-.12-1.63-.98-1.52-1.94.02-.19.61-4.85,2.87-10.01,2.42-5.54,7.18-9.78,13.07-11.62,5.87-1.84,12.18-1.07,17.32,2.09,1.89,1.17,3.19,2.38,3.97,3.72.49.83.21,1.89-.62,2.38-.83.49-1.9.21-2.38-.62-.49-.82-1.43-1.67-2.8-2.52-4.27-2.64-9.54-3.27-14.44-1.73-4.92,1.54-8.9,5.07-10.92,9.69-2.04,4.67-2.59,9-2.6,9.04-.11.88-.86,1.53-1.73,1.53Z"/><path class="cls-1" d="M250,333.76s-.07,0-.1,0c-.96-.06-1.69-.88-1.64-1.84.02-.37,2.57-37.27,38.12-53.89,2.51-1.18,5.42-2.57,8.08-4.27,1.26-.8,2.54-1.52,3.82-2.24,4.63-2.59,9.01-5.04,12.81-11.82.47-.84,1.53-1.14,2.37-.66.84.47,1.14,1.53.67,2.37-4.28,7.63-9.3,10.44-14.15,13.15-1.23.69-2.45,1.37-3.65,2.14-2.84,1.81-5.86,3.26-8.47,4.49-33.63,15.72-36.1,50.59-36.12,50.94-.05.93-.82,1.64-1.74,1.64Z"/><path class="cls-1" d="M315.85,264.25c-1.17,0-2.4-.08-3.69-.25-.89-.12-1.69-.57-2.26-1.27-.26-.32-6.26-8.01.77-22.09,2.33-5.07,10.58-14.47,24.73-12.94,1.34.14,2.47,1.04,2.92,2.31.2.56,4.72,13.9-3.07,24.26-.11.2-6.26,9.97-19.41,9.97ZM314.81,257.26c9.87.51,14.51-6.6,14.71-6.92,4.14-5.52,3.5-12.38,2.8-15.83-11.03.03-15.31,9.05-15.36,9.15-3.59,7.2-2.87,11.63-2.15,13.6Z"/><path class="cls-1" d="M294.17,277.72c-.3,0-.61-.08-.89-.24-.82-.49-1.1-1.56-.61-2.39.05-.07,4.47-7.7.11-13.49-.58-.77-.43-1.86.34-2.44.77-.57,1.86-.43,2.44.34,5.79,7.67.34,16.97.11,17.37-.33.54-.9.85-1.49.85Z"/><path class="cls-1" d="M313.96,284.22c-.73,0-1.41-.46-1.65-1.19-3.23-9.7-12.53-7.03-12.93-6.92-.93.28-1.89-.24-2.17-1.17s.25-1.89,1.17-2.17c4.45-1.35,13.8-1.15,17.23,9.15.3.91-.19,1.9-1.1,2.2-.18.06-.37.09-.55.09Z"/><path class="cls-1" d="M290.73,264.31c-4.79,0-13.67-1.04-19.83-7.94-.19-.16-10.12-9.57-5.03-24.55.29-.84.89-1.55,1.68-1.96.37-.19,9.09-4.57,21.52,5.07,4.52,3.28,12.11,13.19,7.86,26.78-.4,1.28-1.51,2.22-2.84,2.41-.17.02-1.43.19-3.35.19ZM293.59,260.67h.03-.03ZM271.96,235.73c-2.44,9.76,3.82,15.7,3.89,15.76,4.58,5.12,11.47,5.84,15,5.84,2.09-10.67-5.64-16.59-5.99-16.85-6.34-4.92-10.82-5.06-12.9-4.76Z"/><path class="cls-1" d="M331.97,320.6c-.09,0-.19,0-.28-.01-.59-.05-14.61-1.31-20.93-12.63-.15-.2-7.79-11.55.45-25.05.46-.77,1.21-1.32,2.07-1.55.4-.11,9.87-2.48,19.89,9.65,3.69,4.18,8.94,15.51,1.82,27.85-.63,1.08-1.78,1.74-3.02,1.74ZM316.31,288.06c-4.45,8.86.16,15.94.37,16.25,3.35,5.98,9.9,8.19,13.35,8.96,4.37-9.96-1.88-17.42-2.17-17.75-5.12-6.19-9.46-7.32-11.55-7.46Z"/><path class="cls-1" d="M286.98,293.94c-.69,0-1.35-.41-1.62-1.1-2.64-6.59-9.71-4.01-10.51-3.69-.89.36-1.9-.08-2.26-.97-.36-.89.07-1.9.96-2.26.21-.09,5.19-2.05,9.69-.14,2.44,1.04,4.24,2.98,5.36,5.77.36.89-.08,1.9-.97,2.26-.21.09-.43.13-.65.13Z"/><path class="cls-1" d="M288.86,354.23c-6.19,0-11.23-5.04-11.23-11.24s5.04-11.23,11.23-11.23,11.23,5.04,11.23,11.23-5.04,11.24-11.23,11.24ZM288.86,338.73c-2.35,0-4.27,1.92-4.27,4.27s1.92,4.27,4.27,4.27,4.27-1.92,4.27-4.27-1.92-4.27-4.27-4.27Z"/><path class="cls-1" d="M292.55,310.3c-6.19,0-11.23-5.04-11.23-11.23s5.04-11.24,11.23-11.24,11.23,5.04,11.23,11.24-5.04,11.23-11.23,11.23ZM292.55,294.8c-2.35,0-4.27,1.92-4.27,4.27s1.92,4.27,4.27,4.27,4.27-1.92,4.27-4.27-1.92-4.27-4.27-4.27Z"/><path class="cls-1" d="M345.47,288.1c-4.75-10.27-4.79-22.34,0-32.61,4.79,10.27,4.75,22.34,0,32.61h0Z"/><path class="cls-1" d="M329.17,271.79c10.27-4.75,22.34-4.79,32.61,0-10.27,4.79-22.34,4.75-32.61,0h0Z"/><path class="cls-1" d="M357,283.32c-10.62-3.9-19.18-12.41-23.06-23.06,10.64,3.88,19.15,12.43,23.06,23.06h0Z"/><path class="cls-1" d="M333.94,283.32c3.9-10.62,12.41-19.18,23.06-23.06-3.88,10.64-12.43,19.15-23.06,23.06h0Z"/><path class="cls-1" d="M155.5,288.1c-4.75-10.27-4.79-22.34,0-32.61,4.79,10.27,4.75,22.34,0,32.61h0Z"/><path class="cls-1" d="M139.2,271.79c10.27-4.75,22.34-4.79,32.61,0-10.27,4.79-22.34,4.75-32.61,0h0Z"/><path class="cls-1" d="M167.03,283.32c-10.62-3.9-19.18-12.41-23.06-23.06,10.64,3.88,19.15,12.43,23.06,23.06h0Z"/><path class="cls-1" d="M143.98,283.32c3.9-10.62,12.41-19.18,23.06-23.06-3.88,10.64-12.43,19.15-23.06,23.06h0Z"/><path class="cls-1" d="M249.81,362.05h-.02c-.96,0-1.73-.8-1.73-1.76l.54-61.23c.01-.97.9-1.66,1.76-1.73.96.01,1.73.8,1.73,1.76l-.54,61.23c0,.96-.79,1.73-1.74,1.73Z"/><path class="cls-1" d="M249.81,288.1c-4.75-10.27-4.79-22.34,0-32.61,4.79,10.27,4.75,22.34,0,32.61h0Z"/><path class="cls-1" d="M233.51,271.79c10.27-4.75,22.34-4.79,32.61,0-10.27,4.79-22.34,4.75-32.61,0h0Z"/><path class="cls-1" d="M261.34,283.32c-10.62-3.9-19.18-12.41-23.06-23.06,10.64,3.88,19.15,12.43,23.06,23.06h0Z"/><path class="cls-1" d="M238.28,283.32c3.9-10.62,12.41-19.18,23.06-23.06-3.88,10.64-12.43,19.15-23.06,23.06h0Z"/><path class="cls-1" d="M250.08,181.4c-.96,0-1.74-.78-1.74-1.74v-48.1c0-.96.78-1.74,1.74-1.74s1.74.78,1.74,1.74v48.1c0,.96-.78,1.74-1.74,1.74Z"/><path class="cls-1" d="M250,463.48c-119.68,0-217.05-97.37-217.05-217.05S130.32,29.37,250,29.37s217.05,97.37,217.05,217.05-97.37,217.05-217.05,217.05ZM250,36.34c-115.84,0-210.09,94.25-210.09,210.09s94.24,210.09,210.09,210.09,210.09-94.25,210.09-210.09S365.84,36.34,250,36.34Z"/></svg>