<?xml version="1.0" encoding="UTF-8"?><svg id="Layer_1" xmlns="http://www.w3.org/2000/svg" viewBox="0 0 500 500"><defs><style>.cls-1{fill:#e4dac7;stroke-width:0px;}</style></defs><path class="cls-1" d="M250,485.87c-132.03,0-239.44-107.41-239.44-239.44S117.97,6.98,250,6.98s239.44,107.41,239.44,239.44-107.41,239.44-239.44,239.44ZM250,20.91C125.65,20.91,24.49,122.08,24.49,246.42s101.16,225.51,225.51,225.51,225.51-101.16,225.51-225.51S374.35,20.91,250,20.91Z"/><path class="cls-1" d="M313.59,198.03h-124.27c-6.27,0-11.37-5.1-11.37-11.37s5.1-11.36,11.37-11.36h124.27c6.27,0,11.36,5.1,11.36,11.36s-5.1,11.37-11.36,11.37ZM189.33,182.27c-2.43,0-4.4,1.97-4.4,4.4s1.97,4.4,4.4,4.4h124.27c2.43,0,4.4-1.97,4.4-4.4s-1.97-4.4-4.4-4.4h-124.27Z"/><path class="cls-1" d="M251.46,292.79c-17.25,0-31.49-5.84-42.33-17.36-26.21-27.86-23.41-78.93-23.28-81.09.12-1.92,1.8-3.36,3.69-3.27,1.92.12,3.38,1.77,3.27,3.69-.03.5-2.73,50.26,21.42,75.91,9.47,10.06,22,15.16,37.24,15.16,1.93,0,3.48,1.56,3.48,3.48s-1.56,3.48-3.48,3.48Z"/><path class="cls-1" d="M249.73,292.79c-1.93,0-3.48-1.56-3.48-3.48s1.56-3.48,3.48-3.48c15.24,0,27.77-5.1,37.24-15.16,24.15-25.65,21.45-75.41,21.42-75.91-.12-1.92,1.35-3.57,3.27-3.69,1.9-.1,3.57,1.34,3.69,3.27.13,2.16,2.93,53.23-23.28,81.09-10.84,11.52-25.08,17.36-42.33,17.36Z"/><path class="cls-1" d="M303.21,364.02h-106.96c-1.92,0-3.48-1.56-3.48-3.48,0-4.31,1.89-6.76,3.47-8.05,3.78-3.1,9.18-2.52,10.77-2.26h.48c15.49-.26,28.07-17.52,28.07-38.49v-22.42c0-1.93,1.56-3.48,3.48-3.48s3.48,1.56,3.48,3.48v22.42c0,23.79-14.47,43.55-32.69,45.32h79.77c-18.19-1.77-32.67-21.53-32.67-45.32v-22.42c0-1.93,1.56-3.48,3.48-3.48s3.48,1.56,3.48,3.48v22.42c0,20.96,12.58,38.23,28.05,38.48h.5c1.61-.24,7-.82,10.77,2.27,1.58,1.3,3.47,3.75,3.47,8.05,0,1.93-1.56,3.48-3.48,3.48ZM293.87,357.06h2.66c-.96-.13-1.95-.09-2.66,0ZM202.93,357.06h2.67c-.7-.09-1.71-.13-2.67,0Z"/><path class="cls-1" d="M292.73,355.44h-85.16c-.96,0-1.74-.78-1.74-1.74s.78-1.74,1.74-1.74h85.16c.96,0,1.74.78,1.74,1.74s-.78,1.74-1.74,1.74Z"/><path class="cls-1" d="M249.73,289.31l1.74,64.39c.03.96-.73,1.76-1.69,1.79-.99.03-1.82-.79-1.79-1.79,0,0,1.74-64.39,1.74-64.39h0Z"/><path class="cls-1" d="M311.76,210.09h-122.56c-.96,0-1.74-.78-1.74-1.74s.78-1.74,1.74-1.74h122.56c.96,0,1.74.78,1.74,1.74s-.78,1.74-1.74,1.74Z"/><path class="cls-1" d="M311.76,216.78h-122.56c-.96,0-1.74-.78-1.74-1.74s.78-1.74,1.74-1.74h122.56c.96,0,1.74.78,1.74,1.74s-.78,1.74-1.74,1.74Z"/><path class="cls-1" d="M249.73,278.43c-7.88,0-14.06-8.25-14.06-18.77s6.17-18.77,14.06-18.77,14.06,8.25,14.06,18.77-6.17,18.77-14.06,18.77ZM249.73,247.86c-3.78,0-7.09,5.51-7.09,11.8s3.31,11.8,7.09,11.8,7.09-5.51,7.09-11.8-3.31-11.8-7.09-11.8Z"/><path class="cls-1" d="M286.91,276.12c-1.2,0-2.18-.29-2.86-.59-5.68-2.47-6.65-11.5-2.32-21.47h0c4.34-9.98,11.62-15.42,17.28-12.96,5.68,2.47,6.65,11.5,2.32,21.47-1.83,4.2-4.36,7.86-7.14,10.3-2.87,2.52-5.36,3.24-7.28,3.24ZM288.11,256.84h0c-3.12,7.17-2.04,11.87-1.29,12.31.84.24,4.99-2.18,8.11-9.34,3.12-7.17,2.05-11.87,1.29-12.31-.83-.29-4.99,2.18-8.11,9.34Z"/><path class="cls-1" d="M213.52,276.31c-1.92,0-4.5-.78-7.4-3.71-2.56-2.59-4.86-6.35-6.47-10.62h0c-1.62-4.27-2.39-8.61-2.19-12.25.35-6.22,3.38-8.28,5.16-8.95,6.32-2.39,12.96,5.19,16.27,13.91,1.62,4.27,2.39,8.61,2.19,12.24-.35,6.22-3.38,8.28-5.16,8.95-.6.22-1.41.43-2.39.43ZM204.99,247.31h-.01c-.58.58-1.43,5.33,1.17,12.19h0c2.59,6.84,6.35,9.84,7.36,9.84h.01c.59-.58,1.43-5.33-1.17-12.19-2.59-6.84-6.36-9.84-7.37-9.84Z"/><path class="cls-1" d="M192.37,227.76c13.37,1.46,30.96,6.41,33.62,21.68,0,0-3.17-.01-3.17-.01,2.44-8.83,9.82-15.77,18.73-17.5,2.81-.69,5.73-.69,8.6-.69-5.62.34-11.34,1.78-15.82,5.26-4.29,3.21-7.39,8.38-8.34,13.52-.16.87-.99,1.46-1.87,1.3-.69-.12-1.18-.66-1.31-1.31-1.51-6.08-6.53-10.05-12.24-12.14-5.73-2.22-12.4-3.13-18.48-3.14-4.78-.07-4.53-7.27.28-6.96h0Z"/><path class="cls-1" d="M306.93,234.72c-11.28.27-27.07,2.62-30.62,15.28-.26,1.74-2.92,1.74-3.17.01-.95-5.14-4.05-10.31-8.34-13.52-4.49-3.48-10.21-4.92-15.82-5.26,12-.95,24.19,6.09,27.34,18.19,0,0-3.17.01-3.17.01.99-7.38,6.87-13.21,13.33-16.23,6.45-3.17,13.12-4.73,20.29-5.45,1.92-.17,3.61,1.25,3.78,3.17.2,2.07-1.52,3.88-3.6,3.79h0Z"/><path class="cls-1" d="M222.66,249.72l1.74-34.68,1.74,34.68c.09,2.39-3.58,2.4-3.48,0h0Z"/><path class="cls-1" d="M272.97,249.72l1.74-34.68,1.74,34.68c.09,2.39-3.58,2.4-3.48,0h0Z"/><path class="cls-1" d="M249.97,159.66c-2.39-13.76-2.4-27.57,0-41.33,2.4,13.76,2.39,27.57,0,41.33h0Z"/><path class="cls-1" d="M229.3,138.99c13.76-2.39,27.57-2.4,41.33,0-13.76,2.4-27.57,2.39-41.33,0h0Z"/><path class="cls-1" d="M264.58,153.61c-11.42-8.04-21.2-17.8-29.23-29.23,11.43,8.03,21.18,17.81,29.23,29.23h0Z"/><path class="cls-1" d="M235.35,153.61c8.04-11.42,17.8-21.2,29.23-29.23-8.03,11.43-17.81,21.18-29.23,29.23h0Z"/><path class="cls-1" d="M249.97,164.49c-14.43,0-26.17-11.74-26.17-26.18s11.74-26.17,26.17-26.17,26.18,11.74,26.18,26.17-11.74,26.18-26.18,26.18ZM249.97,115.63c-12.51,0-22.69,10.18-22.69,22.69s10.18,22.69,22.69,22.69,22.69-10.18,22.69-22.69-10.18-22.69-22.69-22.69Z"/><path class="cls-1" d="M333.26,326.58c-2.39-13.76-2.4-27.57,0-41.33,2.4,13.76,2.39,27.57,0,41.33h0Z"/><path class="cls-1" d="M312.59,305.91c13.76-2.39,27.57-2.4,41.33,0-13.76,2.4-27.57,2.39-41.33,0h0Z"/><path class="cls-1" d="M347.87,320.53c-11.42-8.04-21.2-17.8-29.23-29.23,11.43,8.03,21.18,17.81,29.23,29.23h0Z"/><path class="cls-1" d="M318.64,320.53c8.04-11.42,17.8-21.2,29.23-29.23-8.03,11.43-17.81,21.18-29.23,29.23h0Z"/><path class="cls-1" d="M333.73,332.06c-14.44,0-26.18-11.74-26.18-26.18s11.74-26.17,26.18-26.17,26.17,11.74,26.17,26.17-11.74,26.18-26.17,26.18ZM333.73,283.19c-12.51,0-22.69,10.18-22.69,22.69s10.18,22.69,22.69,22.69,22.69-10.18,22.69-22.69-10.18-22.69-22.69-22.69Z"/><path class="cls-1" d="M166.41,326.58c-2.39-13.76-2.4-27.57,0-41.33,2.4,13.76,2.39,27.57,0,41.33h0Z"/><path class="cls-1" d="M145.74,305.91c13.76-2.39,27.57-2.4,41.33,0-13.76,2.4-27.57,2.39-41.33,0h0Z"/><path class="cls-1" d="M181.02,320.53c-11.42-8.04-21.2-17.8-29.23-29.23,11.43,8.03,21.18,17.81,29.23,29.23h0Z"/><path class="cls-1" d="M151.79,320.53c8.04-11.42,17.8-21.2,29.23-29.23-8.03,11.43-17.81,21.18-29.23,29.23h0Z"/><path class="cls-1" d="M166.41,332.06c-14.43,0-26.18-11.74-26.18-26.18s11.74-26.17,26.18-26.17,26.18,11.74,26.18,26.17-11.74,26.18-26.18,26.18ZM166.41,283.19c-12.51,0-22.69,10.18-22.69,22.69s10.18,22.69,22.69,22.69,22.69-10.18,22.69-22.69-10.18-22.69-22.69-22.69Z"/><path class="cls-1" d="M138.92,280.06c-1.51,0-2.9-.99-3.34-2.52-.57-2-13.79-49.37,13.79-89.75.66-1.17,19.9-34.13,55.6-47.65,1.8-.68,3.81.22,4.49,2.02s-.23,3.81-2.02,4.49c-33.39,12.64-51.99,44.51-52.17,44.83-25.83,37.84-13.12,83.66-12.99,84.12.53,1.85-.54,3.78-2.38,4.31-.32.09-.65.14-.97.14Z"/><path class="cls-1" d="M360.12,280.06c-.32,0-.64-.04-.97-.14-1.85-.53-2.92-2.46-2.38-4.31.13-.46,12.84-46.28-12.85-83.89-.33-.55-19-32.45-52.32-45.06-1.8-.68-2.7-2.69-2.02-4.49.68-1.8,2.69-2.7,4.49-2.02,35.7,13.51,54.94,46.48,55.74,47.88,27.43,40.15,14.22,87.52,13.64,89.52-.44,1.52-1.83,2.52-3.34,2.52Z"/><path class="cls-1" d="M450.95,270.52l-10.24-6.5c-3.32-2.11-5.26-5.82-5.07-9.75.13-2.6.2-5.22.2-7.85s-.07-5.25-.2-7.85c-.19-3.92,1.75-7.64,5.07-9.75l10.24-6.5-10.02-2.21c-4.26-.94-7.56-4.31-8.39-8.59-.51-2.66-1.09-5.31-1.71-7.93-.92-3.85.36-7.89,3.28-10.56l9.14-8.35-11.04-.47c-4.28-.18-8.07-2.83-9.67-6.8-1.1-2.73-2.26-5.43-3.49-8.1-1.68-3.67-1.15-7.97,1.31-11.17l7.67-9.97-11.61,1.54c-4.26.57-8.52-1.3-10.88-4.9-.98-1.49-1.97-2.97-2.99-4.43-2.38-3.41-2.58-7.89-.66-11.58l5.6-10.73-11.13,3.52c-4.13,1.31-8.64.15-11.61-3-1.63-1.72-3.28-3.41-4.97-5.07-3.03-2.97-4.11-7.4-2.83-11.45l3.51-11.08-10.29,5.37c-3.74,1.95-8.3,1.72-11.73-.75-1.72-1.24-3.46-2.46-5.22-3.64-3.52-2.36-5.31-6.58-4.75-10.78l1.55-11.67-9.57,7.36c-3.34,2.57-7.83,3.09-11.63,1.3-1-.47-2-.93-3.01-1.38-3.88-1.74-6.41-5.55-6.6-9.8l-.49-11.42-7.75,8.48c-2.84,3.11-7.19,4.43-11.25,3.3-1.42-.39-2.85-.77-4.29-1.13-4.12-1.04-7.26-4.36-8.17-8.5l-2.47-11.21-6.22,9.79c-2.27,3.57-6.34,5.61-10.54,5.2-1.29-.13-2.58-.24-3.87-.34-4.22-.32-7.88-3.04-9.49-6.95l-4.27-10.34-.18.44-.18-.44-4.26,10.31c-1.62,3.92-5.29,6.64-9.52,6.95-1.3.1-2.6.21-3.9.33-4.2.4-8.26-1.64-10.52-5.2l-6.2-9.76-2.45,11.1c-.92,4.15-4.07,7.48-8.19,8.51-1.47.37-2.94.75-4.39,1.15-4.06,1.12-8.4-.2-11.24-3.3l-7.67-8.39-.48,11.25c-.18,4.26-2.73,8.07-6.62,9.81-1.06.47-2.11.95-3.15,1.44-3.8,1.78-8.29,1.25-11.61-1.31l-9.43-7.25,1.52,11.44c.56,4.2-1.24,8.43-4.76,10.79-1.83,1.22-3.63,2.48-5.41,3.76-3.42,2.47-7.98,2.7-11.72.75l-10.08-5.26,3.42,10.81c1.28,4.05.19,8.49-2.85,11.47-1.76,1.72-3.48,3.47-5.16,5.25-2.97,3.14-7.48,4.29-11.6,2.99l-10.85-3.43,5.45,10.43c1.93,3.69,1.72,8.18-.67,11.59-1.08,1.54-2.14,3.1-3.17,4.68-2.36,3.59-6.61,5.45-10.87,4.88l-11.27-1.5,7.31,9.51c2.54,3.31,3.09,7.75,1.34,11.54-1.21,2.64-2.37,5.31-3.46,8.01-1.65,4.09-5.57,6.82-9.98,7.01l-10.45.44,8.69,7.94c3.02,2.76,4.34,6.93,3.38,10.9-.62,2.6-1.19,5.22-1.7,7.86-.86,4.41-4.26,7.89-8.66,8.86l-9.42,2.08,9.71,6.17c3.42,2.18,5.42,6.01,5.23,10.06-.13,2.61-.2,5.23-.2,7.86s.07,5.26.2,7.86c.19,4.05-1.81,7.89-5.23,10.06l-9.71,6.17,9.64,2.13c4.26.94,7.56,4.3,8.39,8.58.54,2.78,1.14,5.54,1.8,8.28.93,3.85-.36,7.89-3.28,10.56l-8.84,8.08,10.67.45c4.27.18,8.07,2.82,9.67,6.79,1.14,2.83,2.35,5.63,3.62,8.39,1.7,3.68,1.16,8-1.31,11.22l-7.43,9.66,11.49-1.53c4.12-.55,8.26,1.25,10.53,4.73,1.11,1.7,2.25,3.38,3.41,5.03,2.32,3.3,2.51,7.66.64,11.24l-5.54,10.62,11.06-3.5c3.99-1.26,8.37-.15,11.24,2.89,1.78,1.89,3.61,3.74,5.47,5.56,2.95,2.88,4,7.18,2.76,11.11l-3.49,11.01,10.12-5.28c3.71-1.94,8.24-1.71,11.64.74,1.81,1.31,3.64,2.59,5.5,3.83,3.49,2.34,5.26,6.52,4.71,10.68l-1.53,11.51,9.58-7.37c3.24-2.49,7.6-3.02,11.3-1.28,1.17.55,2.34,1.08,3.51,1.61,3.77,1.68,6.23,5.38,6.41,9.51l.49,11.47,7.82-8.55c2.75-3.01,6.96-4.29,10.89-3.2,1.59.44,3.19.86,4.8,1.26,4,.99,7.05,4.23,7.94,8.25l2.5,11.31,6.25-9.84c2.23-3.51,6.23-5.53,10.38-5.13,1.44.14,2.89.26,4.34.37,4.01.29,7.5,2.88,9.03,6.6l4.39,10.63.18-.44.18.44,4.4-10.65c1.53-3.71,5.01-6.31,9.01-6.61,1.45-.11,2.89-.23,4.33-.37,4.14-.41,8.14,1.6,10.36,5.11l6.29,9.89,2.52-11.42c.89-4.02,3.93-7.25,7.92-8.24,1.58-.39,3.14-.81,4.7-1.24,3.94-1.1,8.15.18,10.91,3.2l7.89,8.63.49-11.63c.18-4.12,2.63-7.82,6.39-9.5,1.14-.51,2.27-1.03,3.39-1.56,3.69-1.74,8.04-1.22,11.27,1.26l9.73,7.49-1.57-11.81c-.55-4.12,1.21-8.26,4.66-10.57,1.84-1.23,3.65-2.5,5.44-3.79,3.36-2.43,7.83-2.66,11.51-.74l10.41,5.43-3.57-11.28c-1.24-3.92-.2-8.22,2.74-11.09,1.79-1.76,3.55-3.55,5.27-5.38,2.88-3.05,7.25-4.17,11.26-2.91l11.34,3.59-5.7-10.91c-1.86-3.57-1.67-7.92.63-11.22,1.1-1.58,2.18-3.17,3.23-4.78,2.28-3.49,6.41-5.3,10.54-4.75l11.83,1.57-7.67-9.97c-2.46-3.2-2.99-7.5-1.31-11.17,1.22-2.67,2.39-5.37,3.49-8.1,1.6-3.97,5.4-6.62,9.67-6.8l11.04-.47-9.14-8.35c-2.92-2.67-4.2-6.71-3.28-10.56,1.17-4.9,2.16-9.88,2.92-14.93l17.2-3.79ZM250.01,425.65c-98.82,0-179.22-80.4-179.22-179.22S151.19,67.2,250.01,67.2s179.22,80.4,179.22,179.22-80.4,179.22-179.22,179.22Z"/><path class="cls-1" d="M250.01,78.28c-92.72,0-168.15,75.43-168.15,168.15s75.43,168.15,168.15,168.15,168.15-75.43,168.15-168.15-75.43-168.15-168.15-168.15ZM351.29,364.41l-4.59-1.74.9,4.72c.83,4.35-.98,8.78-4.6,11.34-.61.43-1.23.86-1.85,1.29-3.64,2.5-8.4,2.68-12.19.42l-4.95-2.95.08,5.53c.06,4.44-2.5,8.52-6.53,10.38-.18.08-.35.16-.53.24-4,1.83-8.71,1.16-12.05-1.72l-4.28-3.69-.89,5.48c-.71,4.39-3.94,7.95-8.23,9.09-.37.1-.75.2-1.12.29-4.26,1.1-8.78-.37-11.57-3.79l-3.61-4.42-1.81,5.19c-1.46,4.18-5.23,7.14-9.64,7.52-.06,0-.11,0-.17.01-4.4.38-8.62-1.88-10.78-5.73l-2.61-4.66-.14.25-.14-.25-2.62,4.68c-2.15,3.85-6.36,6.1-10.75,5.73-.05,0-.1,0-.15-.01-4.42-.37-8.21-3.33-9.67-7.52l-1.82-5.22-3.66,4.48c-2.78,3.41-7.29,4.88-11.55,3.79-.35-.09-.71-.18-1.06-.27-4.31-1.13-7.54-4.7-8.25-9.1l-.9-5.57-4.39,3.79c-3.32,2.87-8.02,3.54-12.01,1.71l-.43-.2c-4.04-1.85-6.61-5.91-6.55-10.35l.08-5.69-5.1,3.04c-3.79,2.26-8.54,2.08-12.18-.41-.58-.4-1.16-.8-1.73-1.2-3.63-2.56-5.45-6.99-4.61-11.35l.93-4.89-4.79,1.82c-4.1,1.56-8.74.6-11.87-2.47-1.23-1.21-2.44-2.43-3.63-3.68-3-3.13-3.92-7.72-2.38-11.78l1.88-4.96-4.83.92c-4.41.84-8.89-1.03-11.43-4.73-.48-.71-.96-1.42-1.44-2.13-2.41-3.63-2.56-8.32-.33-12.06l2.82-4.73-4.9.07c-4.49.06-8.59-2.54-10.43-6.63-.79-1.76-1.55-3.54-2.28-5.34-1.59-3.92-.86-8.41,1.91-11.62l3.98-4.61-4.67-.76c-4.51-.73-8.17-4.11-9.17-8.57-.27-1.22-.53-2.45-.78-3.68-.82-4.08.71-8.28,3.93-10.91l5.32-4.34-4.7-1.64c-4.35-1.51-7.39-5.53-7.53-10.13-.05-1.42-.07-2.84-.07-4.28s.03-2.86.07-4.28c.15-4.6,3.18-8.62,7.53-10.13l4.7-1.64-5.32-4.34c-3.22-2.63-4.75-6.83-3.93-10.91.25-1.23.51-2.46.78-3.68,1-4.46,4.66-7.84,9.17-8.57l4.67-.76-3.98-4.61c-2.77-3.2-3.5-7.69-1.91-11.62.73-1.8,1.49-3.58,2.28-5.34,1.84-4.09,5.94-6.7,10.43-6.63l4.9.07-2.82-4.73c-2.23-3.74-2.08-8.43.33-12.06.47-.71.95-1.42,1.44-2.13,2.54-3.7,7.02-5.57,11.43-4.73l4.83.92-1.88-4.96c-1.54-4.06-.62-8.65,2.38-11.78,1.19-1.25,2.4-2.47,3.63-3.68,3.13-3.07,7.77-4.03,11.87-2.47l4.79,1.82-.93-4.89c-.83-4.36.99-8.79,4.61-11.35.57-.4,1.15-.8,1.73-1.2,3.64-2.49,8.39-2.66,12.18-.41l5.1,3.04-.08-5.69c-.06-4.44,2.51-8.51,6.55-10.35l.43-.2c3.99-1.83,8.69-1.16,12.01,1.71l4.39,3.79.9-5.57c.71-4.4,3.95-7.96,8.25-9.1.35-.09.7-.18,1.06-.27,4.26-1.09,8.77.39,11.55,3.79l3.66,4.48,1.83-5.25c1.46-4.18,5.24-7.12,9.65-7.49h.15c4.39-.38,8.59,1.85,10.74,5.7l2.63,4.7.14-.25.14.25,2.61-4.66c2.16-3.87,6.39-6.11,10.8-5.73h.14c4.41.39,8.18,3.32,9.63,7.5l1.82,5.23,3.61-4.42c2.78-3.41,7.3-4.89,11.57-3.79.37.1.75.19,1.12.29,4.3,1.14,7.52,4.7,8.23,9.09l.89,5.48,4.28-3.69c3.33-2.88,8.04-3.55,12.05-1.72.18.08.35.16.53.24,4.04,1.86,6.59,5.94,6.53,10.38l-.08,5.53,4.95-2.95c3.79-2.26,8.55-2.08,12.19.42.62.42,1.23.85,1.85,1.29,3.62,2.56,5.43,6.99,4.6,11.34l-.9,4.72,4.59-1.74c4.11-1.56,8.75-.59,11.89,2.48,1.27,1.25,2.53,2.52,3.76,3.82,2.99,3.14,3.91,7.72,2.37,11.77l-1.8,4.75,4.58-.87c4.42-.84,8.9,1.04,11.44,4.74.52.76,1.04,1.53,1.55,2.31,2.4,3.63,2.55,8.31.32,12.04l-2.68,4.5,4.62-.06c4.49-.06,8.6,2.55,10.43,6.64.82,1.84,1.61,3.69,2.37,5.56,1.58,3.92.85,8.4-1.91,11.6l-3.79,4.39,4.38.71c4.52.73,8.17,4.12,9.17,8.58.29,1.31.57,2.62.83,3.93.81,4.08-.71,8.28-3.93,10.9l-5.08,4.14,4.42,1.54c4.35,1.51,7.38,5.53,7.53,10.13.05,1.45.07,2.91.07,4.38s-.03,2.92-.07,4.38c-.15,4.6-3.19,8.61-7.53,10.13l-4.42,1.54,5.08,4.14c3.22,2.63,4.74,6.82,3.93,10.9-.26,1.32-.54,2.63-.83,3.93-1,4.46-4.66,7.85-9.17,8.58l-4.38.71,3.79,4.39c2.76,3.2,3.49,7.68,1.91,11.6-.76,1.87-1.55,3.73-2.37,5.56-1.84,4.1-5.94,6.7-10.43,6.64l-4.62-.06,2.68,4.5c2.23,3.74,2.08,8.41-.32,12.04-.51.77-1.03,1.54-1.55,2.31-2.54,3.71-7.02,5.59-11.44,4.74l-4.58-.87,1.8,4.75c1.54,4.05.62,8.63-2.37,11.77-1.23,1.29-2.48,2.56-3.76,3.82-3.13,3.08-7.78,4.04-11.89,2.48Z"/><circle class="cls-1" cx="170.84" cy="257.41" r="4.19"/><circle class="cls-1" cx="151.79" cy="244.93" r="4.19"/><circle class="cls-1" cx="170.84" cy="226.45" r="4.19"/><circle class="cls-1" cx="328.65" cy="257.41" r="4.19"/><circle class="cls-1" cx="347.69" cy="244.93" r="4.19"/><circle class="cls-1" cx="328.65" cy="226.45" r="4.19"/><path class="cls-1" d="M207.44,159.23c-1.95,1.26-2.51,3.85-1.25,5.8,1.26,1.95,3.85,2.51,5.8,1.25,1.95-1.26,2.51-3.85,1.25-5.8-1.26-1.95-3.85-2.51-5.8-1.25Z"/><path class="cls-1" d="M293.27,160.48c-1.26-1.95-3.85-2.51-5.8-1.25-1.95,1.26-2.51,3.85-1.25,5.8,1.26,1.95,3.85,2.51,5.8,1.25,1.95-1.26,2.51-3.85,1.25-5.8Z"/><circle class="cls-1" cx="215.04" cy="305.91" r="4.19"/><circle class="cls-1" cx="285.05" cy="305.88" r="4.19"/><path class="cls-1" d="M250,462.94c-119.39,0-216.51-97.13-216.51-216.51S130.61,29.91,250,29.91s216.51,97.13,216.51,216.51-97.13,216.51-216.51,216.51ZM250,36.88c-115.54,0-209.55,94-209.55,209.54s94,209.55,209.55,209.55,209.54-94,209.54-209.55S365.54,36.88,250,36.88Z"/></svg>