<?xml version="1.0" encoding="UTF-8"?><svg id="Layer_1" xmlns="http://www.w3.org/2000/svg" viewBox="0 0 500 500"><defs><style>.cls-1{fill:#e4dac7;stroke-width:0px;}</style></defs><path class="cls-1" d="M250,485.87c-132.03,0-239.44-107.41-239.44-239.44S117.97,6.98,250,6.98s239.44,107.41,239.44,239.44-107.41,239.44-239.44,239.44ZM250,20.91C125.65,20.91,24.49,122.08,24.49,246.42s101.16,225.51,225.51,225.51,225.51-101.16,225.51-225.51S374.35,20.91,250,20.91Z"/><path class="cls-1" d="M248.49,463.96c-119.61,0-216.93-97.31-216.93-216.93S128.88,30.1,248.49,30.1s216.93,97.31,216.93,216.93-97.31,216.93-216.93,216.93ZM248.49,34.45c-117.21,0-212.57,95.36-212.57,212.57s95.36,212.57,212.57,212.57,212.57-95.36,212.57-212.57S365.71,34.45,248.49,34.45Z"/><path class="cls-1" d="M249.35,390.45h-.06c-7.79-.27-11.21-6.93-11.93-10.41-.19-.94.41-1.86,1.35-2.05.95-.2,1.86.4,2.06,1.34.06.3,1.67,7.4,8.64,7.64.96.03,1.71.84,1.68,1.8-.03.94-.8,1.68-1.74,1.68Z"/><path class="cls-1" d="M249.39,390.45c-.93,0-1.71-.74-1.74-1.68-.03-.96.72-1.77,1.68-1.8,6.97-.24,8.58-7.34,8.64-7.64.2-.94,1.13-1.55,2.06-1.34.94.2,1.54,1.12,1.35,2.05-.72,3.48-4.14,10.14-11.93,10.41h-.06Z"/><path class="cls-1" d="M249.95,221.95c1.49,3.1,2.73,6.28,3.61,9.56.43,1.59,1.81,3.19,1.02,4.77-.92,2.09-2.34,3.43-4.73,4.74-.34.18-.73.16-1.05,0-2.37-1.33-3.78-2.69-4.68-4.79-.78-1.59.62-3.18,1.07-4.76.91-3.27,2.19-6.43,3.71-9.52.21-.42.85-.41,1.04,0h0Z"/><path class="cls-1" d="M226.27,264.38c-3.06,0-7-.7-10.38-3.53-5.42-4.54-7.47-12.87-6.1-24.76.05-.53,1.46-15.53,11.77-34.12.74-1.34.89-2.93.39-4.34-.48-1.37-1.49-2.42-2.83-2.97-15.05-6.15-42.66-22.04-58.39-59.28-.75-1.77.08-3.82,1.85-4.56,1.77-.75,3.81.08,4.56,1.85,14.76,34.94,40.55,49.8,54.61,55.54,3.17,1.29,5.63,3.88,6.77,7.11,1.16,3.29.84,6.95-.87,10.03-9.54,17.2-10.92,31.31-10.93,31.45-1.08,9.37.18,15.81,3.64,18.71,2.85,2.39,6.79,1.99,8.35,1.69,4.56-4.5,5.61-11.58,5.63-11.65.02-.12.04-.26.07-.37,2.4-9.48,10.99-11.4,15.19-11.1,1.92.14,3.36,1.81,3.22,3.72-.14,1.91-1.79,3.3-3.7,3.22-.69-.04-6.34-.16-7.92,5.7-.26,1.59-1.95,10.53-8.51,16.27-.38.33-.82.57-1.3.71-.18.05-2.27.66-5.13.66Z"/><path class="cls-1" d="M238.75,330.9c-1.71,0-3.2-1.26-3.44-3-3.18-22.72-30.69-57.04-30.96-57.38-1.21-1.5-.97-3.69.52-4.9,1.5-1.21,3.69-.98,4.9.52,1.18,1.47,28.99,36.17,32.44,60.79.27,1.9-1.06,3.67-2.97,3.93-.16.02-.33.03-.49.03Z"/><path class="cls-1" d="M195.13,193.42c-.21,0-.43-.04-.64-.12-30.55-12.02-44.24-31.39-44.81-32.21-.23-.33-.34-.74-.3-1.14,1.78-20.78,12.23-28.6,12.67-28.93.78-.56,1.87-.39,2.43.38.56.78.39,1.86-.38,2.43h0c-.1.07-9.41,7.17-11.2,25.76,2.34,3.08,16.01,19.9,42.86,30.47.89.35,1.34,1.36.98,2.26-.27.68-.93,1.1-1.62,1.1Z"/><path class="cls-1" d="M191.21,201.76c-.11,0-.23-.01-.34-.03-28.37-5.66-46.09-18.29-46.84-18.83-16.14-11.75-5.87-31.08-5.77-31.27.23-.43.64-.74,1.12-.86.48-.12.98-.03,1.39.25l11.32,7.64c.8.54,1.01,1.62.47,2.42-.54.8-1.62,1.01-2.42.47l-9.63-6.5c-1.9,4.56-5.62,16.89,5.57,25.04.17.12,17.89,12.73,45.47,18.23.94.19,1.56,1.11,1.37,2.05-.16.83-.89,1.4-1.71,1.4Z"/><path class="cls-1" d="M186.54,212.47s-.07,0-.11,0c-34.39-2.1-48.74-14.12-49.33-14.63-11.72-7.64-7.37-21.19-7.33-21.33.24-.71.9-1.19,1.65-1.19h7.65c.96,0,1.74.78,1.74,1.74s-.78,1.74-1.74,1.74h-6.3c-.64,3.04-1.44,11.13,6.42,16.26.32.26,14.36,11.92,47.45,13.94.96.06,1.69.88,1.63,1.84-.06.93-.82,1.64-1.74,1.64Z"/><path class="cls-1" d="M187.38,223.75s-.08,0-.11,0c-31.28-2.02-46.22-7.81-46.84-8.05-11.08-3.67-12.36-14.96-11.47-20.41.1-.62.53-1.14,1.12-1.36l3.77-1.38c.9-.33,1.9.13,2.23,1.04.33.9-.13,1.9-1.04,2.23l-2.75,1.01c-.23,3.1-.11,12.46,9.33,15.59.24.09,15.23,5.86,45.88,7.85.96.06,1.69.89,1.63,1.85-.06.92-.83,1.63-1.74,1.63Z"/><path class="cls-1" d="M168.15,236.19c-12.69,0-21.66-2.7-22.2-2.87-10.71-4.41-11.04-15.31-11.05-15.77-.01-.55.24-1.07.67-1.41l3.62-2.82c.76-.6,1.85-.45,2.44.3.59.76.46,1.85-.3,2.45l-2.88,2.25c.28,2.33,1.68,8.85,8.67,11.74.03,0,18.63,5.58,39.84.48.94-.21,1.88.35,2.1,1.29.22.94-.35,1.88-1.29,2.1-7.03,1.69-13.73,2.27-19.63,2.27Z"/><path class="cls-1" d="M163.36,249.13c-1.01,0-1.98-.03-2.93-.07-2.1-.1-3.99-.59-5.62-1.46-5.59-3-8.62-8.75-8.74-9-.3-.58-.25-1.28.13-1.81l3.3-4.63c.56-.78,1.65-.96,2.43-.41.78.56.97,1.65.41,2.43l-2.64,3.71c.99,1.56,3.33,4.8,6.76,6.64,1.17.62,2.56.98,4.13,1.05,6.67.29,14.72-.23,28.4-6.16.89-.39,1.91.02,2.29.91.38.88-.02,1.91-.91,2.29-12.41,5.37-20.47,6.51-27.01,6.51Z"/><path class="cls-1" d="M168.75,261.26c-9.04,0-12.99-7.19-13.04-7.28-.28-.52-.27-1.15.02-1.67l3.26-5.84c.46-.84,1.53-1.14,2.37-.67s1.14,1.53.67,2.37l-2.75,4.93c1.34,1.84,5.48,6.2,13.43,4.16.03-.01,8.82-2.61,19.13-9.58.79-.54,1.88-.33,2.42.47.54.8.33,1.88-.47,2.42-10.8,7.3-19.78,9.95-20.16,10.05-1.77.45-3.39.65-4.88.65Z"/><path class="cls-1" d="M181.99,272.17c-7.31,0-11.54-5.55-11.75-5.82-.31-.41-.42-.94-.3-1.44l1.5-6.36c.22-.94,1.16-1.53,2.1-1.29.94.22,1.52,1.16,1.3,2.1l-1.3,5.5c1.32,1.41,5.16,4.78,10.89,3.58,1.11-.53,7.71-3.8,12.83-8.76.69-.67,1.79-.65,2.46.04.67.69.65,1.79-.04,2.46-6.02,5.83-13.64,9.35-13.96,9.5-.11.05-.22.09-.34.11-1.19.27-2.32.39-3.38.39Z"/><path class="cls-1" d="M195.69,279.17c-.35,0-.71-.02-1.06-.06-4.24-.52-7.89-2.34-8.04-2.42-.35-.17-.63-.46-.79-.81l-2.38-5.05c-.41-.87-.04-1.9.83-2.32.87-.41,1.91-.04,2.32.83l2.11,4.48c1.06.47,3.61,1.49,6.38,1.83,2.01.27,4.01-.69,5.1-2.38,1.37-2.12,3.27-5.07,5.03-7.76.53-.8,1.61-1.02,2.41-.51.8.53,1.03,1.61.51,2.41-1.75,2.68-3.65,5.63-5.01,7.74-1.62,2.51-4.44,4.02-7.39,4.02Z"/><path class="cls-1" d="M194.95,339.37c-4.83,0-10.04-.63-15.63-1.88-1.88-.42-3.06-2.28-2.64-4.16.42-1.88,2.29-3.05,4.16-2.64,14.53,3.27,25.89,1.86,33.76-4.17,10.86-8.33,11.61-23.04,11.61-23.19.08-1.92,1.71-3.33,3.62-3.34,1.92.07,3.42,1.69,3.34,3.61-.03.73-.82,18.04-14.27,28.4-6.37,4.91-14.39,7.37-23.95,7.37Z"/><path class="cls-1" d="M198.18,356.76c-2.25,0-3.7-.1-3.92-.12h-.01c-12.96,0-17.32-13.85-17.78-21.17-.12-1.92,1.34-3.57,3.26-3.69,1.96-.07,3.58,1.34,3.7,3.26.05.71,1.15,14.65,11.1,14.65.46.03,20.11,1.36,31.16-6.96,1.54-1.16,3.72-.85,4.88.69,1.16,1.53.85,3.72-.69,4.88-9.95,7.49-24.7,8.47-31.69,8.47Z"/><path class="cls-1" d="M203.08,370.1c-4.08,0-7.55-1.75-10.09-3.59-3.14-2.27-4.36-6.42-2.95-10.09l.55-1.43c.34-.9,1.35-1.35,2.25-1s1.35,1.35,1,2.25l-.55,1.43c-.84,2.2-.13,4.68,1.73,6.02,4.53,3.27,9.01,3.82,13.31,1.64h0s11.12-7.52,17.88-20.63c.44-.85,1.49-1.19,2.35-.75.86.44,1.19,1.49.75,2.35-7.2,13.97-18.74,21.72-19.23,22.04-2.47,1.26-4.83,1.76-7.01,1.76Z"/><path class="cls-1" d="M213.02,380.38c-2.69,0-5.05-1.74-5.8-4.31l-2.25-7.71c-.27-.93.26-1.89,1.18-2.16.93-.28,1.89.26,2.16,1.18l2.25,7.71c.35,1.19,1.52,1.96,2.68,1.8,5.21-.75,9.53-4.06,11.71-8.89.91-2.01,1.18-6.26,1.47-10.75.28-4.37.59-9.32,1.58-13.4.22-.94,1.17-1.48,2.1-1.28.94.23,1.51,1.17,1.28,2.11-.92,3.79-1.22,8.58-1.49,12.8-.32,5.03-.6,9.38-1.77,11.97-2.67,5.92-7.99,9.98-14.24,10.88-.29.04-.58.06-.87.06Z"/><path class="cls-1" d="M230.5,386.54c-.72,0-1.45-.07-2.19-.2-3.17-.6-5.99-2.46-7.75-5.13-1.52-2.3-2.26-4.2-2.29-4.28-.35-.9.1-1.9,1-2.25.89-.35,1.9.1,2.25.99,0,.02.65,1.65,1.95,3.62,1.24,1.88,3.24,3.2,5.48,3.62,2.12.41,4.23-.04,5.93-1.23,1.14-.81,2.04-1.77,2.67-2.85.24-.41.4-.89.53-1.52.38-1.92,1.16-7.13,2.21-20.5.07-.96.93-1.67,1.87-1.6.96.07,1.68.91,1.6,1.87-1.06,13.54-1.88,18.91-2.27,20.9-.2,1-.5,1.85-.93,2.59-.88,1.52-2.12,2.85-3.67,3.95-1.88,1.33-4.1,2.02-6.4,2.02Z"/><path class="cls-1" d="M272.47,264.38c-2.86,0-4.95-.61-5.13-.66-.48-.14-.92-.39-1.29-.71-6.45-5.65-8.2-14.39-8.5-16.19-1.85-5.77-7.42-5.78-8.04-5.78-.03,0-.06,0-.09,0-1.87,0-3.43-1.48-3.5-3.36-.06-1.91,1.4-3.52,3.31-3.6,4.01-.18,12.35,1.89,15.05,10.96.05.17.09.35.11.52.01.06,1.06,7.14,5.62,11.64,1.57.29,5.53.7,8.39-1.71,3.43-2.92,4.68-9.34,3.61-18.59-.02-.23-1.39-14.33-10.94-31.54-1.71-3.09-2.03-6.74-.87-10.03,1.13-3.22,3.6-5.82,6.77-7.11,14.06-5.75,39.85-20.6,54.61-55.54.75-1.77,2.8-2.6,4.56-1.85,1.77.75,2.6,2.79,1.85,4.56-15.74,37.24-43.34,53.13-58.39,59.28-1.35.55-2.35,1.61-2.83,2.97-.5,1.42-.36,3,.39,4.34,10.31,18.59,11.72,33.59,11.77,34.22,1.36,11.79-.69,20.12-6.1,24.66-3.38,2.83-7.32,3.53-10.38,3.53Z"/><path class="cls-1" d="M303.79,339.37c-9.56,0-17.58-2.46-23.95-7.37-13.45-10.36-14.25-27.67-14.27-28.4-.07-1.92,1.43-3.54,3.35-3.61,1.98-.21,3.54,1.43,3.61,3.34.01.27.8,14.9,11.61,23.19,7.87,6.03,19.23,7.44,33.76,4.17,1.85-.43,3.74.76,4.16,2.64.42,1.88-.76,3.74-2.64,4.16-5.59,1.26-10.81,1.88-15.63,1.88Z"/><path class="cls-1" d="M303.99,356.65c-2.47,0-22.41-.26-34.9-8.2-1.62-1.03-2.1-3.19-1.07-4.81,1.03-1.63,3.19-2.1,4.81-1.07,11.31,7.2,31.19,7.12,31.35,7.12,10.03,0,11.1-14.07,11.14-14.66.13-1.92,1.79-3.34,3.7-3.25,1.92.13,3.37,1.78,3.25,3.69-.46,7.33-4.83,21.18-18.06,21.18h-.23Z"/><path class="cls-1" d="M295.61,370.13c-2.13,0-4.4-.48-6.78-1.68-.66-.43-12.2-8.17-19.4-22.14-.44-.86-.11-1.9.75-2.35.85-.45,1.9-.11,2.35.75,6.78,13.14,17.94,20.66,18.06,20.74,4.12,2.08,8.6,1.52,13.13-1.74,1.86-1.35,2.58-3.82,1.73-6.02l-.55-1.43c-.35-.9.1-1.9,1-2.25.9-.35,1.9.11,2.25,1l.55,1.43c1.41,3.67.2,7.82-2.95,10.09-2.56,1.85-6.07,3.61-10.14,3.61Z"/><path class="cls-1" d="M285.8,380.39c-.26,0-.52-.02-.79-.05-6.41-.92-11.73-4.99-14.41-10.91-1.17-2.59-1.45-6.65-1.77-11.34-.27-3.94-.57-8.4-1.49-12.18-.23-.94.35-1.88,1.28-2.11.94-.21,1.88.35,2.1,1.28.98,4.06,1.3,8.69,1.58,12.76.29,4.18.56,8.12,1.47,10.14,2.18,4.83,6.5,8.14,11.57,8.87,1.32.2,2.47-.59,2.82-1.78l2.25-7.71c.27-.92,1.23-1.46,2.16-1.18.92.27,1.45,1.23,1.18,2.16l-2.25,7.71c-.75,2.57-3.13,4.32-5.71,4.32Z"/><path class="cls-1" d="M268.24,386.54c-2.3,0-4.52-.69-6.4-2.02-1.56-1.1-2.8-2.43-3.67-3.95-.43-.73-.73-1.59-.93-2.59-.39-1.99-1.21-7.36-2.27-20.9-.07-.96.64-1.8,1.6-1.87.96-.15,1.8.64,1.87,1.6,1.05,13.36,1.84,18.58,2.21,20.5.12.63.29,1.11.52,1.51.62,1.09,1.52,2.04,2.67,2.85,1.69,1.2,3.8,1.65,5.93,1.23,2.25-.42,4.24-1.74,5.49-3.62,1.3-1.97,1.94-3.6,1.94-3.62.35-.89,1.36-1.35,2.25-.99.9.35,1.34,1.35,1,2.25-.03.08-.77,1.98-2.29,4.28-1.76,2.66-4.58,4.53-7.75,5.13-.73.14-1.46.2-2.18.2Z"/><ellipse class="cls-1" cx="248.76" cy="205.76" rx="4.65" ry="4.41"/><line class="cls-1" x1="236.6" y1="101.87" x2="243.03" y2="175.36"/><path class="cls-1" d="M243.03,178.84c-1.79,0-3.31-1.37-3.47-3.18l-6.43-73.49c-.17-1.92,1.25-3.61,3.17-3.77,1.91-.18,3.61,1.25,3.77,3.17l6.43,73.49c.17,1.92-1.25,3.61-3.17,3.77-.1.01-.21.01-.31.01Z"/><line class="cls-1" x1="212.9" y1="106.22" x2="229.34" y2="167.58"/><path class="cls-1" d="M229.34,171.06c-1.54,0-2.95-1.02-3.36-2.58l-16.44-61.36c-.5-1.86.6-3.77,2.46-4.27,1.85-.51,3.77.6,4.27,2.46l16.44,61.36c.5,1.86-.6,3.77-2.46,4.27-.3.08-.61.12-.9.12Z"/><line class="cls-1" x1="189.68" y1="114.46" x2="216.53" y2="172.03"/><path class="cls-1" d="M216.53,175.52c-1.31,0-2.57-.74-3.16-2.01l-26.85-57.58c-.81-1.74-.06-3.82,1.69-4.63,1.74-.81,3.82-.06,4.63,1.68l26.85,57.58c.81,1.74.06,3.82-1.69,4.63-.47.22-.98.33-1.47.33Z"/><line class="cls-1" x1="261.23" y1="101.87" x2="254.81" y2="175.28"/><path class="cls-1" d="M254.81,178.76c-.1,0-.2,0-.31-.01-1.92-.17-3.34-1.86-3.17-3.77l6.42-73.41c.17-1.92,1.86-3.35,3.77-3.17,1.92.17,3.34,1.86,3.17,3.77l-6.42,73.41c-.16,1.81-1.68,3.18-3.47,3.18Z"/><line class="cls-1" x1="284.93" y1="106.22" x2="268.48" y2="167.58"/><path class="cls-1" d="M268.49,171.06c-.3,0-.6-.04-.9-.12-1.86-.5-2.96-2.41-2.46-4.27l16.44-61.36c.5-1.86,2.39-2.97,4.27-2.46,1.86.5,2.96,2.41,2.46,4.27l-16.44,61.36c-.42,1.56-1.82,2.58-3.36,2.58Z"/><line class="cls-1" x1="308.15" y1="114.46" x2="281.3" y2="172.03"/><path class="cls-1" d="M281.3,175.52c-.49,0-.99-.11-1.47-.33-1.74-.81-2.5-2.88-1.69-4.63l26.85-57.58c.81-1.74,2.89-2.49,4.63-1.68,1.74.81,2.5,2.88,1.69,4.63l-26.85,57.58c-.59,1.27-1.85,2.01-3.16,2.01Z"/><path class="cls-1" d="M228.23,178.6c-2.16,1.32-2.78,4.05-1.38,6.09,1.39,2.05,4.27,2.63,6.42,1.31,2.16-1.32,2.78-4.05,1.38-6.09-1.39-2.05-4.27-2.63-6.42-1.31Z"/><path class="cls-1" d="M270.67,179.92c-1.39-2.05-4.27-2.63-6.42-1.31-2.16,1.32-2.78,4.05-1.38,6.09,1.39,2.05,4.27,2.63,6.42,1.31,2.16-1.32,2.78-4.05,1.38-6.09Z"/><path class="cls-1" d="M184.36,307.29c-26.22.86-49.39-14.38-60.69-37.58-1.54-3.14-2.76-6.42-4.15-9.6,2.29,4.48,4.82,9.4,7.79,13.49,8.54,12.55,21.84,22.21,36.7,25.51,6.52,1.55,13.57,2.03,19.8,1.23,4.72-.49,5.34,6.67.55,6.95h0Z"/><path class="cls-1" d="M183.7,307.31c-10.63-.8-27.97-1.16-31.07,11.79-.73,4.11-.64,8.57,1.18,12.56-2.49-3.64-3.42-8.26-3.38-12.77.23-10.26,11.44-15.31,20.05-17.05,4.52-.95,8.93-1.45,13.68-1.48,1.93-.01,3.5,1.54,3.52,3.47.03,2.12-1.9,3.8-3.99,3.48h0Z"/><path class="cls-1" d="M133.51,307.56c-4.11,0-6.72-.79-7.5-1.06-4-1.14-5.63-3.49-6.3-5.28-.72-1.92-.6-3.9-.18-5.58-4.05-1.4-7.83-3.83-8.39-4.2-.12-.07-.23-.16-.33-.25-5.61-4.7-5.14-11.27-3.72-15.25-5.04-9.97-6.47-18.61-4.25-25.71,2.23-7.14,7.31-9.93,7.88-10.22,5.42-2.56,10.41-2.72,14.94-.53,7.57,3.67,11.35,13.07,12.75,17.49,5.72,1.52,8.17,7.57,8.96,12.62,2.4.04,4.33.81,5.74,2.29,2.68,2.8,2.09,6.86,1.78,8.26-.51,11.68,6.66,17.5,6.74,17.56,1.51,1.19,1.76,3.38.57,4.89-1.2,1.51-3.39,1.76-4.89.57-.11-.09-.88-.71-1.95-1.87-9.19,5.02-16.68,6.26-21.83,6.26ZM115.13,285.74c2.39,1.52,6.86,3.85,9.33,3.95,1.26.05,2.39.77,2.97,1.89.57,1.12.5,2.46-.19,3.51-.61.96-1.34,2.84-1.01,3.7.21.56,1.31.92,1.77,1.04.12.03.24.07.36.12.32.12,8.81,3.11,22.96-4.39-2.06-3.88-3.76-9.25-3.39-16.09.01-.26.06-.51.13-.76.2-.75.16-1.76,0-2.01-.14-.09-1.06-.31-3.08.17-1.03.24-2.13,0-2.97-.67-.84-.67-1.32-1.68-1.31-2.75,0-.09-.12-9.78-5.07-9.85-1.6-.02-2.98-1.14-3.34-2.69-.77-3.28-4.01-12.41-9.68-15.14-2.57-1.24-5.45-1.07-8.81.51-.32.18-11.21,6.5.21,27.89.55,1.02.55,2.25,0,3.28-.25.5-2.46,5.12,1.13,8.3Z"/><path class="cls-1" d="M154.12,342.9c-1.79,0-3.46-.44-4.98-1.3-2.95-1.67-4.7-4.53-5.64-6.61-1.93-.65-3.46-2.31-4.29-4.12-2.29-4.84-2.27-8.89-1.49-11.74-.92-1.19-1.07-2.47-1.07-3.18-.32-4.82,3.03-7.94,5.09-9.02,5.14-2.81,16.4-2.8,17.72-2.87.62,0,1.19.16,1.69.44.57-.54,1.21-1.06,1.93-1.56,1.59-1.09,3.76-.68,4.84.9,1.09,1.59.68,3.76-.9,4.84-3.66,2.51-2.62,5.34-2.01,6.44.57,1.02.62,2.32.08,3.36-.41.79-.88,1.43-1.37,1.96.07.06.16.14.22.2,1.41,1.46,2.05,3.25,1.8,5.03-.16,1.17-.67,2.13-1.26,2.89.73,2.93.54,5.62-.56,8.01-1.92,4.17-5.88,5.64-6.32,5.8-1.2.35-2.37.52-3.49.52ZM145.96,328.18c.56,0,1.12.14,1.63.4.86.45,1.49,1.24,1.74,2.18.27.97,1.39,3.75,3.26,4.79.53.3,1.39.63,2.9.2h0s1.49-.66,2.14-2.13c.53-1.21.41-2.83-.37-4.81-.56-1.42-.13-3,1.01-3.95-1.06-1.15-2.86-3.64-2.23-6.68.22-1.06.9-1.92,1.8-2.38-.37-1.44-.49-3.07-.22-4.74-4.23.13-10.21.71-12.58,2.01-.12.07-1.02.62-1.33,1.6.71.38,1.3.98,1.6,1.72.5,1.21.39,2.61-.46,3.61,0,.01-1.84,2.61.68,7.95.04.07.09.17.15.25.1-.01.19-.01.29-.01ZM143.61,316.02v.14s0-.09,0-.14ZM160.02,315.44h0,0Z"/><ellipse class="cls-1" cx="116.92" cy="255.03" rx="1.88" ry="1.78"/><ellipse class="cls-1" cx="203.11" cy="308.19" rx="4.65" ry="4.41"/><path class="cls-1" d="M259.49,330.9c-.16,0-.32-.01-.49-.03-1.9-.27-3.23-2.03-2.97-3.93,3.45-24.63,31.26-59.33,32.44-60.79,1.21-1.5,3.4-1.73,4.9-.52,1.5,1.21,1.73,3.4.52,4.9-.28.34-27.78,34.66-30.96,57.38-.24,1.74-1.73,3-3.44,3Z"/><path class="cls-1" d="M303.11,193.42c-.69,0-1.35-.42-1.62-1.1-.35-.9.09-1.91.98-2.26,26.86-10.57,40.52-27.39,42.86-30.47-1.8-18.73-11.1-25.69-11.19-25.76-.78-.56-.95-1.65-.38-2.43.56-.78,1.65-.95,2.43-.38.44.32,10.89,8.15,12.67,28.93.04.4-.07.81-.3,1.14-.57.82-14.26,20.19-44.81,32.21-.21.09-.43.12-.64.12Z"/><path class="cls-1" d="M307.03,201.76c-.81,0-1.54-.57-1.71-1.4-.19-.94.42-1.86,1.37-2.05,27.58-5.51,45.3-18.11,45.47-18.24,11.18-8.14,7.47-20.47,5.57-25.03l-9.63,6.5c-.8.54-1.88.33-2.42-.47-.54-.8-.33-1.88.47-2.42l11.32-7.64c.41-.28.91-.36,1.39-.25.48.12.88.43,1.12.86.11.19,10.37,19.52-5.76,31.27-.75.54-18.47,13.17-46.84,18.83-.11.02-.23.03-.34.03Z"/><path class="cls-1" d="M311.69,212.47c-.91,0-1.68-.71-1.74-1.64-.06-.96.67-1.79,1.63-1.84,33.09-2.02,47.13-13.68,47.27-13.8,8.01-5.25,7.23-13.35,6.6-16.4h-6.3c-.96,0-1.74-.78-1.74-1.74s.78-1.74,1.74-1.74h7.65c.75,0,1.42.48,1.65,1.19.04.14,4.39,13.69-7.51,21.47-.41.37-14.75,12.4-49.15,14.49-.04,0-.07,0-.11,0Z"/><path class="cls-1" d="M310.86,223.75c-.91,0-1.68-.71-1.74-1.63-.06-.96.66-1.79,1.63-1.85,30.65-1.98,45.64-7.76,45.79-7.81,9.51-3.16,9.65-12.53,9.42-15.63l-2.75-1.01c-.9-.33-1.37-1.33-1.04-2.23.33-.9,1.34-1.36,2.23-1.04l3.77,1.38c.59.22,1.02.73,1.12,1.36.89,5.45-.39,16.74-11.56,20.44-.53.21-15.47,5.99-46.75,8.02-.04,0-.08,0-.11,0Z"/><path class="cls-1" d="M330.06,236.19c-5.9,0-12.59-.58-19.61-2.27-.94-.22-1.51-1.17-1.29-2.1.22-.93,1.17-1.5,2.1-1.29,21.21,5.09,39.8-.48,39.99-.53,6.87-2.84,8.25-9.35,8.52-11.68l-2.88-2.25c-.76-.59-.89-1.69-.3-2.45.59-.76,1.68-.9,2.44-.3l3.62,2.82c.43.34.68.86.67,1.41,0,.46-.33,11.36-10.9,15.72-.64.2-9.66,2.92-22.37,2.92Z"/><path class="cls-1" d="M334.88,249.13c-6.54,0-14.6-1.14-27.01-6.51-.88-.38-1.29-1.41-.91-2.29.38-.88,1.4-1.3,2.29-.91,13.68,5.92,21.72,6.44,28.4,6.16,1.57-.07,2.97-.43,4.13-1.05,3.43-1.84,5.78-5.08,6.77-6.64l-2.64-3.71c-.56-.78-.38-1.87.41-2.43.78-.55,1.87-.37,2.43.41l3.3,4.63c.38.53.43,1.23.13,1.81-.13.24-3.15,6-8.74,9-1.63.87-3.52,1.36-5.62,1.46-.95.04-1.92.07-2.93.07Z"/><path class="cls-1" d="M329.5,261.27c-1.48,0-3.09-.19-4.84-.64-.43-.12-9.42-2.77-20.22-10.07-.8-.54-1.01-1.62-.47-2.42.54-.79,1.62-1.01,2.42-.47,10.31,6.97,19.1,9.57,19.18,9.59,7.91,2.04,12.03-2.33,13.38-4.17l-2.75-4.93c-.47-.84-.17-1.9.67-2.37.84-.47,1.9-.17,2.37.67l3.26,5.84c.29.52.29,1.14.02,1.67-.05.09-4.01,7.29-13.02,7.29Z"/><path class="cls-1" d="M316.24,272.17c-1.06,0-2.19-.12-3.38-.39-.12-.02-.23-.06-.34-.11-.32-.15-7.94-3.67-13.96-9.5-.69-.67-.71-1.77-.04-2.46.67-.69,1.78-.71,2.46-.04,5.12,4.96,11.72,8.23,12.83,8.76,5.72,1.21,9.57-2.16,10.89-3.58l-1.3-5.5c-.22-.94.36-1.87,1.3-2.1.93-.24,1.87.36,2.1,1.29l1.5,6.36c.12.5,0,1.03-.3,1.44-.2.27-4.44,5.82-11.75,5.82Z"/><path class="cls-1" d="M302.54,279.17c-2.96,0-5.78-1.51-7.39-4.02-1.36-2.12-3.26-5.06-5.01-7.74-.53-.81-.3-1.88.51-2.41.8-.52,1.89-.3,2.41.51,1.76,2.69,3.66,5.64,5.03,7.76,1.09,1.69,3.1,2.65,5.1,2.38,2.76-.34,5.31-1.36,6.37-1.83l2.11-4.48c.41-.87,1.45-1.24,2.32-.83.87.41,1.24,1.45.83,2.32l-2.38,5.05c-.16.35-.44.64-.79.81-.15.08-3.8,1.9-8.04,2.42-.35.04-.71.06-1.06.06Z"/><path class="cls-1" d="M313.99,300.38c19.77,2.34,40.85-6.86,53.1-22.66,4.44-5.18,7.82-11.55,10.9-17.6-2.57,6.31-5.48,13.08-9.51,18.65-12.08,18.22-33.29,29.27-55.34,28.53-4.94-.34-4.08-7.74.84-6.92h0Z"/><path class="cls-1" d="M313.34,300.36c18.78-.2,43.13,8.59,30.36,31.3,3.14-7.38,2.21-17.78-5.77-21.42-7.23-3.57-16.33-3.7-24.22-2.91-4.84.44-5.25-6.87-.37-6.96h0Z"/><path class="cls-1" d="M364.01,307.56c-5.15,0-12.64-1.23-21.83-6.26-1.06,1.16-1.84,1.79-1.95,1.87-1.51,1.19-3.7.94-4.89-.57-1.19-1.5-.94-3.68.55-4.88.31-.26,7.25-6.06,6.75-17.57-.31-1.4-.9-5.46,1.78-8.26,1.41-1.48,3.34-2.25,5.74-2.29.78-5.05,3.24-11.1,8.96-12.62,1.4-4.42,5.19-13.82,12.75-17.49,4.53-2.2,9.52-2.03,14.84.48.68.34,5.76,3.13,7.99,10.27,2.22,7.1.79,15.74-4.25,25.71,1.41,3.98,1.89,10.54-3.72,15.25-.11.09-.22.17-.33.25-.56.37-4.35,2.79-8.39,4.2.41,1.68.54,3.66-.18,5.58-.67,1.78-2.3,4.13-6.3,5.28-.78.27-3.39,1.06-7.5,1.06ZM346.19,295.56c14.16,7.5,22.65,4.51,23,4.37.78-.23,1.88-.59,2.09-1.15.33-.86-.39-2.75-1.02-3.72-.68-1.05-.74-2.39-.16-3.5s1.7-1.83,2.95-1.88c2.57-.1,7.26-2.62,9.33-3.95,3.59-3.18,1.38-7.8,1.11-8.32-.52-1.02-.52-2.25.02-3.25,4.68-8.77,6.25-16.32,4.52-21.84-1.36-4.37-4.39-6.09-4.42-6.1-3.26-1.53-6.14-1.7-8.72-.46-5.7,2.76-8.91,11.86-9.67,15.13-.36,1.56-1.74,2.67-3.34,2.7-4.95.07-5.07,9.77-5.07,9.86,0,1.06-.48,2.07-1.32,2.74-.84.66-1.93.9-2.96.67-2.02-.48-2.94-.26-3.1-.14-.15.22-.18,1.23.03,2.01.06.23.11.5.12.73.37,6.84-1.33,12.2-3.39,16.09Z"/><path class="cls-1" d="M343.36,342.91c-1.07,0-2.16-.16-3.27-.48-.62-.21-4.58-1.68-6.5-5.85-1.1-2.39-1.29-5.08-.56-8.01-.58-.76-1.09-1.72-1.26-2.89-.25-1.78.39-3.57,1.8-5.03.07-.07.14-.14.22-.2-.49-.52-.96-1.17-1.37-1.96-.56-1.07-.52-2.36.11-3.4.59-1.06,1.63-3.89-2.03-6.39-1.59-1.09-1.99-3.26-.9-4.84,1.09-1.58,3.26-1.99,4.84-.9.72.5,1.36,1.02,1.93,1.56.52-.29,1.01-.44,1.77-.44,1.6,0,12.59.1,17.69,2.89,2.02,1.07,5.37,4.18,5.05,9,0,.71-.16,2-1.07,3.18.78,2.86.79,6.91-1.5,11.78-.82,1.79-2.34,3.45-4.27,4.09-.94,2.07-2.69,4.93-5.64,6.6-1.54.87-3.24,1.31-5.02,1.31ZM339.24,324.85c1.03,1.01,1.54,2.64,1.02,3.96-.78,1.98-.9,3.6-.37,4.81.68,1.54,2.33,2.19,2.35,2.2,1.3.37,2.17.02,2.69-.27,1.87-1.04,2.99-3.82,3.26-4.8.26-.93.89-1.71,1.74-2.16.59-.31,1.24-.45,1.9-.39.06-.09.11-.18.15-.26,2.52-5.34.69-7.94.61-8.04-.77-1.05-.94-2.5-.36-3.67.35-.7.9-1.27,1.56-1.62-.34-.98-1.26-1.51-1.27-1.51-2.41-1.32-8.39-1.9-12.62-2.03.27,1.67.14,3.3-.22,4.74.9.47,1.58,1.32,1.8,2.38.61,2.97-1.07,5.4-2.24,6.67ZM337.5,315.44h0,0Z"/><ellipse class="cls-1" cx="380.59" cy="255.03" rx="1.88" ry="1.78"/><ellipse class="cls-1" cx="294.41" cy="308.19" rx="4.65" ry="4.41"/><path class="cls-1" d="M246.57,432.14c-101.12,0-183.39-82.27-183.39-183.39S145.44,65.37,246.57,65.37s183.39,82.27,183.39,183.39-82.27,183.39-183.39,183.39ZM246.57,72.34c-97.28,0-176.42,79.14-176.42,176.42s79.14,176.42,176.42,176.42,176.42-79.14,176.42-176.42-79.14-176.42-176.42-176.42Z"/><path class="cls-1" d="M200.76,76.1c-.66,0-1.22-.49-1.3-1.16-.08-.71.44-1.36,1.15-1.44.13-.01,13.32-1.65,26.03-16.1.16-.18,3.64-3.97,7.46-5.75.65-.31,1.43-.02,1.73.63.3.65.02,1.43-.63,1.73-3.33,1.55-6.58,5.09-6.61,5.12-13.41,15.25-27.12,16.89-27.69,16.96-.05,0-.1,0-.14,0Z"/><path class="cls-1" d="M216.67,68.46c-.67,0-1.24-.52-1.3-1.2-.51-6.32.87-11.39,4.11-15.07,4.69-5.32,11.51-5.68,11.8-5.7,9.76-1.49,13.28-3.49,13.32-3.51.48-.28,1.08-.23,1.5.13.42.36.58.94.39,1.45-1.85,4.96-6.01,12.69-6.19,13.01-3.69,8.12-9.5,7.74-9.74,7.74-7.65.48-10.83,2.09-10.86,2.11-.62.33-1.38.11-1.73-.48,0,.03,0,.07,0,.1.06.72-.48,1.35-1.2,1.41-.04,0-.07,0-.11,0ZM242.84,46.51c-2.25.77-5.87,1.74-11.32,2.58-.2.01-6.18.36-10.11,4.85-2.52,2.87-3.7,6.83-3.52,11.79.11-.25.31-.47.56-.61.14-.08,3.6-1.89,12.11-2.41.36,0,4.45.14,7.38-6.3.07-.13,2.89-5.37,4.89-9.9Z"/><path class="cls-1" d="M258.23,84.57c-.07,0-.15,0-.23-.02-4.15-.72-8.49-3.48-8.68-3.6-16.12-10.7-29.21-8.8-29.34-8.79-.71.15-1.38-.37-1.49-1.09-.11-.71.38-1.38,1.09-1.49.57-.1,14.23-2.06,31.17,9.18.02.01,4.08,2.59,7.7,3.22.71.12,1.19.8,1.06,1.51-.11.64-.66,1.08-1.29,1.08Z"/><path class="cls-1" d="M253.3,90.57c-2.52,0-6.17-.49-9.57-2.74-4.08-2.7-6.74-7.24-7.88-13.48-.13-.71.34-1.39,1.05-1.52.71-.12,1.39.34,1.52,1.05,0,.03.01.06.02.1.19-.66.87-1.07,1.55-.91.06.01,3.54.74,11.2-.84.06-.04,5.57-1.89,11.3,5.06.2.2,6.22,6.58,9.3,10.89.32.45.32,1.06,0,1.51-.32.46-.9.66-1.42.5-.03,0-3.96-1.02-13.9.1-.06.02-1.31.28-3.17.28ZM238.68,75.17c1.12,4.83,3.29,8.35,6.47,10.46,4.96,3.31,10.83,2.09,10.89,2.07,5.55-.63,9.34-.63,11.74-.47-3.11-3.85-7.2-8.17-7.25-8.22-4.56-5.52-8.5-4.33-8.66-4.27-8.51,1.76-12.32.9-12.48.86-.29-.07-.53-.22-.7-.44Z"/><path class="cls-1" d="M283.12,73.09c-4.47,0-7.17-.71-7.41-.78-.7-.19-1.1-.91-.91-1.6.19-.69.9-1.13,1.6-.92.13.03,12.99,3.36,30.13-5.41.22-.11,4.85-2.36,9.05-2.61.68-.11,1.34.5,1.38,1.22.04.72-.51,1.34-1.23,1.38-3.67.22-7.99,2.32-8.03,2.34-10.16,5.2-18.83,6.37-24.57,6.37Z"/><path class="cls-1" d="M310.24,73.75c-1.78,0-2.9-.52-3-.57-7.29-2.37-10.84-2.04-10.87-2.03-.7.04-1.32-.4-1.43-1.09-.01.03-.02.06-.03.1-.21.69-.94,1.1-1.63.87-.69-.21-1.08-.94-.87-1.63,1.85-6.07,4.99-10.27,9.35-12.5,6.31-3.23,12.79-1.06,13.07-.97,9.63,2.2,13.64,1.63,13.68,1.63.56-.08,1.09.18,1.35.67.26.49.19,1.08-.18,1.49-3.54,3.93-10.25,9.59-10.54,9.83-3.53,3.4-6.71,4.19-8.9,4.19ZM296.91,68.51c1.55,0,5.25.27,11.3,2.25.32.13,4.09,1.77,9.18-3.14.11-.1,4.66-3.94,8.19-7.41-2.37-.12-6.1-.53-11.47-1.77-.19-.05-5.88-1.93-11.19.8-3.4,1.74-5.95,4.99-7.6,9.66.2-.19.46-.32.75-.35.04,0,.32-.04.85-.04Z"/><path class="cls-1" d="M323.96,103.53c-.27,0-.54-.08-.77-.26-3.39-2.5-6.05-6.9-6.16-7.09-9.58-16.61-22.1-19.41-22.22-19.44-.7-.15-1.16-.84-1.01-1.54s.84-1.18,1.54-1.01c.56.11,13.76,2.99,23.95,20.67.01.02,2.5,4.13,5.46,6.31.58.43.7,1.24.28,1.83-.26.35-.65.53-1.05.53Z"/><path class="cls-1" d="M332.62,114.18c-.32,0-.63-.12-.88-.34-.02-.02-3.08-2.68-12.49-6.11-.15-.03-6.76-1.73-10.31-7.87-2.45-4.24-2.8-9.48-1.05-15.58.2-.69.92-1.1,1.62-.89.69.2,1.09.92.89,1.62,0,.03-.02.06-.03.09.47-.5,1.25-.56,1.79-.12.08.07,2.89,2.25,10.4,4.24h0c.1,0,5.83.82,7.87,9.56.09.27,2.64,8.67,3.47,13.9.09.55-.18,1.09-.67,1.36-.19.11-.41.16-.62.16ZM310.07,86.28c-1.15,4.83-.77,8.96,1.14,12.27,3,5.18,8.75,6.67,8.81,6.68,5.26,1.92,8.65,3.61,10.72,4.81-1.07-4.84-2.8-10.52-2.82-10.6-1.62-6.98-5.68-7.66-5.85-7.68-8.4-2.22-11.43-4.68-11.56-4.79-.23-.19-.37-.44-.44-.7Z"/><path class="cls-1" d="M382.26,107.57c-.16,0-.33-.03-.49-.1-3.41-1.37-8.21-1.32-8.26-1.33-20.31.59-30.86-8.25-31.3-8.63-.55-.47-.61-1.29-.14-1.84.47-.54,1.29-.61,1.84-.14.1.09,10.3,8.62,29.54,8,.24,0,5.38-.06,9.29,1.52.67.27.99,1.03.72,1.7-.2.51-.69.82-1.21.82Z"/><path class="cls-1" d="M377.36,114.56c-4.74,0-6.91-2.62-7.03-2.77-5.58-5.26-8.92-6.47-8.96-6.48-.66-.23-1.02-.93-.83-1.6-.02.03-.05.05-.07.08-.49.54-1.31.57-1.85.09-.53-.48-.57-1.31-.09-1.84,4.27-4.7,8.91-7.15,13.81-7.3,7.09-.11,12.02,4.52,12.22,4.72,7.76,6.1,11.63,7.31,11.67,7.32.53.16.9.63.93,1.18.03.55-.29,1.06-.8,1.27-4.89,2.04-13.37,4.29-13.73,4.38-2.03.69-3.78.95-5.28.95ZM361.8,102.77c.14,0,.28.02.41.07.15.05,3.84,1.33,10.04,7.19.22.26,2.94,3.34,9.64,1.09.14-.04,5.9-1.56,10.58-3.19-2.1-1.12-5.29-3.09-9.62-6.5-.15-.13-4.48-4.22-10.45-4.07-3.82.13-7.52,1.97-11.01,5.49.13-.04.27-.07.42-.07Z"/><path class="cls-1" d="M376.15,146.28c-.43,0-.86-.21-1.11-.61-2.24-3.56-3.11-8.64-3.14-8.85-2.85-19.06-13.04-27.58-13.14-27.66-.56-.46-.64-1.28-.19-1.84s1.28-.65,1.84-.19c.45.36,11.07,9.18,14.08,29.28,0,.03.81,4.76,2.77,7.87.38.61.2,1.42-.41,1.8-.22.14-.46.2-.69.2Z"/><path class="cls-1" d="M380.31,159.36c-.49,0-.95-.28-1.17-.73-.01-.03-1.89-3.62-9.38-10.25-.13-.08-5.66-4.09-6.71-11.1-.73-4.84.86-9.85,4.72-14.89.44-.57,1.26-.68,1.83-.24.57.44.68,1.26.24,1.83-.02.02-.04.05-.06.08.63-.31,1.37-.07,1.71.53h0s1.81,3.11,8.13,7.76c.06.02,5.13,2.87,3.82,11.78-.02.28-.72,9.03-1.85,14.2-.12.54-.57.95-1.12,1.02-.05,0-.11.01-.16.01ZM369.05,125.05c-2.84,4.06-3.99,8.03-3.43,11.81.87,5.91,5.71,9.44,5.76,9.48,4.19,3.7,6.73,6.52,8.21,8.39.77-4.89,1.24-10.82,1.25-10.89,1.04-7.09-2.48-9.2-2.64-9.29-7.01-5.14-8.93-8.54-9.01-8.68-.14-.26-.19-.54-.15-.81Z"/><path class="cls-1" d="M428.42,176.13c-.35,0-.69-.14-.95-.4-2.53-2.67-6.92-4.62-6.96-4.64-18.72-7.86-24.65-20.32-24.89-20.85-.3-.65-.02-1.43.64-1.73.65-.31,1.43-.02,1.73.63.06.12,5.8,12.1,23.55,19.55.22.1,4.93,2.19,7.83,5.24.5.52.47,1.35-.05,1.84-.25.24-.58.36-.9.36Z"/><path class="cls-1" d="M440.07,183.39h-.04c-5.29-.17-13.95-1.66-14.31-1.72-8.86-.91-10.38-6.52-10.44-6.76-2.89-7.11-5.43-9.6-5.45-9.62-.5-.48-.54-1.28-.09-1.8l-.1.04c-.67.28-1.43-.02-1.72-.69s.02-1.43.69-1.71c5.83-2.5,11.07-2.81,15.59-.9,6.53,2.75,9.05,9.1,9.16,9.37,4.53,8.78,7.54,11.48,7.57,11.51.41.36.56.95.36,1.46-.2.5-.68.83-1.21.83ZM410.85,163.04c.27.03.54.14.76.35.12.11,2.94,2.81,6.14,10.71.1.32,1.28,4.26,8.32,4.99.14.02,6.02,1.03,10.95,1.49-1.44-1.89-3.53-5.01-6.05-9.91-.08-.18-2.31-5.74-7.82-8.04-3.52-1.48-7.65-1.33-12.3.41Z"/><path class="cls-1" d="M407.08,208.16c-.63,0-1.19-.46-1.29-1.11-.63-4.16.6-9.16.65-9.37,4.99-18.61-.95-30.49-1.01-30.61-.33-.64-.08-1.43.56-1.76.64-.33,1.43-.08,1.76.56.27.51,6.49,12.84,1.22,32.47,0,.03-1.15,4.69-.6,8.32.11.71-.38,1.38-1.09,1.49-.07.01-.13.01-.2.01Z"/><path class="cls-1" d="M405.68,221.81c-.12,0-.25-.02-.37-.05-.53-.16-.9-.64-.93-1.19,0-.03-.29-4.08-4.52-13.15-.08-.13-3.56-6.01-1.73-12.85,1.27-4.73,4.72-8.69,10.27-11.77.63-.35,1.42-.12,1.78.51.35.63.12,1.43-.51,1.78-.03.01-.05.03-.08.04.67,0,1.29.48,1.35,1.18.01.11.46,3.64,4.36,10.35.05.04,3.56,4.68-1.19,12.32-.13.25-4.26,8-7.36,12.29-.25.35-.65.54-1.06.54ZM408.52,185.75c-4.22,2.6-6.87,5.77-7.86,9.46-1.55,5.76,1.47,10.93,1.5,10.99,2.36,5.06,3.57,8.66,4.19,10.97,2.66-4.18,5.46-9.43,5.49-9.49,3.78-6.08,1.39-9.43,1.29-9.57-4.38-7.51-4.78-11.39-4.79-11.55-.03-.3.04-.57.19-.81Z"/><path class="cls-1" d="M444.51,256.16c-.52,0-1.01-.31-1.21-.82-1.38-3.41-4.74-6.84-4.77-6.87-14.53-14.19-15.46-27.96-15.49-28.54-.04-.72.51-1.34,1.23-1.38.73,0,1.34.51,1.38,1.23,0,.13.96,13.39,14.73,26.83.17.17,3.78,3.84,5.35,7.75.27.67-.05,1.43-.72,1.7-.16.06-.33.1-.49.1Z"/><path class="cls-1" d="M452.67,267.19c-.17,0-.35-.03-.52-.11-4.86-2.11-12.36-6.66-12.68-6.86-7.91-4.1-7.26-9.88-7.22-10.13-.08-7.67-1.53-10.92-1.54-10.95-.29-.63-.03-1.38.57-1.7-.05,0-.1,0-.14,0-.7,0-1.29-.56-1.31-1.27-.02-.72.55-1.32,1.27-1.34,6.33-.22,11.33,1.46,14.83,4.88,5.07,4.96,5.08,11.79,5.08,12.08.98,9.82,2.8,13.45,2.82,13.48.25.49.17,1.09-.21,1.49-.25.27-.6.41-.96.41ZM432.5,237.44c.24.13.45.33.57.6.07.15,1.7,3.69,1.78,12.22-.03.33-.37,4.44,5.9,7.69.13.07,5.22,3.17,9.64,5.41-.65-2.29-1.44-5.96-1.98-11.44,0-.19-.04-6.19-4.32-10.35-2.74-2.66-6.63-4.05-11.59-4.13Z"/><path class="cls-1" d="M410.04,276.51c-.13,0-.27-.02-.4-.06-.69-.22-1.06-.96-.84-1.64,1.29-4.01,4.61-7.94,4.76-8.1,12.7-14.37,11.38-27.24,11.36-27.37-.08-.71.43-1.36,1.14-1.45.72-.09,1.36.42,1.45,1.14.07.57,1.53,14.1-11.99,29.39-.02.02-3.12,3.68-4.24,7.19-.18.55-.69.91-1.24.91Z"/><path class="cls-1" d="M402.71,288.11c-.32,0-.64-.12-.89-.35-.4-.38-.53-.97-.3-1.48.01-.03,1.55-3.78,1.81-13.78-.02-.15-.51-6.97,4.18-12.28,3.24-3.67,8.1-5.68,14.43-5.96.7.03,1.33.53,1.36,1.25.03.72-.53,1.33-1.25,1.36-.03,0-.06,0-.09,0,.63.28.93,1,.69,1.65h0s-1.22,3.38-.71,11.21c.03.06,1.1,5.78-6.56,10.5-.23.17-7.37,5.26-12.06,7.72-.19.1-.4.15-.61.15ZM420.73,256.96c-4.94.44-8.72,2.11-11.25,4.97-3.96,4.47-3.55,10.45-3.55,10.51-.14,5.59-.66,9.34-1.14,11.69,4.24-2.56,9.08-6.01,9.14-6.05,6.09-3.76,5.45-7.82,5.42-8-.57-8.67.79-12.33.85-12.48.11-.28.29-.49.52-.64Z"/><path class="cls-1" d="M424.78,333.06s-.05,0-.08,0c-.72-.04-1.27-.66-1.23-1.38.21-3.67-1.36-8.21-1.37-8.26-7.06-19.04-2.01-31.89-1.79-32.42.27-.67,1.02-.99,1.7-.72.67.27.99,1.03.72,1.7-.05.12-4.86,12.51,1.82,30.56.08.22,1.77,5.09,1.52,9.29-.04.69-.62,1.23-1.3,1.23Z"/><path class="cls-1" d="M427.43,346.52c-.37,0-.73-.15-.98-.44-3.49-3.98-8.32-11.31-8.52-11.62-5.39-7.09-2.33-12.04-2.19-12.25,3.21-6.96,3.29-10.52,3.29-10.56,0-.69.56-1.26,1.24-1.29l-.09-.04c-.66-.29-.96-1.06-.67-1.72.29-.66,1.06-.97,1.72-.67,5.81,2.55,9.62,6.17,11.32,10.76,2.46,6.65-.46,12.83-.58,13.09-3.31,9.3-3.22,13.35-3.22,13.39.02.55-.31,1.06-.82,1.26-.16.06-.32.09-.48.09ZM421.38,310.88c.16.22.26.49.26.79,0,.16-.04,4.07-3.62,11.8-.17.29-2.24,3.85,2.04,9.48.08.12,3.36,5.1,6.4,9.01.39-2.34,1.25-6,3.1-11.18.08-.18,2.61-5.61.53-11.2-1.33-3.58-4.26-6.5-8.71-8.69Z"/><path class="cls-1" d="M386.13,339.6c-.29,0-.58-.1-.83-.3-.56-.46-.64-1.28-.19-1.84,2.66-3.26,7.2-5.7,7.39-5.8,17.16-8.77,22-21.14,22.04-21.27.25-.68,1.01-1.02,1.68-.76.67.25,1.02,1,.76,1.68-.2.54-5.18,13.42-23.28,22.67-.02.01-4.25,2.29-6.57,5.14-.26.32-.63.48-1.01.48Z"/><path class="cls-1" d="M375.06,347.71c-.5,0-.96-.29-1.18-.74-.24-.5-.14-1.1.26-1.49.02-.02,2.83-2.95,6.73-12.17.04-.15,2.07-6.67,8.38-9.9,4.36-2.23,9.61-2.32,15.61-.26.68.23,1.05.98.81,1.66-.23.68-.98,1.04-1.66.81-.03-.01-.06-.02-.09-.03.48.49.5,1.28.03,1.79-.06.07-2.39,2.77-4.76,10.18,0,.07-1.09,5.78-9.95,7.37-.27.07-8.79,2.2-14.05,2.77-.05,0-.1,0-.14,0ZM396.78,324.28c-2.31,0-4.42.48-6.31,1.44-5.32,2.71-7.13,8.42-7.15,8.48-2.18,5.15-4.04,8.46-5.34,10.46,4.88-.83,10.65-2.27,10.72-2.28,7.05-1.27,7.93-5.29,7.97-5.46,2.64-8.28,5.25-11.18,5.36-11.3.2-.22.46-.35.72-.4-2.12-.62-4.12-.93-5.98-.93Z"/><path class="cls-1" d="M372.58,400.55c-.21,0-.43-.05-.63-.16-.63-.35-.86-1.14-.52-1.77,1.77-3.22,2.3-7.99,2.31-8.04,1.82-20.22,11.9-29.65,12.33-30.04.53-.49,1.36-.45,1.84.08.49.53.45,1.36-.08,1.84-.1.09-9.77,9.2-11.49,28.37-.03.24-.59,5.36-2.62,9.04-.24.43-.69.68-1.15.68Z"/><path class="cls-1" d="M369.2,413.85s-.06,0-.09,0c-.55-.04-1.02-.41-1.17-.95-1.44-5.1-2.65-13.79-2.7-14.15-1.82-8.72,3.07-11.87,3.28-12,5.89-4.91,7.5-8.09,7.52-8.12.3-.62,1.04-.9,1.68-.63-.02-.02-.04-.05-.06-.07-.47-.54-.41-1.37.13-1.84.54-.47,1.37-.41,1.84.13,4.15,4.8,6.03,9.7,5.59,14.58-.64,7.06-5.93,11.38-6.15,11.57-6.99,6.97-8.65,10.67-8.67,10.7-.21.48-.68.79-1.2.79ZM378.5,378.94c.05.27.03.55-.1.82-.07.15-1.79,3.66-8.35,9.1-.28.19-3.67,2.51-2.23,9.44.02.14.84,6.04,1.9,10.88,1.36-1.95,3.7-4.88,7.61-8.77.15-.13,4.77-3.94,5.29-9.89.34-3.8-1.05-7.69-4.12-11.59Z"/><path class="cls-1" d="M335.6,389.92c-.48,0-.95-.27-1.17-.73-.32-.65-.05-1.43.59-1.75,3.77-1.86,8.91-2.21,9.12-2.22,19.25-.89,28.78-10.15,28.87-10.25.51-.5,1.34-.51,1.85,0,.51.51.51,1.33,0,1.84-.41.41-10.27,10.07-30.57,11.01-.02,0-4.81.33-8.11,1.95-.19.09-.38.14-.58.14Z"/><path class="cls-1" d="M340.08,396.54c-1.28,0-2.73-.17-4.38-.59-.28-.05-8.91-1.64-13.94-3.29-.53-.17-.89-.66-.9-1.22s.33-1.05.85-1.25c.03-.01,3.79-1.51,11.16-8.29.09-.12,4.64-5.21,11.73-5.54,4.93-.18,9.71,1.86,14.32,6.22.53.49.55,1.32.05,1.85-.5.52-1.32.55-1.85.05-.02-.02-.04-.04-.07-.06.23.65-.07,1.37-.71,1.64-.05.02-3.29,1.49-8.54,7.29-.02.05-2.23,3.18-7.72,3.18ZM325.54,391.05c4.79,1.27,10.63,2.34,10.71,2.35,6.94,1.77,9.41-1.53,9.51-1.67,5.83-6.45,9.41-8.01,9.55-8.07.27-.11.56-.13.82-.06-3.76-3.25-7.62-4.81-11.43-4.62-5.98.28-9.94,4.71-9.98,4.76-4.11,3.79-7.17,6.03-9.19,7.32Z"/><path class="cls-1" d="M301.19,440.14c-.37,0-.75-.16-1.01-.47-.46-.55-.38-1.38.17-1.84,2.83-2.34,5.08-6.59,5.1-6.63,9.12-18.14,21.96-23.21,22.5-23.41.68-.25,1.43.08,1.68.76.26.67-.08,1.43-.75,1.69-.12.05-12.47,4.97-21.11,22.16-.11.21-2.52,4.77-5.76,7.45-.24.2-.54.3-.83.3Z"/><path class="cls-1" d="M293.16,451.26c-.19,0-.38-.04-.56-.13-.5-.24-.8-.76-.74-1.31.54-5.27,2.6-13.8,2.69-14.16,1.51-8.78,7.22-9.91,7.46-9.96,7.28-2.4,9.94-4.76,9.97-4.79.52-.47,1.3-.45,1.8.03-.01-.03-.02-.06-.03-.1-.24-.68.12-1.43.8-1.66.68-.24,1.43.12,1.67.8,2.1,5.99,2.04,11.24-.16,15.61-3.19,6.33-9.7,8.42-9.97,8.5-9.07,3.91-11.96,6.74-11.99,6.77-.25.25-.59.38-.93.38ZM314.15,422.11c-.05.27-.18.53-.4.73-.12.11-3,2.74-11.1,5.39-.33.07-4.34.99-5.54,7.96-.03.14-1.44,5.93-2.23,10.82,1.98-1.31,5.24-3.18,10.3-5.36.18-.06,5.88-1.92,8.55-7.25,1.71-3.42,1.85-7.55.42-12.3Z"/><path class="cls-1" d="M299.75,419.85c-5.4,0-12.34-1.02-20.27-4.52-.02,0-4.45-1.85-8.13-1.86-.72,0-1.3-.59-1.3-1.31s.59-1.3,1.31-1.3h0c4.21.01,8.96,1.99,9.16,2.07,17.58,7.76,30.19,2.57,30.31,2.52.66-.28,1.43.02,1.71.69.28.66-.02,1.43-.68,1.71-.32.14-4.8,2-12.11,2Z"/><path class="cls-1" d="M276.88,422.52c-2.15,0-5.2-.74-8.71-3.75-.23-.17-7.25-5.43-11.01-9.16-.39-.39-.5-.99-.26-1.49.24-.5.78-.77,1.32-.74.03,0,4.07.34,13.68-2.45.14-.06,6.48-2.59,12.97.26,4.48,1.98,7.87,6,10.06,11.95.25.68-.1,1.43-.78,1.68-.68.24-1.43-.1-1.68-.77-.01-.03-.02-.06-.03-.09-.08.68-.7,1.27-1.37,1.15-.08,0-3.63-.12-10.9,2.72-.03.02-1.25.68-3.29.68ZM261.27,409.86c3.72,3.27,8.48,6.84,8.54,6.88,5.43,4.66,9.11,2.81,9.26,2.74,8.09-3.17,11.99-2.99,12.15-2.97.29.02.56.13.77.31-1.93-4.58-4.67-7.68-8.17-9.23-5.49-2.42-11-.21-11.05-.19-5.37,1.56-9.11,2.2-11.49,2.46Z"/><path class="cls-1" d="M221.93,444.64c-.58,0-1.11-.39-1.26-.98-.18-.7.24-1.41.94-1.59,3.56-.91,7.41-3.78,7.45-3.81,16.01-12.5,29.78-11.58,30.36-11.53.72.06,1.25.68,1.2,1.4-.05.72-.63,1.31-1.4,1.2-.13,0-13.4-.84-28.56,11-.19.14-4.31,3.22-8.39,4.27-.11.03-.22.04-.32.04Z"/><path class="cls-1" d="M209.91,451.25c-.39,0-.76-.17-1.01-.48-.35-.43-.39-1.03-.11-1.5,2.74-4.53,8.26-11.35,8.49-11.64,5.13-7.29,10.76-5.86,11.01-5.8,7.61.95,11.03-.05,11.06-.06.66-.19,1.37.15,1.61.8v-.1c.09-.72.73-1.21,1.45-1.16.72.07,1.24.72,1.16,1.44-.67,6.31-2.96,11.03-6.83,14.04-5.59,4.36-12.36,3.46-12.65,3.41-9.88-.32-13.7.98-13.74.99-.14.05-.29.07-.44.07ZM226.87,434.29c-1.47,0-4.47.61-7.5,4.91-.09.12-3.84,4.75-6.65,8.83,2.36-.34,6.09-.62,11.6-.44.2.02,6.14.79,10.84-2.89,3.01-2.35,4.9-6.02,5.64-10.93-.16.22-.39.4-.67.49-.15.05-3.89,1.19-12.35.12-.08-.02-.41-.09-.92-.09Z"/><path class="cls-1" d="M239.12,429.73h-.07c-.58-.03-14.36-.87-28.66-15.32-.02-.02-3.47-3.35-6.89-4.71-.67-.27-1-1.02-.73-1.69.26-.67,1.02-.99,1.7-.73,3.91,1.55,7.61,5.13,7.77,5.28,13.56,13.69,26.82,14.55,26.95,14.56.72.04,1.27.65,1.24,1.37-.04.7-.61,1.24-1.3,1.24Z"/><path class="cls-1" d="M222.79,423.03h-.03c-.72-.02-1.29-.62-1.28-1.34,0-.03,0-.06,0-.09-.32.61-1.07.86-1.7.57-.09-.04-3.36-1.44-11.14-1.45-.06.02-5.84.71-10.04-7.25-.15-.24-4.76-7.71-6.9-12.55-.22-.51-.1-1.1.3-1.48.4-.38,1-.47,1.5-.21.03.02,3.66,1.8,13.63,2.73.13-.03,6.99-.04,11.97,4.99,3.45,3.48,5.13,8.46,4.99,14.8-.02.71-.6,1.28-1.31,1.28ZM208.49,418.13c8.69,0,12.25,1.62,12.39,1.68.27.12.47.33.6.57-.11-4.97-1.53-8.86-4.23-11.58-4.23-4.27-10.21-4.2-10.22-4.22-5.57-.51-9.28-1.29-11.59-1.92,2.27,4.4,5.39,9.46,5.43,9.52,3.34,6.33,7.44,5.97,7.62,5.94Z"/><path class="cls-1" d="M184.54,418.2c-.21,0-.43-.05-.63-.16-.12-.06-11.83-6.32-30.55-1.86-.23.05-5.26,1.15-9.41.4-.71-.13-1.18-.81-1.05-1.52.13-.71.79-1.17,1.52-1.05,3.63.66,8.31-.36,8.36-.37,19.74-4.72,31.9,1.83,32.4,2.12.63.35.86,1.14.51,1.77-.24.43-.69.68-1.15.68Z"/><path class="cls-1" d="M152.56,425c-5.18,0-9.07-2.45-9.27-2.57-8.83-4.4-12.86-4.8-12.9-4.8-.55-.05-1.02-.44-1.15-.97s.07-1.1.52-1.41c4.37-2.99,12.23-6.9,12.56-7.07,7.69-4.49,12.23-.86,12.42-.71,6.53,4.02,10.05,4.53,10.08,4.54.69.09,1.19.71,1.13,1.39.02-.03.04-.06.05-.09.37-.63,1.17-.83,1.79-.46.62.37.83,1.17.46,1.79-3.23,5.46-7.28,8.81-12.04,9.94-1.27.3-2.49.43-3.66.43ZM133.85,415.74c2.28.67,5.8,1.96,10.73,4.42.17.1,5.25,3.27,11.06,1.87,3.71-.89,6.96-3.45,9.68-7.6-.24.14-.53.2-.81.17-.16-.02-4.03-.53-11.28-5.01-.27-.2-3.56-2.68-9.66.88-.13.07-5.46,2.73-9.71,5.27Z"/><path class="cls-1" d="M162.57,409.8c-.25,0-.5-.07-.72-.22-.35-.23-8.54-5.88-15.86-24.74-.01-.02-1.84-4.46-4.44-7.07-.51-.51-.51-1.34,0-1.85.51-.51,1.34-.51,1.85,0,2.97,2.99,4.93,7.75,5.01,7.95,6.99,18,14.81,23.49,14.89,23.54.6.4.75,1.21.35,1.81-.25.37-.66.57-1.08.57Z"/><path class="cls-1" d="M152.93,397.79c-.18,0-.37-.04-.55-.12-.65-.3-.94-1.08-.64-1.73,0,0,0-.01,0-.02-.09-.06-.17-.13-.25-.22-.04-.04-2.47-2.64-9.64-5.78-.07,0-5.64-1.68-6.32-10.65-.04-.28-1.29-8.97-1.32-14.26,0-.55.35-1.05.87-1.24.52-.19,1.11-.02,1.45.41.02.02,2.64,3.11,11.41,7.94.07.03,14.43,6.97,6.15,24.91-.22.48-.69.76-1.19.76ZM136.97,368.09c.32,4.94,1.17,10.82,1.18,10.9.54,7.14,4.45,8.44,4.62,8.49,5.89,2.56,8.85,4.82,10.04,5.86,4.84-13.64-5.55-18.67-6.02-18.89-4.87-2.68-7.96-4.86-9.82-6.36Z"/><path class="cls-1" d="M117.57,375.78c-.43,0-.85-.21-1.1-.6h0c-.05-.08-5.46-8.07-24.34-10.76-.24-.04-5.32-.87-8.9-3.09-.61-.38-.8-1.18-.42-1.8.38-.62,1.18-.8,1.8-.42,3.13,1.94,7.86,2.72,7.91,2.72,20.19,2.88,25.91,11.56,26.15,11.93.39.61.21,1.42-.4,1.8-.22.14-.46.2-.7.2Z"/><path class="cls-1" d="M93.9,373.44c-.73,0-1.46-.05-2.19-.16-7.02-1.01-11.06-6.51-11.23-6.75-6.6-7.34-10.2-9.19-10.24-9.21-.49-.24-.78-.78-.71-1.33s.47-1,1-1.12c5.17-1.17,13.91-1.93,14.28-1.96,8.8-1.35,11.69,3.69,11.81,3.91,4.59,6.14,7.68,7.91,7.71,7.92.61.34.84,1.09.54,1.71.03-.02.05-.04.08-.06.57-.45,1.39-.34,1.83.23.44.57.34,1.39-.23,1.83-4.26,3.31-8.5,4.98-12.66,4.98ZM74.15,356.84c1.87,1.46,4.68,3.95,8.36,8.05.12.15,3.69,4.97,9.6,5.8,3.78.53,7.74-.65,11.79-3.51-.27.03-.56,0-.81-.14-.14-.08-3.56-1.97-8.66-8.81-.18-.29-2.33-3.81-9.31-2.72-.14.01-6.08.53-10.97,1.33Z"/><path class="cls-1" d="M107.04,364.47c-.39,0-.79-.18-1.04-.52-.35-.46-8.57-11.55-6.71-31.79,0-.02.34-4.81-.82-8.31-.23-.68.14-1.42.83-1.65.68-.24,1.42.14,1.65.83,1.33,3.99.96,9.13.95,9.35-1.77,19.26,6.11,29.89,6.19,29.99.44.57.32,1.39-.25,1.83-.23.18-.51.27-.79.27Z"/><path class="cls-1" d="M101.67,347.66c-.38,0-.76-.17-1.02-.49-.45-.56-.36-1.38.2-1.83.02-.02.05-.04.07-.06-.68.12-1.35-.27-1.53-.93-.02-.06-1.04-3.47-6.05-9.47-.06-.03-4.3-4.01-.91-12.35.09-.27,2.84-8.6,5.17-13.35.24-.5.77-.8,1.33-.72.55.06,1,.47,1.12,1.01,0,.03.97,3.96,6.68,12.19.1.11,4.53,5.32,3.88,12.37-.44,4.88-3.18,9.36-8.12,13.33-.24.19-.53.29-.82.29ZM98.68,313.15c-1.91,4.57-3.78,10.21-3.8,10.28-2.69,6.64.23,9.53.35,9.65,5.59,6.66,6.64,10.42,6.68,10.57.07.28.05.57-.05.82,3.72-3.28,5.79-6.85,6.14-10.65.55-5.94-3.3-10.52-3.34-10.57-3.19-4.59-4.99-7.93-5.98-10.11Z"/><path class="cls-1" d="M80.82,318.39c-.58,0-1.12-.39-1.27-.99-.03-.13-3.46-12.96-19.52-23.57-.2-.13-4.43-3.06-6.72-6.6-.39-.61-.22-1.41.39-1.8s1.42-.22,1.81.39c2,3.09,5.94,5.82,5.98,5.85,16.94,11.19,20.46,24.54,20.6,25.1.18.7-.25,1.41-.95,1.59-.11.03-.21.04-.32.04Z"/><path class="cls-1" d="M65.44,304.35c-3.66,0-6.87-.9-9.58-2.69-5.91-3.91-7.21-10.62-7.26-10.9-2.82-9.46-5.29-12.67-5.31-12.7-.34-.44-.37-1.04-.08-1.51.29-.47.85-.7,1.39-.58,5.17,1.15,13.4,4.21,13.74,4.34,8.54,2.54,8.99,8.34,9.01,8.59,1.52,7.51,3.56,10.44,3.58,10.46.4.57.29,1.35-.24,1.78.03,0,.07-.02.1-.02.7-.16,1.4.29,1.56.99.16.7-.29,1.4-.99,1.56-2.08.46-4.05.69-5.91.69ZM47.03,279.29c1.07,2.12,2.54,5.58,4.11,10.86.04.19,1.21,6.06,6.19,9.35,3.19,2.1,7.27,2.73,12.16,1.87-.26-.08-.5-.24-.68-.48-.1-.13-2.37-3.31-4.05-11.66-.04-.34-.47-4.43-7.25-6.45-.14-.05-5.72-2.13-10.48-3.49Z"/><path class="cls-1" d="M74.02,299.38c-.57,0-1.1-.38-1.26-.95-.16-.56-3.75-13.89,5.39-32.05.01-.02,2.08-4.35,2.27-8.03.04-.72.65-1.34,1.37-1.23.72.04,1.27.65,1.23,1.37-.22,4.21-2.44,8.85-2.54,9.05-8.7,17.28-5.26,30.06-5.22,30.18.2.69-.21,1.42-.9,1.61-.12.03-.24.05-.35.05Z"/><path class="cls-1" d="M75.17,281.77c-.56,0-1.07-.36-1.25-.92-.21-.69.17-1.42.86-1.64.03,0,.06-.02.08-.02-.68-.12-1.15-.74-1.08-1.43,0-.1.29-3.65-2.17-11.02-.04-.05-2.54-5.31,3.67-11.83.18-.22,5.79-6.97,9.7-10.54.41-.37,1.01-.45,1.5-.18.49.26.76.81.67,1.35,0,.03-.54,4.04,1.75,13.79.06.14,2.27,6.6-.92,12.94-2.2,4.38-6.38,7.55-12.44,9.44-.13.04-.26.06-.39.06ZM84.54,248.47c-3.45,3.55-7.26,8.12-7.3,8.18-4.94,5.19-3.28,8.96-3.2,9.11,2.76,8.24,2.37,12.12,2.35,12.29-.03.29-.16.55-.34.74,4.66-1.68,7.89-4.26,9.61-7.67,2.69-5.33.78-11,.76-11.06-1.29-5.44-1.74-9.2-1.87-11.59Z"/><path class="cls-1" d="M66.66,242.64c-.11,0-.23-.01-.34-.04-.7-.18-1.11-.9-.93-1.6.03-.11,2.76-11.12-7.52-27.27-.13-.2-2.8-4.6-3.45-8.76-.11-.71.38-1.38,1.09-1.49.72-.14,1.38.38,1.49,1.09.56,3.63,3.05,7.74,3.08,7.78,10.94,17.19,7.96,28.84,7.83,29.33-.16.58-.68.96-1.26.96Z"/><path class="cls-1" d="M64.47,227.34c-.09,0-.18,0-.26-.03-6.22-1.27-10.7-4-13.33-8.14-3.8-5.98-2.25-12.64-2.19-12.92,1.28-9.79.34-13.73.33-13.77-.13-.53.08-1.1.54-1.4.46-.31,1.06-.3,1.5.03,4.25,3.16,10.52,9.31,10.78,9.57,6.76,5.8,4.81,11.28,4.72,11.51-1.67,7.48-1.01,10.98-1,11.01.14.68-.28,1.35-.94,1.52.03,0,.07.01.1.02.71.14,1.16.83,1.02,1.54-.13.62-.67,1.04-1.28,1.04ZM51.93,195.15c.11,2.37.04,6.13-.68,11.59-.04.19-1.37,6.03,1.84,11.06,2.06,3.22,5.53,5.46,10.34,6.66-.21-.18-.36-.43-.42-.71-.03-.16-.82-3.98,1.06-12.3.1-.32,1.37-4.24-3.99-8.84-.11-.1-4.36-4.27-8.15-7.46Z"/><path class="cls-1" d="M68.91,225.39c-.06,0-.11,0-.17-.01-.71-.09-1.22-.74-1.13-1.46.07-.57,1.98-14.25,17.5-27.38.02-.02,3.61-3.2,5.23-6.5.32-.65,1.11-.92,1.75-.6.65.32.92,1.1.6,1.75-1.85,3.78-5.71,7.19-5.87,7.33-14.7,12.45-16.59,25.6-16.61,25.73-.09.66-.65,1.14-1.29,1.14Z"/><path class="cls-1" d="M79.76,209.78c-.98,0-1.99-.05-3.03-.16-.72-.07-1.24-.71-1.17-1.43.07-.72.71-1.22,1.43-1.17.03,0,.06,0,.09.01-.58-.37-.77-1.13-.44-1.74.03-.06,1.69-3.21,2.31-10.99-.02-.06-.26-5.88,8-9.45.25-.13,8.06-4.14,13.05-5.9.52-.19,1.11-.02,1.45.41.35.43.38,1.04.09,1.51-.02.03-2.08,3.51-3.78,13.38,0,.15-.5,6.97-5.9,11.55-3.12,2.65-7.18,3.98-12.11,3.98ZM78.31,207.13c4.96.28,8.93-.83,11.85-3.3,4.56-3.85,5.02-9.82,5.03-9.88.94-5.51,2-9.15,2.81-11.41-4.56,1.92-9.85,4.64-9.92,4.67-6.57,2.84-6.52,6.96-6.51,7.14-.68,8.66-2.56,12.08-2.64,12.23-.14.26-.36.44-.61.55Z"/><path class="cls-1" d="M84.74,171.39c-.23,0-.47-.06-.68-.19-.61-.37-.81-1.18-.44-1.79.07-.11,6.84-11.54,3.19-30.44-.04-.24-.91-5.31.02-9.42.16-.7.86-1.14,1.56-.99.7.16,1.15.86.99,1.56-.81,3.6,0,8.32,0,8.37,3.86,19.94-3.22,31.78-3.53,32.28-.25.4-.68.62-1.11.62Z"/><path class="cls-1" d="M88.42,154.13c-.24,0-.49-.07-.71-.21-5.31-3.46-8.48-7.65-9.41-12.46-1.34-6.96,2.54-12.59,2.71-12.82,4.79-8.63,5.36-12.64,5.37-12.68.07-.55.48-.99,1.02-1.11.55-.12,1.1.12,1.39.59,2.79,4.5,6.36,12.51,6.51,12.85,4.16,7.88.33,12.26.17,12.44-4.3,6.34-4.97,9.84-4.97,9.87-.12.68-.74,1.16-1.44,1.07.03.02.06.04.08.05.6.39.78,1.2.38,1.81-.25.38-.67.59-1.1.59ZM88.11,119.5c-.77,2.25-2.21,5.71-4.88,10.52-.11.17-3.49,5.11-2.35,10.97.73,3.75,3.14,7.11,7.17,9.99-.13-.24-.18-.52-.13-.82.03-.16.7-4,5.5-11.05.21-.26,2.84-3.44-.47-9.69-.06-.13-2.48-5.58-4.84-9.93Z"/><path class="cls-1" d="M92.87,156.51c-.21,0-.43-.05-.62-.16-.63-.35-.87-1.14-.52-1.77.32-.59,8.11-14.51,27.92-19.38.02,0,4.66-1.25,7.58-3.49.57-.44,1.39-.33,1.83.24.44.57.33,1.39-.24,1.83-3.34,2.56-8.32,3.89-8.52,3.95-18.66,4.59-26.2,17.97-26.27,18.1-.24.44-.69.68-1.15.68Z"/><path class="cls-1" d="M117.84,146.96c-3.68,0-7.54-1.26-11.53-3.78-.61-.38-.79-1.19-.41-1.8.39-.61,1.19-.79,1.8-.41.03.02.05.03.08.05-.35-.59-.19-1.35.38-1.74.03-.02,2.93-2.09,6.97-8.82.01-.07,2.4-5.47,11.37-4.89.29-.01,9.06-.12,14.32.53.55.07,1,.48,1.12,1.02.12.54-.12,1.1-.59,1.39-.03.02-3.43,2.21-9.34,10.3-.07.13-3.55,6.01-10.43,7.71-1.22.3-2.46.45-3.73.45ZM108.84,141.65c4.31,2.45,8.37,3.24,12.07,2.32,5.8-1.42,8.87-6.55,8.9-6.61,3.3-4.52,5.87-7.31,7.6-8.96-4.94-.32-10.89-.24-10.96-.24-7.16-.34-8.93,3.33-9.01,3.48-4.47,7.46-7.68,9.68-7.81,9.77-.24.17-.54.22-.79.22Z"/><path class="cls-1" d="M127.87,114.12c-.43,0-.84-.21-1.09-.59-.39-.6-.23-1.41.38-1.81.11-.07,11.12-7.5,15.91-26.15.06-.23,1.45-5.19,4.04-8.51.45-.56,1.26-.67,1.84-.22.57.44.67,1.27.22,1.83-2.27,2.89-3.56,7.52-3.58,7.56-5.05,19.67-16.52,27.34-17,27.66-.22.14-.47.21-.71.21Z"/><path class="cls-1" d="M138.58,100.1c-.44,0-.87-.22-1.11-.62-3.32-5.4-4.39-10.55-3.17-15.29,1.77-6.86,7.68-10.28,7.94-10.42,8.02-5.76,10.26-9.14,10.28-9.17.3-.47.85-.7,1.4-.56.54.13.94.57,1,1.12.6,5.26.39,14.03.38,14.41.39,8.9-4.95,11.22-5.17,11.31-6.61,3.89-8.7,6.77-8.72,6.8-.4.56-1.18.71-1.76.35.02.03.04.05.05.09.38.61.19,1.42-.43,1.8-.21.13-.45.19-.68.19ZM152.56,68.54c-1.66,1.7-4.44,4.22-8.92,7.43-.17.1-5.34,3.12-6.82,8.91-.94,3.7-.2,7.77,2.2,12.1-.01-.28.06-.55.23-.8.09-.13,2.35-3.32,9.7-7.64.3-.15,4.03-1.89,3.72-8.95,0-.15.14-6.1-.12-11.05Z"/><path class="cls-1" d="M141.57,103.96c-.39,0-.78-.18-1.04-.51-.44-.57-.34-1.39.23-1.83.56-.43,13.99-10.57,34.15-7.88.03,0,4.8.54,8.33-.47.69-.2,1.42.2,1.62.89.2.69-.2,1.42-.89,1.62-4.04,1.16-9.16.59-9.38.55-19.1-2.57-32.1,7.26-32.23,7.36-.24.18-.52.27-.8.27Z"/><path class="cls-1" d="M174.64,105.11c-.67,0-1.36-.04-2.07-.14-4.85-.65-9.22-3.57-12.98-8.68-.43-.58-.3-1.4.28-1.83.58-.43,1.4-.3,1.83.28.02.03.04.05.05.07-.11-.68.32-1.33.99-1.49h0s3.49-.87,9.71-5.65c.04-.05,4.19-4.12,12.38-.39.27.1,8.47,3.2,13.13,5.73.49.27.75.81.66,1.36s-.51.98-1.06,1.07c-.03,0-4,.81-12.46,6.16-.1.09-4.47,3.49-10.46,3.49ZM162.5,95.8c3.12,3.86,6.62,6.08,10.41,6.58,5.94.79,10.63-2.86,10.67-2.89,4.72-2.99,8.14-4.65,10.35-5.55-4.48-2.1-10.05-4.2-10.11-4.23-6.52-2.98-9.53-.18-9.66-.05-6.89,5.3-10.69,6.2-10.85,6.23-.28.06-.57.02-.82-.08Z"/></svg>