<?xml version="1.0" encoding="UTF-8"?><svg id="Layer_1" xmlns="http://www.w3.org/2000/svg" viewBox="0 0 500 500"><defs><style>.cls-1{fill:#e4dac7;stroke-width:0px;}</style></defs><path class="cls-1" d="M250,485.87c-132.03,0-239.44-107.41-239.44-239.44S117.97,6.98,250,6.98s239.44,107.41,239.44,239.44-107.41,239.44-239.44,239.44ZM250,20.91C125.65,20.91,24.49,122.08,24.49,246.42s101.16,225.51,225.51,225.51,225.51-101.16,225.51-225.51S374.35,20.91,250,20.91Z"/><path class="cls-1" d="M249.8,463.35c-119.61,0-216.93-97.31-216.93-216.93S130.19,29.5,249.8,29.5s216.93,97.31,216.93,216.92-97.31,216.93-216.93,216.93ZM249.8,32.98c-117.69,0-213.44,95.75-213.44,213.44s95.75,213.44,213.44,213.44,213.44-95.75,213.44-213.44S367.5,32.98,249.8,32.98Z"/><path class="cls-1" d="M340.47,253.64c-4.92,0-9.68-.73-13.67-1.62-3.67-.82-7.47-2.26-11.63-4.4-10.2-5.25-20.16-5.12-20.26-5.12-13.73-.68-21.96,3.01-25.65,5.26-3.43,2.09-6.41,3.42-9.36,4.17-16.8,4.26-28.63-3.7-30.21-4.84-11.41-5.89-26.54-.04-30.92,1.9-1.42.63-3.31,1.42-5.34,1.98-16.22,4.42-27.89-4.54-28.38-4.92-12.56-7.98-24-.26-24.48.07-20.11,11.43-30.52,3.6-30.95,3.26-.95-.74-1.11-2.11-.37-3.06.74-.94,2.1-1.11,3.04-.38.39.3,8.8,6.24,25.96-3.5.4-.29,14.08-9.63,29.31.06.27.2,10.68,8.09,24.73,4.27,1.75-.48,3.44-1.19,4.72-1.76,4.85-2.15,21.69-8.62,34.85-1.7l.3.19c.11.08,11.1,8.18,26.67,4.2,2.52-.64,5.12-1.8,8.17-3.67,4.12-2.51,13.24-6.63,27.98-5.89.31-.02,10.97-.18,22.19,5.6,3.83,1.97,7.29,3.29,10.59,4.03,6.6,1.47,19,3.18,27.89-1.99.52-.37,16.28-11.01,33.84.04,1.02.64,1.32,1.98.68,3-.64,1.02-1.98,1.32-3,.68-15.08-9.5-28.62-.44-29.19-.05-5.37,3.12-11.55,4.19-17.5,4.19Z"/><path class="cls-1" d="M123.99,272.1c-7.2,0-12.17-2.27-12.53-2.43-1.09-.51-1.55-1.8-1.05-2.89.51-1.09,1.8-1.56,2.89-1.05.54.25,13.46,6.05,27.39-3.02,0-.02,18.87-15.05,35.61.22.89.81.95,2.19.14,3.07-.81.89-2.19.95-3.07.14-13.95-12.72-29.47-.45-30.12.08-7.01,4.57-13.78,5.88-19.26,5.88Z"/><path class="cls-1" d="M198.12,269.7c-8.38,0-13.74-3.6-14.07-3.83-.99-.68-1.24-2.04-.55-3.03.68-.99,2.03-1.24,3.02-.56.43.29,10.4,6.85,24.44-.15,1.07-.53,2.39-.1,2.92.98.54,1.08.1,2.38-.98,2.92-5.52,2.75-10.53,3.68-14.77,3.68Z"/><path class="cls-1" d="M253.6,266.25c-.37,0-.75-.1-1.1-.3-14.09-8.24-26.85-.38-27.38-.04-1.01.64-2.36.34-3-.67-.64-1.01-.35-2.36.67-3,.62-.4,15.49-9.65,31.92-.04,1.04.61,1.39,1.94.78,2.98-.4.69-1.13,1.08-1.88,1.08Z"/><circle class="cls-1" cx="265.21" cy="264.72" r="2.36"/><circle class="cls-1" cx="273.43" cy="267.08" r="2.36"/><path class="cls-1" d="M285.83,269.46c-2.06,0-3.35-.22-3.5-.24-1.18-.21-1.97-1.34-1.76-2.52.21-1.18,1.35-1.97,2.52-1.77h0c.09.02,9.03,1.45,18.28-4.41.5-.35,14.11-9.48,29.32-1.01,1.44.8,2.94,1.63,4.47,2.26,5.37,2.19,15.36,6.28,27.78-.94,5.8-3.36,18.95-6.59,27.16,5.22.69.99.44,2.34-.54,3.03-.99.69-2.34.44-3.03-.54-8.01-11.51-20.86-4.25-21.4-3.94-14.27,8.29-25.98,3.51-31.61,1.21-1.77-.72-3.38-1.62-4.94-2.48-12.81-7.13-24.33.51-24.81.84-7.11,4.5-13.96,5.3-17.93,5.3Z"/><path class="cls-1" d="M324.42,249.84h-.06c-1.2-.03-2.15-1.03-2.12-2.23,1.05-41.83-35.89-62.6-36.27-62.8-38.28-20.64-70.42-1.31-70.75-1.11-39.6,22.01-38.23,63.45-38.21,63.87.05,1.2-.88,2.22-2.08,2.27-1.26.06-2.22-.87-2.27-2.07-.02-.44-1.56-44.52,40.36-67.82.26-.16,34.54-20.78,75.02,1.04.41.22,39.66,22.21,38.54,66.74-.03,1.18-1,2.12-2.18,2.12Z"/><path class="cls-1" d="M128.29,290.15c-7.14,0-12.61-2.36-12.95-2.51-1.1-.48-1.6-1.77-1.11-2.87.48-1.1,1.77-1.6,2.87-1.12.11.05,11.08,4.75,21.31.02,1.09-.51,2.38-.03,2.89,1.06.51,1.09.03,2.38-1.06,2.89-4.1,1.9-8.24,2.53-11.93,2.53Z"/><circle class="cls-1" cx="148.65" cy="282.29" r="2.36"/><circle class="cls-1" cx="157.14" cy="279.93" r="2.36"/><circle class="cls-1" cx="165.41" cy="282.29" r="2.36"/><path class="cls-1" d="M188.78,289.55c-8.38,0-13.74-3.6-14.07-3.83-.99-.68-1.24-2.04-.55-3.03.68-.99,2.03-1.24,3.02-.56.43.29,10.4,6.85,24.44-.15,1.07-.53,2.38-.1,2.92.98.54,1.08.1,2.38-.98,2.92-5.52,2.75-10.53,3.68-14.77,3.68Z"/><path class="cls-1" d="M270.05,291.97c-13.59,0-23.67-7.87-23.82-7.99-16.56-11.59-35.32.02-35.51.14-1.01.64-2.36.34-3-.68-.64-1.02-.34-2.36.68-3,.87-.54,21.43-13.26,40.44.06.92.72,20.36,15.79,40.93.05.96-.72,2.32-.55,3.05.41.73.96.55,2.32-.41,3.05-7.8,5.97-15.53,7.96-22.37,7.96Z"/><path class="cls-1" d="M329.81,280.85c-.37,0-.75-.1-1.1-.3-14.09-8.24-26.85-.38-27.38-.04-1.01.64-2.36.34-3-.67-.64-1.01-.35-2.36.67-3,.62-.4,15.49-9.66,31.92-.04,1.04.61,1.39,1.94.78,2.98-.4.69-1.13,1.08-1.88,1.08Z"/><circle class="cls-1" cx="340.23" cy="280" r="2.36"/><path class="cls-1" d="M361.25,289.5c-10.69,0-14.73-5.71-14.91-5.99-.68-.99-.42-2.35.57-3.02.99-.67,2.33-.42,3.01.55.19.26,4.02,5.29,15.1,3.85,1.75-.23,3.5-.71,4.84-1.1,4-1.18,11.28-2.6,15.17,1.06.88.82.92,2.2.1,3.08-.82.88-2.2.92-3.08.1-1.64-1.54-5.84-1.56-10.97-.06-1.49.44-3.46.97-5.51,1.24-1.55.2-2.99.29-4.33.29Z"/><circle class="cls-1" cx="126.02" cy="308.46" r="2.36"/><circle class="cls-1" cx="134.96" cy="310.29" r="2.36"/><path class="cls-1" d="M200.7,312.18c-7.32,0-14.23-2.62-19.37-5.28-7.47-3.87-15.65-5.08-23.03-3.39-8.76,2-13.07,6.41-13.11,6.45-.83.86-2.21.89-3.07.07-.87-.83-.91-2.19-.09-3.07.21-.22,5.17-5.39,15.3-7.71,8.39-1.92,17.62-.58,26,3.77,6.58,3.41,16.33,6.77,25.47,3.38,1.13-.42,2.38.16,2.8,1.29.42,1.13-.16,2.38-1.29,2.8-3.21,1.19-6.45,1.68-9.62,1.68Z"/><path class="cls-1" d="M247.43,308.58c-.37,0-.75-.1-1.1-.3-14.09-8.24-26.85-.38-27.38-.04-1.01.64-2.36.34-3-.67-.64-1.01-.35-2.36.67-3,.62-.4,15.49-9.65,31.92-.04,1.04.61,1.39,1.94.78,2.98-.4.69-1.13,1.08-1.88,1.08Z"/><path class="cls-1" d="M276.09,314.8c-12.92,0-21.1-4.72-21.56-4.99-1.03-.61-1.37-1.94-.77-2.98.61-1.04,1.94-1.38,2.98-.77.14.08,13.72,7.83,33.15,2.47,3.13-.86,6.37-2.24,10.19-4.32,5.53-3.02,20.14-9.25,36.33-1.79,1.09.5,1.57,1.8,1.07,2.89-.5,1.09-1.79,1.57-2.89,1.07-13.87-6.39-26.27-1.7-32.42,1.66-4.12,2.25-7.66,3.75-11.12,4.7-5.47,1.51-10.5,2.07-14.97,2.07Z"/><path class="cls-1" d="M359.05,312.37c-9.52,0-15.61-3.53-15.99-3.75-1.03-.62-1.37-1.95-.76-2.98.62-1.03,1.95-1.37,2.98-.76h0c.5.29,12.31,7.02,28.91-.13,1.11-.48,2.39.04,2.86,1.14.47,1.11-.04,2.39-1.14,2.86-6.31,2.71-12.03,3.62-16.87,3.62Z"/><path class="cls-1" d="M151.02,334.29c-9.4,0-16.73-4.35-17.19-4.63-1.03-.62-1.36-1.96-.73-2.99.62-1.03,1.96-1.36,2.99-.74.61.37,14.98,8.82,28.12.05.09-.07,17.12-12.27,36.84-.04.03.01,15.52,7.99,30.53-.2,1.05-.58,2.38-.19,2.95.87.58,1.05.19,2.38-.87,2.95-17.1,9.34-34.06.54-34.78.16-17.28-10.72-31.57-.6-32.18-.16-5.33,3.55-10.78,4.73-15.67,4.73Z"/><circle class="cls-1" cx="240.09" cy="324.29" r="2.36"/><circle class="cls-1" cx="248.65" cy="321.12" r="2.36"/><circle class="cls-1" cx="257.22" cy="324.29" r="2.36"/><circle class="cls-1" cx="265.56" cy="327.8" r="2.36"/><path class="cls-1" d="M289.13,335.31c-8.14,0-14.72-2.75-15.13-2.92-1.11-.47-1.62-1.75-1.15-2.85.47-1.1,1.75-1.63,2.85-1.15.13.06,13.67,5.67,24.81.06,1.08-.55,2.38-.11,2.92.96.54,1.07.11,2.38-.96,2.92-4.44,2.23-9.1,2.98-13.34,2.98Z"/><path class="cls-1" d="M357.31,331.52c-1.68,0-3.44-.26-5.26-.79-1.97-.57-3.96-1.51-6.26-2.95-16.27-10.25-34.19.78-34.37.89-1.02.64-2.36.34-3-.68-.64-1.02-.34-2.36.68-3,.82-.52,20.38-12.62,39.01-.89,1.94,1.22,3.57,2,5.14,2.45,2.58.74,6.31,1.18,9.42-.97.99-.68,2.34-.44,3.03.55.68.99.44,2.35-.55,3.03-2.27,1.57-4.92,2.36-7.83,2.36Z"/><path class="cls-1" d="M158.33,350.32c-3.41,0-5.09-.77-5.4-.93-1.07-.55-1.49-1.86-.95-2.93.54-1.06,1.82-1.48,2.88-.97.2.08,4.85,1.9,16.07-2.27,2.23-1.24,23.13-12.31,38.4.3.93.77,1.06,2.14.29,3.06-.77.93-2.14,1.06-3.06.29-13.47-11.12-33.42.1-33.62.21l-.32.15c-6.45,2.42-11.12,3.08-14.29,3.08Z"/><path class="cls-1" d="M230.62,353.77c-8.38,0-13.74-3.6-14.07-3.83-.99-.68-1.24-2.04-.55-3.03.68-.99,2.04-1.24,3.02-.56.43.29,10.4,6.85,24.44-.15,1.08-.53,2.38-.1,2.92.98.54,1.08.1,2.38-.98,2.92-5.52,2.75-10.53,3.68-14.77,3.68Z"/><path class="cls-1" d="M317.56,353.22c-13.01,0-24.84-5.01-25.58-5.33-19.01-8.32-36.03-.13-36.2-.05-1.08.54-2.38.09-2.91-.99s-.1-2.38.98-2.91c.77-.38,18.96-9.19,39.87-.05.25.11,25.83,10.91,41.4.2.99-.68,2.34-.43,3.03.56.68.99.43,2.35-.56,3.03-6.04,4.15-13.19,5.53-20.02,5.53Z"/><circle class="cls-1" cx="346.61" cy="341.96" r="2.36"/><circle class="cls-1" cx="354.91" cy="338.89" r="2.36"/><path class="cls-1" d="M206.24,367.04c-.37,0-.75-.1-1.1-.3-14.09-8.24-26.84-.38-27.38-.04-1.01.64-2.36.34-3-.67-.64-1.01-.35-2.36.67-3,.62-.4,15.49-9.65,31.92-.04,1.04.61,1.39,1.94.78,2.98-.4.69-1.13,1.08-1.88,1.08Z"/><circle class="cls-1" cx="233.46" cy="368.17" r="2.36"/><circle class="cls-1" cx="224.96" cy="370.53" r="2.36"/><circle class="cls-1" cx="216.69" cy="368.17" r="2.36"/><path class="cls-1" d="M293.66,370.18c-1.68,0-3.44-.26-5.26-.79-1.97-.57-3.96-1.51-6.26-2.95-16.27-10.24-34.19.78-34.37.89-1.02.64-2.36.34-3-.68-.64-1.02-.34-2.36.68-3,.82-.52,20.38-12.62,39.01-.89,1.94,1.22,3.57,2,5.14,2.45,2.58.75,6.31,1.18,9.41-.97.99-.68,2.34-.44,3.03.55.68.99.44,2.35-.55,3.03-2.26,1.57-4.92,2.36-7.83,2.36Z"/><circle class="cls-1" cx="308.5" cy="362.23" r="2.36"/><path class="cls-1" d="M326.06,367.04c-.47,0-.94-.15-1.34-.46-3-2.35-7.69-2.18-7.74-2.17-1.28-.04-2.22-.88-2.27-2.07-.05-1.2.87-2.22,2.06-2.27.26-.03,6.34-.27,10.63,3.09.95.74,1.11,2.11.37,3.06-.43.55-1.07.84-1.72.84Z"/><path class="cls-1" d="M228.41,385.95c-11.19,0-20.74-3.86-21.29-4.08-1.11-.46-1.64-1.73-1.19-2.84.46-1.11,1.73-1.64,2.84-1.19.17.07,17.28,6.94,31.39,1.87l.63-.23c1.54-.56,3.06-1.11,4.64-1.53,8.3-2.21,28.98-6.45,41.79,2.04,1,.67,1.28,2.02.61,3.02-.67,1-2.02,1.27-3.02.61-11.34-7.52-30.54-3.53-38.26-1.47-1.46.39-2.87.9-4.29,1.42l-.64.23c-4.37,1.57-8.92,2.15-13.23,2.15Z"/><path class="cls-1" d="M193.67,250.8c-1.16,0-2.13-.92-2.17-2.09-.01-.36-1.03-36.49,31.47-53.03,1.07-.54,2.39-.12,2.93.95.54,1.07.12,2.38-.95,2.93-29.97,15.25-29.11,48.65-29.1,48.98.04,1.2-.89,2.21-2.09,2.26-.03,0-.06,0-.08,0Z"/><circle class="cls-1" cx="274.98" cy="196.64" r="2.36"/><path class="cls-1" d="M235.05,193.2s16.76-4.73,30.55,0"/><path class="cls-1" d="M265.6,195.37c-.23,0-.47-.04-.71-.12-12.96-4.45-29.09-.01-29.25.04-1.15.33-2.36-.35-2.69-1.51-.32-1.16.35-2.36,1.51-2.69.71-.2,17.57-4.85,31.84.04,1.14.39,1.74,1.63,1.35,2.77-.31.9-1.15,1.47-2.06,1.47Z"/><circle class="cls-1" cx="281.43" cy="200.18" r="2.36"/><path class="cls-1" d="M208.81,245.6s-.07,0-.1,0c-1.2-.05-2.13-1.07-2.08-2.27.01-.32,1.81-32.09,37.56-38.81,1.19-.23,2.32.56,2.54,1.74.22,1.18-.56,2.32-1.74,2.54-32.29,6.07-33.96,33.56-34.02,34.72-.06,1.17-1.02,2.08-2.17,2.08Z"/><circle class="cls-1" cx="253.23" cy="206.26" r="2.36"/><path class="cls-1" d="M224.5,244.36c-.14,0-.27-.01-.41-.04-1.18-.23-1.95-1.36-1.73-2.54.09-.44,2.16-10.95,11.45-17.45.98-.69,2.34-.45,3.03.54.69.98.45,2.34-.54,3.03-7.8,5.45-9.65,14.6-9.67,14.69-.2,1.04-1.11,1.77-2.14,1.77Z"/><circle class="cls-1" cx="241.79" cy="222.69" r="2.36"/><circle class="cls-1" cx="247.67" cy="221.26" r="2.36"/><circle class="cls-1" cx="253.71" cy="221.26" r="2.36"/><circle class="cls-1" cx="250.03" cy="161.47" r="2.36"/><circle class="cls-1" cx="257.95" cy="161.84" r="2.36"/><circle class="cls-1" cx="265.9" cy="162.96" r="2.36"/><circle class="cls-1" cx="274.02" cy="164.89" r="2.36"/><circle class="cls-1" cx="281.64" cy="167.25" r="2.36"/><circle class="cls-1" cx="289.27" cy="170.71" r="2.36"/><circle class="cls-1" cx="296.1" cy="174.46" r="2.36"/><circle class="cls-1" cx="302.2" cy="178.8" r="2.36"/><circle class="cls-1" cx="307.85" cy="183.52" r="2.36"/><circle class="cls-1" cx="313.12" cy="188.74" r="2.36"/><circle class="cls-1" cx="317.83" cy="194.28" r="2.36"/><circle class="cls-1" cx="322.55" cy="200.72" r="2.36"/><circle class="cls-1" cx="326.33" cy="207.16" r="2.36"/><circle class="cls-1" cx="329.77" cy="213.6" r="2.36"/><circle class="cls-1" cx="332.44" cy="220.74" r="2.36"/><circle class="cls-1" cx="334.49" cy="228.38" r="2.36"/><circle class="cls-1" cx="336.01" cy="235.99" r="2.36"/><circle class="cls-1" cx="336.63" cy="244.14" r="2.36"/><circle class="cls-1" cx="242.95" cy="161.84" r="2.36"/><circle class="cls-1" cx="235" cy="162.96" r="2.36"/><circle class="cls-1" cx="226.89" cy="164.89" r="2.36"/><circle class="cls-1" cx="219.26" cy="167.25" r="2.36"/><circle class="cls-1" cx="211.63" cy="170.71" r="2.36"/><circle class="cls-1" cx="204.81" cy="174.46" r="2.36"/><circle class="cls-1" cx="198.7" cy="178.8" r="2.36"/><circle class="cls-1" cx="193.05" cy="183.52" r="2.36"/><circle class="cls-1" cx="187.79" cy="188.74" r="2.36"/><circle class="cls-1" cx="183.07" cy="194.28" r="2.36"/><circle class="cls-1" cx="178.35" cy="200.72" r="2.36"/><circle class="cls-1" cx="174.57" cy="207.16" r="2.36"/><circle class="cls-1" cx="171.13" cy="213.6" r="2.36"/><circle class="cls-1" cx="168.46" cy="220.74" r="2.36"/><circle class="cls-1" cx="166.42" cy="228.38" r="2.36"/><circle class="cls-1" cx="164.9" cy="235.99" r="2.36"/><path class="cls-1" d="M250.03,153.66c-1.2,0-2.18-.97-2.18-2.18v-42.4c0-1.2.97-2.18,2.18-2.18s2.18.97,2.18,2.18v42.4c0,1.2-.97,2.18-2.18,2.18Z"/><path class="cls-1" d="M241.83,154.13c-1.12,0-2.07-.85-2.17-1.99l-3.7-42.24c-.11-1.2.78-2.26,1.98-2.36,1.21-.07,2.26.78,2.36,1.98l3.7,42.24c.11,1.2-.78,2.26-1.98,2.36-.06,0-.13,0-.19,0Z"/><path class="cls-1" d="M258.46,154.13c-.06,0-.13,0-.19,0-1.2-.1-2.08-1.16-1.98-2.36l3.7-42.24c.11-1.2,1.15-2.05,2.36-1.98,1.2.1,2.08,1.16,1.98,2.36l-3.7,42.24c-.1,1.13-1.05,1.99-2.17,1.99Z"/><path class="cls-1" d="M233.3,155.02c-1.04,0-1.96-.74-2.14-1.8l-7.36-41.76c-.21-1.18.58-2.31,1.77-2.52,1.19-.21,2.31.58,2.52,1.77l7.36,41.76c.21,1.18-.58,2.31-1.77,2.52-.13.02-.26.03-.38.03Z"/><path class="cls-1" d="M267.62,155.02c-.12,0-.25-.01-.38-.03-1.18-.21-1.97-1.34-1.77-2.52l7.36-41.76c.21-1.18,1.32-1.97,2.52-1.77,1.18.21,1.97,1.34,1.77,2.52l-7.36,41.76c-.19,1.06-1.11,1.8-2.14,1.8Z"/><path class="cls-1" d="M224.04,157.31c-.96,0-1.84-.64-2.1-1.61l-10.97-40.96c-.31-1.16.38-2.35,1.54-2.67,1.17-.31,2.35.38,2.67,1.54l10.97,40.96c.31,1.16-.38,2.35-1.54,2.67-.19.05-.38.07-.56.07Z"/><path class="cls-1" d="M215.36,160.3c-.89,0-1.72-.55-2.05-1.43l-14.5-39.84c-.41-1.13.17-2.38,1.3-2.79,1.13-.4,2.38.17,2.79,1.3l14.5,39.84c.41,1.13-.17,2.38-1.3,2.79-.25.09-.5.13-.74.13Z"/><path class="cls-1" d="M207.66,163.64c-.82,0-1.61-.46-1.97-1.26l-17.92-38.43c-.51-1.09-.04-2.38,1.05-2.89,1.09-.52,2.38-.04,2.89,1.05l17.92,38.43c.51,1.09.04,2.38-1.05,2.89-.3.14-.61.2-.92.2Z"/><path class="cls-1" d="M200.34,167.49c-.75,0-1.48-.39-1.89-1.09l-21.2-36.72c-.6-1.04-.24-2.37.8-2.97,1.05-.6,2.37-.24,2.97.8l21.2,36.72c.6,1.04.24,2.37-.8,2.97-.34.2-.72.29-1.09.29Z"/><path class="cls-1" d="M192.87,172.89c-.69,0-1.36-.32-1.79-.93l-24.32-34.73c-.69-.98-.45-2.34.54-3.03.98-.68,2.34-.45,3.03.54l24.32,34.73c.69.98.45,2.34-.54,3.03-.38.27-.81.39-1.25.39Z"/><path class="cls-1" d="M185.84,177.9c-.62,0-1.24-.26-1.67-.78l-27.25-32.48c-.77-.92-.65-2.29.27-3.07.92-.77,2.29-.65,3.07.27l27.25,32.48c.77.92.65,2.29-.27,3.07-.41.34-.9.51-1.4.51Z"/><path class="cls-1" d="M180,184.04c-.56,0-1.11-.21-1.54-.64l-29.98-29.98c-.85-.85-.85-2.23,0-3.08.85-.85,2.23-.85,3.08,0l29.98,29.98c.85.85.85,2.23,0,3.08-.43.43-.98.64-1.54.64Z"/><path class="cls-1" d="M174.83,190.01c-.49,0-.99-.17-1.4-.51l-32.48-27.25c-.92-.77-1.04-2.15-.27-3.07.77-.92,2.15-1.04,3.07-.27l32.48,27.25c.92.77,1.04,2.15.27,3.07-.43.51-1.05.78-1.67.78Z"/><path class="cls-1" d="M169.93,197.21c-.43,0-.87-.13-1.25-.39l-34.73-24.32c-.98-.69-1.22-2.05-.54-3.03.69-.99,2.05-1.22,3.03-.54l34.73,24.32c.98.69,1.22,2.05.54,3.03-.42.61-1.1.93-1.79.93Z"/><path class="cls-1" d="M165.57,204.24c-.37,0-.74-.09-1.09-.29l-36.72-21.2c-1.04-.6-1.4-1.93-.8-2.97.6-1.04,1.93-1.4,2.97-.8l36.72,21.2c1.04.6,1.4,1.93.8,2.97-.4.7-1.14,1.09-1.89,1.09Z"/><path class="cls-1" d="M161.56,211.85c-.31,0-.62-.06-.92-.2l-38.43-17.92c-1.09-.51-1.56-1.8-1.05-2.89s1.81-1.56,2.89-1.05l38.43,17.92c1.09.51,1.56,1.8,1.05,2.89-.37.79-1.15,1.26-1.97,1.26Z"/><path class="cls-1" d="M158.59,219.79c-.25,0-.5-.04-.74-.13l-39.84-14.5c-1.13-.41-1.71-1.66-1.3-2.79.41-1.13,1.65-1.71,2.79-1.3l39.84,14.5c1.13.41,1.71,1.66,1.3,2.79-.32.88-1.16,1.43-2.05,1.43Z"/><path class="cls-1" d="M156.53,229.11c-.19,0-.38-.02-.56-.07l-40.96-10.97c-1.16-.31-1.85-1.5-1.54-2.67.31-1.16,1.51-1.85,2.67-1.54l40.96,10.97c1.16.31,1.85,1.5,1.54,2.67-.26.97-1.14,1.61-2.1,1.61Z"/><path class="cls-1" d="M154.68,237.24c-.12,0-.25-.01-.38-.03l-41.76-7.36c-1.18-.21-1.97-1.34-1.77-2.52.21-1.18,1.32-1.98,2.52-1.77l41.76,7.36c1.18.21,1.97,1.34,1.77,2.52-.19,1.06-1.11,1.8-2.14,1.8Z"/><path class="cls-1" d="M141.5,245.02c-.06,0-.13,0-.19,0l-29.85-2.61c-1.2-.1-2.08-1.16-1.98-2.36.1-1.2,1.15-2.06,2.36-1.98l29.85,2.61c1.2.1,2.08,1.16,1.98,2.36-.1,1.13-1.05,1.99-2.17,1.99Z"/><path class="cls-1" d="M276.25,157.59c-.19,0-.38-.02-.56-.07-1.16-.31-1.85-1.5-1.54-2.67l10.98-40.96c.31-1.16,1.51-1.85,2.67-1.54,1.16.31,1.85,1.5,1.54,2.67l-10.98,40.96c-.26.97-1.14,1.61-2.1,1.61Z"/><path class="cls-1" d="M284.93,160.57c-.25,0-.5-.04-.74-.13-1.13-.41-1.71-1.66-1.3-2.79l14.5-39.84c.41-1.13,1.66-1.71,2.79-1.3,1.13.41,1.71,1.66,1.3,2.79l-14.5,39.84c-.32.88-1.16,1.43-2.05,1.43Z"/><path class="cls-1" d="M292.62,163.92c-.31,0-.62-.06-.92-.2-1.09-.51-1.56-1.8-1.05-2.89l17.92-38.43c.51-1.09,1.81-1.56,2.89-1.05,1.09.51,1.56,1.8,1.05,2.89l-17.92,38.43c-.37.79-1.15,1.26-1.97,1.26Z"/><path class="cls-1" d="M299.94,167.77c-.37,0-.74-.09-1.09-.29-1.04-.6-1.4-1.93-.8-2.97l21.2-36.72c.6-1.04,1.93-1.39,2.97-.8,1.04.6,1.4,1.93.8,2.97l-21.2,36.72c-.4.7-1.13,1.09-1.89,1.09Z"/><path class="cls-1" d="M307.41,173.17c-.43,0-.87-.13-1.25-.39-.98-.69-1.22-2.05-.54-3.03l24.32-34.73c.69-.98,2.05-1.22,3.03-.54.98.69,1.22,2.05.54,3.03l-24.32,34.73c-.42.61-1.1.93-1.78.93Z"/><path class="cls-1" d="M314.44,178.18c-.49,0-.99-.17-1.4-.51-.92-.77-1.04-2.15-.27-3.07l27.25-32.48c.78-.92,2.15-1.04,3.07-.27.92.77,1.04,2.15.27,3.07l-27.25,32.48c-.43.51-1.05.78-1.67.78Z"/><path class="cls-1" d="M320.29,184.32c-.56,0-1.11-.21-1.54-.64-.85-.85-.85-2.23,0-3.08l29.98-29.98c.85-.85,2.23-.85,3.08,0,.85.85.85,2.23,0,3.08l-29.98,29.98c-.43.43-.98.64-1.54.64Z"/><path class="cls-1" d="M325.46,190.28c-.62,0-1.24-.26-1.67-.78-.77-.92-.65-2.29.27-3.07l32.48-27.25c.92-.77,2.29-.65,3.07.27.77.92.65,2.29-.27,3.07l-32.48,27.25c-.41.34-.9.51-1.4.51Z"/><path class="cls-1" d="M330.36,197.49c-.69,0-1.36-.32-1.79-.93-.69-.98-.45-2.34.54-3.03l34.73-24.32c.98-.68,2.34-.45,3.03.54.69.98.45,2.34-.54,3.03l-34.73,24.32c-.38.27-.81.39-1.25.39Z"/><path class="cls-1" d="M334.72,204.52c-.75,0-1.48-.39-1.89-1.09-.6-1.04-.24-2.37.8-2.97l36.72-21.2c1.04-.6,2.37-.25,2.97.8.6,1.04.24,2.37-.8,2.97l-36.72,21.2c-.34.2-.72.29-1.09.29Z"/><path class="cls-1" d="M338.73,212.13c-.82,0-1.61-.46-1.97-1.26-.51-1.09-.04-2.38,1.05-2.89l38.43-17.92c1.09-.52,2.38-.04,2.89,1.05.51,1.09.04,2.38-1.05,2.89l-38.43,17.92c-.3.14-.61.2-.92.2Z"/><path class="cls-1" d="M341.7,220.07c-.89,0-1.72-.55-2.05-1.43-.41-1.13.17-2.38,1.3-2.79l39.84-14.5c1.14-.41,2.38.17,2.79,1.3.41,1.13-.17,2.38-1.3,2.79l-39.84,14.5c-.25.09-.5.13-.74.13Z"/><path class="cls-1" d="M343.76,229.38c-.96,0-1.84-.64-2.1-1.61-.31-1.16.38-2.35,1.54-2.67l40.96-10.97c1.16-.31,2.35.38,2.67,1.54s-.38,2.35-1.54,2.67l-40.96,10.97c-.19.05-.38.07-.56.07Z"/><path class="cls-1" d="M345.6,237.52c-1.04,0-1.95-.74-2.14-1.8-.21-1.18.58-2.31,1.77-2.52l41.76-7.36c1.18-.22,2.31.58,2.52,1.77.21,1.18-.58,2.31-1.77,2.52l-41.76,7.36c-.13.02-.26.03-.38.03Z"/><path class="cls-1" d="M346.54,246.37c-1.12,0-2.07-.85-2.17-1.99-.11-1.2.78-2.26,1.98-2.36l34.27-3c1.23-.09,2.26.78,2.36,1.98.11,1.2-.78,2.26-1.98,2.36l-34.27,3c-.06,0-.13,0-.19,0Z"/><g id="Water_Ring"><path class="cls-1" d="M227.43,92.7c-7.08,0-10.48-5.27-11.31-8.49-.3-1.17.4-2.35,1.56-2.65,1.17-.3,2.34.39,2.65,1.55.19.7,2.06,6.63,9.99,4.88.46-.07,6.87-1.01,8.91-8.2.68-4.51,4.66-13.5,14.39-13.5h.14c2.53-.41,8.71.45,11.59,6.76,1.54,3.39,1.69,7.27.41,10.65-1.31,3.45-3.72,5.6-6.97,6.23-4.04.78-7.19-.26-9.34-3.09-1.38-1.81-2.19-6.17-.36-9.16.88-1.44,3.12-3.74,8.19-2.82,1.18.21,1.97,1.35,1.76,2.53-.21,1.18-1.34,1.97-2.53,1.76-1.91-.35-3.16-.08-3.7.79-.83,1.34-.27,3.76.1,4.26,1.14,1.5,2.61,1.92,5.05,1.45,1.74-.33,2.96-1.48,3.72-3.49.87-2.31.76-4.97-.3-7.31-2.17-4.78-6.82-4.3-7.34-4.23h-.07c-8.83,0-10.43,9.68-10.5,10.09-2.9,10.29-12.04,11.51-12.43,11.56-1.3.29-2.51.42-3.62.42Z"/><path class="cls-1" d="M195.53,99.64c-5.24,0-8.7-3.51-10.01-6.01-.56-1.06-.15-2.38.91-2.94,1.06-.56,2.37-.15,2.94.9.35.64,3.54,5.97,10.84,2.45.44-.18,6.45-2.57,6.78-10.03-.38-4.57,1.44-14.3,11.03-16.48,2.37-.98,8.58-1.57,12.83,3.91,2.28,2.94,3.32,6.69,2.86,10.27-.48,3.66-2.32,6.31-5.35,7.67-3.76,1.69-7.05,1.4-9.8-.85-1.76-1.44-3.55-5.5-2.46-8.83.53-1.61,2.18-4.35,7.32-4.63,1.22-.04,2.23.85,2.29,2.05.07,1.2-.86,2.23-2.05,2.29-1.94.11-3.09.65-3.42,1.63-.5,1.49.6,3.72,1.08,4.12,1.46,1.19,2.98,1.27,5.25.25,1.62-.73,2.54-2.12,2.81-4.26.32-2.44-.4-5.01-1.98-7.04-3.22-4.15-7.62-2.62-8.11-2.43-8.67,2-7.99,11.84-7.96,12.26-.46,10.68-9.06,13.98-9.43,14.11-2.35,1.14-4.47,1.6-6.37,1.6Z"/><path class="cls-1" d="M165.86,112.41c-4.21,0-7.44-2.41-8.94-4.35-.74-.95-.56-2.32.39-3.05.95-.73,2.31-.56,3.05.38.45.57,4.53,5.27,11.1.53.4-.25,5.91-3.65,4.94-11.06-1.17-4.44-1.07-14.33,8-18.14,2.16-1.37,8.17-3.04,13.31,1.62,2.76,2.5,4.43,6.01,4.6,9.62.16,3.69-1.2,6.62-3.94,8.48-3.4,2.32-6.7,2.61-9.8.86-1.98-1.12-4.45-4.8-3.96-8.27.24-1.68,1.39-4.66,6.41-5.83,1.16-.26,2.34.46,2.61,1.63.27,1.17-.46,2.34-1.63,2.61-1.89.44-2.93,1.18-3.08,2.19-.23,1.56,1.24,3.56,1.78,3.87,1.64.93,3.15.73,5.21-.67,1.47-1,2.13-2.53,2.03-4.68-.11-2.46-1.27-4.86-3.17-6.59-3.88-3.52-7.96-1.25-8.41-.98-8.19,3.47-5.82,13.05-5.71,13.45,1.4,10.6-6.5,15.34-6.84,15.54-2.87,2.08-5.57,2.85-7.96,2.85Z"/><path class="cls-1" d="M139.71,131.28c-3.05,0-5.67-1.25-7.18-2.47-.94-.76-1.08-2.12-.33-3.06.75-.93,2.11-1.08,3.05-.34.57.44,5.62,4.09,10.92-2.04.33-.33,4.91-4.92,2.26-11.9-2.16-4.05-4.35-13.7,3.6-19.5,1.78-1.84,7.26-4.84,13.33-1.49,3.26,1.79,5.7,4.82,6.69,8.3,1.01,3.55.36,6.71-1.88,9.16-2.78,3.04-5.91,4.08-9.34,3.1-2.19-.63-5.44-3.65-5.76-7.14-.15-1.69.28-4.86,4.89-7.15,1.08-.54,2.38-.1,2.92.98.54,1.08.1,2.38-.98,2.92-1.74.87-2.58,1.82-2.5,2.85.13,1.57,2.03,3.18,2.63,3.36,1.81.52,3.23-.02,4.92-1.85,1.2-1.31,1.49-2.95.9-5.03-.68-2.37-2.36-4.44-4.61-5.68-4.6-2.53-8.03.62-8.41.98-7.12,5.23-2.64,14.04-2.45,14.41,3.8,9.99-2.79,16.42-3.08,16.69-3.18,3.68-6.61,4.91-9.62,4.91Z"/><path class="cls-1" d="M118.2,155.21c-2.13,0-4.03-.58-5.31-1.25-1.06-.56-1.47-1.88-.91-2.94.56-1.06,1.87-1.47,2.93-.92h0c.63.32,6.3,2.94,10.33-4.11.26-.39,3.87-5.77-.08-12.11-2.9-3.56-6.91-12.6-.23-19.83,1.4-2.14,6.18-6.14,12.79-4.04,3.55,1.13,6.52,3.63,8.17,6.86,1.68,3.28,1.65,6.51-.07,9.34-2.14,3.52-5.03,5.15-8.56,4.84-2.27-.19-6.04-2.53-7.03-5.89-.48-1.63-.67-4.82,3.42-7.96.95-.73,2.32-.55,3.05.4.73.95.55,2.32-.4,3.05-1.54,1.19-2.18,2.29-1.9,3.27.43,1.52,2.6,2.73,3.23,2.79,1.89.16,3.18-.64,4.47-2.77.92-1.51.89-3.18-.09-5.1-1.12-2.2-3.17-3.9-5.61-4.69-5-1.6-7.76,2.15-8.06,2.59-6.02,6.55.11,14.28.37,14.61,5.67,9.07.43,16.65.21,16.97-3.03,5.3-7.18,6.88-10.7,6.88Z"/><path class="cls-1" d="M103.18,183.6c-1.99,0-3.4-.71-3.62-.82-1.06-.56-1.46-1.88-.9-2.94.56-1.05,1.86-1.46,2.92-.91.09.04,1.49.7,3.13.02,1.9-.78,3.55-3.09,4.78-6.68.13-.35,2.41-6.42-2.9-11.68-3.64-2.79-9.62-10.67-4.79-19.24.87-2.41,4.62-7.41,11.51-6.88,3.71.29,7.18,2.03,9.53,4.79,2.39,2.81,3.11,5.96,2.08,9.11-1.27,3.92-3.7,6.17-7.21,6.69-2.28.34-6.47-1.07-8.2-4.12-.84-1.47-1.76-4.54,1.49-8.53.76-.93,2.13-1.07,3.06-.32.93.76,1.07,2.13.32,3.06-1.23,1.51-1.6,2.73-1.09,3.62.77,1.38,3.18,2.04,3.78,1.97,1.86-.28,2.94-1.36,3.71-3.73.55-1.69.13-3.3-1.26-4.94-1.6-1.88-3.98-3.07-6.55-3.27-5.2-.4-7.06,3.89-7.25,4.38-4.32,7.71,3.4,13.88,3.73,14.14,7.6,7.51,4.25,16.1,4.11,16.46-1.65,4.83-4.13,7.97-7.32,9.23-1.1.44-2.15.59-3.07.59Z"/><path class="cls-1" d="M90.55,213.08c-.6,0-1.15-.05-1.64-.13-1.19-.2-1.99-1.32-1.79-2.5.2-1.18,1.32-1.97,2.49-1.8.7.1,6.9.8,8.5-7.16.12-.45,1.85-6.7-3.9-11.47-3.87-2.46-10.53-9.78-6.48-18.74.65-2.47,3.93-7.79,10.86-7.87,3.7,0,7.34,1.39,9.91,3.93,2.63,2.59,3.62,5.66,2.88,8.89-.92,4.02-3.14,6.47-6.6,7.3-2.21.53-6.53-.49-8.53-3.37-.96-1.39-2.15-4.36.73-8.63.67-1,2.03-1.26,3.02-.59s1.26,2.03.59,3.02c-1.09,1.61-1.35,2.86-.77,3.71.89,1.3,3.34,1.77,3.94,1.63,1.84-.44,2.81-1.61,3.37-4.04.4-1.73-.16-3.3-1.69-4.81-1.76-1.73-4.2-2.66-6.81-2.68-5.25.06-6.69,4.49-6.83,5-3.64,8.12,4.61,13.52,4.96,13.75,8.24,6.82,5.67,15.66,5.55,16.04-1.68,8.38-7.73,10.52-11.77,10.52Z"/><path class="cls-1" d="M88.66,247.43c-.82,0-1.54-.11-2.06-.25-1.16-.32-1.84-1.52-1.53-2.68.32-1.15,1.5-1.83,2.66-1.53.12.03,2.08.48,3.54-.77,1.18-1.01,2.47-3.47,1.92-9.49h0s-1.2-8.04-8.17-11.49c-4.33-1.5-12.5-7.09-10.62-16.74.06-2.56,2.03-8.48,8.76-10.16,3.61-.9,7.46-.34,10.55,1.54,3.15,1.91,4.83,4.67,4.85,7.99.03,4.12-1.57,7.02-4.74,8.62-2.04,1.03-6.47,1.02-9.08-1.32-1.26-1.13-3.1-3.75-1.28-8.57.43-1.12,1.69-1.7,2.81-1.27,1.12.43,1.69,1.68,1.27,2.81-.69,1.82-.65,3.09.11,3.78,1.16,1.06,3.64.95,4.21.68,1.68-.85,2.36-2.21,2.35-4.71-.01-1.77-.91-3.18-2.76-4.29-2.11-1.28-4.74-1.65-7.24-1.04-5.1,1.27-5.47,5.92-5.5,6.44-1.66,8.68,7.61,12.09,8,12.23,9.33,4.61,10.74,14.59,10.8,15.01.59,6.46-.59,10.91-3.48,13.34-1.72,1.44-3.75,1.86-5.37,1.86Z"/><path class="cls-1" d="M89.9,279.28c-.97,0-1.85-.65-2.11-1.63-.3-1.16.39-2.34,1.55-2.65.71-.2,6.63-2.08,4.88-9.98-.07-.46-1.01-6.87-8.2-8.92-4.54-.69-13.58-4.69-13.5-14.52-.41-2.53.45-8.71,6.76-11.59,3.39-1.54,7.27-1.69,10.66-.41,3.45,1.31,5.6,3.72,6.23,6.97.78,4.04-.26,7.18-3.08,9.34-1.81,1.38-6.18,2.19-9.17.36-1.44-.88-3.73-3.12-2.82-8.19.21-1.18,1.34-1.97,2.53-1.76,1.18.21,1.97,1.35,1.76,2.53-.35,1.92-.08,3.16.79,3.7,1.34.83,3.76.27,4.27-.1,1.5-1.14,1.92-2.61,1.45-5.05-.33-1.74-1.48-2.96-3.49-3.72-2.31-.87-4.97-.76-7.31.3-4.78,2.18-4.3,6.81-4.23,7.34-.05,8.84,9.69,10.5,10.1,10.57,10.28,2.9,11.51,12.04,11.55,12.43,2.12,9.57-4.35,13.97-8.07,14.93-.18.05-.37.07-.55.07Z"/><path class="cls-1" d="M98.84,310.07c-.78,0-1.54-.42-1.93-1.16-.56-1.06-.16-2.37.9-2.94.63-.35,5.98-3.54,2.45-10.84-.18-.44-2.57-6.45-10.03-6.78-4.58.38-14.3-1.44-16.48-11.03-.98-2.36-1.57-8.58,3.9-12.83,2.94-2.28,6.67-3.32,10.27-2.86,3.66.47,6.31,2.32,7.67,5.35,1.69,3.76,1.4,7.05-.85,9.8-1.44,1.76-5.5,3.55-8.83,2.46-1.61-.53-4.35-2.18-4.63-7.32-.07-1.2.86-2.23,2.05-2.29,1.22-.03,2.23.86,2.29,2.05.11,1.94.65,3.09,1.63,3.42,1.5.51,3.72-.6,4.12-1.08,1.2-1.46,1.27-2.98.24-5.25-.73-1.62-2.12-2.54-4.26-2.81-2.45-.33-5.01.4-7.04,1.98-4.15,3.22-2.61,7.62-2.43,8.11,1.99,8.61,11.85,7.99,12.27,7.96,10.68.46,13.97,9.06,14.1,9.43,4.28,8.82-1.01,14.59-4.41,16.39-.32.17-.67.25-1.01.25Z"/><path class="cls-1" d="M112.95,338.88c-.65,0-1.29-.29-1.72-.84-.73-.95-.57-2.3.37-3.04.56-.44,5.28-4.52.53-11.1-.25-.4-3.65-5.92-11.06-4.94-4.43,1.16-14.33,1.07-18.15-8-1.37-2.16-3.04-8.18,1.62-13.32,2.5-2.76,6.01-4.43,9.62-4.6,3.71-.14,6.61,1.19,8.48,3.93,2.32,3.41,2.61,6.7.87,9.8-1.12,1.99-4.79,4.46-8.28,3.96-1.68-.24-4.66-1.39-5.83-6.41-.27-1.17.46-2.34,1.63-2.61,1.17-.26,2.34.46,2.61,1.63.44,1.89,1.18,2.93,2.19,3.08,1.57.24,3.56-1.24,3.88-1.78.92-1.64.73-3.15-.67-5.22-1-1.46-2.51-2.13-4.68-2.03-2.46.11-4.87,1.27-6.59,3.17-3.53,3.89-1.25,7.96-.98,8.41,3.45,8.14,13.06,5.81,13.46,5.71,10.59-1.39,15.33,6.5,15.53,6.84,5.74,7.94,1.54,14.55-1.5,16.9-.4.31-.87.46-1.33.46Z"/><path class="cls-1" d="M133.35,363.61c-.48,0-.96-.16-1.36-.48-.93-.75-1.08-2.11-.34-3.05.44-.56,4.09-5.62-2.04-10.92-.34-.33-4.92-4.92-11.9-2.26-4.05,2.15-13.69,4.35-19.5-3.6-1.83-1.78-4.84-7.26-1.49-13.33,1.8-3.26,4.83-5.7,8.3-6.69,3.54-1.01,6.71-.37,9.16,1.88,3.04,2.78,4.08,5.92,3.1,9.34-.63,2.19-3.65,5.44-7.14,5.76-1.68.15-4.86-.28-7.15-4.89-.54-1.08-.1-2.38.98-2.92,1.08-.54,2.38-.1,2.92.98.87,1.74,1.81,2.57,2.85,2.5,1.57-.13,3.18-2.03,3.36-2.63.52-1.81-.02-3.24-1.86-4.92-1.3-1.19-2.95-1.49-5.02-.9-2.37.68-4.44,2.35-5.68,4.61-2.53,4.6.62,8.03.98,8.41,5.27,7.17,14.04,2.65,14.41,2.45,9.99-3.81,16.42,2.79,16.69,3.07,7.42,6.41,4.85,13.8,2.44,16.79-.43.53-1.06.81-1.7.81Z"/><path class="cls-1" d="M158.26,383.61c-.34,0-.69-.08-1.01-.25-1.06-.56-1.47-1.87-.92-2.93.33-.65,2.92-6.3-4.11-10.33-.39-.26-5.76-3.87-12.11.08-3.56,2.89-12.6,6.91-19.83.23-2.14-1.4-6.15-6.18-4.04-12.79,1.13-3.55,3.63-6.52,6.85-8.17,3.29-1.68,6.51-1.65,9.35.07,3.52,2.14,5.15,5.02,4.84,8.56-.19,2.27-2.53,6.04-5.89,7.03-1.62.48-4.82.67-7.96-3.42-.73-.95-.55-2.32.4-3.05.95-.73,2.32-.55,3.05.4,1.19,1.54,2.29,2.18,3.27,1.9,1.52-.44,2.73-2.6,2.79-3.23.16-1.88-.64-3.17-2.77-4.47-1.51-.92-3.18-.89-5.1.09-2.2,1.12-3.9,3.17-4.69,5.61-1.6,5,2.15,7.76,2.59,8.06,6.55,6.02,14.28-.11,14.61-.37,9.07-5.67,16.65-.43,16.97-.21,8.51,4.86,7.42,12.61,5.63,16.01-.39.74-1.15,1.16-1.93,1.16Z"/><path class="cls-1" d="M187.08,396.94c-.35,0-.7-.08-1.02-.26-1.05-.56-1.46-1.86-.91-2.92.05-.11.69-1.5.02-3.13-.78-1.9-3.09-3.55-6.68-4.78-.35-.13-6.41-2.4-11.68,2.9-2.79,3.64-10.67,9.63-19.24,4.79-2.41-.87-7.41-4.6-6.87-11.51.29-3.71,2.03-7.19,4.79-9.53,2.81-2.39,5.96-3.11,9.11-2.08,3.92,1.27,6.17,3.7,6.68,7.21.34,2.25-1.07,6.46-4.11,8.2-1.47.84-4.53,1.76-8.54-1.49-.93-.76-1.07-2.13-.31-3.06.76-.94,2.13-1.07,3.06-.32,1.51,1.23,2.74,1.6,3.62,1.09,1.38-.77,2.06-3.16,1.97-3.78-.28-1.86-1.36-2.94-3.72-3.71-1.69-.55-3.3-.13-4.95,1.26-1.88,1.6-3.07,3.98-3.27,6.54-.4,5.23,3.89,7.06,4.38,7.25,7.76,4.35,13.87-3.4,14.13-3.73,7.52-7.6,16.11-4.26,16.47-4.11,4.83,1.65,7.97,4.13,9.23,7.33,1.37,3.48-.07,6.37-.24,6.69-.39.74-1.14,1.15-1.92,1.15Z"/><path class="cls-1" d="M183.15,408.88c-1.78,0-3.66-.37-5.63-1.26-2.47-.65-7.79-3.93-7.87-10.86-.04-3.72,1.39-7.34,3.93-9.91,2.59-2.63,5.67-3.62,8.89-2.88,4.02.92,6.47,3.14,7.3,6.6.53,2.22-.5,6.53-3.37,8.53-1.4.96-4.37,2.15-8.63-.73-1-.67-1.26-2.03-.59-3.02.67-1,2.03-1.26,3.02-.59,1.61,1.09,2.86,1.35,3.7.77,1.3-.89,1.77-3.33,1.63-3.94-.44-1.83-1.61-2.81-4.04-3.37-1.73-.4-3.3.16-4.81,1.69-1.73,1.76-2.71,4.24-2.68,6.81.06,5.25,4.49,6.69,5,6.83,8.12,3.65,13.52-4.61,13.75-4.96,6.82-8.24,15.67-5.67,16.04-5.55,9.61,1.92,11.02,9.62,10.4,13.41-.2,1.19-1.35,2-2.5,1.79-1.18-.19-1.98-1.31-1.8-2.49.1-.7.79-6.9-7.16-8.5-.45-.12-6.7-1.85-11.47,3.9-1.92,3.02-6.8,7.74-13.11,7.74Z"/><path class="cls-1" d="M213.49,421.21c-.89,0-1.82-.09-2.79-.28-2.56-.06-8.48-2.03-10.16-8.76-.9-3.61-.34-7.46,1.54-10.55,1.91-3.15,4.67-4.83,7.99-4.85h.1c4.07,0,6.93,1.59,8.52,4.74,1.03,2.03,1.03,6.47-1.32,9.07-1.13,1.26-3.74,3.1-8.57,1.28-1.12-.43-1.69-1.68-1.27-2.81.42-1.12,1.69-1.7,2.81-1.27,1.82.69,3.09.65,3.78-.11,1.06-1.17.95-3.65.68-4.21-.85-1.68-2.13-2.48-4.71-2.35-1.77.01-3.18.91-4.29,2.76-1.28,2.11-1.66,4.75-1.04,7.24,1.27,5.1,5.91,5.47,6.44,5.5,8.68,1.64,12.09-7.61,12.24-8,4.73-9.58,13.94-9.12,14.33-9.09,9.8-.25,12.94,6.82,13.21,10.66.08,1.2-.82,2.24-2.02,2.32-1.21.09-2.23-.81-2.32-2.01-.06-.72-.85-6.81-8.93-6.62-.46-.02-6.94-.26-10.26,6.44-1.35,3.9-6.01,10.9-13.96,10.9Z"/><path class="cls-1" d="M244.11,426.27c-2.93,0-7.91-1.37-10.41-6.84-1.54-3.39-1.69-7.27-.41-10.65,1.31-3.45,3.72-5.6,6.97-6.23,4.04-.78,7.19.26,9.34,3.08,1.38,1.81,2.19,6.18.36,9.17-.88,1.44-3.13,3.73-8.19,2.82-1.18-.21-1.97-1.35-1.76-2.53.21-1.18,1.34-1.97,2.53-1.76,1.91.34,3.16.08,3.7-.79.83-1.34.27-3.76-.1-4.27-1.14-1.5-2.61-1.91-5.05-1.45-1.74.33-2.96,1.48-3.72,3.49-.87,2.3-.76,4.97.3,7.31,2.18,4.78,6.82,4.3,7.34,4.23h.07c8.77,0,10.43-9.69,10.5-10.1,2.9-10.28,12.04-11.5,12.43-11.55,6.29-1.48,11.13-1.04,14.15,1.36,2.82,2.24,2.91,5.26,2.91,5.6,0,1.2-.97,2.18-2.18,2.18s-2.16-.95-2.18-2.14c0-.11-.1-1.35-1.33-2.28-1.9-1.44-5.67-1.59-10.62-.44-.49.07-6.9,1.02-8.94,8.2-.68,4.51-4.65,13.5-14.39,13.5h-.14c-.34.05-.73.09-1.18.09Z"/><path class="cls-1" d="M279.26,423.54c-2.82,0-6.39-1-9.15-4.55-2.28-2.94-3.32-6.68-2.86-10.27.47-3.65,2.32-6.31,5.35-7.67,3.75-1.69,7.05-1.4,9.8.85,1.76,1.45,3.55,5.51,2.46,8.84-.53,1.61-2.18,4.35-7.32,4.63-1.23.04-2.23-.85-2.29-2.05s.85-2.23,2.05-2.29c1.94-.11,3.09-.65,3.42-1.63.5-1.5-.6-3.72-1.08-4.13-1.45-1.2-2.98-1.27-5.25-.24-1.62.73-2.54,2.12-2.81,4.26-.32,2.45.4,5.01,1.98,7.04,3.22,4.15,7.62,2.61,8.11,2.43,8.61-1.98,7.99-11.85,7.96-12.26.46-10.68,9.06-13.97,9.43-14.11,8.82-4.27,14.59,1.01,16.39,4.41.56,1.06.15,2.38-.91,2.94-1.06.56-2.37.16-2.93-.9-.35-.63-3.54-5.98-10.84-2.45-.44.18-6.45,2.57-6.78,10.03.38,4.57-1.44,14.3-11.03,16.48-.83.35-2.15.64-3.68.64Z"/><path class="cls-1" d="M311,415.17c-2.41,0-5.19-.75-7.75-3.07-2.76-2.5-4.43-6.01-4.6-9.62-.17-3.68,1.19-6.62,3.93-8.48,3.41-2.31,6.71-2.6,9.8-.86,1.98,1.12,4.45,4.8,3.96,8.27-.24,1.68-1.39,4.66-6.41,5.83-1.17.26-2.34-.46-2.61-1.63-.27-1.17.46-2.34,1.63-2.61,1.89-.44,2.93-1.18,3.08-2.19.23-1.56-1.24-3.56-1.78-3.87-1.64-.93-3.15-.73-5.22.67-1.46.99-2.13,2.53-2.03,4.68.11,2.46,1.27,4.87,3.17,6.59,4.02,3.64,8.35,1.01,8.4.99,8.15-3.46,5.83-13.06,5.72-13.47-1.4-10.59,6.5-15.33,6.84-15.53,7.94-5.74,14.54-1.54,16.9,1.5.74.95.56,2.32-.39,3.05-.94.73-2.31.57-3.05-.38-.45-.56-4.53-5.26-11.1-.53-.4.25-5.91,3.65-4.94,11.06,1.17,4.44,1.07,14.33-8,18.15-1.08.69-3.14,1.45-5.57,1.45Z"/><path class="cls-1" d="M341.24,401.44c-1.75,0-3.67-.41-5.65-1.51-3.26-1.8-5.7-4.82-6.69-8.3-1.01-3.54-.36-6.71,1.88-9.16,2.78-3.04,5.92-4.08,9.33-3.1,2.19.63,5.44,3.65,5.76,7.14.15,1.69-.28,4.86-4.89,7.15-1.07.53-2.38.1-2.92-.98-.54-1.08-.1-2.38.98-2.92,1.74-.87,2.58-1.82,2.5-2.85-.13-1.57-2.03-3.18-2.63-3.36-1.81-.52-3.23.02-4.92,1.86-1.2,1.31-1.49,2.95-.9,5.02.68,2.37,2.35,4.44,4.6,5.68,4.75,2.62,8.36-.94,8.4-.97,7.13-5.24,2.66-14.05,2.46-14.43-3.81-9.98,2.79-16.42,3.08-16.68,6.4-7.42,13.8-4.85,16.79-2.44.94.76,1.08,2.12.33,3.06-.75.93-2.11,1.08-3.05.34-.56-.44-5.62-4.09-10.92,2.04-.33.33-4.91,4.92-2.26,11.9,2.15,4.05,4.34,13.7-3.6,19.5-1.2,1.23-4.08,3-7.68,3Z"/><path class="cls-1" d="M366.95,381c-1.15,0-2.39-.18-3.7-.6-3.55-1.13-6.52-3.63-8.17-6.86-1.68-3.28-1.65-6.51.07-9.34,2.14-3.52,5.01-5.15,8.56-4.84,2.27.19,6.04,2.53,7.03,5.89.48,1.62.67,4.82-3.42,7.96-.95.73-2.31.55-3.05-.4-.73-.95-.55-2.32.4-3.05,1.54-1.19,2.18-2.29,1.9-3.27-.44-1.52-2.6-2.73-3.23-2.79-1.88-.17-3.17.64-4.47,2.77-.92,1.51-.89,3.18.09,5.1,1.12,2.2,3.17,3.9,5.61,4.69,4.99,1.59,7.76-2.15,8.06-2.59,6.02-6.55-.11-14.28-.37-14.61-5.67-9.07-.43-16.65-.21-16.97,4.86-8.51,12.61-7.42,16.01-5.63,1.06.56,1.47,1.88.91,2.94-.56,1.06-1.86,1.47-2.93.92-.64-.32-6.3-2.93-10.33,4.11-.26.39-3.87,5.77.08,12.11,2.9,3.56,6.91,12.6.23,19.83-1.12,1.72-4.42,4.63-9.09,4.63Z"/><path class="cls-1" d="M388.66,355.99c-.33,0-.67-.01-1.02-.04-3.71-.28-7.18-2.03-9.52-4.79-2.39-2.81-3.11-5.96-2.08-9.11,1.27-3.92,3.7-6.17,7.21-6.69,2.26-.34,6.47,1.07,8.2,4.12.84,1.47,1.76,4.54-1.49,8.53-.76.94-2.13,1.07-3.06.32-.93-.76-1.07-2.13-.32-3.06,1.23-1.51,1.6-2.73,1.09-3.62-.77-1.38-3.16-2.03-3.78-1.97-1.86.28-2.94,1.36-3.71,3.73-.55,1.68-.14,3.3,1.26,4.94,1.6,1.88,3.98,3.07,6.54,3.27,5.38.38,7.23-4.31,7.25-4.36,4.33-7.73-3.4-13.89-3.73-14.15-7.6-7.51-4.25-16.1-4.11-16.46,1.65-4.83,4.13-7.97,7.33-9.23,3.48-1.38,6.37.07,6.69.24,1.06.56,1.46,1.88.9,2.94-.56,1.05-1.86,1.46-2.92.91-.1-.05-1.49-.7-3.13-.02-1.9.78-3.55,3.09-4.78,6.68-.13.35-2.41,6.42,2.9,11.68,3.64,2.79,9.63,10.68,4.8,19.24-.82,2.29-4.23,6.91-10.5,6.92Z"/><path class="cls-1" d="M402.21,327c-3.66,0-7.21-1.43-9.75-3.93-2.63-2.59-3.62-5.66-2.88-8.89.92-4.02,3.14-6.47,6.6-7.3,2.2-.52,6.53.49,8.53,3.37.96,1.39,2.15,4.36-.73,8.63-.68,1-2.03,1.26-3.02.59-1-.67-1.26-2.03-.59-3.02,1.09-1.61,1.35-2.86.77-3.71-.89-1.3-3.34-1.77-3.94-1.63-1.84.44-2.81,1.61-3.37,4.04-.4,1.73.16,3.3,1.69,4.81,1.76,1.73,4.36,2.63,6.81,2.68,5.25-.06,6.69-4.5,6.83-5,3.62-8.06-4.62-13.52-4.97-13.75-8.23-6.81-5.66-15.66-5.55-16.03,1.92-9.61,9.63-11.01,13.41-10.4,1.19.2,1.99,1.32,1.79,2.5-.19,1.18-1.32,1.99-2.49,1.8-.7-.1-6.9-.79-8.5,7.16-.12.45-1.85,6.7,3.9,11.47,3.87,2.46,10.53,9.78,6.48,18.74-.65,2.47-3.93,7.79-10.86,7.87h-.16Z"/><path class="cls-1" d="M414.37,296.52c-2.52,0-5-.67-7.12-1.96-3.15-1.91-4.83-4.68-4.85-7.99-.03-4.12,1.56-7.02,4.73-8.62,2.04-1.03,6.47-1.02,9.08,1.32,1.26,1.13,3.1,3.75,1.28,8.57-.42,1.13-1.68,1.69-2.81,1.27-1.12-.43-1.69-1.68-1.27-2.81.69-1.82.65-3.09-.11-3.78-1.17-1.06-3.65-.95-4.21-.68-1.68.85-2.36,2.21-2.34,4.7.01,1.77.91,3.18,2.76,4.3,2.11,1.28,4.75,1.66,7.24,1.03,5.1-1.27,5.47-5.92,5.5-6.44,1.66-8.68-7.61-12.09-8-12.24-9.33-4.61-10.74-14.59-10.8-15.01-.59-6.45.59-10.91,3.48-13.33,2.59-2.17,5.89-2.03,7.44-1.61,1.16.32,1.84,1.52,1.53,2.68-.31,1.15-1.49,1.84-2.66,1.53-.12-.03-2.07-.48-3.54.77-1.18,1.01-2.47,3.47-1.92,9.49h0s1.2,8.04,8.17,11.49c4.34,1.5,12.5,7.09,10.62,16.74-.06,2.56-2.03,8.48-8.76,10.16-1.13.28-2.28.42-3.43.42Z"/><path class="cls-1" d="M415.8,261.7c-1.63,0-3.26-.29-4.78-.86-3.45-1.31-5.6-3.72-6.23-6.97-.78-4.05.26-7.19,3.09-9.34,1.82-1.38,6.18-2.18,9.17-.36,1.44.88,3.73,3.12,2.82,8.19-.22,1.18-1.34,1.97-2.53,1.76-1.18-.21-1.97-1.35-1.76-2.53.35-1.92.08-3.16-.79-3.7-1.34-.83-3.76-.27-4.27.1-1.5,1.14-1.92,2.61-1.45,5.05.34,1.74,1.48,2.96,3.49,3.72,2.31.87,4.97.76,7.31-.3,4.78-2.18,4.3-6.81,4.23-7.33.05-8.9-9.68-10.51-10.09-10.57-10.29-2.9-11.51-12.04-11.56-12.43-2.12-9.57,4.35-13.97,8.07-14.93,1.16-.31,2.35.4,2.65,1.56.3,1.16-.39,2.34-1.55,2.65-.7.19-6.63,2.07-4.88,9.99.07.46,1.01,6.87,8.2,8.91,4.54.69,13.58,4.69,13.5,14.53.41,2.53-.45,8.71-6.76,11.59-1.86.85-3.87,1.28-5.87,1.28Z"/><path class="cls-1" d="M414.73,228.89c-.57,0-1.13-.04-1.7-.11-3.66-.48-6.31-2.32-7.67-5.35-1.69-3.76-1.4-7.06.85-9.8,1.44-1.76,5.5-3.55,8.83-2.46,1.61.53,4.35,2.18,4.63,7.32.07,1.2-.86,2.23-2.05,2.29-1.23.03-2.23-.86-2.29-2.05-.11-1.94-.65-3.09-1.63-3.42-1.49-.5-3.72.6-4.12,1.08-1.2,1.46-1.27,2.98-.24,5.25.72,1.61,2.12,2.53,4.26,2.81,2.44.33,5.01-.4,7.04-1.98,4.15-3.22,2.62-7.62,2.43-8.11-2-8.67-11.85-7.99-12.26-7.96-10.68-.46-13.98-9.06-14.11-9.43-4.27-8.82,1.01-14.59,4.41-16.39,1.07-.56,2.38-.15,2.94.91.56,1.06.16,2.37-.9,2.94-.64.35-5.97,3.55-2.45,10.84.18.44,2.57,6.45,10.03,6.78,4.59-.38,14.3,1.43,16.48,11.03.98,2.36,1.57,8.58-3.91,12.83-2.48,1.92-5.53,2.97-8.57,2.97Z"/><path class="cls-1" d="M406.2,197.39c-3.41,0-6.12-1.36-7.89-3.95-2.32-3.41-2.61-6.7-.86-9.8,1.12-1.98,4.79-4.46,8.27-3.96,1.68.24,4.66,1.39,5.83,6.41.27,1.17-.46,2.34-1.63,2.61-1.17.26-2.34-.46-2.61-1.63-.44-1.89-1.18-2.93-2.19-3.08-1.56-.23-3.56,1.24-3.87,1.78-.93,1.64-.73,3.15.67,5.21,1,1.47,2.54,2.15,4.68,2.03,2.46-.11,4.86-1.27,6.59-3.17,3.53-3.89,1.25-7.96.98-8.41-3.45-8.14-13.06-5.81-13.46-5.71-10.62,1.4-15.33-6.5-15.53-6.84-5.74-7.94-1.54-14.55,1.5-16.9.95-.73,2.32-.56,3.05.39.73.95.56,2.31-.38,3.05-.57.45-5.27,4.53-.53,11.1.25.4,3.64,5.91,11.06,4.94,4.43-1.16,14.33-1.07,18.15,8,1.37,2.16,3.04,8.18-1.62,13.31-2.5,2.76-6.01,4.43-9.62,4.6-.2,0-.4.01-.59.01Z"/><path class="cls-1" d="M392.8,167.6c-2.28,0-4.32-.79-6.01-2.34-3.04-2.78-4.08-5.92-3.1-9.34.63-2.19,3.65-5.44,7.14-5.76,1.68-.15,4.86.28,7.15,4.89.54,1.08.1,2.38-.98,2.92-1.08.53-2.38.1-2.92-.98-.87-1.74-1.79-2.55-2.85-2.5-1.57.13-3.18,2.03-3.36,2.63-.52,1.81.02,3.24,1.86,4.92,1.31,1.2,2.95,1.49,5.02.9,2.37-.68,4.44-2.36,5.68-4.61,2.54-4.6-.62-8.03-.98-8.41-5.23-7.12-14.04-2.65-14.41-2.45-9.99,3.81-16.42-2.79-16.68-3.07-7.42-6.41-4.85-13.8-2.44-16.79.76-.94,2.12-1.08,3.06-.33.93.75,1.08,2.11.34,3.05-.44.56-4.09,5.62,2.04,10.92.34.33,4.91,4.92,11.9,2.26,4.05-2.15,13.7-4.35,19.5,3.6,1.83,1.78,4.84,7.26,1.49,13.33-1.79,3.26-4.82,5.7-8.3,6.69-1.09.31-2.14.46-3.14.46Z"/><path class="cls-1" d="M373.08,142.19c-1.6,0-3.13-.44-4.57-1.31-3.52-2.14-5.15-5.02-4.84-8.56.19-2.27,2.53-6.04,5.89-7.03,1.63-.48,4.82-.67,7.96,3.42.73.95.55,2.32-.4,3.05-.95.74-2.32.55-3.05-.4-1.19-1.54-2.28-2.17-3.27-1.9-1.52.43-2.73,2.6-2.79,3.23-.16,1.88.64,3.17,2.77,4.47,1.51.92,3.18.89,5.11-.09,2.19-1.12,3.9-3.17,4.69-5.61,1.6-5-2.15-7.76-2.59-8.06-6.55-6.03-14.28.11-14.61.37-9.07,5.67-16.65.43-16.97.21-8.51-4.86-7.42-12.61-5.63-16.01.56-1.06,1.88-1.47,2.94-.91,1.06.56,1.47,1.87.92,2.93h0c-.32.63-2.93,6.3,4.11,10.33.39.26,5.77,3.87,12.11-.08,3.56-2.89,12.61-6.9,19.83-.23,2.14,1.4,6.15,6.18,4.04,12.79-1.13,3.55-3.63,6.52-6.85,8.17-1.62.82-3.23,1.24-4.78,1.24Z"/><path class="cls-1" d="M349.15,120.46c-.92,0-1.85-.15-2.78-.45-3.92-1.27-6.17-3.7-6.69-7.21-.33-2.26,1.07-6.47,4.12-8.2,1.47-.84,4.54-1.75,8.53,1.49.93.76,1.07,2.13.32,3.06-.76.94-2.13,1.07-3.06.32-1.51-1.23-2.73-1.6-3.62-1.09-1.38.77-2.06,3.16-1.97,3.78.28,1.86,1.36,2.94,3.73,3.71,1.69.55,3.31.13,4.94-1.26,1.88-1.6,3.07-3.98,3.27-6.55.4-5.23-3.89-7.06-4.38-7.25-7.77-4.35-13.88,3.39-14.13,3.73-7.52,7.6-16.11,4.26-16.47,4.11-4.83-1.65-7.97-4.13-9.23-7.32-1.37-3.48.07-6.37.24-6.69.57-1.06,1.88-1.47,2.94-.9,1.05.56,1.46,1.86.91,2.92-.05.1-.7,1.5-.02,3.13.78,1.9,3.09,3.55,6.68,4.78.36.14,6.42,2.41,11.68-2.9,2.8-3.64,10.67-9.63,19.24-4.79,2.41.87,7.41,4.6,6.87,11.51-.29,3.71-2.03,7.18-4.79,9.53-1.98,1.68-4.13,2.54-6.33,2.54Z"/><path class="cls-1" d="M320.55,106.7c-.68,0-1.36-.08-2.05-.24-4.02-.92-6.47-3.14-7.3-6.6-.53-2.22.5-6.53,3.38-8.53,1.39-.96,4.36-2.15,8.63.73,1,.67,1.26,2.03.59,3.02-.68,1-2.03,1.26-3.02.59-1.61-1.09-2.85-1.34-3.7-.77-1.3.89-1.77,3.33-1.63,3.94.44,1.83,1.61,2.81,4.04,3.37,1.72.39,3.3-.16,4.81-1.69,1.73-1.76,2.71-4.24,2.68-6.81-.06-5.25-4.5-6.69-5-6.84-8.05-3.62-13.52,4.62-13.75,4.97-6.82,8.23-15.66,5.66-16.03,5.55-9.61-1.92-11.02-9.62-10.4-13.41.19-1.19,1.34-2,2.5-1.79,1.18.2,1.98,1.31,1.8,2.49-.1.7-.79,6.9,7.16,8.5.46.12,6.7,1.85,11.47-3.9,2.46-3.87,9.77-10.54,18.74-6.48,2.47.65,7.79,3.93,7.87,10.86.04,3.72-1.39,7.34-3.93,9.91-2.03,2.06-4.36,3.12-6.84,3.12Z"/><path class="cls-1" d="M290.78,93.64c-4.07,0-6.93-1.59-8.52-4.74-1.03-2.03-1.02-6.47,1.32-9.08,1.13-1.26,3.76-3.09,8.57-1.28,1.12.43,1.69,1.68,1.27,2.81-.42,1.12-1.68,1.7-2.81,1.27-1.82-.69-3.1-.65-3.78.11-1.06,1.17-.95,3.65-.68,4.21.85,1.68,2.13,2.41,4.71,2.35,1.77-.01,3.18-.91,4.29-2.76,1.28-2.11,1.66-4.75,1.03-7.24-1.27-5.1-5.92-5.47-6.44-5.5-8.71-1.67-12.09,7.61-12.23,8-4.73,9.57-13.93,9.1-14.33,9.09-6.93.42-11.74-.97-13.99-4.16-1.96-2.78-1.37-6.15-.72-7.7.47-1.11,1.74-1.63,2.85-1.15,1.1.47,1.62,1.73,1.16,2.84-.03.06-.79,2.06.27,3.53.76,1.05,3.13,2.76,10.42,2.3.51.02,7,.26,10.32-6.44,1.5-4.34,7.1-12.51,16.74-10.62,2.56.06,8.48,2.03,10.16,8.76.9,3.61.34,7.46-1.54,10.55-1.91,3.15-4.67,4.83-7.99,4.85h-.1Z"/></g><g id="Strike_Ring"><path class="cls-1" d="M234.81,40.93c-.63,4.66.03,8.53-.46,12.8,0,0-.45-1.41-.45-1.41,1.23,1.11,2.39,2.28,3.59,3.43l-2.71.32c.86-1.32,1.67-2.67,2.58-3.97l-.16,1.35c-1.13-4.13-1.06-8.02-2.38-12.52h0ZM234.81,40.93c1.51,3.44,4.15,7.59,5.46,11.51.18.47.09.95-.16,1.35-1.26,1.55-2.08,5.87-4.7,4.72-1.4-1.22-2.63-2.66-3.91-4.01-.32-.36-.44-.85-.35-1.29.7-4.1,2.68-8.62,3.66-12.27h0Z"/><path class="cls-1" d="M274.75,42.16c.55,3.74,2.01,8.45,2.24,12.61.04.49-.15.94-.49,1.24-1.27,1.14-2.62,2.2-3.93,3.29-2.93,1.77-3.49-3.21-4.55-4.96-.21-.44-.22-.95,0-1.36,1.75-3.75,4.84-7.57,6.74-10.81h0ZM274.75,42.16c-1.82,4.32-2.19,8.19-3.79,12.16,0,0,0-1.36,0-1.36.75,1.39,1.4,2.83,2.11,4.24l-2.66-.63c1.32-1,2.61-2.04,3.96-2.99l-.61,1.35c0-4.3,1.09-8.06,1-12.77h0Z"/><path class="cls-1" d="M157.68,62.31c1.07,4.58,3.05,7.96,4.1,12.13,0,0-.92-1.16-.92-1.16,1.54.6,3.05,1.29,4.57,1.93l-2.42,1.26c.34-1.54.62-3.09,1-4.62l.33,1.32c-2.52-3.46-3.83-7.12-6.66-10.86h0ZM157.68,62.31c2.64,2.68,6.57,5.62,9.18,8.83.33.38.42.86.33,1.32-.63,1.9.14,6.23-2.72,6.08-1.74-.64-3.4-1.55-5.08-2.37-.43-.23-.71-.64-.79-1.09-.79-4.08-.54-9.01-.92-12.77h0Z"/><path class="cls-1" d="M195.92,47.91c2.08,3.16,5.38,6.83,7.34,10.5.24.42.26.92.08,1.33-.67,1.57-1.45,3.09-2.18,4.64-1.91,2.84-4.51-1.45-6.22-2.59-.37-.31-.6-.77-.58-1.23,0-4.13,1.21-8.9,1.56-12.64h0ZM195.92,47.91c.16,4.68,1.46,8.36,1.68,12.63,0,0-.58-1.23-.58-1.23,1.26.95,2.46,1.97,3.69,2.96l-2.68.55c.77-1.46,1.51-2.94,2.33-4.38v1.48c-1.8-3.9-2.39-7.77-4.45-12h0Z"/><path class="cls-1" d="M96.66,109.99c2.83,3.76,6.01,6.04,8.66,9.43,0,0-1.31-.68-1.31-.68,1.65-.08,3.31-.06,4.96-.08l-1.71,2.13c-.31-1.55-.69-3.08-.95-4.63l.84,1.07c-3.7-2.14-6.39-4.96-10.49-7.24h0ZM96.66,109.99c3.5,1.39,8.28,2.48,11.97,4.36.46.21.73.62.84,1.07.19,1.99,2.65,5.64-.03,6.66-1.86.12-3.74-.04-5.6-.11-.49-.03-.91-.3-1.16-.67-2.38-3.41-4.14-8.02-6.02-11.3h0Z"/><path class="cls-1" d="M125.95,82.81c3.02,2.28,7.37,4.61,10.45,7.4.37.32.55.77.52,1.23-.1,1.71-.32,3.4-.48,5.1-.84,3.31-4.74.16-6.73-.33-.46-.16-.82-.53-.96-.97-1.39-3.89-1.87-8.79-2.8-12.43h0ZM125.95,82.81c1.73,4.35,4.2,7.37,5.85,11.32,0,0-.96-.96-.96-.96,1.51.46,2.98,1.03,4.48,1.53l-2.33,1.42c.23-1.64.42-3.28.71-4.91l.51,1.39c-3.03-3.06-4.89-6.5-8.26-9.79h0Z"/><path class="cls-1" d="M56.79,179.39c3.98,2.51,7.76,3.52,11.44,5.75,0,0-1.47-.18-1.47-.18,1.52-.66,3.07-1.23,4.61-1.84l-.84,2.6c-.84-1.33-1.73-2.63-2.53-3.99l1.16.71c-4.22-.69-7.73-2.38-12.37-3.05h0ZM56.79,179.39c3.76.06,8.63-.61,12.74-.17.5.04.9.32,1.16.71.88,1.8,4.47,4.33,2.33,6.24-1.69.77-3.51,1.28-5.28,1.88-.47.14-.96.04-1.32-.22-3.43-2.35-6.72-6.03-9.63-8.44h0Z"/><path class="cls-1" d="M73.89,142.29c3.7.79,8.62,1.08,12.59,2.32.47.13.82.47.99.89.62,1.59,1.14,3.22,1.71,4.83.63,3.36-4.23,2.14-6.24,2.53-.48.04-.97-.13-1.28-.47-2.9-2.95-5.4-7.18-7.77-10.09h0ZM73.89,142.29c3.4,3.22,6.91,4.92,10.07,7.81,0,0-1.28-.47-1.28-.47,1.56-.21,3.14-.32,4.71-.49l-1.52,2.27c-.48-1.58-1-3.15-1.42-4.75l1.05,1.04c-4.03-1.5-7.17-3.84-11.61-5.4h0Z"/><path class="cls-1" d="M45.46,259.59c4.64.76,8.52.21,12.78.82,0,0-1.42.41-1.42.41,1.14-1.2,2.35-2.33,3.53-3.49l.24,2.72c-1.3-.9-2.62-1.75-3.89-2.69l1.35.2c-4.16,1.01-8.05.83-12.58,2.02h0ZM45.46,259.59c3.49-1.42,7.7-3.93,11.66-5.13.48-.16.95-.06,1.35.2,1.51,1.31,5.81,2.24,4.58,4.83-1.26,1.37-2.73,2.55-4.12,3.79-.37.31-.86.41-1.3.31-4.08-.82-8.54-2.93-12.16-4.01h0Z"/><path class="cls-1" d="M46.7,220.13c3.72-.72,8.36-2.37,12.5-2.79.48-.06.94.11,1.26.43,1.2,1.22,2.31,2.52,3.46,3.78,1.9,2.84-3.05,3.62-4.76,4.77-.43.23-.94.26-1.36.06-3.82-1.58-7.77-4.5-11.1-6.26h0ZM46.7,220.13c4.39,1.63,8.28,1.83,12.32,3.25,0,0-1.36.06-1.36.06,1.36-.81,2.76-1.52,4.14-2.29l-.51,2.68c-1.06-1.27-2.15-2.51-3.17-3.82l1.37.55c-4.3.19-8.1-.73-12.8-.44h0Z"/><path class="cls-1" d="M52.73,299.84c4.69-.41,8.31-1.91,12.59-2.36,0,0-1.27.75-1.27.75.81-1.45,1.7-2.84,2.55-4.25l.91,2.58c-1.48-.55-2.97-1.05-4.44-1.64l1.35-.14c-3.78,2.01-7.59,2.79-11.69,5.07h0ZM52.73,299.84c3.03-2.23,6.49-5.71,10.03-7.86.42-.28.91-.29,1.35-.14,1.79.89,6.18.74,5.63,3.55-.88,1.64-2.01,3.15-3.06,4.7-.28.4-.73.61-1.19.63-4.15.21-9-.72-12.78-.87h0Z"/><path class="cls-1" d="M89.4,374.8c4.15-2.21,6.91-5,10.66-7.09,0,0-.88,1.19-.88,1.19.18-1.65.46-3.28.69-4.91l1.84,2.02c-1.58.07-3.15.2-4.73.22l1.19-.66c-2.69,3.33-5.9,5.54-8.78,9.23h0ZM89.4,374.8c1.91-3.24,3.74-7.8,6.16-11.15.28-.42.72-.62,1.19-.66,2,.12,5.98-1.74,6.57,1.07-.17,1.85-.62,3.69-.98,5.52-.11.48-.44.85-.85,1.04-3.74,1.82-8.57,2.85-12.1,4.19h0Z"/><path class="cls-1" d="M68.06,339.29c2.52-2.82,5.21-6.95,8.25-9.79.35-.34.82-.48,1.27-.42,1.69.25,3.36.6,5.04.91,3.25,1.05-.25,4.76-.9,6.67-.2.44-.59.78-1.04.88-4,1.06-8.91,1.13-12.62,1.75h0ZM68.06,339.29c4.48-1.36,7.7-3.56,11.77-4.88,0,0-1.04.87-1.04.87.59-1.47,1.27-2.89,1.9-4.33l1.22,2.44c-1.61-.37-3.23-.7-4.83-1.12l1.42-.39c-3.3,2.76-6.89,4.33-10.44,7.41h0Z"/><path class="cls-1" d="M116.77,403.8c3.57-3.06,5.65-6.38,8.87-9.24,0,0-.6,1.35-.6,1.35-.18-1.65-.27-3.3-.4-4.95l2.24,1.57c-1.52.41-3.03.88-4.56,1.24l1.02-.9c-1.9,3.83-4.55,6.69-6.56,10.92h0ZM116.77,403.8c1.16-3.58,1.96-8.42,3.59-12.22.18-.47.57-.77,1.02-.9,1.98-.31,5.46-3,6.65-.39.23,1.85.19,3.73.24,5.6,0,.49-.24.93-.6,1.2-3.25,2.59-7.74,4.64-10.9,6.72h0Z"/><path class="cls-1" d="M187.19,442.28c2.09-4.22,2.71-8.08,4.55-11.97,0,0-.02,1.48-.02,1.48-.81-1.44-1.53-2.93-2.3-4.4l2.67.57c-1.24.97-2.44,1.99-3.72,2.93l.59-1.23c-.26,4.27-1.58,7.93-1.77,12.62h0ZM187.19,442.28c-.33-3.75-1.49-8.52-1.47-12.66-.02-.5.23-.93.59-1.23,1.73-1.08,3.78-4.86,5.97-2.95.94,1.61,1.64,3.36,2.41,5.06.19.45.14.95-.08,1.34-1.98,3.65-5.31,7.3-7.41,10.44h0Z"/><path class="cls-1" d="M152.18,426.98c.41-3.76.2-8.69,1.02-12.76.08-.48.39-.87.79-1.08,1.52-.78,3.09-1.46,4.63-2.19,3.28-.97,2.56,3.99,3.15,5.95.09.48-.03.98-.34,1.32-2.64,3.18-6.6,6.1-9.25,8.76h0ZM152.18,426.98c2.85-3.72,4.19-7.37,6.74-10.81,0,0-.34,1.32-.34,1.32-.37-1.53-.64-3.09-.97-4.63l2.42,1.28c-1.53.63-3.04,1.31-4.58,1.9l.93-1.15c-1.08,4.16-3.09,7.52-4.19,12.1h0Z"/><path class="cls-1" d="M226.52,450.32c1.32-4.52,1.25-8.43,2.38-12.58,0,0,.24,1.46.24,1.46-1.05-1.28-2.03-2.62-3.04-3.93l2.73.09c-1.05,1.18-2.06,2.39-3.14,3.54l.36-1.31c.5,4.25-.16,8.09.47,12.73h0ZM226.52,450.32c-.98-3.63-2.96-8.12-3.67-12.2-.1-.49.06-.95.36-1.31,1.52-1.37,2.87-5.45,5.36-3.96,1.2,1.42,2.2,3.02,3.26,4.55.27.41.31.91.15,1.33-1.31,3.94-3.95,8.12-5.46,11.58h0Z"/><path class="cls-1" d="M265.74,451.92c.72-4.65.14-8.52.72-12.78,0,0,.42,1.42.42,1.42-1.21-1.13-2.35-2.33-3.52-3.5l2.72-.26c-.89,1.3-1.73,2.64-2.66,3.92l.19-1.35c1.05,4.15.89,8.04,2.12,12.56h0ZM265.74,451.92c-1.44-3.47-3.99-7.67-5.23-11.62-.17-.47-.07-.95.19-1.35,1.3-1.52,2.2-5.83,4.8-4.62,1.38,1.25,2.58,2.71,3.83,4.09.32.37.42.86.32,1.3-.79,4.08-2.86,8.56-3.91,12.19h0Z"/><path class="cls-1" d="M342.5,429.95c-1.11-4.57-3.12-7.93-4.21-12.09,0,0,.93,1.15.93,1.15-1.55-.58-3.06-1.26-4.59-1.89l2.41-1.28c-.32,1.54-.59,3.1-.96,4.63l-.34-1.32c2.55,3.44,3.89,7.09,6.75,10.8h0ZM342.5,429.95c-2.66-2.66-6.62-5.57-9.26-8.75-.34-.38-.42-.86-.34-1.32.62-1.9-.19-6.22,2.67-6.1,1.75.63,3.41,1.52,5.1,2.32.43.22.72.63.8,1.08.83,4.07.62,9.01,1.04,12.76h0Z"/><path class="cls-1" d="M306.65,444.72c-2.41-2.92-6.08-6.21-8.42-9.65-.29-.39-.35-.88-.22-1.32.5-1.63,1.11-3.23,1.67-4.84,1.59-3.02,4.64.95,6.46,1.9.4.27.68.7.71,1.16.44,4.11-.24,8.98-.19,12.74h0ZM306.65,444.72c-.66-4.64-2.35-8.15-3.03-12.37,0,0,.71,1.16.71,1.16-1.36-.8-2.66-1.7-3.99-2.54l2.6-.84c-.61,1.54-1.18,3.09-1.84,4.61l-.17-1.47c2.22,3.68,3.23,7.47,5.73,11.45h0Z"/><path class="cls-1" d="M378.97,407.09c-2.33-4.09-5.19-6.76-7.39-10.46,0,0,1.21.85,1.21.85-1.65-.13-3.29-.36-4.93-.55l1.97-1.9c.12,1.57.29,3.14.36,4.72l-.69-1.17c3.4,2.6,5.7,5.74,9.48,8.51h0ZM378.97,407.09c-3.29-1.82-7.9-3.52-11.32-5.85-.43-.27-.65-.71-.69-1.17.07-2-1.91-5.93.88-6.6,1.86.12,3.7.52,5.54.82.48.09.86.41,1.06.82,1.92,3.69,3.09,8.48,4.53,11.98h0Z"/><path class="cls-1" d="M406.49,380.63c-2.84-3.75-6.03-6.03-8.68-9.41,0,0,1.31.68,1.31.68-1.65.08-3.31.07-4.96.1l1.7-2.14c.32,1.54.69,3.08.97,4.63l-.84-1.07c3.71,2.13,6.4,4.95,10.5,7.21h0ZM406.49,380.63c-3.5-1.38-8.29-2.46-11.98-4.33-.46-.21-.73-.62-.84-1.07-.19-1.99-2.66-5.63.02-6.66,1.86-.12,3.74.03,5.6.1.49.03.91.3,1.16.67,2.39,3.4,4.16,8.01,6.04,11.29h0Z"/><path class="cls-1" d="M445.26,312.56c-4.06-2.39-7.87-3.28-11.62-5.39,0,0,1.47.13,1.47.13-1.5.71-3.03,1.32-4.55,1.98l.76-2.62c.88,1.31,1.81,2.58,2.66,3.91l-1.18-.67c4.24.56,7.8,2.13,12.46,2.66h0ZM445.26,312.56c-3.76.06-8.6.88-12.73.57-.5-.02-.91-.29-1.18-.67-.94-1.77-4.61-4.19-2.53-6.16,1.67-.82,3.47-1.39,5.22-2.05.46-.16.95-.07,1.33.18,3.5,2.24,6.9,5.82,9.89,8.13h0Z"/><path class="cls-1" d="M430.86,345.92c-3.77-.3-8.69.05-12.79-.66-.48-.07-.88-.36-1.1-.76-.82-1.5-1.55-3.04-2.32-4.57-1.06-3.25,3.91-2.67,5.86-3.32.47-.11.98,0,1.33.3,3.26,2.55,6.28,6.42,9.02,9h0ZM430.86,345.92c-3.79-2.75-7.49-3.98-11-6.43,0,0,1.33.3,1.33.3-1.52.42-3.07.73-4.6,1.1l1.21-2.45c.68,1.51,1.4,3,2.03,4.53l-1.17-.9c4.19.96,7.61,2.88,12.21,3.85h0Z"/><path class="cls-1" d="M454.58,268.32c-4.49-1.42-8.4-1.44-12.52-2.67,0,0,1.46-.2,1.46-.2-1.3,1.02-2.66,1.96-4,2.94l.16-2.73c1.15,1.08,2.34,2.11,3.46,3.22l-1.3-.39c4.26-.4,8.08.35,12.74-.17h0ZM454.58,268.32c-3.65.89-8.19,2.77-12.28,3.38-.49.09-.95-.08-1.3-.39-1.33-1.55-5.38-2.99-3.83-5.45,1.45-1.17,3.07-2.13,4.63-3.15.41-.26.91-.28,1.34-.12,3.91,1.4,8.02,4.14,11.45,5.73h0Z"/><path class="cls-1" d="M454.6,229.49c-4.63-.83-8.52-.34-12.76-1.02,0,0,1.43-.39,1.43-.39-1.16,1.18-2.39,2.29-3.58,3.44l-.2-2.72c1.28.92,2.6,1.79,3.85,2.75l-1.34-.22c4.17-.95,8.06-.71,12.61-1.83h0ZM454.6,229.49c-3.51,1.36-7.76,3.81-11.74,4.95-.48.16-.96.04-1.34-.22-1.49-1.33-5.77-2.33-4.51-4.9,1.28-1.35,2.77-2.51,4.18-3.73.38-.31.87-.4,1.31-.29,4.06.88,8.49,3.06,12.1,4.19h0Z"/><path class="cls-1" d="M434.16,154.02c-4.6,1-8.01,2.93-12.19,3.92,0,0,1.17-.9,1.17-.9-.62,1.54-1.33,3.03-2,4.54l-1.22-2.44c1.54.36,3.08.66,4.61,1.07l-1.32.31c3.5-2.47,7.18-3.73,10.96-6.5h0ZM434.16,154.02c-2.72,2.6-5.72,6.48-8.96,9.05-.38.33-.87.4-1.33.31-1.89-.66-6.23.05-6.04-2.81.67-1.73,1.6-3.38,2.44-5.04.23-.43.65-.7,1.1-.77,4.09-.73,9.02-.41,12.78-.74h0Z"/><path class="cls-1" d="M448.84,190.26c-2.98,2.34-6.35,5.93-9.84,8.19-.4.28-.89.33-1.32.19-1.62-.54-3.2-1.18-4.8-1.78-2.99-1.66,1.06-4.62,2.05-6.41.28-.4.72-.66,1.18-.68,4.12-.34,8.97.45,12.73.49h0ZM448.84,190.26c-4.65.55-8.2,2.15-12.44,2.74,0,0,1.18-.68,1.18-.68-.84,1.34-1.76,2.62-2.63,3.93l-.77-2.62c1.52.65,3.06,1.25,4.56,1.95l-1.47.14c3.73-2.14,7.54-3.05,11.58-5.46h0Z"/><path class="cls-1" d="M412.77,118.85c-4.32,1.86-7.3,4.41-11.21,6.18,0,0,.97-1.11.97-1.11-.31,1.63-.73,3.23-1.09,4.84l-1.67-2.16c1.58.06,3.15.06,4.73.17l-1.24.56c2.96-3.09,6.34-5.03,9.51-8.47h0ZM412.77,118.85c-2.18,3.07-4.37,7.46-7.07,10.6-.31.39-.77.56-1.24.56-1.98-.29-6.1,1.24-6.46-1.61.33-1.83.93-3.62,1.43-5.42.14-.47.5-.81.93-.97,3.88-1.5,8.77-2.13,12.41-3.17h0Z"/><path class="cls-1" d="M385.16,91.11c-4.04,2.41-6.66,5.32-10.32,7.59,0,0,.82-1.23.82-1.23-.1,1.65-.3,3.29-.46,4.94l-1.94-1.93c1.57-.15,3.13-.35,4.71-.45l-1.16.71c2.53-3.45,5.63-5.81,8.33-9.64h0ZM385.16,91.11c-1.76,3.33-3.37,7.96-5.63,11.43-.26.43-.69.66-1.16.71-2-.03-5.89,2.02-6.62-.75.09-1.86.45-3.71.72-5.56.08-.48.39-.87.8-1.08,3.65-1.99,8.42-3.25,11.89-4.75h0Z"/><path class="cls-1" d="M316.09,51.39c-2.82,3.77-4.13,7.46-6.64,10.95,0,0,.29-1.45.29-1.45.54,1.57.98,3.16,1.46,4.74l-2.52-1.04c1.4-.73,2.76-1.52,4.18-2.21l-.8,1.1c1.02-4.15,2.99-7.52,4.03-12.09h0ZM316.09,51.39c-.36,3.74-.08,8.65-.85,12.71-.08.5-.39.87-.8,1.1-1.86.74-4.68,4.11-6.4,1.83-.63-1.75-1-3.6-1.45-5.41-.11-.48.03-.96.33-1.3,2.61-3.23,6.55-6.22,9.18-8.93h0Z"/><path class="cls-1" d="M350.74,66.1c-.72,3.71-.91,8.64-2.07,12.64-.12.47-.46.83-.87,1.01-1.58.65-3.2,1.2-4.8,1.8-3.35.7-2.22-4.19-2.65-6.19-.05-.48.11-.97.45-1.29,2.89-2.95,7.08-5.53,9.94-7.97h0ZM350.74,66.1c-3.15,3.47-4.79,7-7.61,10.22,0,0,.45-1.28.45-1.28.24,1.56.38,3.13.58,4.7,0,0-2.3-1.47-2.3-1.47,1.57-.51,3.13-1.06,4.73-1.51l-1.02,1.07c1.42-4.06,3.7-7.24,5.18-11.71h0Z"/></g></svg>