<?xml version="1.0" encoding="UTF-8"?><svg id="Layer_1" xmlns="http://www.w3.org/2000/svg" viewBox="0 0 500 500"><defs><style>.cls-1{fill:#e4dac7;stroke-width:0px;}</style></defs><path class="cls-1" d="M248.15,485.87c-132.03,0-239.44-107.41-239.44-239.44S116.12,6.98,248.15,6.98s239.44,107.41,239.44,239.44-107.41,239.44-239.44,239.44ZM248.15,20.91C123.8,20.91,22.63,122.08,22.63,246.42s101.16,225.51,225.51,225.51,225.51-101.16,225.51-225.51S372.49,20.91,248.15,20.91Z"/><path class="cls-1" d="M248.61,463.07c-119.04,0-215.89-96.85-215.89-215.89S129.57,31.29,248.61,31.29s215.89,96.85,215.89,215.89-96.85,215.89-215.89,215.89ZM248.61,35.65c-116.64,0-211.54,94.89-211.54,211.54s94.9,211.54,211.54,211.54,211.53-94.9,211.53-211.54S365.25,35.65,248.61,35.65Z"/><path class="cls-1" d="M248.14,320.54c-1.54,0-2.97-.7-3.92-1.94-3.86-5-12.92-13.08-26.18-23.37-4.62-3.58-8.74-7.74-12.71-11.76-2.47-2.49-5.02-5.06-7.64-7.45-18.3-16.67-18.31-33.01-18.3-33.7-3.13-39.5,30.02-45.42,30.36-45.48,21.15-4.83,33.44,9.35,38.07,16.37,4.62-7.01,16.9-21.2,38.16-16.36,1.94.37,33.31,7,30.26,45.66.02.49.01,16.83-18.6,33.85-2.5,2.29-4.94,4.74-7.31,7.12-3.96,3.99-8.06,8.11-12.64,11.66-9.31,7.21-20.93,17.15-25.62,23.41-.93,1.24-2.35,1.96-3.89,1.97h-.03ZM217.98,200.25c-2.32,0-4.78.27-7.4.87-1.34.23-29.66,5.44-26.85,41.06,0,.34.12,15.36,16.88,30.62,2.7,2.46,5.29,5.07,7.8,7.6,3.88,3.92,7.9,7.98,12.29,11.38,13.75,10.66,22.82,18.79,26.96,24.15.17.22.49.27.48.24.13,0,.3-.04.44-.22,6.39-8.52,23.14-21.69,26.44-24.24,4.36-3.38,8.36-7.4,12.23-11.29,2.4-2.41,4.88-4.91,7.45-7.26,17.07-15.61,17.19-30.64,17.19-30.79,2.82-35.82-25.5-41.03-26.71-41.23l-.13-.03c-20.73-4.73-31.81,11.28-34.72,16.31-1.05,1.79-3.98,1.79-5.02,0-2.54-4.39-11.32-17.18-27.32-17.18Z"/><path class="cls-1" d="M247.82,310.12c-1.2,0-2.18-.97-2.18-2.18v-42.86c0-1.2.98-2.18,2.18-2.18s2.18.97,2.18,2.18v42.86c0,1.2-.98,2.18-2.18,2.18Z"/><path class="cls-1" d="M256.94,301.47c-1.2,0-2.18-.97-2.18-2.18v-42.86c0-1.2.98-2.18,2.18-2.18s2.18.97,2.18,2.18v42.86c0,1.2-.98,2.18-2.18,2.18Z"/><path class="cls-1" d="M265.25,293.01c-1.2,0-2.18-.97-2.18-2.18v-42.86c0-1.2.98-2.18,2.18-2.18s2.18.97,2.18,2.18v42.86c0,1.2-.98,2.18-2.18,2.18Z"/><path class="cls-1" d="M274.42,285.4c-1.2,0-2.18-.97-2.18-2.18v-42.86c0-1.2.98-2.18,2.18-2.18s2.18.97,2.18,2.18v42.86c0,1.2-.98,2.18-2.18,2.18Z"/><path class="cls-1" d="M283.82,277.4c-1.2,0-2.18-.97-2.18-2.18v-41.78c0-1.2.98-2.18,2.18-2.18s2.18.97,2.18,2.18v41.78c0,1.2-.98,2.18-2.18,2.18Z"/><path class="cls-1" d="M292.68,267.26c-1.2,0-2.18-.97-2.18-2.18v-38.35c0-1.2.98-2.18,2.18-2.18s2.18.97,2.18,2.18v38.35c0,1.2-.98,2.18-2.18,2.18Z"/><path class="cls-1" d="M302.48,257.53c-1.2,0-2.18-.97-2.18-2.18v-22.09c0-1.2.98-2.18,2.18-2.18s2.18.97,2.18,2.18v22.09c0,1.2-.98,2.18-2.18,2.18Z"/><path class="cls-1" d="M238.72,301.47c-1.2,0-2.18-.97-2.18-2.18v-42.86c0-1.2.98-2.18,2.18-2.18s2.18.97,2.18,2.18v42.86c0,1.2-.98,2.18-2.18,2.18Z"/><path class="cls-1" d="M230.4,293.01c-1.2,0-2.18-.97-2.18-2.18v-42.86c0-1.2.98-2.18,2.18-2.18s2.18.97,2.18,2.18v42.86c0,1.2-.98,2.18-2.18,2.18Z"/><path class="cls-1" d="M221.24,285.4c-1.2,0-2.18-.97-2.18-2.18v-42.86c0-1.2.98-2.18,2.18-2.18s2.18.97,2.18,2.18v42.86c0,1.2-.98,2.18-2.18,2.18Z"/><path class="cls-1" d="M212.11,277.22c-1.2,0-2.18-.97-2.18-2.18v-41.78c0-1.2.98-2.18,2.18-2.18s2.18.97,2.18,2.18v41.78c0,1.2-.98,2.18-2.18,2.18Z"/><path class="cls-1" d="M202.98,267.26c-1.2,0-2.18-.97-2.18-2.18v-38.35c0-1.2.98-2.18,2.18-2.18s2.18.97,2.18,2.18v38.35c0,1.2-.98,2.18-2.18,2.18Z"/><path class="cls-1" d="M193.18,257.53c-1.2,0-2.18-.97-2.18-2.18v-22.09c0-1.2.98-2.18,2.18-2.18s2.18.97,2.18,2.18v22.09c0,1.2-.98,2.18-2.18,2.18Z"/><circle class="cls-1" cx="247.82" cy="256.43" r="2.06"/><circle class="cls-1" cx="256.93" cy="247.97" r="2.06"/><circle class="cls-1" cx="265.25" cy="240.36" r="2.06"/><circle class="cls-1" cx="274.42" cy="232.18" r="2.06"/><circle class="cls-1" cx="283.82" cy="226.91" r="2.06"/><circle class="cls-1" cx="292.68" cy="220.15" r="2.06"/><circle class="cls-1" cx="302.47" cy="226.73" r="2.06"/><circle class="cls-1" cx="238.72" cy="247.97" r="2.06"/><circle class="cls-1" cx="230.41" cy="240.29" r="2.06"/><circle class="cls-1" cx="221.24" cy="232.12" r="2.06"/><circle class="cls-1" cx="212.11" cy="226.85" r="2.06"/><circle class="cls-1" cx="202.99" cy="220.09" r="2.06"/><circle class="cls-1" cx="193.19" cy="226.67" r="2.06"/><circle class="cls-1" cx="247.82" cy="248.29" r="2.06"/><circle class="cls-1" cx="256.93" cy="239.83" r="2.06"/><circle class="cls-1" cx="265.25" cy="232.22" r="2.06"/><circle class="cls-1" cx="274.42" cy="224.04" r="2.06"/><circle class="cls-1" cx="283.82" cy="218.77" r="2.06"/><circle class="cls-1" cx="292.68" cy="212.01" r="2.06"/><circle class="cls-1" cx="302.47" cy="218.59" r="2.06"/><circle class="cls-1" cx="238.72" cy="239.83" r="2.06"/><circle class="cls-1" cx="230.41" cy="232.15" r="2.06"/><circle class="cls-1" cx="221.24" cy="223.98" r="2.06"/><circle class="cls-1" cx="212.11" cy="218.71" r="2.06"/><circle class="cls-1" cx="202.99" cy="211.94" r="2.06"/><circle class="cls-1" cx="193.19" cy="218.52" r="2.06"/><path class="cls-1" d="M235.85,166.87c-.78,0-1.53-.42-1.93-1.15-.56-1.06-.16-2.38.9-2.94,4.36-2.32,6.21-11,6.56-14.15,1.81-8,.86-13.53-.24-16.81-2.44-7.19-2.2-14.48.64-20.5,3.48-7.37,8.83-10.74,9.05-10.87,1.03-.63,2.37-.31,3,.7.63,1.02.32,2.36-.7,2.99h0s-4.51,2.89-7.41,9.04c-2.37,5-2.53,11.13-.46,17.25,1.29,3.81,2.4,10.18.4,18.92-.11,1.14-1.64,13.45-8.8,17.27-.33.18-.68.26-1.02.26Z"/><path class="cls-1" d="M257.98,166.25c-.49,0-.98-.16-1.38-.5-.93-.77-1.06-2.14-.3-3.06,3.92-4.75,3.03-12.92,3.02-13-1.3-7.73-4.29-12.48-6.57-15.08-4.99-5.72-7.56-12.54-7.23-19.2.4-8.12,4.49-14.11,4.67-14.36.68-.98,2.03-1.24,3.02-.55.99.68,1.24,2.04.56,3.03-.03.05-3.56,5.27-3.9,12.11-.27,5.53,1.92,11.25,6.16,16.12,2.65,3.03,6.11,8.49,7.6,17.33.06.51,1.14,10.18-3.97,16.38-.43.52-1.05.79-1.68.79Z"/><path class="cls-1" d="M393.13,253.71c-.73,0-1.44-.36-1.85-1.02-.05-.09-2.92-4.52-9.04-7.41-5.01-2.36-11.13-2.53-17.25-.46-3.79,1.28-10.11,2.39-18.75.44-2.04-.15-13.56-1.28-17.27-8.25-.56-1.06-.16-2.38.9-2.95,1.06-.56,2.38-.16,2.95.9,2.3,4.31,10.8,5.77,13.88,5.96l.35.05c7.74,1.78,13.28.82,16.56-.28,7.19-2.43,14.47-2.2,20.5.65,7.37,3.48,10.74,8.82,10.87,9.05.63,1.02.32,2.36-.7,3-.36.22-.75.33-1.14.33Z"/><path class="cls-1" d="M343.6,263.32c-3.43,0-9.37-.58-13.65-4.1-.93-.77-1.06-2.14-.3-3.06.77-.93,2.14-1.06,3.06-.3,4.75,3.91,12.91,3.03,13,3.02,7.72-1.3,12.47-4.29,15.08-6.57,5.72-4.99,12.54-7.58,19.2-7.23,8.12.4,14.11,4.49,14.36,4.67.99.68,1.23,2.04.55,3.02-.68.99-2.04,1.24-3.03.56-.05-.04-5.28-3.56-12.11-3.9-5.54-.28-11.25,1.92-16.12,6.17-3.03,2.65-8.5,6.11-17.33,7.6-.16.02-1.19.14-2.73.14Z"/><path class="cls-1" d="M244.34,395.08c-.73,0-1.44-.37-1.85-1.03-.63-1.02-.32-2.36.7-2.99.1-.06,4.52-2.93,7.41-9.04,2.37-5,2.53-11.13.46-17.25-1.29-3.81-2.4-10.19-.4-18.92,0-.22,1.11-12.74,8.42-16.64,1.06-.57,2.37-.16,2.95.9.56,1.06.16,2.38-.9,2.94-4.33,2.31-5.93,10.51-6.18,13.47-1.82,8.04-.87,13.58.23,16.86,2.44,7.19,2.2,14.48-.64,20.51-3.49,7.37-8.83,10.73-9.05,10.87-.36.22-.75.33-1.14.33Z"/><path class="cls-1" d="M244.33,395.08c-.43,0-.85-.12-1.23-.38-.99-.68-1.24-2.04-.56-3.03.03-.05,3.56-5.27,3.9-12.11.27-5.53-1.92-11.25-6.16-16.12-2.65-3.03-6.11-8.49-7.6-17.33-.06-.51-1.14-10.18,3.97-16.38.77-.93,2.14-1.06,3.06-.3.93.77,1.06,2.14.3,3.06-3.92,4.75-3.03,12.92-3.02,13,1.3,7.73,4.29,12.48,6.57,15.08,4.99,5.72,7.56,12.54,7.23,19.2-.4,8.12-4.49,14.11-4.67,14.36-.42.61-1.1.94-1.79.94Z"/><path class="cls-1" d="M164.42,262.3c-.78,0-1.53-.42-1.93-1.15-2.33-4.38-10.68-6.38-13.71-6.78-7.95-1.82-13.48-.87-16.76.25-7.2,2.43-14.48,2.2-20.5-.65-7.37-3.48-10.74-8.82-10.87-9.05-.63-1.02-.32-2.36.7-3,1.02-.64,2.35-.32,2.99.7h0s2.89,4.51,9.04,7.41c5,2.37,11.13,2.53,17.25.46,3.81-1.29,10.2-2.4,18.92-.4.33.03,12.91,1.76,16.78,9.01.56,1.06.16,2.38-.9,2.94-.33.18-.68.26-1.02.26Z"/><path class="cls-1" d="M116.78,250.26c-.38,0-.77,0-1.15-.03-8.12-.4-14.11-4.49-14.36-4.67-.99-.68-1.23-2.04-.55-3.02.68-.99,2.04-1.24,3.03-.56.05.04,5.28,3.56,12.11,3.9,5.56.27,11.25-1.92,16.12-6.17,3.03-2.64,8.49-6.11,17.33-7.6.52-.07,10.18-1.14,16.38,3.97.93.77,1.06,2.14.3,3.06-.77.93-2.14,1.06-3.06.3-4.75-3.91-12.91-3.02-13-3.02-7.73,1.3-12.48,4.29-15.08,6.57-5.39,4.71-11.76,7.26-18.05,7.26Z"/><path class="cls-1" d="M300.07,183.62c-1.04,0-2.07-.13-3.05-.43-1.15-.35-1.8-1.57-1.45-2.72.35-1.15,1.55-1.79,2.71-1.45,4.73,1.46,13.03-3.92,15.57-5.91,6.92-4.35,10.16-8.94,11.69-12.04,3.37-6.81,8.68-11.79,14.96-14.04,7.67-2.75,13.83-1.35,14.09-1.29,1.17.28,1.89,1.45,1.62,2.62s-1.46,1.89-2.61,1.62c-.1-.02-5.27-1.13-11.63,1.15-5.21,1.87-9.66,6.08-12.52,11.87-1.78,3.6-5.5,8.9-13.1,13.66-.87.7-9.07,6.95-16.29,6.95Z"/><path class="cls-1" d="M314.65,197.97c-1.11,0-2.05-.84-2.16-1.97-.12-1.2.76-2.26,1.96-2.38,6.13-.59,11.28-6.99,11.33-7.05,4.54-6.38,5.79-11.85,6.02-15.31.51-7.58,3.52-14.21,8.46-18.69,6.02-5.45,13.15-6.8,13.45-6.86,1.19-.2,2.31.57,2.53,1.75s-.56,2.31-1.74,2.54c-.06.01-6.25,1.21-11.32,5.8-4.11,3.71-6.61,9.31-7.04,15.76-.28,4.02-1.69,10.34-6.89,17.63-.32.41-6.39,8-14.39,8.77-.07,0-.14.01-.21.01Z"/><path class="cls-1" d="M348.37,355.37c-.17,0-.33-.02-.5-.06-1.17-.28-1.89-1.44-1.62-2.61.02-.1,1.13-5.26-1.15-11.63-1.86-5.21-6.08-9.66-11.87-12.52-3.6-1.78-8.9-5.5-13.66-13.09-.2-.27-7.22-9.84-6.86-17.12.06-1.2,1.11-2.14,2.28-2.06,1.2.06,2.13,1.08,2.06,2.28-.24,4.75,4.33,12.05,6.11,14.46,4.31,6.87,8.89,10.11,11.99,11.64,6.81,3.37,11.8,8.68,14.05,14.96,2.75,7.67,1.35,13.83,1.29,14.09-.23,1-1.13,1.68-2.12,1.68Z"/><path class="cls-1" d="M348.36,355.37c-1.03,0-1.94-.73-2.14-1.78-.01-.06-1.21-6.25-5.8-11.32-3.72-4.1-9.31-6.6-15.76-7.04-4.01-.27-10.33-1.69-17.63-6.88-.41-.32-8-6.39-8.78-14.39-.12-1.2.76-2.26,1.96-2.38,1.12-.12,2.26.76,2.37,1.96.59,6.13,6.99,11.27,7.05,11.33,6.38,4.54,11.86,5.79,15.31,6.02,7.58.51,14.21,3.52,18.69,8.46,5.46,6.02,6.8,13.16,6.86,13.46.21,1.18-.57,2.31-1.75,2.53-.13.03-.27.04-.4.04Z"/><path class="cls-1" d="M147.1,350.48c-2.61,0-4.28-.38-4.41-.41-1.17-.28-1.89-1.45-1.62-2.62.27-1.17,1.45-1.88,2.61-1.62.09.02,5.26,1.13,11.63-1.15,5.21-1.87,9.66-6.08,12.52-11.87,1.78-3.59,5.46-8.84,12.95-13.57,1.23-1.06,9.39-7.72,16.86-5.44,1.15.35,1.8,1.57,1.45,2.72s-1.57,1.8-2.71,1.45c-4.68-1.42-10.85,2.87-12.85,4.65l-.29.22c-6.73,4.22-9.97,8.8-11.51,11.91-3.36,6.8-8.68,11.79-14.96,14.04-3.77,1.35-7.16,1.7-9.68,1.7Z"/><path class="cls-1" d="M143.18,350.13c-1.03,0-1.94-.73-2.14-1.78-.22-1.18.56-2.31,1.74-2.54.06-.01,6.25-1.21,11.32-5.8,4.11-3.71,6.61-9.31,7.04-15.76.28-4.02,1.69-10.34,6.89-17.63.32-.41,6.39-8,14.39-8.77,1.18-.13,2.26.76,2.38,1.96.12,1.2-.76,2.26-1.96,2.38-6.13.59-11.28,6.99-11.33,7.05-4.54,6.38-5.79,11.85-6.02,15.31-.51,7.58-3.52,14.21-8.46,18.69-6.02,5.45-13.15,6.8-13.45,6.86-.13.02-.27.04-.39.04Z"/><path class="cls-1" d="M180.04,200.08c-.21,0-.42-.03-.63-.1-1.15-.35-1.8-1.57-1.45-2.72,1.46-4.8-2.7-12.4-4.43-14.92-4.27-6.81-8.85-10.05-11.96-11.58-6.8-3.36-11.79-8.68-14.04-14.95-2.75-7.67-1.35-13.83-1.29-14.09.27-1.17,1.45-1.9,2.62-1.62,1.17.27,1.89,1.44,1.63,2.61-.02.08-1.14,5.25,1.15,11.63,1.86,5.21,6.08,9.66,11.87,12.52,3.61,1.78,8.9,5.5,13.66,13.1.25.36,7.33,10.79,4.96,18.58-.29.94-1.15,1.54-2.08,1.54Z"/><path class="cls-1" d="M196.29,183.84c-1.11,0-2.05-.84-2.16-1.97-.59-6.13-6.99-11.27-7.05-11.33-6.38-4.55-11.85-5.79-15.31-6.02-7.58-.51-14.21-3.52-18.69-8.46-5.45-6.02-6.8-13.16-6.86-13.45-.21-1.18.57-2.31,1.75-2.53,1.16-.22,2.32.56,2.53,1.74.01.06,1.21,6.25,5.8,11.32,3.71,4.11,9.31,6.61,15.76,7.04,4.01.27,10.33,1.68,17.63,6.89.41.32,8,6.39,8.78,14.39.12,1.2-.76,2.26-1.96,2.38-.07,0-.14.01-.21.01Z"/><path class="cls-1" d="M196.29,183.84c-.39,0-.79-.11-1.15-.33-1.02-.64-1.33-1.98-.69-3,2.55-4.09-.77-11.92-2.27-14.59l-.18-.43c-2.33-7.6-5.92-11.91-8.52-14.2-5.7-5.01-9.14-11.43-9.69-18.08-.67-8.12,2.28-13.71,2.4-13.94.57-1.06,1.88-1.46,2.95-.89,1.05.57,1.46,1.88.89,2.94h0s-2.46,4.76-1.9,11.53c.46,5.52,3.38,10.91,8.23,15.17,3,2.63,7.11,7.54,9.74,15.97.9,1.68,6.21,12.14,2.05,18.82-.41.66-1.12,1.03-1.85,1.03Z"/><path class="cls-1" d="M214.19,172.98c-.12,0-.24-.01-.36-.03-1.19-.2-1.99-1.32-1.79-2.51,1.02-6.11-3.83-12.7-3.88-12.76-4.99-6.04-9.96-8.66-13.23-9.78-7.18-2.45-12.82-7.08-15.86-13.01-3.71-7.23-3.17-14.47-3.14-14.77.1-1.2,1.14-2.07,2.34-1.99,1.2.1,2.09,1.14,2,2.34,0,.06-.45,6.35,2.68,12.44,2.52,4.93,7.28,8.79,13.4,10.88,3.81,1.3,9.54,4.3,15.25,11.21.31.41,6.07,8.25,4.75,16.17-.18,1.06-1.1,1.82-2.14,1.82Z"/><path class="cls-1" d="M320.55,199.47c-2.4,0-4.89-.47-7.05-1.82-1.02-.64-1.33-1.98-.7-3,.64-1.02,1.98-1.34,3-.7,4.16,2.58,11.27.18,13.66-.96,7.9-2.45,12.21-6.04,14.5-8.64,5.01-5.7,11.44-9.15,18.08-9.69,8.15-.68,13.71,2.28,13.94,2.4,1.06.57,1.46,1.89.89,2.95-.57,1.05-1.87,1.46-2.94.89-.11-.06-4.77-2.46-11.53-1.9-5.52.45-10.91,3.38-15.17,8.23-2.65,3.02-7.62,7.18-16.19,9.81-.09.06-5.09,2.43-10.49,2.43Z"/><path class="cls-1" d="M326.51,217.41c-.8,0-1.62-.06-2.43-.2-1.19-.2-1.99-1.32-1.79-2.51.19-1.19,1.34-1.98,2.5-1.79,6.08,1.02,12.7-3.83,12.77-3.88,6.04-4.99,8.66-9.96,9.78-13.23,2.46-7.19,7.08-12.82,13.01-15.86,7.24-3.71,14.47-3.16,14.77-3.14,1.2.1,2.09,1.15,1.99,2.34-.09,1.19-1.09,2.11-2.34,2-.05,0-6.35-.44-12.44,2.67-4.92,2.53-8.79,7.28-10.87,13.4-1.3,3.8-4.3,9.54-11.21,15.25-.37.28-6.72,4.95-13.74,4.95Z"/><path class="cls-1" d="M316.78,377.98c-.35,0-.7-.08-1.03-.26-1.06-.57-1.46-1.88-.89-2.94.06-.11,2.46-4.8,1.9-11.53-.45-5.52-3.37-10.91-8.22-15.17-3.02-2.66-7.18-7.62-9.81-16.19-.15-.4-4.46-12.36-.14-19.29.63-1.02,1.97-1.34,3-.7,1.02.64,1.33,1.98.69,3-2.65,4.25-.49,12.7.57,15.6,2.37,7.7,5.96,12.02,8.56,14.31,5.7,5.01,9.14,11.43,9.69,18.08.67,8.12-2.28,13.71-2.4,13.94-.39.73-1.14,1.15-1.92,1.15Z"/><path class="cls-1" d="M316.78,377.98c-.06,0-.12,0-.18,0-1.2-.1-2.09-1.14-2-2.34,0-.06.45-6.35-2.67-12.44-2.53-4.93-7.28-8.79-13.4-10.88-3.81-1.3-9.54-4.3-15.25-11.21-.31-.41-6.08-8.25-4.75-16.17.2-1.19,1.3-1.99,2.51-1.79,1.18.2,1.99,1.32,1.79,2.51-1.02,6.11,3.83,12.7,3.88,12.76,4.99,6.04,9.96,8.66,13.23,9.78,7.18,2.45,12.82,7.07,15.86,13.01,3.71,7.23,3.16,14.47,3.14,14.77-.1,1.14-1.04,2-2.17,2Z"/><path class="cls-1" d="M129.9,321.98c-6.8,0-11.33-2.39-11.54-2.5-1.06-.57-1.46-1.89-.89-2.95.57-1.05,1.87-1.46,2.94-.89.07.04,4.76,2.46,11.53,1.9,5.52-.45,10.91-3.37,15.17-8.23,2.65-3.02,7.62-7.18,16.18-9.81,1.18-.52,13.62-5.62,20.48-1.34,1.02.64,1.33,1.98.7,3-.63,1.02-1.97,1.34-3,.7-4.2-2.62-13.47.36-16.69,1.73-7.81,2.41-12.12,6-14.41,8.6-5.01,5.7-11.44,9.15-18.09,9.69-.83.07-1.63.1-2.4.1Z"/><path class="cls-1" d="M120.52,319.77c-.77,0-1.24-.04-1.31-.04-1.2-.1-2.09-1.15-1.99-2.34.09-1.2,1.05-2.13,2.34-2,.06.01,6.34.45,12.43-2.68,4.93-2.53,8.79-7.28,10.87-13.4,1.3-3.81,4.31-9.54,11.22-15.25.41-.31,8.23-6.07,16.16-4.75,1.19.2,1.99,1.32,1.79,2.51-.2,1.19-1.36,1.96-2.5,1.79-6.1-1.03-12.7,3.83-12.77,3.88-6.04,4.99-8.66,9.95-9.78,13.23-2.46,7.19-7.08,12.82-13.01,15.86-5.5,2.82-11.01,3.18-13.46,3.18Z"/><path class="cls-1" d="M257.98,166.25c-.99,0-1.88-.68-2.12-1.68-.27-1.17.46-2.34,1.63-2.61,4.8-1.11,8.55-8.47,9.59-11.21,3.83-7.27,4.35-12.86,4.12-16.31-.49-7.58,1.62-14.55,5.94-19.64,5.27-6.21,11.3-8.08,11.56-8.16,1.15-.35,2.37.31,2.71,1.46.35,1.15-.3,2.36-1.45,2.71-.12.04-5.13,1.66-9.5,6.81-3.58,4.22-5.32,10.1-4.91,16.55.26,4.01-.31,10.46-4.51,18.38-.07.24-4.51,11.8-12.56,13.67-.17.04-.33.06-.5.06Z"/><path class="cls-1" d="M279.13,172.12c-.68,0-1.35-.32-1.78-.91-.7-.98-.47-2.34.51-3.04,5.01-3.58,6.27-11.69,6.28-11.77.74-7.8-.92-13.16-2.44-16.27-3.34-6.81-4.06-14.06-2.02-20.41,2.49-7.74,7.99-12.47,8.23-12.67.92-.77,2.29-.66,3.06.25.78.91.67,2.29-.24,3.07-.05.04-4.81,4.17-6.91,10.68-1.7,5.27-1.06,11.37,1.78,17.16,1.77,3.61,3.71,9.79,2.85,18.71-.07.51-1.54,10.13-8.07,14.79-.38.27-.83.4-1.26.4Z"/><path class="cls-1" d="M387.02,291.58c-.94,0-1.8-.6-2.08-1.54h0c-.02-.05-1.62-5.1-6.81-9.5-4.22-3.58-10.12-5.3-16.55-4.91-4.01.27-10.46-.31-18.38-4.51-.31-.12-12.13-5.09-13.99-13.1-.27-1.17.46-2.34,1.63-2.61,1.17-.27,2.34.46,2.61,1.63,1.12,4.83,8.76,8.96,11.6,10.15,7.21,3.8,12.79,4.31,16.25,4.1,7.6-.51,14.56,1.62,19.64,5.93,6.21,5.27,8.08,11.3,8.16,11.56.35,1.15-.31,2.37-1.46,2.71-.21.06-.42.09-.63.09Z"/><path class="cls-1" d="M387.02,291.57c-.62,0-1.22-.26-1.66-.76-.04-.05-4.17-4.8-10.68-6.9-5.27-1.69-11.36-1.06-17.16,1.78-3.61,1.77-9.77,3.71-18.71,2.85-.51-.07-10.13-1.54-14.79-8.07-.7-.98-.47-2.34.51-3.04.99-.7,2.34-.47,3.04.51,3.58,5.01,11.69,6.27,11.77,6.28,7.79.74,13.16-.92,16.27-2.44,6.82-3.35,14.07-4.06,20.42-2.02,7.74,2.49,12.47,7.99,12.67,8.22.78.92.66,2.28-.25,3.06-.41.35-.91.52-1.41.52Z"/><path class="cls-1" d="M206.71,389.62c-.94,0-1.8-.61-2.09-1.55-.34-1.15.3-2.36,1.45-2.71.08-.02,5.11-1.64,9.5-6.81,3.58-4.22,5.32-10.09,4.9-16.54-.26-4.01.31-10.46,4.51-18.38.38-1.07,4.93-12.8,12.85-14.64,1.18-.27,2.34.46,2.61,1.63.27,1.17-.46,2.34-1.63,2.61-4.79,1.11-8.75,9.16-9.87,12.17-3.84,7.28-4.35,12.87-4.13,16.33.49,7.58-1.62,14.55-5.93,19.64-5.27,6.22-11.3,8.09-11.55,8.16-.21.06-.42.09-.63.09Z"/><path class="cls-1" d="M206.72,389.62c-.62,0-1.23-.26-1.66-.77-.78-.91-.67-2.29.24-3.07.05-.04,4.8-4.17,6.9-10.68,1.7-5.27,1.06-11.37-1.78-17.16-1.77-3.61-3.71-9.79-2.85-18.71.07-.51,1.54-10.13,8.07-14.79.98-.7,2.34-.47,3.04.51.7.98.47,2.34-.51,3.04-5.01,3.58-6.27,11.69-6.28,11.77-.74,7.8.92,13.16,2.44,16.27,3.34,6.81,4.06,14.07,2.02,20.42-2.49,7.74-7.99,12.47-8.22,12.67-.41.35-.91.52-1.4.52Z"/><path class="cls-1" d="M164.29,239.94c-.99,0-1.88-.68-2.12-1.69-1.11-4.76-8.86-8.33-11.75-9.3l-.33-.14c-7.02-3.72-12.6-4.23-16.07-4.01-7.58.51-14.55-1.62-19.64-5.93-6.21-5.27-8.09-11.3-8.16-11.56-.35-1.15.31-2.37,1.46-2.71,1.16-.35,2.36.3,2.71,1.45.02.06,1.63,5.11,6.81,9.5,4.22,3.58,10.07,5.31,16.54,4.91,3.98-.26,10.38.3,18.23,4.43,1.61.56,12.65,4.71,14.43,12.38.27,1.17-.46,2.34-1.63,2.61-.17.04-.33.06-.5.06Z"/><path class="cls-1" d="M169.56,219.06c-.68,0-1.35-.32-1.78-.91-3.6-5.04-11.69-6.27-11.77-6.28-7.82-.76-13.17.92-16.27,2.44-6.82,3.35-14.06,4.07-20.42,2.02-7.74-2.49-12.47-7.99-12.67-8.23-.78-.92-.66-2.28.25-3.06.92-.78,2.28-.67,3.07.24.04.05,4.17,4.81,10.68,6.91,5.28,1.69,11.37,1.06,17.16-1.78,3.61-1.77,9.78-3.71,18.71-2.85.51.07,10.13,1.54,14.79,8.07.7.98.47,2.34-.51,3.04-.38.27-.83.4-1.26.4Z"/><path class="cls-1" d="M169.55,219.06s-.05,0-.07,0c-1.2-.04-2.15-1.05-2.11-2.25.17-4.89-6.42-10.47-8.96-12.21-6.08-5.61-11.34-7.56-14.74-8.24-7.44-1.49-13.63-5.33-17.43-10.81-4.64-6.7-4.88-13.01-4.89-13.28-.04-1.2.91-2.21,2.11-2.24,1.26-.16,2.2.9,2.25,2.1h0c0,.05.25,5.35,4.12,10.94,3.15,4.55,8.38,7.75,14.71,9.02,3.94.79,10.02,3.01,16.59,9.11.19.1,10.89,7.46,10.61,15.75-.04,1.18-1.01,2.1-2.18,2.1Z"/><path class="cls-1" d="M180.04,200.08c-.88,0-1.71-.54-2.04-1.41-2.17-5.8-9.67-9.08-9.75-9.11-7.34-2.74-12.95-2.52-16.35-1.86-7.46,1.46-14.64.28-20.24-3.34-6.82-4.41-9.97-10.95-10.11-11.22-.51-1.09-.05-2.38,1.03-2.89,1.09-.51,2.38-.06,2.9,1.03.03.06,2.79,5.72,8.53,9.43,4.65,3,10.69,3.97,17.04,2.72,3.95-.78,10.42-1.04,18.81,2.09.48.2,9.38,4.11,12.2,11.62.42,1.13-.15,2.38-1.28,2.8-.25.09-.51.14-.76.14Z"/><path class="cls-1" d="M279.39,172.13c-.11,0-.22,0-.34,0-1.2-.04-2.15-1.05-2.11-2.25s1.1-2.2,2.25-2.1c.07,0,.13,0,.2,0,4.86,0,9.98-5.96,11.57-8.29,5.61-6.08,7.55-11.34,8.24-14.74,1.49-7.44,5.32-13.63,10.81-17.43,6.7-4.64,13.01-4.89,13.27-4.89.02,0,.05,0,.07,0,1.17,0,2.14.93,2.18,2.11.04,1.2-.9,2.2-2.1,2.24h0c-.05,0-5.35.25-10.94,4.12-4.55,3.15-7.75,8.38-9.02,14.71-.79,3.95-3.02,10.03-9.11,16.59-.09.17-6.82,9.94-14.96,9.94Z"/><path class="cls-1" d="M297.65,183.28c-.88,0-1.71-.54-2.04-1.41-.42-1.13.15-2.38,1.28-2.8,5.8-2.17,9.08-9.67,9.11-9.74,2.74-7.35,2.52-12.95,1.85-16.35-1.47-7.45-.28-14.64,3.34-20.24,4.4-6.83,10.95-9.98,11.22-10.11,1.09-.52,2.38-.05,2.89,1.03.52,1.08.05,2.38-1.03,2.9-.06.03-5.72,2.78-9.43,8.53-3,4.65-3.97,10.7-2.72,17.04.78,3.95,1.04,10.41-2.09,18.81-.2.48-4.11,9.38-11.63,12.2-.25.09-.51.14-.76.14Z"/><path class="cls-1" d="M371.38,326.31c-1.17,0-2.14-.93-2.18-2.1h0c0-.05-.25-5.35-4.12-10.94-3.15-4.55-8.38-7.75-14.71-9.02-3.94-.79-10.02-3.01-16.59-9.11-.24-.16-10.45-7.76-10.18-16.01.04-1.2,1-2.21,2.25-2.1,1.2.04,2.15,1.05,2.11,2.25-.17,4.96,6.15,10.71,8.6,12.51,6.02,5.57,11.28,7.51,14.67,8.19,7.45,1.49,13.64,5.33,17.44,10.81,4.64,6.7,4.88,13.01,4.89,13.28.04,1.2-.91,2.21-2.11,2.24-.02,0-.05,0-.07,0Z"/><path class="cls-1" d="M371.39,326.31c-.81,0-1.6-.46-1.97-1.24-.03-.06-2.79-5.72-8.53-9.43-4.65-3-10.7-3.96-17.04-2.72-3.95.78-10.41,1.04-18.81-2.09-.48-.2-9.38-4.11-12.2-11.63-.42-1.13.15-2.38,1.28-2.8,1.12-.42,2.38.15,2.8,1.28,2.16,5.77,9.67,9.08,9.75,9.11,7.34,2.73,12.95,2.52,16.34,1.85,7.45-1.47,14.64-.28,20.25,3.34,6.82,4.41,9.97,10.95,10.11,11.22.51,1.09.05,2.38-1.03,2.89-.3.14-.62.21-.93.21Z"/><path class="cls-1" d="M171.32,374.57c-1.17,0-2.14-.93-2.18-2.11-.04-1.2.9-2.2,2.1-2.24h0c.05,0,5.35-.25,10.94-4.12,4.55-3.15,7.75-8.38,9.02-14.71.79-3.95,3.02-10.03,9.12-16.59.73-.98,8.52-11.02,16.66-10.77,1.2.04,2.15,1.05,2.11,2.25-.04,1.2-1.07,2.15-2.25,2.1-4.93-.26-11.2,6.59-13.18,9.21-5.55,5.98-7.49,11.25-8.18,14.65-1.49,7.44-5.32,13.64-10.81,17.43-6.7,4.64-13.01,4.88-13.27,4.89-.02,0-.05,0-.07,0Z"/><path class="cls-1" d="M171.32,374.57c-.81,0-1.6-.46-1.97-1.24-.52-1.08-.05-2.38,1.03-2.9.06-.03,5.72-2.79,9.43-8.53,3-4.65,3.97-10.71,2.72-17.04-.78-3.95-1.04-10.41,2.09-18.81.2-.48,4.11-9.38,11.63-12.2,1.12-.41,2.38.15,2.8,1.28.42,1.13-.15,2.38-1.28,2.8-5.8,2.17-9.08,9.67-9.11,9.74-2.74,7.34-2.52,12.95-1.85,16.35,1.47,7.45.28,14.63-3.33,20.24-4.41,6.83-10.95,9.97-11.23,10.11-.3.14-.62.21-.93.21Z"/><path class="cls-1" d="M214.19,172.98c-.58,0-1.16-.23-1.59-.69-.82-.88-.77-2.26.11-3.08,3.65-3.41,3.47-12.15,3.1-15.23-.31-8.12-2.65-13.22-4.58-16.1-4.21-6.32-5.87-13.41-4.68-19.97,1.46-8.02,5.75-12.65,5.93-12.85.83-.88,2.2-.92,3.07-.09.87.82.92,2.2.1,3.07-.09.09-3.62,4-4.82,10.65-.99,5.45.44,11.41,4.02,16.78,2.23,3.35,4.96,9.22,5.29,18.17.05.36,1.53,13.15-4.46,18.75-.42.39-.95.59-1.49.59Z"/><path class="cls-1" d="M235.84,166.87c-.3,0-.61-.06-.9-.2-1.1-.5-1.58-1.79-1.08-2.88,2.55-5.6-.42-13.26-.45-13.34-3.26-7.13-7.37-10.94-10.25-12.87-6.3-4.23-10.55-10.15-11.96-16.67-1.71-7.94.69-14.79.79-15.08.41-1.13,1.65-1.72,2.78-1.32s1.72,1.64,1.32,2.78c-.02.06-2.07,6.02-.63,12.7,1.16,5.41,4.76,10.37,10.13,13.97,3.34,2.24,8.1,6.62,11.82,14.78.19.48,3.73,9.54.4,16.85-.36.8-1.15,1.27-1.98,1.27Z"/><path class="cls-1" d="M335.87,220.77c-4.29,0-9.8-.78-13.01-4.22-.82-.88-.78-2.26.1-3.08.88-.82,2.25-.78,3.07.1,3.36,3.59,12.28,2.93,15.44,2.37,8.24-.32,13.34-2.67,16.22-4.59,6.32-4.21,13.42-5.87,19.97-4.68,8.02,1.45,12.66,5.75,12.85,5.93.88.82.92,2.2.1,3.08s-2.2.92-3.07.1c-.09-.08-4-3.61-10.65-4.82-5.47-.99-11.41.44-16.78,4.02-3.35,2.23-9.22,4.96-18.17,5.29-.46.09-2.93.5-6.06.5Z"/><path class="cls-1" d="M337.14,239.38c-2.34,0-4.83-.36-7.15-1.42-1.1-.5-1.58-1.79-1.08-2.88.49-1.1,1.79-1.58,2.88-1.08,5.62,2.55,13.26-.41,13.34-.45,7.13-3.26,10.94-7.37,12.86-10.25,4.23-6.31,10.15-10.55,16.67-11.96,7.96-1.71,14.8.69,15.09.79,1.13.4,1.71,1.65,1.31,2.78s-1.66,1.72-2.78,1.32c-.06-.02-6.04-2.07-12.7-.64-5.42,1.17-10.38,4.76-13.98,10.13-2.24,3.34-6.62,8.1-14.77,11.83-.33.13-4.66,1.82-9.7,1.82Z"/><path class="cls-1" d="M281.88,391.43c-.53,0-1.07-.2-1.49-.59-.87-.82-.92-2.19-.1-3.07h0s3.61-3.96,4.82-10.65c.99-5.45-.44-11.41-4.02-16.78-2.21-3.32-4.92-9.13-5.28-17.99-.34-1.71-2.36-13.27,3.39-18.65.88-.82,2.25-.78,3.07.1.82.88.78,2.26-.1,3.08-3.56,3.33-2.7,11.77-2.06,14.75l.05.37c.29,7.94,2.64,13.04,4.55,15.92,4.21,6.32,5.87,13.41,4.68,19.97-1.46,8.02-5.75,12.65-5.93,12.85-.43.46-1.01.69-1.59.69Z"/><path class="cls-1" d="M281.89,391.43c-.24,0-.49-.04-.73-.13-1.13-.4-1.72-1.65-1.32-2.78.02-.06,2.08-6.01.63-12.7-1.16-5.41-4.76-10.37-10.12-13.98-3.34-2.24-8.1-6.62-11.82-14.78-.19-.48-3.73-9.54-.41-16.85.5-1.1,1.79-1.58,2.88-1.08s1.58,1.79,1.08,2.88c-2.55,5.6.41,13.26.45,13.34,3.26,7.13,7.37,10.94,10.25,12.87,6.31,4.23,10.55,10.16,11.96,16.67,1.71,7.94-.69,14.79-.79,15.08-.32.89-1.16,1.44-2.05,1.44Z"/><path class="cls-1" d="M121.86,289.8c-1.42,0-2.83-.13-4.21-.38-8.02-1.46-12.65-5.74-12.85-5.93-.88-.82-.92-2.2-.1-3.08.82-.88,2.2-.92,3.07-.1h0s3.96,3.61,10.65,4.82c5.47.99,11.41-.44,16.78-4.02,3.35-2.23,9.21-4.96,18.17-5.29.26-.06,12.47-1.88,18.11,4.15.82.88.77,2.26-.11,3.08-.87.82-2.26.78-3.08-.1-3.37-3.61-11.63-3.25-14.51-2.8-8.19.31-13.29,2.66-16.17,4.58-4.98,3.32-10.45,5.06-15.76,5.06Z"/><path class="cls-1" d="M114.73,285.36c-5.17,0-8.96-1.33-9.17-1.4-1.13-.4-1.71-1.65-1.31-2.78.4-1.13,1.65-1.72,2.78-1.32.06.02,6.02,2.07,12.7.63,5.41-1.17,10.37-4.76,13.97-10.12,2.24-3.34,6.63-8.1,14.78-11.83.48-.2,9.54-3.73,16.85-.41,1.1.5,1.58,1.79,1.08,2.88-.5,1.1-1.8,1.57-2.88,1.08-5.59-2.55-13.26.42-13.34.45-7.12,3.26-10.94,7.37-12.87,10.25-4.23,6.3-10.15,10.55-16.67,11.95-2.08.45-4.08.61-5.91.61Z"/><circle class="cls-1" cx="262.11" cy="118.94" r="4.64"/><circle class="cls-1" cx="294.41" cy="127.13" r="4.64"/><circle class="cls-1" cx="323.94" cy="142.87" r="4.64"/><circle class="cls-1" cx="349.04" cy="167.19" r="4.64"/><circle class="cls-1" cx="366.64" cy="195.8" r="4.64"/><circle class="cls-1" cx="375.92" cy="228.23" r="4.64"/><circle class="cls-1" cx="375.7" cy="262.9" r="4.64"/><circle class="cls-1" cx="367.51" cy="295.2" r="4.64"/><circle class="cls-1" cx="351.77" cy="324.73" r="4.64"/><circle class="cls-1" cx="327.45" cy="349.82" r="4.64"/><circle class="cls-1" cx="298.84" cy="367.43" r="4.64"/><circle class="cls-1" cx="266.41" cy="376.71" r="4.64"/><circle class="cls-1" cx="227.85" cy="119.44" r="4.64"/><circle class="cls-1" cx="195.95" cy="129.05" r="4.64"/><circle class="cls-1" cx="167.14" cy="146.08" r="4.64"/><circle class="cls-1" cx="143.14" cy="171.48" r="4.64"/><circle class="cls-1" cx="126.82" cy="200.83" r="4.64"/><circle class="cls-1" cx="118.98" cy="233.64" r="4.64"/><circle class="cls-1" cx="120.73" cy="268.27" r="4.64"/><circle class="cls-1" cx="130.34" cy="300.17" r="4.64"/><circle class="cls-1" cx="147.36" cy="328.98" r="4.64"/><circle class="cls-1" cx="172.77" cy="352.98" r="4.64"/><circle class="cls-1" cx="202.12" cy="369.31" r="4.64"/><circle class="cls-1" cx="234.93" cy="377.15" r="4.64"/><path class="cls-1" d="M45.54,223.73c5.64-.08,11.37-.56,16.89.11,1.81.52,3.61,1.21,5.31,2.63.14.11.11.36-.05.43-3.86,1.85-7.51,1.38-11.29.14-3.65-.86-7.3-1.76-10.91-2.88-.23-.06-.19-.43.05-.43h0Z"/><path class="cls-1" d="M45.48,267.14c5.45-1.45,10.89-3.32,16.41-4,1.89.06,3.79.3,5.79,1.26.17.08.2.32.05.43-3.29,2.73-6.94,3.17-10.91,2.88-3.75.05-7.51.07-11.29-.14-.24,0-.29-.37-.05-.43h0Z"/><g id="Thorn_ring"><path class="cls-1" d="M266.97,84.79c-.66,0-1.27-.05-1.79-.14-7.14-1.28-9.58-7.17-9.92-10.3-1.77-6.37-6.49-6.43-7-6.38-6.58,0-8.53,5.64-8.55,5.69-.38,1.14-1.6,1.76-2.76,1.38-1.14-.38-1.76-1.61-1.37-2.75,1-3,4.92-8.67,12.59-8.67,2.84-.16,9.21,1.66,11.35,9.78l.06.38c.05.55.69,5.56,6.34,6.57.6.1,6.26.8,7.98-5.01.34-1.15,1.55-1.81,2.71-1.47,1.15.34,1.81,1.55,1.47,2.71-1.94,6.53-7.39,8.2-11.11,8.2Z"/><path class="cls-1" d="M248.37,45.38c.77,5.59,1.95,11.22,1.96,16.78-.29,1.86-.76,3.73-1.96,5.59-.1.16-.34.16-.44,0-2.31-3.6-2.29-7.28-1.52-11.19.41-3.73.85-7.46,1.52-11.19.04-.23.4-.24.44,0h0Z"/><path class="cls-1" d="M263.4,94.07c-.34-3.44-1.09-7-.67-10.31.15-.55,1.77-3.48,2.8-3.06,1.05,1.27,1.37,2.45,1.52,3.6-.42,3.31-2.03,6.57-3.22,9.82-.08.2-.4.16-.43-.05h0Z"/><path class="cls-1" d="M321.65,99.88c-2.26,0-4.3-.64-5.63-1.33-6.38-3.44-6.86-9.8-6.21-12.88.31-6.59-4.15-8.09-4.67-8.24-6.07-1.99-9.38,3.44-9.52,3.67-.61,1.03-1.95,1.37-2.98.76-1.03-.61-1.38-1.95-.77-2.98,1.79-3.01,7.11-8.05,14.53-5.61,2.82.76,8.23,4.46,7.74,12.84l-.06.38c-.12.54-1.08,5.5,3.97,8.22.54.28,5.7,2.71,9.14-2.27.68-.98,2.03-1.23,3.03-.55.99.68,1.23,2.04.55,3.03-2.63,3.79-6.09,4.96-9.14,4.96Z"/><path class="cls-1" d="M312.32,55.99c-1.01,5.55-1.64,11.27-3.38,16.55-.86,1.68-1.89,3.3-3.61,4.7-.14.12-.37.04-.41-.14-1.06-4.14.09-7.63,2.04-11.1,1.55-3.41,3.14-6.82,4.94-10.15.11-.21.46-.1.41.14h0Z"/><path class="cls-1" d="M311.39,106.94c.75-3.38,1.15-6.99,2.58-10.01.75-.89,1.65-1.71,3.22-2.21.16-.05.33.03.39.19,1.09,2.84.31,4.84-1.52,6.76-1.34,1.86-2.71,3.71-4.28,5.46-.14.17-.43.03-.39-.19h0Z"/><path class="cls-1" d="M295.08,89.47c-1.28,0-2.43-.19-3.32-.45-6.93-2.13-8.65-8.27-8.6-11.42-.98-6.52-5.65-7.13-6.19-7.17-6.38-.75-8.53,5.2-8.62,5.46-.4,1.13-1.64,1.73-2.78,1.33-1.13-.4-1.73-1.64-1.33-2.78,1.16-3.3,5.37-9.27,13.16-8.34,2.91.19,8.94,2.77,10.1,11.08l.03.19v.2c-.02.55,0,5.6,5.49,7.29.59.17,6.13,1.54,8.53-4.01.48-1.1,1.77-1.61,2.86-1.13,1.11.48,1.61,1.76,1.13,2.86-2.35,5.43-6.89,6.89-10.46,6.89Z"/><path class="cls-1" d="M279.82,48.01c.09,5.64.59,11.37-.08,16.89-.51,1.82-1.2,3.61-2.62,5.32-.11.14-.36.12-.43-.05-1.85-3.86-1.4-7.5-.17-11.29.86-3.65,1.75-7.3,2.86-10.92.06-.23.43-.19.43.05h0Z"/><path class="cls-1" d="M288.87,98.16c.08-3.46-.24-7.08.57-10.32.56-1.02,1.29-2,2.73-2.8.15-.08.33-.03.42.11,1.62,2.57,1.25,4.69-.17,6.93-.95,2.09-1.93,4.16-3.13,6.19-.11.19-.42.11-.42-.11h0Z"/><path class="cls-1" d="M368.23,131.49c-3.76,0-6.9-2.05-8.45-3.69-4.92-5.32-3.32-11.5-1.7-14.2,2.42-6.13-1.31-9-1.75-9.31-5.05-3.8-9.99.22-10.2.4-.92.77-2.29.65-3.06-.26-.77-.92-.66-2.28.25-3.06,2.66-2.27,9.33-5.31,15.57-.61,2.42,1.63,6.34,6.88,3.16,14.65l-.18.35c-.29.47-2.8,4.85,1.1,9.07.42.43,4.53,4.4,9.39.82.97-.72,2.33-.51,3.04.46.71.97.51,2.33-.46,3.04-2.31,1.71-4.6,2.35-6.7,2.35Z"/><path class="cls-1" d="M370.05,86.34c-1.71,3.38-3.61,6.62-5.53,9.84-1.74,3.58-3.95,6.52-7.96,8.01-.13.05-.28-.02-.33-.15.22-4.29,2.54-7.29,5.51-9.95,2.58-2.73,5.18-5.43,7.96-8.01.17-.16.46.05.35.26h0Z"/><path class="cls-1" d="M352.69,134.25c1.8-2.94,3.36-6.26,5.68-8.63,1-.6,2.12-1.08,3.76-1.05.17,0,.3.14.31.3.12,3.04-1.27,4.68-3.63,5.91-1.87,1.33-3.76,2.63-5.81,3.78-.19.11-.42-.11-.31-.3h0Z"/><path class="cls-1" d="M346.84,113.11c-2.88,0-5.44-1.12-6.93-2.17-5.87-4.26-5.5-10.62-4.45-13.59,1.18-6.49-3.04-8.57-3.53-8.79-5.69-2.75-9.76,2.17-9.93,2.38-.76.93-2.12,1.08-3.06.34-.94-.75-1.1-2.11-.36-3.05,2.17-2.74,8.12-7.04,15.15-3.64,2.69,1.12,7.56,5.51,5.97,13.75l-.11.37c-.19.52-1.8,5.3,2.85,8.68.5.35,5.29,3.44,9.36-1.03.81-.89,2.19-.95,3.07-.15.89.81.95,2.19.14,3.07-2.6,2.86-5.53,3.81-8.19,3.81Z"/><path class="cls-1" d="M341.88,68.27c-1.02,3.65-2.24,7.2-3.5,10.73-1.01,3.85-2.6,7.17-6.24,9.41-.12.07-.28.04-.36-.09-.62-4.25,1.07-7.65,3.46-10.84,1.99-3.18,4.01-6.34,6.24-9.41.13-.19.47-.04.39.19h0Z"/><path class="cls-1" d="M334.22,118.65c1.19-3.23,2.07-6.8,3.88-9.58.86-.79,1.87-1.48,3.49-1.77.17-.03.33.08.37.24.71,2.96-.34,4.84-2.41,6.5-1.57,1.67-3.17,3.32-4.96,4.84-.16.15-.43-.03-.37-.24h0Z"/><path class="cls-1" d="M386.82,152.75c-4.49,0-7.9-2.95-9.35-5.06-4.05-6.01-1.52-11.87.49-14.29,3.34-5.69.09-9.1-.3-9.47-4.45-4.59-9.9-1.32-10.13-1.18-1.03.64-2.37.31-3-.71-.63-1.02-.31-2.36.71-3,2.97-1.84,10.04-3.82,15.47,1.78,2.14,1.98,5.21,7.77.88,14.96l-.23.31c-.36.42-3.51,4.36-.31,9.13.35.5,3.8,5.04,9.15,2.25,1.08-.56,2.38-.14,2.94.92.56,1.06.15,2.38-.92,2.94-1.93,1.01-3.74,1.41-5.41,1.41Z"/><path class="cls-1" d="M393.96,108.29c-3.48,4.44-6.69,9.21-10.68,13.09-1.54,1.09-3.21,2.05-5.38,2.49-.18.04-.35-.13-.3-.31.98-4.16,3.63-6.72,6.97-8.88,2.96-2.3,5.95-4.58,9.09-6.69.19-.14.45.12.3.31h0Z"/><path class="cls-1" d="M369.47,152.98c2.23-2.63,4.28-5.67,6.93-7.66,1.08-.44,2.26-.75,3.88-.46.17.03.28.18.26.35-.35,3.02-1.98,4.43-4.49,5.28-2.05,1.03-4.12,2.02-6.32,2.84-.2.08-.4-.18-.26-.35h0Z"/><path class="cls-1" d="M413.6,202.13c-6.48,0-9.82-5.21-10.72-8.26-1.97-6.98,2.26-11.75,4.93-13.42,4.95-4.36,2.92-8.61,2.67-9.09-2.77-5.69-9.01-4.34-9.27-4.28-1.18.27-2.34-.46-2.61-1.63-.27-1.17.45-2.33,1.61-2.61,3.4-.81,10.73-.49,14.14,6.53,1.42,2.55,2.53,9.01-3.83,14.49l-.32.23c-.47.29-4.7,3.05-3.14,8.58.18.58,2.02,5.99,7.99,4.99,1.21-.18,2.31.61,2.5,1.79.2,1.19-.6,2.31-1.79,2.51-.76.13-1.48.18-2.17.18Z"/><path class="cls-1" d="M430.86,161.59c-4.69,3.13-9.23,6.66-14.23,9.1-1.8.55-3.69.95-5.89.68-.18-.02-.29-.24-.19-.39,2.23-3.65,5.54-5.25,9.39-6.26,3.53-1.26,7.08-2.49,10.73-3.52.23-.07.39.26.19.39h0Z"/><path class="cls-1" d="M393.63,196.39c2.93-1.8,5.84-4.05,8.98-5.11,1.16-.09,2.38,0,3.83.77.15.08.21.26.14.41-1.28,2.76-3.26,3.59-5.92,3.61-2.27.33-4.54.64-6.89.73-.22.02-.32-.29-.14-.41h0Z"/><path class="cls-1" d="M402.77,176.05c-5.15,0-8.63-3.75-9.93-6.23-3.29-6.46-.08-11.97,2.2-14.13,4-5.25,1.18-9.02.85-9.43-3.83-5.04-9.68-2.49-9.93-2.38-1.1.5-2.39,0-2.88-1.08-.5-1.09-.02-2.37,1.06-2.88,3.18-1.46,10.43-2.58,15.15,3.64,1.89,2.22,4.24,8.35-.93,14.96l-.26.28c-.41.38-4.01,3.91-1.4,9.03.29.54,3.15,5.47,8.81,3.33,1.12-.42,2.38.14,2.81,1.27s-.14,2.38-1.27,2.81c-1.53.58-2.97.82-4.29.82Z"/><path class="cls-1" d="M413.96,132.7c-3.99,3.99-7.75,8.34-12.18,11.7-1.66.89-3.43,1.65-5.64,1.82-.18.02-.33-.18-.26-.35,1.48-4.02,4.41-6.23,7.99-7.98,3.22-1.93,6.46-3.83,9.83-5.55.21-.11.43.17.26.35h0Z"/><path class="cls-1" d="M384.26,174.11c2.53-2.34,4.93-5.12,7.81-6.77,1.12-.31,2.33-.47,3.91,0,.16.05.26.22.22.38-.71,2.95-2.5,4.16-5.1,4.7-2.16.77-4.33,1.51-6.62,2.06-.21.06-.37-.22-.22-.38h0Z"/><path class="cls-1" d="M422.28,257.49c-.12,0-.24-.01-.36-.03-7.92-1.32-9.73-8.3-9.58-11.81.39-7.24,5.94-10.39,9-11.11,6.1-2.53,5.55-7.21,5.47-7.74-.78-6.28-7.12-7.02-7.39-7.05-1.19-.13-2.06-1.19-1.94-2.38.12-1.2,1.25-2.05,2.36-1.95,3.48.33,10.32,3,11.27,10.75.52,2.87-.53,9.34-8.31,12.47l-.37.11c-.54.12-5.43,1.37-5.75,7.1-.02.61-.02,6.31,5.95,7.31,1.19.2,1.99,1.32,1.79,2.51-.18,1.06-1.1,1.82-2.14,1.82ZM421.99,236.63h.03-.03Z"/><path class="cls-1" d="M449.25,224.16c-5.45,1.45-10.89,3.32-16.41,4-1.89-.06-3.79-.3-5.79-1.26-.17-.08-.2-.32-.05-.43,3.29-2.73,6.94-3.17,10.91-2.88,3.75-.05,7.51-.07,11.29.14.24,0,.29.37.05.43h0Z"/><path class="cls-1" d="M402.77,245.05c3.37-.76,6.82-1.94,10.15-1.93.56.09,3.67,1.32,3.38,2.4-1.13,1.2-2.26,1.66-3.39,1.95-3.34,0-6.77-1.21-10.14-1.99-.21-.06-.21-.38,0-.44h0Z"/><path class="cls-1" d="M421.87,229.37c-7.69,0-10.72-6.31-11.25-9.72-1.03-7.18,3.79-11.35,6.65-12.65,5.48-3.67,4.04-8.15,3.85-8.66-1.99-6-8.34-5.49-8.62-5.47-1.21.12-2.26-.77-2.37-1.96-.12-1.19.74-2.25,1.94-2.38,3.44-.35,10.7.92,13.16,8.34,1.07,2.71,1.31,9.27-5.72,13.85l-.34.18c-.51.22-5.06,2.4-4.24,8.09.1.6,1.1,6.19,7.26,6,.02,0,.05,0,.07,0,1.17,0,2.14.93,2.18,2.11.04,1.2-.9,2.21-2.11,2.25-.15,0-.3,0-.45,0Z"/><path class="cls-1" d="M442.61,191.36c-5.06,2.48-10.03,5.38-15.31,7.13-1.86.31-3.78.45-5.93-.1-.18-.04-.26-.27-.14-.41,2.7-3.32,6.19-4.47,10.14-4.96,3.67-.78,7.35-1.53,11.1-2.07.23-.04.35.31.14.41h0Z"/><path class="cls-1" d="M401.11,220.93c3.16-1.4,6.3-3.24,9.58-3.88.57-.03,3.86.58,3.78,1.7-.88,1.39-1.89,2.07-2.94,2.57-3.27.64-6.88.13-10.33.03-.22-.01-.28-.33-.08-.43h0Z"/><path class="cls-1" d="M227.78,84.79c-3.74,0-9.18-1.67-11.12-8.2-.34-1.15.32-2.36,1.47-2.71,1.15-.35,2.36.31,2.71,1.47,1.72,5.81,7.38,5.1,8.02,5,5.62-1.01,6.25-6.01,6.3-6.58l.06-.37c2.1-7.95,8.15-9.77,11.29-9.79,7.65-.72,11.54,5.06,12.51,8.26.35,1.15-.3,2.37-1.45,2.72-1.14.35-2.36-.29-2.71-1.44-.2-.61-2.07-5.88-8.05-5.19l-.18.02h-.18c-.46-.02-5.22,0-6.98,6.37-.34,3.13-2.78,9.02-9.89,10.29-.53.09-1.14.14-1.81.14Z"/><path class="cls-1" d="M230.91,94.13c-1.18-3.25-2.8-6.51-3.22-9.82.01-.57.84-3.81,1.95-3.66,1.33.97,1.94,2.03,2.37,3.11.42,3.31-.33,6.87-.67,10.31-.03.22-.35.26-.43.05h0Z"/><path class="cls-1" d="M173.09,99.88c-3.06,0-6.51-1.17-9.14-4.96-.68-.99-.44-2.35.55-3.03.99-.69,2.34-.44,3.03.55,3.45,4.98,8.61,2.54,9.18,2.25,5.02-2.71,4.06-7.67,3.94-8.22l-.05-.37c-.49-8.37,4.92-12.08,7.85-12.87,7.32-2.4,12.63,2.64,14.42,5.65.61,1.03.27,2.37-.77,2.98-1.03.61-2.37.28-2.98-.76-.16-.26-3.5-5.65-9.43-3.7-.61.18-5.07,1.68-4.76,8.27.66,3.08.17,9.44-6.18,12.87-1.33.7-3.38,1.34-5.65,1.34Z"/><path class="cls-1" d="M182.83,55.86c2.47,5.07,5.36,10.04,7.1,15.33.3,1.86.44,3.78-.12,5.93-.04.18-.27.26-.41.14-3.32-2.7-4.45-6.2-4.94-10.15-.77-3.67-1.52-7.35-2.04-11.1-.04-.23.31-.35.41-.14h0Z"/><path class="cls-1" d="M182.95,107.13c-2.13-2.71-4.7-5.33-6.12-8.32-.22-1.14-.28-2.36.32-3.9.06-.16.23-.24.39-.19,2.89.95,3.95,2.82,4.28,5.46.6,2.21,1.16,4.44,1.52,6.76.04.22-.25.35-.39.19h0Z"/><path class="cls-1" d="M199.66,89.47c-3.58,0-8.11-1.47-10.46-6.89-.48-1.1.03-2.39,1.13-2.86,1.1-.47,2.38.03,2.86,1.13,2.4,5.55,7.95,4.18,8.57,4,5.45-1.68,5.48-6.72,5.46-7.29v-.18s.02-.19.02-.19c1.15-8.31,7.18-10.89,10.21-11.09,7.64-.95,11.87,5.06,13.03,8.35.4,1.13-.2,2.38-1.33,2.78-1.13.4-2.37-.2-2.77-1.32-.1-.27-2.36-6.25-8.52-5.47-.63.06-5.3.66-6.28,7.18.04,3.15-1.67,9.29-8.58,11.41-.89.26-2.06.45-3.34.45Z"/><path class="cls-1" d="M215.35,47.96c1.44,5.45,3.29,10.9,3.97,16.42-.07,1.89-.31,3.79-1.27,5.79-.08.17-.32.2-.43.05-2.72-3.3-3.16-6.95-2.86-10.92-.04-3.75-.05-7.51.17-11.29,0-.24.37-.29.43-.05h0Z"/><path class="cls-1" d="M205.44,98.27c-1.56-3.07-3.57-6.15-4.38-9.36,0-1.16.19-2.37,1.08-3.76.09-.14.28-.19.42-.11,2.65,1.49,3.32,3.54,3.13,6.19.15,2.29.27,4.58.17,6.93,0,.22-.32.3-.42.11h0Z"/><path class="cls-1" d="M126.5,131.49c-2.1,0-4.38-.64-6.69-2.35-.97-.71-1.17-2.08-.46-3.04.71-.96,2.07-1.18,3.04-.46,4.87,3.6,8.96-.38,9.41-.85,3.87-4.19,1.36-8.57,1.06-9.05l-.17-.33c-3.18-7.77.74-13.02,3.26-14.72,6.13-4.64,12.81-1.59,15.47.68.92.78,1.02,2.15.24,3.07-.78.91-2.15,1.02-3.06.25-.24-.2-5.17-4.19-10.12-.45-.51.37-4.25,3.23-1.83,9.36,1.62,2.7,3.22,8.87-1.69,14.18-1.56,1.65-4.71,3.71-8.47,3.71Z"/><path class="cls-1" d="M125.04,86.08c3.98,3.99,8.32,7.77,11.68,12.21.89,1.66,1.64,3.43,1.81,5.64.02.18-.18.33-.35.26-4.01-1.49-6.22-4.43-7.96-8.01-1.92-3.22-3.81-6.47-5.53-9.84-.11-.21.18-.43.35-.26h0Z"/><path class="cls-1" d="M141.74,134.55c-2.89-1.87-6.18-3.52-8.49-5.9-.58-1.01-1.03-2.15-.96-3.79,0-.17.15-.3.31-.3,3.04-.04,4.65,1.39,5.81,3.78,1.28,1.9,2.54,3.83,3.63,5.91.11.19-.12.42-.31.3h0Z"/><path class="cls-1" d="M147.9,113.11c-2.67,0-5.6-.96-8.19-3.81-.81-.89-.74-2.27.14-3.07.89-.81,2.27-.75,3.07.14,4.19,4.61,9.18,1.17,9.39,1.02,4.78-3.46,2.91-8.45,2.83-8.66l-.11-.37c-1.6-8.24,3.28-12.62,6.08-13.79,6.92-3.35,12.87.94,15.04,3.69.74.94.59,2.31-.36,3.06-.94.74-2.3.59-3.05-.35-.17-.21-4.23-5.14-9.84-2.42-.58.26-4.8,2.34-3.62,8.83,1.06,2.96,1.42,9.33-4.43,13.57-1.5,1.06-4.07,2.18-6.95,2.18Z"/><path class="cls-1" d="M153.25,68.08c3.12,4.7,6.64,9.25,9.07,14.25.55,1.81.94,3.69.67,5.89-.02.18-.24.29-.39.19-3.64-2.24-5.23-5.56-6.24-9.41-1.25-3.54-2.48-7.09-3.5-10.73-.07-.23.26-.39.39-.19h0Z"/><path class="cls-1" d="M160.16,118.89c-2.47-2.4-5.37-4.66-7.17-7.44-.37-1.1-.59-2.31-.2-3.9.04-.16.2-.27.37-.24,2.99.56,4.28,2.27,4.96,4.84.88,2.11,1.74,4.25,2.41,6.5.07.21-.2.38-.37.24h0Z"/><path class="cls-1" d="M107.92,152.75c-1.67,0-3.48-.41-5.41-1.41-1.06-.56-1.48-1.87-.92-2.94.55-1.06,1.86-1.48,2.94-.92,5.36,2.8,8.79-1.75,9.17-2.28,3.29-4.88-.18-8.92-.33-9.09l-.23-.31c-4.33-7.19-1.26-12.98.97-15.04,5.35-5.52,12.41-3.53,15.39-1.7,1.02.63,1.34,1.97.71,3-.63,1.02-1.96,1.35-2.99.72h0c-.23-.14-5.74-3.37-10.07,1.1-.46.44-3.71,3.84-.37,9.53,2.01,2.42,4.54,8.28.5,14.27-1.47,2.12-4.87,5.08-9.37,5.08Z"/><path class="cls-1" d="M101.08,107.98c3.14,2.12,6.13,4.39,9.09,6.69,3.34,2.17,5.99,4.72,6.97,8.88.03.14-.05.28-.19.31-4.23-.75-6.92-3.42-9.2-6.69-2.39-2.89-4.76-5.8-6.97-8.88-.14-.19.11-.45.3-.31h0Z"/><path class="cls-1" d="M125.01,153.32c-3.14-1.41-6.64-2.53-9.29-4.53-.73-.91-1.35-1.96-1.53-3.6-.02-.17.1-.32.26-.35,3-.5,4.8.66,6.32,2.84,1.56,1.68,3.09,3.39,4.49,5.28.14.17-.06.43-.26.35h0Z"/><path class="cls-1" d="M81.14,202.13c-.69,0-1.41-.06-2.17-.18-1.19-.2-1.99-1.32-1.79-2.51.19-1.19,1.31-1.98,2.5-1.79,6.18,1.05,7.93-4.77,8-5.01,1.6-5.68-2.95-8.44-3.15-8.55l-.32-.23c-6.36-5.48-5.25-11.94-3.78-14.59,3.37-6.92,10.69-7.23,14.09-6.42,1.17.28,1.89,1.45,1.61,2.62-.28,1.17-1.47,1.88-2.61,1.61-.28-.06-6.51-1.4-9.22,4.2-.29.56-2.32,4.81,2.63,9.17,2.66,1.67,6.89,6.44,4.93,13.4-.9,3.07-4.24,8.29-10.73,8.29Z"/><path class="cls-1" d="M64.07,161.2c3.65,1.03,7.19,2.26,10.73,3.52,3.85,1.01,7.16,2.61,9.39,6.26.07.12.04.28-.09.36-4.25.61-7.64-1.09-10.83-3.48-3.17-2-6.33-4.03-9.39-6.26-.19-.13-.04-.47.19-.39h0Z"/><path class="cls-1" d="M100.97,196.8c-3.44-.36-7.08-.33-10.24-1.4-.97-.64-1.89-1.44-2.57-2.94-.07-.15,0-.33.14-.41,2.69-1.41,4.77-.87,6.89.73,2,1.11,4,2.26,5.92,3.61.18.12.08.43-.14.41h0Z"/><path class="cls-1" d="M91.97,176.05c-1.32,0-2.75-.25-4.29-.82-1.13-.43-1.69-1.68-1.27-2.81.43-1.13,1.69-1.7,2.81-1.27,5.65,2.14,8.52-2.79,8.83-3.36,2.59-5.08-1.01-8.62-1.43-9l-.25-.27c-5.16-6.61-2.81-12.74-.85-15.05,4.64-6.13,11.9-5.01,15.07-3.54,1.09.5,1.57,1.8,1.06,2.89-.5,1.09-1.79,1.56-2.88,1.07-.24-.11-6.1-2.65-9.86,2.31-.4.49-3.22,4.26.78,9.51,2.29,2.16,5.5,7.67,2.22,14.1-1.31,2.49-4.79,6.25-9.94,6.25Z"/><path class="cls-1" d="M81.04,132.35c3.37,1.72,6.61,3.62,9.83,5.55,3.58,1.75,6.51,3.96,7.99,7.98.05.13-.02.28-.15.33-4.29-.23-7.28-2.56-9.94-5.53-2.72-2.58-5.42-5.19-7.99-7.98-.16-.17.05-.46.26-.35h0Z"/><path class="cls-1" d="M110.26,174.49c-3.29-1.02-6.9-1.71-9.77-3.37-.83-.82-1.57-1.79-1.95-3.39-.04-.16.06-.33.22-.38,2.91-.86,4.85.08,6.62,2.06,1.75,1.48,3.48,2.99,5.1,4.7.16.15,0,.44-.22.38h0Z"/><path class="cls-1" d="M72.46,257.49c-1.04,0-1.97-.75-2.14-1.82-.2-1.19.6-2.31,1.79-2.51,5.97-.99,5.97-6.7,5.95-7.35-.31-5.69-5.2-6.94-5.76-7.06l-.35-.11c-7.79-3.13-8.83-9.6-8.3-12.59.94-7.63,7.78-10.3,11.26-10.63,1.17-.13,2.26.76,2.37,1.96.11,1.19-.76,2.26-1.95,2.37-.32.03-6.61.79-7.37,6.95-.1.62-.64,5.3,5.46,7.83,3.06.72,8.61,3.87,9,11.08.15,3.54-1.66,10.52-9.58,11.84-.12.02-.24.03-.36.03Z"/><path class="cls-1" d="M91.97,245.48c-3.37.78-6.8,1.98-10.14,1.99-.56-.08-3.68-1.3-3.39-2.39,1.12-1.2,2.25-1.67,3.38-1.97,3.34-.01,6.78,1.17,10.15,1.93.21.06.21.38,0,.44h0Z"/><path class="cls-1" d="M72.88,229.37c-.15,0-.3,0-.45,0-1.2-.04-2.15-1.04-2.11-2.25.04-1.18,1.01-2.11,2.18-2.11.11,0,.25,0,.37,0,5.78,0,6.86-5.42,6.96-6.04.81-5.65-3.75-7.82-4.27-8.05l-.33-.18c-7.03-4.59-6.78-11.14-5.67-13.97,2.42-7.3,9.65-8.6,13.11-8.23,1.2.12,2.07,1.19,1.95,2.39-.12,1.19-1.2,2.06-2.38,1.94-.3-.03-6.63-.54-8.59,5.38-.22.59-1.67,5.08,3.82,8.75,2.86,1.3,7.69,5.47,6.66,12.63-.53,3.43-3.57,9.74-11.26,9.74Z"/><path class="cls-1" d="M52.26,190.94c5.54,1.03,11.26,1.67,16.54,3.41,1.68.86,3.3,1.89,4.69,3.62.12.14.04.37-.14.41-4.15,1.06-7.63-.11-11.1-2.07-3.41-1.56-6.81-3.16-10.14-4.96-.21-.11-.1-.46.14-.41h0Z"/><path class="cls-1" d="M93.54,221.36c-3.46.1-7.06.61-10.33-.03-1.05-.5-2.07-1.18-2.94-2.58-.09-.14-.05-.33.08-.43,2.48-1.76,4.62-1.49,6.93-.19,2.13.84,4.26,1.71,6.34,2.8.2.1.13.41-.08.43h0Z"/><path class="cls-1" d="M248.41,427.68c-.13,0-.26,0-.38-.01h0c-7.54,0-11.46-5.67-12.46-8.67-.38-1.14.23-2.37,1.37-2.75,1.15-.38,2.36.23,2.75,1.36.09.25,2.07,5.71,8.46,5.71.63.04,5.34-.02,7.1-6.37.34-3.13,2.78-9.02,9.9-10.29,3.5-.59,10.64.36,12.93,8.05.34,1.15-.32,2.36-1.47,2.71-1.16.34-2.36-.32-2.71-1.47-1.72-5.81-7.38-5.11-8.02-5-5.8,1.04-6.29,6.34-6.31,6.57l-.06.38c-2.06,7.79-7.95,9.79-11.1,9.79Z"/><path class="cls-1" d="M247.94,445.92c-.77-5.59-1.95-11.22-1.96-16.78.29-1.86.76-3.73,1.96-5.59.1-.16.34-.16.44,0,2.31,3.6,2.29,7.28,1.52,11.19-.41,3.73-.85,7.46-1.52,11.19-.04.23-.4.24-.44,0h0Z"/><path class="cls-1" d="M263.83,397.17c1.18,3.25,2.8,6.51,3.22,9.82-.01.57-.84,3.81-1.95,3.66-1.33-.97-1.94-2.03-2.37-3.11-.42-3.31.33-6.87.67-10.31.03-.22.35-.26.43-.05h0Z"/><path class="cls-1" d="M302.51,418.7c-5.34,0-9.17-3.82-10.63-6.27-.61-1.03-.27-2.37.77-2.98,1.03-.61,2.36-.28,2.98.76.16.25,3.53,5.65,9.43,3.7.61-.18,5.07-1.68,4.76-8.27-.66-3.08-.18-9.44,6.18-12.87,3.13-1.64,10.22-2.98,14.79,3.62.68.99.44,2.35-.55,3.03-.99.69-2.35.44-3.03-.55-3.44-4.98-8.6-2.54-9.18-2.25-5.02,2.71-4.06,7.67-3.94,8.22l.05.37c.49,8.37-4.92,12.08-7.85,12.87-1.33.44-2.6.63-3.79.63Z"/><path class="cls-1" d="M311.91,435.44c-2.47-5.07-5.36-10.04-7.1-15.33-.3-1.86-.44-3.78.12-5.93.04-.18.27-.26.41-.14,3.32,2.7,4.45,6.2,4.94,10.15.77,3.67,1.52,7.35,2.04,11.1.04.23-.31.35-.41.14h0Z"/><path class="cls-1" d="M311.79,384.16c2.13,2.71,4.7,5.33,6.12,8.32.22,1.14.28,2.36-.32,3.9-.06.16-.23.24-.39.19-2.89-.95-3.95-2.82-4.28-5.46-.6-2.21-1.16-4.44-1.52-6.76-.04-.22.25-.35.39-.19h0Z"/><path class="cls-1" d="M275.72,425.3c-6.65,0-10.4-5.39-11.47-8.45-.4-1.13.2-2.38,1.33-2.78,1.13-.4,2.37.19,2.78,1.32.1.28,2.35,6.24,8.53,5.47.63-.06,5.3-.66,6.28-7.18-.04-3.15,1.67-9.29,8.58-11.41,3.39-1,10.61-.92,13.8,6.44.48,1.1-.03,2.39-1.13,2.86-1.09.47-2.38-.03-2.86-1.13-2.4-5.55-7.94-4.18-8.57-4-5.45,1.68-5.48,6.72-5.46,7.29v.18s-.02.19-.02.19c-1.15,8.31-7.18,10.89-10.21,11.09-.54.07-1.06.1-1.56.1Z"/><path class="cls-1" d="M279.39,443.33c-1.43-5.45-3.29-10.9-3.97-16.42.07-1.89.31-3.79,1.27-5.79.08-.17.32-.2.43-.05,2.72,3.3,3.16,6.95,2.86,10.92.04,3.75.05,7.51-.17,11.29,0,.24-.37.29-.43.05h0Z"/><path class="cls-1" d="M289.3,393.03c1.56,3.07,3.57,6.15,4.38,9.36,0,1.16-.19,2.37-1.08,3.76-.09.14-.28.19-.42.11-2.65-1.49-3.32-3.54-3.13-6.19-.15-2.29-.27-4.58-.17-6.93,0-.22.32-.3.42-.11h0Z"/><path class="cls-1" d="M351.76,393.02c-3.63,0-6.81-1.7-8.45-3.1-.92-.78-1.02-2.15-.24-3.07.78-.91,2.15-1.02,3.06-.25.24.2,5.17,4.2,10.12.45.51-.36,4.25-3.23,1.83-9.37-1.62-2.7-3.22-8.87,1.68-14.18,2.44-2.57,8.71-6.13,15.17-1.36.97.71,1.17,2.08.46,3.04-.71.96-2.07,1.18-3.04.46-5.02-3.71-9.23.65-9.41.84-3.88,4.2-1.37,8.58-1.07,9.06l.17.33c3.18,7.76-.74,13.02-3.26,14.72-2.35,1.77-4.77,2.42-7.02,2.42Z"/><path class="cls-1" d="M369.7,405.22c-3.98-3.99-8.32-7.77-11.68-12.21-.89-1.66-1.64-3.43-1.81-5.64-.02-.18.18-.33.35-.26,4.01,1.49,6.22,4.43,7.96,8.01,1.92,3.22,3.81,6.47,5.53,9.84.11.21-.18.43-.35.26h0Z"/><path class="cls-1" d="M353,356.74c2.89,1.87,6.18,3.52,8.49,5.9.58,1.01,1.03,2.15.96,3.79,0,.17-.15.3-.31.3-3.04.04-4.65-1.39-5.81-3.78-1.28-1.9-2.54-3.83-3.63-5.91-.11-.19.12-.42.31-.3h0Z"/><path class="cls-1" d="M328.48,407.96c-4.61,0-8.29-2.88-9.89-4.91-.74-.95-.58-2.31.36-3.06.94-.74,2.3-.59,3.05.35.17.22,4.24,5.12,9.84,2.42.57-.26,4.8-2.34,3.62-8.83-1.05-2.96-1.42-9.33,4.43-13.57,2.89-2.04,9.74-4.31,15.14,1.63.81.89.74,2.27-.14,3.07-.89.81-2.27.74-3.07-.15-4.19-4.6-9.17-1.17-9.38-1.02-4.78,3.46-2.91,8.45-2.83,8.66l.11.37c1.6,8.24-3.27,12.62-6.07,13.79-1.8.87-3.53,1.22-5.15,1.22Z"/><path class="cls-1" d="M341.48,423.21c-3.12-4.7-6.64-9.25-9.07-14.25-.55-1.81-.94-3.69-.67-5.89.02-.18.24-.29.39-.19,3.64,2.24,5.23,5.56,6.24,9.41,1.25,3.54,2.48,7.09,3.5,10.73.07.23-.26.39-.39.19h0Z"/><path class="cls-1" d="M334.58,372.4c2.47,2.4,5.37,4.66,7.17,7.44.37,1.1.59,2.31.2,3.9-.04.16-.2.27-.37.24-2.99-.56-4.28-2.27-4.96-4.84-.88-2.11-1.74-4.25-2.41-6.5-.07-.21.2-.38.37-.24h0Z"/><path class="cls-1" d="M372.2,374.15c-2.87,0-5.45-.97-6.97-1.91-1.02-.63-1.34-1.97-.71-3,.63-1.02,1.97-1.34,2.99-.71.26.16,5.73,3.36,10.07-1.11.45-.44,3.7-3.84.37-9.53-2.01-2.42-4.54-8.27-.51-14.27,2.01-2.91,7.66-7.39,14.78-3.67,1.06.56,1.48,1.87.92,2.94s-1.87,1.48-2.94.92c-5.35-2.8-8.8,1.75-9.17,2.28-3.18,4.73-.03,8.67.34,9.11l.22.3c4.33,7.19,1.26,12.98-.97,15.04-2.63,2.71-5.66,3.61-8.43,3.61Z"/><path class="cls-1" d="M393.66,383.32c-3.14-2.12-6.13-4.39-9.09-6.69-3.34-2.17-5.99-4.72-6.97-8.88-.03-.14.05-.28.19-.31,4.23.75,6.92,3.42,9.2,6.69,2.39,2.89,4.76,5.8,6.97,8.88.14.19-.11.45-.3.31h0Z"/><path class="cls-1" d="M369.73,337.97c3.14,1.41,6.64,2.53,9.29,4.53.73.91,1.35,1.96,1.53,3.6.02.17-.1.32-.26.35-3,.5-4.8-.66-6.32-2.84-1.56-1.68-3.09-3.39-4.49-5.28-.14-.17.06-.43.26-.35h0Z"/><path class="cls-1" d="M403.09,328.77c-1.11,0-2.1-.13-2.88-.31-1.17-.28-1.89-1.45-1.61-2.62.28-1.17,1.46-1.88,2.61-1.61.27.06,6.5,1.4,9.22-4.2.3-.56,2.32-4.81-2.63-9.17-2.66-1.67-6.89-6.44-4.93-13.4,1-3.39,4.98-9.42,12.9-8.1,1.19.2,1.99,1.32,1.79,2.51-.2,1.19-1.31,1.96-2.5,1.79-6.15-1.02-7.93,4.77-8,5.01-1.6,5.68,2.95,8.44,3.15,8.55l.32.23c6.36,5.48,5.25,11.94,3.77,14.59-2.58,5.32-7.52,6.74-11.2,6.74Z"/><path class="cls-1" d="M430.67,330.1c-3.65-1.03-7.19-2.26-10.73-3.52-3.85-1.01-7.16-2.61-9.39-6.26-.07-.12-.04-.28.09-.36,4.25-.61,7.64,1.09,10.83,3.48,3.17,2,6.33,4.03,9.39,6.26.19.13.04.47-.19.39h0Z"/><path class="cls-1" d="M393.77,294.49c3.44.36,7.08.33,10.24,1.4.97.64,1.89,1.44,2.57,2.94.07.15,0,.33-.14.41-2.69,1.41-4.77.87-6.89-.73-2-1.11-4-2.26-5.92-3.61-.18-.12-.08-.43.14-.41h0Z"/><path class="cls-1" d="M389.7,352.52c-2.23,0-4.25-.55-5.56-1.15-1.09-.5-1.57-1.8-1.06-2.89.5-1.09,1.79-1.57,2.88-1.07.29.13,6.12,2.63,9.86-2.31.4-.49,3.21-4.26-.79-9.51-2.29-2.16-5.5-7.67-2.21-14.1,1.65-3.13,6.73-8.25,14.23-5.43,1.13.43,1.69,1.68,1.27,2.81-.43,1.13-1.69,1.69-2.81,1.27-5.64-2.13-8.52,2.79-8.83,3.36-2.59,5.08,1.01,8.62,1.43,9l.25.27c5.17,6.61,2.82,12.74.85,15.05-2.72,3.6-6.35,4.69-9.52,4.69Z"/><path class="cls-1" d="M413.7,358.94c-3.37-1.72-6.61-3.62-9.83-5.55-3.58-1.75-6.51-3.96-7.99-7.98-.05-.13.02-.28.15-.33,4.29.23,7.28,2.56,9.94,5.53,2.72,2.58,5.42,5.19,7.99,7.98.16.17-.05.46-.26.35h0Z"/><path class="cls-1" d="M384.48,316.81c3.29,1.02,6.9,1.71,9.77,3.37.83.82,1.57,1.79,1.95,3.39.04.16-.06.33-.22.38-2.91.86-4.85-.08-6.62-2.06-1.75-1.48-3.48-2.99-5.1-4.7-.16-.15,0-.44.22-.38h0Z"/><path class="cls-1" d="M419.64,275.88c-1.11,0-2.06-.84-2.16-1.97-.11-1.19.76-2.26,1.95-2.37.32-.03,6.61-.79,7.37-6.95.1-.62.64-5.3-5.46-7.83-3.06-.72-8.61-3.87-9-11.08-.15-3.54,1.66-10.52,9.58-11.84,1.18-.18,2.31.6,2.5,1.79.2,1.19-.6,2.31-1.79,2.51-5.96.99-5.96,6.7-5.94,7.35.31,5.69,5.2,6.94,5.76,7.06l.35.11c7.79,3.13,8.83,9.6,8.3,12.59-.94,7.63-7.78,10.3-11.26,10.63-.07,0-.14.01-.21.01Z"/><path class="cls-1" d="M449.2,267.57c-5.64.08-11.37.56-16.89-.11-1.81-.52-3.61-1.21-5.31-2.63-.14-.11-.11-.36.05-.43,3.86-1.85,7.51-1.38,11.29-.14,3.65.86,7.3,1.76,10.91,2.88.23.06.19.43-.05.43h0Z"/><path class="cls-1" d="M413.17,302.8c-.39,0-.77-.02-1.1-.05-1.2-.12-2.07-1.19-1.95-2.39.12-1.19,1.23-2.05,2.38-1.94.34.03,6.63.52,8.59-5.38.22-.59,1.66-5.07-3.82-8.75-2.86-1.3-7.68-5.47-6.66-12.63.54-3.5,3.68-10.02,11.71-9.74,1.2.04,2.15,1.04,2.11,2.25-.04,1.2-.86,2.14-2.25,2.11-6.15-.23-7.16,5.4-7.27,6.04-.81,5.65,3.74,7.83,4.26,8.05l.33.18c7.02,4.59,6.79,11.14,5.68,13.97-2.18,6.6-8.29,8.28-12.02,8.28Z"/><path class="cls-1" d="M442.48,300.35c-5.55-1.03-11.26-1.67-16.54-3.41-1.68-.86-3.3-1.89-4.69-3.62-.12-.14-.04-.37.14-.41,4.15-1.06,7.63.11,11.1,2.07,3.41,1.56,6.81,3.16,10.14,4.96.21.11.1.46-.14.41h0Z"/><path class="cls-1" d="M401.2,269.94c3.46-.1,7.06-.61,10.33.03,1.05.5,2.07,1.18,2.94,2.58.09.14.05.33-.08.43-2.48,1.76-4.62,1.49-6.93.19-2.13-.84-4.26-1.71-6.34-2.8-.2-.1-.13-.41.08-.43h0Z"/><path class="cls-1" d="M247.84,427.74c-.43,0-.87-.02-1.32-.06-3.12.02-9.19-1.84-11.29-9.79l-.06-.38c-.05-.55-.69-5.56-6.34-6.57-.59-.08-6.26-.8-7.98,5.01-.34,1.15-1.55,1.81-2.71,1.47-1.15-.34-1.81-1.55-1.47-2.71,2.28-7.69,9.44-8.64,12.9-8.06,7.14,1.28,9.58,7.17,9.92,10.3,1.82,6.58,6.93,6.39,6.98,6.38h.18s.18,0,.18,0c6,.67,7.86-4.6,8.05-5.2.36-1.14,1.58-1.78,2.72-1.42,1.14.36,1.79,1.56,1.44,2.71-.92,3.01-4.39,8.32-11.19,8.32Z"/><path class="cls-1" d="M231.34,397.22c.34,3.44,1.09,7,.67,10.31-.15.55-1.77,3.48-2.8,3.06-1.05-1.27-1.37-2.45-1.52-3.6.42-3.31,2.03-6.57,3.22-9.82.08-.2.4-.16.43.05h0Z"/><path class="cls-1" d="M192.21,418.68c-1.22,0-2.52-.19-3.89-.64-2.82-.76-8.23-4.46-7.74-12.84l.06-.38c.12-.54,1.08-5.5-3.97-8.22-.54-.28-5.7-2.71-9.15,2.27-.68.99-2.04,1.24-3.03.55-.99-.68-1.23-2.04-.55-3.03,4.57-6.6,11.66-5.26,14.77-3.63,6.38,3.44,6.86,9.8,6.21,12.88-.31,6.59,4.15,8.09,4.67,8.25,6,1.97,9.38-3.44,9.52-3.68.63-1.02,1.97-1.36,2.98-.74,1.03.62,1.37,1.94.76,2.97-1.45,2.45-5.27,6.26-10.64,6.26Z"/><path class="cls-1" d="M182.42,435.3c1.01-5.55,1.64-11.27,3.38-16.55.86-1.68,1.89-3.3,3.61-4.7.14-.12.37-.04.41.14,1.06,4.14-.09,7.63-2.04,11.1-1.55,3.41-3.14,6.82-4.94,10.15-.11.21-.46.1-.41-.14h0Z"/><path class="cls-1" d="M183.34,384.35c-.75,3.38-1.15,6.99-2.58,10.01-.75.89-1.65,1.71-3.22,2.21-.16.05-.33-.03-.39-.19-1.09-2.84-.31-4.84,1.52-6.76,1.34-1.86,2.71-3.71,4.28-5.46.14-.17.43-.03.39.19h0Z"/><path class="cls-1" d="M218.94,425.29c-.52,0-1.05-.03-1.61-.1-2.91-.19-8.94-2.77-10.1-11.08l-.03-.19v-.2c.02-.55,0-5.6-5.49-7.29-.58-.16-6.12-1.54-8.53,4.01-.48,1.1-1.77,1.6-2.86,1.13-1.11-.48-1.61-1.76-1.13-2.86,3.19-7.37,10.4-7.44,13.78-6.45,6.93,2.13,8.64,8.27,8.6,11.42.98,6.52,5.65,7.13,6.19,7.17,6.37.74,8.53-5.2,8.62-5.46.4-1.13,1.64-1.73,2.78-1.33,1.14.4,1.73,1.64,1.33,2.78-1.08,3.06-4.81,8.44-11.55,8.44Z"/><path class="cls-1" d="M214.92,443.28c-.09-5.64-.59-11.37.08-16.89.51-1.82,1.2-3.61,2.62-5.32.11-.14.36-.12.43.05,1.85,3.86,1.4,7.5.17,11.29-.86,3.65-1.75,7.3-2.86,10.92-.06.23-.43.19-.43-.05h0Z"/><path class="cls-1" d="M205.87,393.13c-.08,3.46.24,7.08-.57,10.32-.56,1.02-1.29,2-2.73,2.8-.15.08-.33.03-.42-.11-1.62-2.57-1.25-4.69.17-6.93.95-2.09,1.93-4.16,3.13-6.19.11-.19.42-.11.42.11h0Z"/><path class="cls-1" d="M143.01,393c-2.28,0-4.74-.66-7.14-2.48-2.42-1.63-6.34-6.88-3.16-14.65l.18-.34c.29-.47,2.8-4.85-1.1-9.07-.42-.44-4.52-4.41-9.38-.82-.97.72-2.33.51-3.04-.46-.71-.97-.51-2.33.46-3.04,6.46-4.77,12.74-1.21,15.15,1.35,4.92,5.32,3.32,11.5,1.7,14.2-2.43,6.13,1.31,9,1.75,9.31,5.05,3.81,9.99-.22,10.2-.4.92-.76,2.29-.65,3.06.26.77.92.66,2.28-.25,3.06-1.63,1.39-4.79,3.08-8.42,3.08Z"/><path class="cls-1" d="M124.69,404.95c1.71-3.38,3.61-6.62,5.53-9.84,1.74-3.58,3.95-6.52,7.96-8.01.13-.05.28.02.33.15-.22,4.29-2.54,7.29-5.51,9.95-2.58,2.73-5.18,5.43-7.96,8.01-.17.16-.46-.05-.35-.26h0Z"/><path class="cls-1" d="M142.05,357.04c-1.8,2.94-3.36,6.26-5.68,8.63-1,.6-2.12,1.08-3.76,1.05-.17,0-.3-.14-.31-.3-.12-3.04,1.27-4.68,3.63-5.91,1.87-1.33,3.76-2.63,5.81-3.78.19-.11.42.11.31.3h0Z"/><path class="cls-1" d="M166.26,407.94c-1.65,0-3.42-.36-5.26-1.26-2.69-1.12-7.56-5.51-5.97-13.75l.11-.37c.19-.52,1.8-5.31-2.85-8.68-.5-.35-5.29-3.44-9.37,1.03-.81.89-2.18.96-3.07.14-.89-.81-.95-2.19-.14-3.07,5.41-5.93,12.26-3.67,15.12-1.64,5.87,4.26,5.5,10.62,4.45,13.59-1.18,6.49,3.04,8.57,3.53,8.79,5.76,2.79,9.75-2.16,9.92-2.37.74-.94,2.12-1.1,3.05-.36.95.74,1.11,2.11.36,3.06-1.6,2.02-5.26,4.89-9.88,4.89Z"/><path class="cls-1" d="M152.86,423.02c1.02-3.65,2.24-7.2,3.5-10.73,1.01-3.85,2.6-7.17,6.24-9.41.12-.07.28-.04.36.09.62,4.25-1.07,7.65-3.46,10.84-1.99,3.18-4.01,6.34-6.24,9.41-.13.19-.47.04-.39-.19h0Z"/><path class="cls-1" d="M160.52,372.64c-1.19,3.23-2.07,6.8-3.88,9.58-.86.79-1.87,1.48-3.49,1.77-.17.03-.33-.08-.37-.24-.71-2.96.34-4.84,2.41-6.5,1.57-1.67,3.17-3.32,4.96-4.84.16-.15.43.03.37.24h0Z"/><path class="cls-1" d="M122.58,374.14c-2.79,0-5.87-.92-8.55-3.68-2.14-1.98-5.21-7.77-.88-14.96l.23-.31c.36-.42,3.51-4.36.3-9.13-.35-.5-3.79-5.04-9.15-2.25-1.08.56-2.38.14-2.94-.92-.56-1.06-.15-2.38.92-2.94,7.12-3.72,12.77.76,14.77,3.65,4.05,6.01,1.52,11.87-.49,14.29-3.34,5.69-.09,9.09.3,9.47,4.41,4.54,9.92,1.31,10.14,1.17,1.01-.62,2.36-.29,2.99.73.62,1.02.31,2.35-.71,2.98-1.51.93-4.07,1.9-6.93,1.9Z"/><path class="cls-1" d="M100.78,383c3.48-4.44,6.69-9.21,10.68-13.09,1.54-1.09,3.21-2.05,5.38-2.49.18-.04.35.13.3.31-.98,4.16-3.63,6.72-6.97,8.88-2.96,2.3-5.95,4.58-9.09,6.69-.19.14-.45-.12-.3-.31h0Z"/><path class="cls-1" d="M125.27,338.32c-2.23,2.63-4.28,5.67-6.93,7.66-1.08.44-2.26.75-3.88.46-.17-.03-.28-.18-.26-.35.35-3.02,1.98-4.43,4.49-5.28,2.05-1.03,4.12-2.02,6.32-2.84.2-.08.4.18.26.35h0Z"/><path class="cls-1" d="M91.67,328.76c-3.69,0-8.65-1.43-11.28-6.84-1.42-2.55-2.52-9.01,3.83-14.49l.32-.23c.47-.29,4.7-3.05,3.14-8.58-.18-.58-2-5.97-7.99-4.99-1.18.19-2.31-.6-2.5-1.79s.6-2.31,1.79-2.51c7.92-1.32,11.89,4.71,12.89,8.08,1.97,6.98-2.26,11.75-4.93,13.42-4.95,4.36-2.92,8.61-2.67,9.09,2.8,5.75,8.99,4.34,9.26,4.28,1.15-.27,2.34.44,2.62,1.61.28,1.17-.44,2.34-1.61,2.62-.78.19-1.77.31-2.87.31Z"/><path class="cls-1" d="M63.88,329.7c4.69-3.13,9.23-6.66,14.23-9.1,1.8-.55,3.69-.95,5.89-.68.18.02.29.24.19.39-2.23,3.65-5.54,5.25-9.39,6.26-3.53,1.26-7.08,2.49-10.73,3.52-.23.07-.39-.26-.19-.39h0Z"/><path class="cls-1" d="M101.11,294.9c-2.93,1.8-5.84,4.05-8.98,5.11-1.16.09-2.38,0-3.83-.77-.15-.08-.21-.26-.14-.41,1.28-2.76,3.26-3.59,5.92-3.61,2.27-.33,4.54-.64,6.89-.73.22-.02.32.29.14.41h0Z"/><path class="cls-1" d="M105.07,352.52c-3.19,0-6.84-1.12-9.63-4.78-1.89-2.22-4.24-8.35.93-14.96l.27-.28c.41-.37,4.01-3.91,1.4-9.02-.29-.53-3.14-5.46-8.81-3.33-1.12.43-2.38-.14-2.81-1.27-.43-1.12.14-2.38,1.27-2.81,7.52-2.83,12.58,2.3,14.22,5.4,3.29,6.46.08,11.96-2.21,14.13-4,5.25-1.18,9.02-.84,9.43,3.83,5.04,9.68,2.5,9.93,2.38,1.09-.49,2.38,0,2.88,1.08s.02,2.37-1.06,2.88c-1.31.6-3.3,1.14-5.52,1.14Z"/><path class="cls-1" d="M80.78,358.59c3.99-3.99,7.75-8.34,12.18-11.7,1.66-.89,3.43-1.65,5.64-1.82.18-.02.33.18.26.35-1.48,4.02-4.41,6.23-7.99,7.98-3.22,1.93-6.46,3.83-9.83,5.55-.21.11-.43-.17-.26-.35h0Z"/><path class="cls-1" d="M110.48,317.18c-2.53,2.34-4.93,5.12-7.81,6.77-1.12.31-2.33.47-3.91,0-.16-.05-.26-.22-.22-.38.71-2.95,2.5-4.16,5.1-4.7,2.16-.77,4.33-1.51,6.62-2.06.21-.06.37.22.22.38h0Z"/><path class="cls-1" d="M75.1,275.88c-.07,0-.14,0-.21-.01-3.48-.33-10.32-3-11.27-10.75-.52-2.87.53-9.34,8.32-12.47l.37-.11c.54-.12,5.43-1.37,5.75-7.1.02-.61.02-6.31-5.95-7.31-1.19-.2-1.99-1.32-1.79-2.51.2-1.19,1.33-1.98,2.5-1.79,7.92,1.32,9.73,8.3,9.58,11.81-.39,7.24-5.94,10.39-9,11.11-6.31,2.62-5.49,7.66-5.48,7.71.78,6.3,7.12,7.04,7.39,7.07,1.19.13,2.06,1.19,1.94,2.38-.11,1.12-1.05,1.96-2.16,1.96Z"/><path class="cls-1" d="M81.57,302.8c-3.72,0-9.84-1.69-12.06-8.4-1.07-2.71-1.31-9.27,5.71-13.85l.34-.18c.51-.22,5.06-2.4,4.25-8.09-.1-.6-1.16-6.25-7.26-6-.02,0-.05,0-.07,0-1.17,0-2.14-.93-2.18-2.11-.04-1.2.9-2.21,2.11-2.25,8.01-.27,11.16,6.24,11.7,9.71,1.03,7.18-3.79,11.35-6.66,12.65-5.48,3.67-4.03,8.15-3.85,8.66,2.01,6.07,8.33,5.5,8.61,5.47,1.17-.13,2.27.75,2.39,1.94.12,1.2-.75,2.27-1.95,2.39-.33.03-.7.05-1.1.05Z"/><path class="cls-1" d="M52.12,299.94c5.06-2.48,10.03-5.38,15.31-7.13,1.86-.31,3.78-.45,5.93.1.18.04.26.27.14.41-2.7,3.32-6.19,4.47-10.14,4.96-3.67.78-7.35,1.53-11.1,2.07-.23.04-.35-.31-.14-.41h0Z"/><path class="cls-1" d="M93.63,270.36c-3.16,1.4-6.3,3.24-9.58,3.88-.57.03-3.86-.58-3.78-1.7.88-1.39,1.89-2.07,2.94-2.57,3.27-.64,6.88-.13,10.33-.03.22.01.28.33.08.43h0Z"/></g></svg>