<?xml version="1.0" encoding="UTF-8"?><svg id="Layer_1" xmlns="http://www.w3.org/2000/svg" viewBox="0 0 500 500"><defs><style>.cls-1{fill:#e4dac7;stroke-width:0px;}</style></defs><path class="cls-1" d="M249.99,480.03c-30.95-151.43-31.2-308.66,0-460.07,31.23,151.4,30.98,308.64,0,460.07h0Z"/><path class="cls-1" d="M7.58,250c159.79-30.97,325.07-31.21,484.84,0-159.77,31.22-325.04,30.98-484.84,0h0Z"/><path class="cls-1" d="M421.42,412.66C287.18,327.98,170.01,217.12,78.58,87.34c134.39,84.48,251.23,195.71,342.84,325.32h0Z"/><path class="cls-1" d="M78.58,412.66c91.6-129.6,208.44-240.84,342.83-325.32-91.41,129.78-208.6,240.64-342.83,325.32h0Z"/></svg>