<?xml version="1.0" encoding="UTF-8"?><svg id="Layer_1" xmlns="http://www.w3.org/2000/svg" viewBox="0 0 134.76 500"><defs><style>.cls-1{fill:#e4dac7;stroke-width:0px;}</style></defs><path class="cls-1" d="M68.64,487.52c-1.02,0-2.04-.41-2.78-1.23-11.73-12.91-11.38-23.71-11.17-25.87V153.48c0-2.07,1.68-3.75,3.75-3.75s3.75,1.68,3.75,3.75v307.15c0,.19-.01.39-.04.58-.04.3-.98,8.77,9.27,20.04,1.39,1.53,1.28,3.9-.25,5.3-.72.65-1.62.97-2.52.97Z"/><path class="cls-1" d="M68.64,487.52c-.9,0-1.81-.32-2.52-.97-1.53-1.4-1.64-3.76-.25-5.3,10.25-11.27,9.31-19.74,9.26-20.09-.02-.16-.04-.37-.04-.53V153.48c0-2.07,1.68-3.75,3.75-3.75s3.75,1.68,3.75,3.75v306.95c.21,2.16.56,12.96-11.17,25.87-.74.81-1.76,1.23-2.78,1.23Z"/><path class="cls-1" d="M68.64,57.11c-11.86,0-21.51-9.33-21.51-20.8s9.65-20.79,21.51-20.79,21.51,9.33,21.51,20.79-9.65,20.8-21.51,20.8ZM68.64,23.02c-7.73,0-14.01,5.96-14.01,13.3s6.28,13.3,14.01,13.3,14.01-5.96,14.01-13.3-6.28-13.3-14.01-13.3Z"/><path class="cls-1" d="M68.64,41.88c-3.11,0-5.64-2.5-5.64-5.57s2.53-5.57,5.64-5.57,5.64,2.5,5.64,5.57-2.53,5.57-5.64,5.57ZM68.64,34.38c-1.03,0-1.86.87-1.86,1.93s.83,1.93,1.86,1.93,1.86-.87,1.86-1.93-.83-1.93-1.86-1.93Z"/><path class="cls-1" d="M68.64,159.06c-11.86,0-21.51-9.33-21.51-20.79s9.65-20.79,21.51-20.79,21.51,9.33,21.51,20.79-9.65,20.79-21.51,20.79ZM68.64,124.97c-7.73,0-14.01,5.96-14.01,13.3s6.28,13.3,14.01,13.3,14.01-5.96,14.01-13.3-6.28-13.3-14.01-13.3Z"/><path class="cls-1" d="M58.45,127.07c-2.07,0-3.75-1.68-3.75-3.75V53.36c0-2.07,1.68-3.75,3.75-3.75s3.75,1.68,3.75,3.75v69.97c0,2.07-1.68,3.75-3.75,3.75Z"/><path class="cls-1" d="M78.92,127.07c-2.07,0-3.75-1.68-3.75-3.75V53.36c0-2.07,1.68-3.75,3.75-3.75s3.75,1.68,3.75,3.75v69.97c0,2.07-1.68,3.75-3.75,3.75Z"/><path class="cls-1" d="M49.69,144.95H14.26c-2.07,0-3.75-1.68-3.75-3.75v-6.95c0-2.07,1.68-3.75,3.75-3.75h37.15c2.07,0,3.75,1.68,3.75,3.75s-1.55,3.62-3.52,3.74c1.08.66,1.81,1.85,1.81,3.21,0,2.07-1.68,3.75-3.75,3.75Z"/><path class="cls-1" d="M123.55,144.95h-35.44c-2.07,0-3.75-1.68-3.75-3.75,0-1.36.72-2.55,1.81-3.21-1.96-.12-3.52-1.75-3.52-3.74s1.68-3.75,3.75-3.75h37.15c2.07,0,3.75,1.68,3.75,3.75v6.95c0,2.07-1.68,3.75-3.75,3.75Z"/><path class="cls-1" d="M68.64,480.03c-1.04,0-1.87-.84-1.87-1.87V155.31c0-1.04.84-1.87,1.87-1.87s1.87.84,1.87,1.87v322.85c0,1.04-.84,1.87-1.87,1.87Z"/><path class="cls-1" d="M78.92,108.37h-20.54c-1.04,0-1.87-.84-1.87-1.87s.84-1.87,1.87-1.87h20.54c1.04,0,1.87.84,1.87,1.87s-.84,1.87-1.87,1.87Z"/><path class="cls-1" d="M78.92,95.39h-20.54c-1.04,0-1.87-.84-1.87-1.87s.84-1.87,1.87-1.87h20.54c1.04,0,1.87.84,1.87,1.87s-.84,1.87-1.87,1.87Z"/><path class="cls-1" d="M78.92,82.07h-20.54c-1.04,0-1.87-.84-1.87-1.87s.84-1.87,1.87-1.87h20.54c1.04,0,1.87.84,1.87,1.87s-.84,1.87-1.87,1.87Z"/><path class="cls-1" d="M78.92,68.74h-20.54c-1.04,0-1.87-.84-1.87-1.87s.84-1.87,1.87-1.87h20.54c1.04,0,1.87.84,1.87,1.87s-.84,1.87-1.87,1.87Z"/><path class="cls-1" d="M68.9,143.83c-3.11,0-5.65-2.5-5.65-5.57s2.53-5.57,5.65-5.57,5.64,2.5,5.64,5.57-2.53,5.57-5.64,5.57ZM68.9,136.33c-1.03,0-1.86.87-1.86,1.93s.83,1.93,1.86,1.93,1.85-.86,1.85-1.93-.83-1.93-1.85-1.93Z"/></svg>